<svg width="109" height="33" viewBox="0 0 109 33" fill="none" xmlns="http://www.w3.org/2000/svg">
<g clip-path="url(#clip0_3001_1212)">
<path fill-rule="evenodd" clip-rule="evenodd" d="M13.5528 0.967773L9.06519 8.08564L17.9455 22.2051H26.7926L13.5528 0.967773Z" fill="#D8D8D8"/>
<path fill-rule="evenodd" clip-rule="evenodd" d="M13.5528 0.967773L9.06519 8.08564L17.9455 22.2051H26.7926L13.5528 0.967773Z" fill="url(#paint0_linear_3001_1212)"/>
<path fill-rule="evenodd" clip-rule="evenodd" d="M18.0287 8.14644L13.54 15.1992L9.06519 8.08457L13.5528 0.967773L18.0287 8.14644Z" fill="#F4F3F3"/>
<path fill-rule="evenodd" clip-rule="evenodd" d="M18.0287 25.8838L13.54 32.9366L9.06519 25.822L13.5528 18.7041L18.0287 25.8838Z" fill="url(#paint1_linear_3001_1212)"/>
<path fill-rule="evenodd" clip-rule="evenodd" d="M0.356323 22.2044H9.06481L13.5236 15.1847L9.06481 8.08496L0.356323 22.2044Z" fill="url(#paint2_linear_3001_1212)"/>
<path d="M43.8907 8.15509H46.9753V20.1146H43.8918V18.7034C43.0297 19.7796 41.7387 20.4495 39.9931 20.4495C36.8136 20.4495 34.1825 17.6975 34.1825 14.1348C34.1825 10.57 36.8125 7.81909 39.9931 7.81909C41.7387 7.81909 43.0297 8.48895 43.8907 9.56522V8.15509ZM40.5672 17.5076C42.4802 17.5076 43.8907 16.1444 43.8907 14.1348C43.8907 12.1252 42.4802 10.762 40.5672 10.762C38.6786 10.762 37.2671 12.1252 37.2671 14.1348C37.2671 16.1444 38.6776 17.5076 40.5672 17.5076ZM57.5189 7.82015C60.723 7.82015 63.353 10.5711 63.353 14.1348C63.353 17.6996 60.723 20.4495 57.5189 20.4495C55.7723 20.4495 54.5059 19.8042 53.6448 18.7044V24.8996H50.5603V8.15509H53.6438V9.56522C54.5059 8.46442 55.7723 7.81909 57.5189 7.81909V7.82015ZM56.9449 17.5076C58.858 17.5076 60.2685 16.1444 60.2685 14.1348C60.2685 12.1252 58.858 10.762 56.9449 10.762C55.0564 10.762 53.6448 12.1252 53.6448 14.1348C53.6448 16.1444 55.0553 17.5076 56.9449 17.5076ZM66.4323 20.01V8.05055H69.5168V20.0111H66.4333L66.4323 20.01ZM92.1277 6.67562V3.59082H95.2123V6.67562H92.1288H92.1277ZM66.4323 6.67562V3.59082H69.5168V6.67562H66.4333H66.4323ZM86.4708 8.15509H89.7463L85.9458 20.1146H83.0053L80.8052 12.8666L78.6052 20.1146H75.6625L71.8609 8.15509H75.1365L77.169 15.4991L79.3456 8.15509H82.2627L84.4393 15.5226L86.4708 8.15509ZM92.1277 20.01V8.05055H95.2123V20.0111H92.1288L92.1277 20.01ZM102.654 17.2207H107.963V20.1156H98.5167V18.058L103.562 11.05H98.7557V8.15402H107.723V10.2106L102.653 17.2196L102.654 17.2207Z" fill="white"/>
</g>
<defs>
<linearGradient id="paint0_linear_3001_1212" x1="22.2362" y1="22.2051" x2="17.9432" y2="10.574" gradientUnits="userSpaceOnUse">
<stop stop-color="white"/>
<stop offset="1" stop-color="#737373"/>
</linearGradient>
<linearGradient id="paint1_linear_3001_1212" x1="13.5469" y1="18.7041" x2="13.5469" y2="32.9366" gradientUnits="userSpaceOnUse">
<stop stop-color="#656363"/>
<stop offset="0.75" stop-color="white"/>
</linearGradient>
<linearGradient id="paint2_linear_3001_1212" x1="5.27826" y1="22.2044" x2="11.9954" y2="11.7376" gradientUnits="userSpaceOnUse">
<stop stop-color="white"/>
<stop offset="1" stop-color="#737373"/>
</linearGradient>
<clipPath id="clip0_3001_1212">
<rect width="107.762" height="32" fill="white" transform="translate(0.358521 0.967773)"/>
</clipPath>
</defs>
</svg>
