<svg xmlns="http://www.w3.org/2000/svg" viewBox="0 0 1280 845"><g fill="none" stroke-width="2"><path stroke="#fc8552" d="M535.89 241.43q-.15 4.81-.17 9.49c-.01 1.81.77 3.36.96 5.22 1.8 16.88 9.44 33.3 20.07 46.28 12.84 15.69 31.53 29.05 50.73 33.96q.41.1.77-.11l.25-.15q.6-.36.6.34 0 2.49 1.29 3.14" vector-effect="non-scaling-stroke"/><path stroke="#fb7964" d="M605.56 373.62q-1.57-.57-.32-1.6a1.26 1.26 0 0 0-.5-2.19c-39.49-9.84-74.08-35.55-92.22-72.7-.69-1.43-.54-2.61-.54-4.14q-.01-.49-.5-.49h-.46q-.6 0-.84-.56-5.19-12.2-7.81-25.19c-.42-2.07.05-4.81-1.17-7.07q-.24-.44-.2-.93c.45-5.15-3-16.9.06-20.69q.36-.45-.21-.52l-.35-.05q-.66-.09.02-.22.43-.08.48-.28" vector-effect="non-scaling-stroke"/><path stroke="#fa6672" d="M599.54 388.5c-47.85-11.76-88.66-43.5-108.63-88.92q-12.52-28.49-11.4-59.53" vector-effect="non-scaling-stroke"/><path stroke="#fd9040" d="M563.74 254.59q-.7.77 1.48 2.39.5.37-.01.73-1.16.82-.77 2.3 8.35 31.07 36.75 46.74.31.18.63-.01l.37-.22a.21.2-15.5 0 1 .31.17v.36q0 .32.32.28.86-.1 1.55-.6" vector-effect="non-scaling-stroke"/><path stroke="#f95b80" d="M593.36 399.51q-.46-.96-.3-1.84.07-.43-.35-.55c-62.91-17.22-113.54-66.99-122.94-132.86q-1.07-7.54-1.02-17.61a2.14 2.12 31.2 0 0-.25-1q-.79-1.49.71-2.51M526.55 445.11l-.27-.38q-.22-.32.16-.25.51.1 1.04-.19a.41.41 0 0 0-.36-.73c-4.02 1.76-5.3-.52-8.26-2.06q-19.84-10.31-39.55-25.55-3.86-2.98-6.34-5.31c-2.41-2.27-5.43-4.35-8.24-7.12q-6.77-6.67-13.37-13.51c-1.34-1.39-2.08-3.58-3.57-4.82-2.65-2.19-3.88-4.34-5.71-6.6-14.94-18.5-26.29-39.47-34.8-61.63q-.7-1.82-1.83-2.42-.32-.17-.2-.51l.57-1.62q.12-.34-.24-.39l-.52-.07a.2.2 0 0 1-.14-.31q.93-1.39.03-1.69" vector-effect="non-scaling-stroke"/><path stroke="#fb7964" d="M777.71 236.88q-3.59.79 2.74.6.55-.01.54.53 0 .64.62.81.51.14.52.67.17 12.37-.63 18.51c-6.38 49.06-40.44 88.45-86.27 105.46q-6.48 2.41-16.98 5.52-.51.15-.45.68.11 1.08-.24 1.36" vector-effect="non-scaling-stroke"/><path stroke="#fc8552" d="m673.56 346.26.17-5.47q.03-.87.25-.05c.22.78-.07 2.03.09 3.16a.03.03 0 0 0 .06.01l.39-1.4a.3.29 29.8 0 1 .49-.13l.28.28q.32.33.76.2 22.37-6.45 40.23-21.37c4.34-3.62 8.57-6.11 12.08-11.15 1.79-2.57 4.2-4.46 5.99-7.11q3.58-5.27 3.84-5.63c8.48-11.69 13.67-27.68 15.55-41.6q.51-3.74.18-7.56a1.91 1.85-35.3 0 1 .18-.96q1.95-4.06-1.44-7.36" vector-effect="non-scaling-stroke"/><path stroke="#fa6672" d="M809.3 241.4q-.67.99.36 1.72.43.31.43.85-.08 24.74-8.24 48.08-.16.45-.64.45h-.7q-.51 0-.51.51c0 1.86.22 3.45-.51 5.22-19.81 47.91-61.59 81.41-111.31 94.56q-.37.1-.66-.16-.28-.27-.5.06-.12.18-.33.31" vector-effect="non-scaling-stroke"/><path stroke="#fd9040" d="m680.6 303.9.69.37q.46.25.46-.28v-.43q0-.4.4-.39 2.09.05 4.62-1.67 20.8-14.1 28.5-36.89c.74-2.18.55-4.29 2.65-6.4a.42.42 0 0 0-.17-.69l-1.15-.38" vector-effect="non-scaling-stroke"/><path stroke="#f95b80" d="M817.12 244.1q-1.92 66.04-48.72 111.17-.4.39-.4.94v.79q0 .5-.5.5h-.74q-.51 0-.9.35-32.14 28.93-73.86 40.49-.44.12-.8-.17-.22-.18-.48-.23-.59-.14-.26.37.76 1.15-.01 1.01M871.65 292.76q-1.14.26-.93 1.13.07.31.37.17.14-.07.16.18a.24.24 0 0 1-.24.26h-.28q-.62-.02-.74.59-.65 3.44-1.19 5.23-11.85 39.42-37.44 71.54c-4.72 5.93-9.85 10.83-14.68 16.43-2.77 3.22-5.94 5.64-8.98 8.56-18.21 17.49-40.49 31.26-64 41.89a.33.32 48.5 0 0-.03.58l.32.19q.17.1 0 .2-.8.41-1.2-.17a.74.74 0 0 0-1.05-.17q-.51.39-.33 1.01M723.4 38.62c-1.31.28-2.65.66-3.95.22q-19.5-6.5-35.22-8.47-4.02-.5-5.8-1.24-.46-.19-.95-.13-3.09.34-6.03-.46c-3.52-.95-6.69-.23-10.18-.85-10.4-1.82-22.91-.68-33.57-.7-3.47-.01-6.96 1.21-10.8 1.08-3.58-.12-6.41 1.26-10.16.88a1.78 1.76 35.3 0 0-.97.16q-2.41 1.1-5.05.88-.52-.04-.99.17c-2.23.99-5.11.88-6.8 1.25q-15.45 3.3-30.6 7.87-1.12.34-2.9 2.34-.32.35-.41-.12l-.17-.83M746.82 113.25q-.3-.15-.35-.69-.09-.96-.21-.06l-.06.44q0 .01-.1.04-.05.02-.1.02-.09 0-.08-.18l.1-1.68q.03-.51-.39-.77c-62.81-39.23-141.6-40.64-205-1.43-1.32.82-2.58 2.48-2.65 4.04a.12.11-46.3 0 1-.23.02q0-.13.01-.26.04-.56-.35-.03-.16.22-.41.27" vector-effect="non-scaling-stroke"/><path stroke="#fa6672" d="M744.85 126.84Q692.42 89.78 628.74 94.3q-48.02 3.4-88.05 31.5-.4.29-.6.74l-.77 1.78" vector-effect="non-scaling-stroke"/><path stroke="#fb7964" d="M737.73 148.58q-3.67-2.69-7.21-5.33c-27.31-20.34-59.8-29.09-93.66-28.73-2.28.03-4.72.65-7.16.75-28.26 1.07-57.64 13.4-79.65 30.28q-2.32 1.78-4.2 2.44" vector-effect="non-scaling-stroke"/><path stroke="#fc8552" d="M723.14 172.08c-5.79-3.83-11.43-8.96-16.69-12.16q-32.81-19.91-71.89-18.31c-2.08.09-3.87.76-5.88.86q-3.13.14-7.93 1.03-24.52 4.54-44.24 17.35-.5.33-.5.93.01 1.14-1.37.7-.47-.14-.85.16l-11.57 9.12a.88.88 0 0 1-.9.1l-1.15-.55" vector-effect="non-scaling-stroke"/><path stroke="#fd9040" d="m699.09 193.56-.55-1.16q-.1-.22-.27-.04-.11.13-.3.14-.26.01-.46-.16c-32.94-27.65-80.31-27.99-112.5 1.3" vector-effect="non-scaling-stroke"/></g><path fill="#f95975" d="M639.55 0h5.27q47.83 2.3 78.58 38.62c-1.31.28-2.65.66-3.95.22q-19.5-6.5-35.22-8.47-4.02-.5-5.8-1.24-.46-.19-.95-.13-3.09.34-6.03-.46c-3.52-.95-6.69-.23-10.18-.85-10.4-1.82-22.91-.68-33.57-.7-3.47-.01-6.96 1.21-10.8 1.08-3.58-.12-6.41 1.26-10.16.88a1.78 1.76 35.3 0 0-.97.16q-2.41 1.1-5.05.88-.52-.04-.99.17c-2.23.99-5.11.88-6.8 1.25q-15.45 3.3-30.6 7.87-1.12.34-2.9 2.34-.32.35-.41-.12l-.17-.83Q589.86 2.29 639.55 0Z"/><path fill="#f95d8a" d="M723.4 38.62q26.04 32.59 23.42 74.63-.3-.15-.35-.69-.09-.96-.21-.06l-.06.44q0 .01-.1.04-.05.02-.1.02-.09 0-.08-.18l.1-1.68q.03-.51-.39-.77c-62.81-39.23-141.6-40.64-205-1.43-1.32.82-2.58 2.48-2.65 4.04a.12.11-46.3 0 1-.23.02q0-.13.01-.26.04-.56-.35-.03-.16.22-.41.27-2.4-40.35 21.85-72.31l.17.83q.09.47.41.12 1.78-2 2.9-2.34 15.15-4.57 30.6-7.87c1.69-.37 4.57-.26 6.8-1.25q.47-.21.99-.17 2.64.22 5.05-.88a1.78 1.76 35.3 0 1 .97-.16c3.75.38 6.58-1 10.16-.88 3.84.13 7.33-1.09 10.8-1.08 10.66.02 23.17-1.12 33.57.7 3.49.62 6.66-.1 10.18.85q2.94.8 6.03.46.49-.06.95.13 1.78.74 5.8 1.24 15.72 1.97 35.22 8.47c1.3.44 2.64.06 3.95-.22Z"/><path fill="#f95975" d="m746.82 113.25-1.97 13.59Q692.42 89.78 628.74 94.3q-48.02 3.4-88.05 31.5-.4.29-.6.74l-.77 1.78-2.32-15.34q.25-.05.41-.27.39-.53.35.03-.01.13-.01.26a.12.11-46.3 0 0 .23-.02c.07-1.56 1.33-3.22 2.65-4.04 63.4-39.21 142.19-37.8 205 1.43q.42.26.39.77l-.1 1.68q-.01.18.08.18.05 0 .1-.02.1-.03.1-.04l.06-.44q.12-.9.21.06.05.54.35.69Z"/><path fill="#fa726e" d="M744.85 126.84q-2.03 10.5-7.12 21.74-3.67-2.69-7.21-5.33c-27.31-20.34-59.8-29.09-93.66-28.73-2.28.03-4.72.65-7.16.75-28.26 1.07-57.64 13.4-79.65 30.28q-2.32 1.78-4.2 2.44-4.25-9.53-6.53-19.67l.77-1.78q.2-.45.6-.74 40.03-28.1 88.05-31.5 63.68-4.52 116.11 32.54Z"/><path fill="#fb8059" d="M737.73 148.58q-5.5 12.41-14.59 23.5c-5.79-3.83-11.43-8.96-16.69-12.16q-32.81-19.91-71.89-18.31c-2.08.09-3.87.76-5.88.86q-3.13.14-7.93 1.03-24.52 4.54-44.24 17.35-.5.33-.5.93.01 1.14-1.37.7-.47-.14-.85.16l-11.57 9.12a.88.88 0 0 1-.9.1l-1.15-.55q-8.67-10.6-14.32-23.32 1.88-.66 4.2-2.44c22.01-16.88 51.39-29.21 79.65-30.28 2.44-.1 4.88-.72 7.16-.75 33.86-.36 66.35 8.39 93.66 28.73q3.54 2.64 7.21 5.33Z"/><path fill="#fc894a" d="M723.14 172.08q-10.38 12.59-24.05 21.48l-.55-1.16q-.1-.22-.27-.04-.11.13-.3.14-.26.01-.46-.16c-32.94-27.65-80.31-27.99-112.5 1.3q-14.29-9.22-24.84-22.33l1.15.55a.88.88 0 0 0 .9-.1l11.57-9.12q.38-.3.85-.16 1.38.44 1.37-.7 0-.6.5-.93 19.72-12.81 44.24-17.35 4.8-.89 7.93-1.03c2.01-.1 3.8-.77 5.88-.86q39.08-1.6 71.89 18.31c5.26 3.2 10.9 8.33 16.69 12.16Z"/><path fill="#fd9636" d="M699.09 193.56c-34.91 22.29-79.18 22.59-114.08.08 32.19-29.29 79.56-28.95 112.5-1.3q.2.17.46.16.19-.01.3-.14.17-.18.27.04l.55 1.16Z"/><path fill="#fb8059" d="M535.89 241.43q-.15 4.81-.17 9.49c-.01 1.81.77 3.36.96 5.22 1.8 16.88 9.44 33.3 20.07 46.28 12.84 15.69 31.53 29.05 50.73 33.96q.41.1.77-.11l.25-.15q.6-.36.6.34 0 2.49 1.29 3.14.41 17.13-4.83 34.02-1.57-.57-.32-1.6a1.26 1.26 0 0 0-.5-2.19c-39.49-9.84-74.08-35.55-92.22-72.7-.69-1.43-.54-2.61-.54-4.14q-.01-.49-.5-.49h-.46q-.6 0-.84-.56-5.19-12.2-7.81-25.19c-.42-2.07.05-4.81-1.17-7.07q-.24-.44-.2-.93c.45-5.15-3-16.9.06-20.69q.36-.45-.21-.52l-.35-.05q-.66-.09.02-.22.43-.08.48-.28 17.76-.79 34.89 4.44ZM777.71 236.88q-3.59.79 2.74.6.55-.01.54.53 0 .64.62.81.51.14.52.67.17 12.37-.63 18.51c-6.38 49.06-40.44 88.45-86.27 105.46q-6.48 2.41-16.98 5.52-.51.15-.45.68.11 1.08-.24 1.36-3.49-12.17-4-24.76l.17-5.47q.03-.87.25-.05c.22.78-.07 2.03.09 3.16a.03.03 0 0 0 .06.01l.39-1.4a.3.29 29.8 0 1 .49-.13l.28.28q.32.33.76.2 22.37-6.45 40.23-21.37c4.34-3.62 8.57-6.11 12.08-11.15 1.79-2.57 4.2-4.46 5.99-7.11q3.58-5.27 3.84-5.63c8.48-11.69 13.67-27.68 15.55-41.6q.51-3.74.18-7.56a1.91 1.85-35.3 0 1 .18-.96q1.95-4.06-1.44-7.36 12.77-3.19 25.05-3.24Z"/><path fill="#fa726e" d="M777.71 236.88q16.25-.14 31.59 4.52-.67.99.36 1.72.43.31.43.85-.08 24.74-8.24 48.08-.16.45-.64.45h-.7q-.51 0-.51.51c0 1.86.22 3.45-.51 5.22-19.81 47.91-61.59 81.41-111.31 94.56q-.37.1-.66-.16-.28-.27-.5.06-.12.18-.33.31-5.87-10.46-9.13-21.98.35-.28.24-1.36-.06-.53.45-.68 10.5-3.11 16.98-5.52c45.83-17.01 79.89-56.4 86.27-105.46q.8-6.14.63-18.51-.01-.53-.52-.67-.62-.17-.62-.81.01-.54-.54-.53-6.33.19-2.74-.6ZM501 236.99q-.05.2-.48.28-.68.13-.02.22l.35.05q.57.07.21.52c-3.06 3.79.39 15.54-.06 20.69q-.04.49.2.93c1.22 2.26.75 5 1.17 7.07q2.62 12.99 7.81 25.19.24.56.84.56h.46q.49 0 .5.49c0 1.53-.15 2.71.54 4.14 18.14 37.15 52.73 62.86 92.22 72.7a1.26 1.26 0 0 1 .5 2.19q-1.25 1.03.32 1.6l-6.02 14.88c-47.85-11.76-88.66-43.5-108.63-88.92q-12.52-28.49-11.4-59.53 11.2-2.76 21.49-3.06Z"/><path fill="#f95975" d="M479.51 240.05q-1.12 31.04 11.4 59.53c19.97 45.42 60.78 77.16 108.63 88.92l-6.18 11.01q-.46-.96-.3-1.84.07-.43-.35-.55c-62.91-17.22-113.54-66.99-122.94-132.86q-1.07-7.54-1.02-17.61a2.14 2.12 31.2 0 0-.25-1q-.79-1.49.71-2.51l10.3-3.09Z"/><path fill="#fc894a" d="M752.66 240.12q3.39 3.3 1.44 7.36a1.91 1.85-35.3 0 0-.18.96q.33 3.82-.18 7.56c-1.88 13.92-7.07 29.91-15.55 41.6q-.26.36-3.84 5.63c-1.79 2.65-4.2 4.54-5.99 7.11-3.51 5.04-7.74 7.53-12.08 11.15q-17.86 14.92-40.23 21.37-.44.13-.76-.2l-.28-.28a.3.29 29.8 0 0-.49.13l-.39 1.4a.03.03 0 0 1-.06-.01c-.16-1.13.13-2.38-.09-3.16q-.22-.82-.25.05l-.17 5.47q-.82-21.93 7.04-42.36l.69.37q.46.25.46-.28v-.43q0-.4.4-.39 2.09.05 4.62-1.67 20.8-14.1 28.5-36.89c.74-2.18.55-4.29 2.65-6.4a.42.42 0 0 0-.17-.69l-1.15-.38q16.78-12.15 36.06-17.02ZM535.89 241.43q14.88 4.52 27.85 13.16-.7.77 1.48 2.39.5.37-.01.73-1.16.82-.77 2.3 8.35 31.07 36.75 46.74.31.18.63-.01l.37-.22a.21.2-15.5 0 1 .31.17v.36q0 .32.32.28.86-.1 1.55-.6 5.54 15.78 6.02 32.87-1.29-.65-1.29-3.14 0-.7-.6-.34l-.25.15q-.36.21-.77.11c-19.2-4.91-37.89-18.27-50.73-33.96-10.63-12.98-18.27-29.4-20.07-46.28-.19-1.86-.97-3.41-.96-5.22q.02-4.68.17-9.49Z"/><path fill="#f95975" d="m809.3 241.4 7.82 2.7q-1.92 66.04-48.72 111.17-.4.39-.4.94v.79q0 .5-.5.5h-.74q-.51 0-.9.35-32.14 28.93-73.86 40.49-.44.12-.8-.17-.22-.18-.48-.23-.59-.14-.26.37.76 1.15-.01 1.01l-3.76-6.32q.21-.13.33-.31.22-.33.5-.06.29.26.66.16c49.72-13.15 91.5-46.65 111.31-94.56.73-1.77.51-3.36.51-5.22q0-.51.51-.51h.7q.48 0 .64-.45 8.16-23.34 8.24-48.08 0-.54-.43-.85-1.03-.73-.36-1.72Z"/><path fill="#f95d8a" d="M469.21 243.14q-1.5 1.02-.71 2.51a2.14 2.12 31.2 0 1 .25 1q-.05 10.07 1.02 17.61c9.4 65.87 60.03 115.64 122.94 132.86q.42.12.35.55-.16.88.3 1.84-24.31 36.08-66.81 45.6l-.27-.38q-.22-.32.16-.25.51.1 1.04-.19a.41.41 0 0 0-.36-.73c-4.02 1.76-5.3-.52-8.26-2.06q-19.84-10.31-39.55-25.55-3.86-2.98-6.34-5.31c-2.41-2.27-5.43-4.35-8.24-7.12q-6.77-6.67-13.37-13.51c-1.34-1.39-2.08-3.58-3.57-4.82-2.65-2.19-3.88-4.34-5.71-6.6-14.94-18.5-26.29-39.47-34.8-61.63q-.7-1.82-1.83-2.42-.32-.17-.2-.51l.57-1.62q.12-.34-.24-.39l-.52-.07a.2.2 0 0 1-.14-.31q.93-1.39.03-1.69 16.68-48.23 64.26-66.81ZM817.12 244.1q35.82 14.46 54.53 48.66-1.14.26-.93 1.13.07.31.37.17.14-.07.16.18a.24.24 0 0 1-.24.26h-.28q-.62-.02-.74.59-.65 3.44-1.19 5.23-11.85 39.42-37.44 71.54c-4.72 5.93-9.85 10.83-14.68 16.43-2.77 3.22-5.94 5.64-8.98 8.56-18.21 17.49-40.49 31.26-64 41.89a.33.32 48.5 0 0-.03.58l.32.19q.17.1 0 .2-.8.41-1.2-.17a.74.74 0 0 0-1.05-.17q-.51.39-.33 1.01-32.04-12.43-50.96-41.06.77.14.01-1.01-.33-.51.26-.37.26.05.48.23.36.29.8.17 41.72-11.56 73.86-40.49.39-.35.9-.35h.74q.5 0 .5-.5v-.79q0-.55.4-.94 46.8-45.13 48.72-111.17Z"/><path fill="#fd9636" d="M563.74 254.59q28.72 19.62 40.63 52.14-.69.5-1.55.6-.32.04-.32-.28v-.36a.21.2-15.5 0 0-.31-.17l-.37.22q-.32.19-.63.01-28.4-15.67-36.75-46.74-.39-1.48.77-2.3.51-.36.01-.73-2.18-1.62-1.48-2.39ZM716.6 257.14l1.15.38a.42.42 0 0 1 .17.69c-2.1 2.11-1.91 4.22-2.65 6.4q-7.7 22.79-28.5 36.89-2.53 1.72-4.62 1.67-.4-.01-.4.39v.43q0 .53-.46.28l-.69-.37q11.33-28.58 36-46.76Z"/><path fill="#f95975" d="M871.65 292.76c33.49 65.03-6.05 144.03-79.57 153.59q-25.81 3.36-50.67-5.97-.18-.62.33-1.01a.74.74 0 0 1 1.05.17q.4.58 1.2.17.17-.1 0-.2l-.32-.19a.33.32 48.5 0 1 .03-.58c23.51-10.63 45.79-24.4 64-41.89 3.04-2.92 6.21-5.34 8.98-8.56 4.83-5.6 9.96-10.5 14.68-16.43q25.59-32.12 37.44-71.54.54-1.79 1.19-5.23.12-.61.74-.59h.28a.24.24 0 0 0 .24-.26q-.02-.25-.16-.18-.3.14-.37-.17-.21-.87.93-1.13ZM404.95 309.95q.9.3-.03 1.69a.2.2 0 0 0 .14.31l.52.07q.36.05.24.39l-.57 1.62q-.12.34.2.51 1.13.6 1.83 2.42c8.51 22.16 19.86 43.13 34.8 61.63 1.83 2.26 3.06 4.41 5.71 6.6 1.49 1.24 2.23 3.43 3.57 4.82q6.6 6.84 13.37 13.51c2.81 2.77 5.83 4.85 8.24 7.12q2.48 2.33 6.34 5.31 19.71 15.24 39.55 25.55c2.96 1.54 4.24 3.82 8.26 2.06a.41.41 0 0 1 .36.73q-.53.29-1.04.19-.38-.07-.16.25l.27.38c-79.57 15.03-145.04-57.18-121.6-135.16Z"/><path fill="#283343" d="M0 723.92v-7.73C3.83 636.95 78.89 582.1 155.73 605.3q24.25 7.32 40.71 26.38a.26.26 0 0 0 .45-.18c-.23-6.53-3.02-23.15 7.18-23.21q14.33-.08 28.67.04c6.92.06 8 4.38 8 10.53q.02 104.19.01 208.39c0 10.29-10.93 7.94-17.5 8-12.49.12-23.68-15.96-26.57-26.6a.23.22-32.9 0 0-.39-.08c-27.2 33.58-81.48 37.91-118.91 23.7-45.47-17.26-75.39-60-77.38-108.35Zm120.064 74.19a78.02 76.33 90.1 0 0 76.466-77.887 78.02 76.33 90.1 0 0-76.194-78.153 78.02 76.33 90.1 0 0-76.466 77.887 78.02 76.33 90.1 0 0 76.194 78.153ZM319.82 720.94c-23.26-14.51-33.83-38.35-28.39-65.48 9.84-49.18 67.96-61.29 109.37-52.82 15.81 3.24 31.24 9 44.53 18.02q6.41 4.35 1.86 11.05-7.57 11.15-15.34 22.11c-4.03 5.67-7.69 4.46-12.99 1q-23.15-15.09-52.11-12.27c-10.46 1.01-21.71 4.13-27.73 12.81-4.64 6.68-5.48 15.62-1.08 22.58 4.58 7.26 15.24 11.76 23.74 14.14 42.34 11.81 102.82 22.3 99.75 81.16-2.22 42.68-43.05 65.39-81.19 66.81-31.81 1.19-62.57-7.27-88.89-25.23-5.22-3.56-8.11-7.35-4.01-13.23q7.72-11.03 15.47-22.03c5.09-7.22 11.73-.76 16.6 2.24q28.23 17.34 60.33 16.2c11.61-.41 27.06-6.23 33.44-16.45 4.3-6.87 4.95-16.55-.74-23.23-7.25-8.49-20.52-12.94-31-15.78-21.19-5.75-42.83-9.88-61.62-21.6ZM525.69 804.56c-58.49-59.1-40.77-158.37 34.52-193.31 40.08-18.59 96.18-15.62 126.89 20.38a.34.33-66.7 0 0 .59-.24q-.25-5.25-.22-10.64c.07-8.52.49-12.47 9.86-12.49q12.96-.02 25.91.01c7.24.02 8.25 4.59 8.25 10.96q.03 104.01 0 208.02c0 10.2-10.44 7.95-16.99 8.01-12.87.13-23.99-15.41-27.02-26.49q-.16-.55-.52-.12-7.33 8.68-11.99 11.87c-47.02 32.14-110.31 23.42-149.28-15.96Zm85.532-6.45a78.02 76.33 89.8 0 0 76.058-78.286 78.02 76.33 89.8 0 0-76.602-77.753 78.02 76.33 89.8 0 0-76.058 78.285 78.02 76.33 89.8 0 0 76.602 77.754ZM1280 614.31v215.23c-1.32 4.48-4.09 5.7-8.75 5.71-7.42.01-13.09.6-19.76-4.26-5.47-3.98-15.35-14.77-15-22a.46.46 0 0 0-.81-.32c-25.78 30.71-73.27 37.03-109.61 26.75-38.84-10.99-69.81-42.07-81.49-80.23-16.77-54.79 7.9-114.33 58.64-141.14 29.88-15.79 67.22-18.95 99.34-6.12q18.36 7.32 33.32 23.65.35.37.35-.13.06-7.28.01-14.69c-.05-7.65 4-8.43 10.74-8.5q12.58-.12 25.15.11c4.34.08 6.9 1.83 7.87 5.94ZM1159.54 798.1a78.02 76.32 90 0 0 76.32-78.02 78.02 76.32 90 0 0-76.32-78.02 78.02 76.32 90 0 0-76.32 78.02 78.02 76.32 90 0 0 76.32 78.02ZM836.66 632.07c12.73-20.1 37.96-30.49 60.79-31.4 59.31-2.36 103.18 40.24 103.7 99.53q.28 31.14.06 126.82c-.01 4.98-1.8 8.68-7.15 8.71q-14.1.06-28.21 0c-5.84-.03-8.41-2.52-8.39-8.21q.19-59.57-.12-119.14-.06-12.28-1.5-18.64c-6.11-27.11-30.58-46.94-58.37-47.14-28.45-.21-53.53 19.34-59.8 47.28q-1.4 6.24-1.4 18.49L836.19 828c-.01 5.77-3.34 7.74-8.86 7.74l-25.58.02c-5.51 0-9.48-1.53-9.48-7.57q-.05-105.47 0-210.94c0-5.79 2.69-8.21 8.41-8.26 9-.09 15.44-.51 22.32 2.94 8.06 4.04 12.78 10.81 13.03 19.97a.34.34 0 0 0 .63.17Z"/></svg>