<svg xmlns="http://www.w3.org/2000/svg" viewBox="0 0 1467 512"><g fill="none" stroke="#80d48c" stroke-width="2"><path d="M1299.4 106.41q-8.42 11.29-1.67 23.93a1.54 1.54 0 0 0 1.75.77q10.53-2.71 14.75-12.25c2.98-6.73 2.11-14.37-6.34-15.83-3.45-.59-6.45.64-8.49 3.38M1276.77 104.68c-5.58-3.71-15.5 1.47-14.03 8.6q2.97 14.41 17.29 17.93.53.13.8-.34c4.79-8.27 4.37-20.58-4.06-26.19M1249.86 127.12c-9.8-1.41-14.61 9.88-6.35 15.66q12.06 8.42 24.94 1.36a1.13 1.13 0 0 0 .51-1.4q-5.28-13.63-19.1-15.62M1325.68 176.27c11.29 4.15 21.13-8.1 9.82-15.31q-12.16-7.74-24.64-.69-.49.28-.31.81 3.74 11 15.13 15.19M1244.04 161.05c-8.73 5.28-5.04 16.8 5.08 16.52 9.14-.26 17.12-7.4 19.36-16.02q.14-.54-.35-.82-12.12-6.9-24.09.32M1280.31 172.57c-8.35 1.93-15.83 9.55-16.61 17.96-.83 9.11 11.04 14.37 16.49 6.44 5.1-7.43 5.86-16.2.86-24.1q-.26-.41-.74-.3M1298.96 173.1q-7.1 12.06.59 23.37c5.28 7.78 19.43 3.11 17.27-6q-3.37-14.21-17.55-17.51a.3.29-68.3 0 0-.31.14" vector-effect="non-scaling-stroke"/></g><path fill="#00a818" d="M1237.86 92.97c21.59-18.93 51.62-25.09 79.27-15.57 33.73 11.62 54.18 46.58 52.26 81.62-2.8 50.98-44.86 88.17-93.15 96.58a.85.85 0 0 1-.99-.84v-21.52q0-.63-.61-.76c-65.27-14.17-87.08-95.44-36.78-139.51Zm61.54 13.44q-8.42 11.29-1.67 23.93a1.54 1.54 0 0 0 1.75.77q10.53-2.71 14.75-12.25c2.98-6.73 2.11-14.37-6.34-15.83-3.45-.59-6.45.64-8.49 3.38Zm-22.63-1.73c-5.58-3.71-15.5 1.47-14.03 8.6q2.97 14.41 17.29 17.93.53.13.8-.34c4.79-8.27 4.37-20.58-4.06-26.19Zm-26.91 22.44c-9.8-1.41-14.61 9.88-6.35 15.66q12.06 8.42 24.94 1.36a1.13 1.13 0 0 0 .51-1.4q-5.28-13.63-19.1-15.62Zm75.82 49.15c11.29 4.15 21.13-8.1 9.82-15.31q-12.16-7.74-24.64-.69-.49.28-.31.81 3.74 11 15.13 15.19Zm-81.64-15.22c-8.73 5.28-5.04 16.8 5.08 16.52 9.14-.26 17.12-7.4 19.36-16.02q.14-.54-.35-.82-12.12-6.9-24.09.32Zm36.27 11.52c-8.35 1.93-15.83 9.55-16.61 17.96-.83 9.11 11.04 14.37 16.49 6.44 5.1-7.43 5.86-16.2.86-24.1q-.26-.41-.74-.3Zm18.65.53q-7.1 12.06.59 23.37c5.28 7.78 19.43 3.11 17.27-6q-3.37-14.21-17.55-17.51a.3.29-68.3 0 0-.31.14Z"/><path fill="#fff" d="M1299.4 106.41c2.04-2.74 5.04-3.97 8.49-3.38 8.45 1.46 9.32 9.1 6.34 15.83q-4.22 9.54-14.75 12.25a1.54 1.54 0 0 1-1.75-.77q-6.75-12.64 1.67-23.93ZM1262.74 113.28c-1.47-7.13 8.45-12.31 14.03-8.6 8.43 5.61 8.85 17.92 4.06 26.19q-.27.47-.8.34-14.32-3.52-17.29-17.93ZM1243.51 142.78c-8.26-5.78-3.45-17.07 6.35-15.66q13.82 1.99 19.1 15.62a1.13 1.13 0 0 1-.51 1.4q-12.88 7.06-24.94-1.36ZM1335.5 160.96c11.31 7.21 1.47 19.46-9.82 15.31q-11.39-4.19-15.13-15.19-.18-.53.31-.81 12.48-7.05 24.64.69ZM1249.12 177.57c-10.12.28-13.81-11.24-5.08-16.52q11.97-7.22 24.09-.32.49.28.35.82c-2.24 8.62-10.22 15.76-19.36 16.02ZM1263.7 190.53c.78-8.41 8.26-16.03 16.61-17.96q.48-.11.74.3c5 7.9 4.24 16.67-.86 24.1-5.45 7.93-17.32 2.67-16.49-6.44ZM1298.96 173.1a.3.29-68.3 0 1 .31-.14q14.18 3.3 17.55 17.51c2.16 9.11-11.99 13.78-17.27 6q-7.69-11.31-.59-23.37Z"/><path fill="#1b1d1e" d="M891.5 364.75v13.5q0 .75-.75.75h-24.13q-.62 0-.62-.63V224q0-.5.5-.5H891q.5 0 .5.5v49.26a.35.35 0 0 0 .64.2c6.11-8.61 15.8-13.58 25.9-15.77 41.78-9.05 77.74 23.83 74.7 66.08-2.42 33.72-28.49 58.17-62.24 58.1-14.12-.02-29.48-5.35-38.43-17.31a.32.32 0 0 0-.57.19Zm13.69-15.19c13.82 11.08 33.37 11.08 46.89.02 17.82-14.56 18.46-45.17 1.14-60.38-18.79-16.51-48.62-9.8-58.36 13.26-6.61 15.64-3.2 36.26 10.33 47.1ZM1185.83 270.17q11.5-19.17 34.35-17.55.55.04.55.6l.06 23.56a.47.46-.6 0 1-.46.46c-2.98.04-6.27-.14-9.01.21-16.63 2.14-24.78 15.08-24.8 31.18q-.04 35.48-.01 71.08 0 .79-.79.79h-23.47a.5.5 0 0 1-.5-.5V258q0-.5.5-.5H1186a.52.52 0 0 1 .52.51q.15 6.01-1.62 11.75a.51.51 0 0 0 .93.41ZM237.47 353.41c-29.91 44.95-101.04 35.13-116.72-16.66q-5.59-18.45.46-36.76c10.59-32.03 41.93-48.22 74.53-42.96 17.8 2.88 31.37 13.11 41.63 27.52q.36.52-.19.83l-21.74 12.31a.57.56 59.3 0 1-.77-.2c-12.27-20.58-39.95-23.85-57.17-7.67-23.42 21.98-12.06 62.09 20.91 67.11q22.44 3.42 36.4-16.68a.69.68 32.4 0 1 .91-.2l21.59 12.64a.51.5-57.9 0 1 .16.72ZM436.32 378.92c-52.84-15.79-60-88.39-12.47-114.42 23.62-12.94 55.43-11.74 76.06 7.35q6.22 5.75 11.25 12.79a.46.46 0 0 1-.15.67l-21.57 12.18q-.54.31-.91-.18c-9.13-12-18.07-18.63-34.02-17.53-24.21 1.66-39.64 24.24-34.58 47.58 7.01 32.3 50.67 41.63 68.27 12.99a.9.89 31.1 0 1 1.22-.3l21.34 12.5q.82.48.26 1.24c-17.57 24.23-46.09 33.68-74.7 25.13ZM754.84 276.96c8.71-21.18 35.74-25.29 54.19-16.85 16.9 7.74 25.23 24.73 25.35 43.08q.24 37.45.08 75a.31.31 0 0 1-.31.31h-24.86q-.52 0-.52-.52-.05-38.63-.02-77.16 0-2.71-2.2-7.92c-3.62-8.59-11.15-12.47-20.27-11.67-13.73 1.21-18.24 13.26-18.26 26.03q-.04 35.17-.01 70.38a.36.35-90 0 1-.35.36h-24.71q-.58 0-.58-.57.16-29.93-.22-72.67c-.11-11.9-5.68-22.57-18.79-23.63-9.39-.76-17.66 4.67-20.54 13.62q-1.24 3.84-1.27 14.54-.1 34.07-.03 68.18 0 .53-.53.53h-25.98q-.5 0-.5-.51-.05-37.63.07-75.24c.07-21.03 12.15-40.52 33.59-45.1 18.18-3.88 38.1 2.19 45.92 19.82a.41.41 0 0 0 .75-.01ZM1052.67 378.09c-40.37-12.36-56.25-62.03-31.55-95.78 16.8-22.96 49.25-33.4 76.52-21.13q31.06 13.98 38.03 46.59c1.27 5.96 1.48 12.67 1.6 18.98a.71.7 89.6 0 1-.7.72l-97.54-.01a.71.7-4.2 0 0-.7.8c1.9 13.44 10.78 23.38 23.37 28.14 18.06 6.82 35.42-1.03 46.87-15.64a.9.9 0 0 1 1.15-.23l20.72 11.77a.28.28 0 0 1 .08.42c-19.23 24.18-47.34 34.71-77.85 25.37Zm54.15-72.28c-9.65-36.45-59.61-37.22-68.82-.19a.51.51 0 0 0 .5.63h67.98q.46 0 .34-.44ZM367.64 338.66c-10.41 55.5-93.16 57.31-106.55 3.13q-1.51-6.12-1.55-19.88-.1-31.17-.03-62.41 0-.5.5-.5h24.48q.52 0 .51.52-.02 33.84.04 67.66c.07 33.06 46.89 39.65 56.67 7.79q1.28-4.18 1.28-11.2.02-32.19.01-64.42a.35.34-90 0 1 .34-.35h24.87q.52 0 .52.52.05 29.65.03 59.22-.02 14.02-1.12 19.92ZM641.86 335.95c-7.64 57.39-93.51 61.32-107.04 6.11q-1.49-6.09-1.52-19.44-.08-31.47-.06-63.07 0-.55.55-.55h24.42q.52 0 .53.53.04 29.19.02 58.32-.01 13.34 1.44 18.13c8.3 27.3 47.01 25.92 55.23-1.04q1.3-4.28 1.31-11.68.03-31.92 0-63.91a.35.35 0 0 1 .35-.35h24.86q.52 0 .52.51.1 28.27.01 56.46-.05 15.71-.62 19.98Z"/></svg>