<svg xmlns="http://www.w3.org/2000/svg" viewBox="0 0 1448 1448"><g fill="none" stroke="#b9a5cf" stroke-width="2"><path d="M682 284.31q-7.4 8.21-10.02 18.99a.23.23 0 0 0 .35.24l24.61-17.11a.3.3 0 0 1 .41.42q-5.13 7.23-8.98 15.23a1.45 1.44 87.9 0 0 2.02 1.88q14.25-8.15 29.37-14.51a.3.29 6.4 0 1 .36.44l-9.27 12.45q-.34.45.19.64c1.55.57 3.18.07 4.35.07q14.14.08 28.28.86 14.22.78 19.66.01c28.25-3.99 42.71-26.75 57.56-48.32 3.81-5.52 8.81-11.36 15.25-13.79q7.28-2.75 14.84-4.66c13.22-3.33 25.56 2.04 35.87 9.75q49.94 37.35 73.13 95.02c4.21 10.5 13.87 38.1-.66 44.13-18.44 7.65-50.31-31.17-59.83-44.05-13.17-17.82-20.56-36.18-25.09-57.74q-4.27-20.29-19.18-33.73-1.41-1.27-.68.49c5.94 14.31 8.29 27.04 8.77 42.66.64 20.77 4.46 44.04 16.4 61.57q.23.34.15.74l-3.05 16.24q-.14.69-.62.18c-17.71-18.42-40.79-30.44-62.84-41.37a1.22 1.2.9 0 1-.57-.58q-.26-.55-.72-.6a.21.21 0 0 0-.16.37c27.7 22.83 53.37 45.89 75.64 74.22q24.18 30.77 26.57 68.54.81 12.73 1.63 25.45.42 6.41 4.73 11.58 17.77 21.3 33.54 46.7 8.04 12.95 9.98 18.33c12.99 36.06 6.91 80.08-13.17 112.48q-.29.46-.82.54-19.83 3.03-39.68 6.23c-6.85 1.11-14.55-1.87-20.46-5.08a.74.73 28.3 0 1-.3-.99q4.97-9.43 8.6-19.52c.98-2.73.07-4.77-1.58-6.85q-.31-.4-.63.01-22.94 29.69-55.32 48.71c-23.64 13.89-52.89 14.71-78.42 6.03-40.46-13.74-79.32-35.95-113.32-61.52a.52.52 0 0 0-.83.41c-.03 3.71.29 6.72 2.92 9.69q4.42 4.98 9.23 9.62 29.56 28.53 63.72 51.59.82.56-.17.67l-61.48 6.77q-1.47.16-1.28 1.64l30.18 235.75a.36.35-8.6 0 1-.29.39l-29.38 4.96a.66.65-11.9 0 1-.75-.48c-9.75-36.51-31.18-70.82-62.64-91.8-26.31-17.54-60.43-20.4-90.87-14.02q-1.53.32-1.71 1.98-.06.52.46.48c33.51-3.14 70.99 8.54 92.85 35.18 22.55 27.49 37.33 63.23 43.33 98.04 5.68 33.01-5.39 75.65-37.15 92.55-32.54 17.31-70.05 13.03-99.55-7.21a.15.15 0 0 0-.22.2c10.46 17.43 26.8 33.88 47.3 37.67 35.32 6.55 79.94-2.2 98.14-37.74 12.64-24.7 16.15-55.33 14.44-83q-.04-.64.59-.73l27.26-3.95q.58-.09.66.5l10.18 72.53q.09.64.73.56l473.2-57.14q.64-.08.58-.72l-38.53-376.99q-.12-1.2-1.31-.97l-22.38 4.28a.5.5 0 0 1-.6-.45l-46.26-479.38q-.05-.49-.53-.43l-788.76 91.73q-.92.11-.81 1.03l97.16 790.91q.07.56.64.48l91.37-13.31a.52.52 0 0 0 .35-.82c-9.39-12.99-20.91-24.22-32.89-34.79q-9.87-8.7-12.54-12.16c-15.07-19.51-10.76-47-.01-67.62 8.71-16.74 19-28.63 33.3-41.19q19.72-17.31 39.57-34.45c25.19-21.76 58.61-53.62 57.6-89.83q-.55-19.36-5.88-39.42c-4.26-16.01-10.76-29.01-22.13-40.45a.49.49 0 0 0-.84.37l.6 15.68a.08.08 0 0 1-.15.05q-7.92-11.67-12.31-24.77-.75-2.25-2.29-3.95-5.77-6.4-10.91-13.43-.42-.56-.61.11-2.61 9.05-2.74 18.48a.07.06-56.8 0 1-.12.03q-6.01-14.83-8.23-30.67a.36.36 0 0 0-.69-.1q-3.89 8.24-4.87 17.33a.16.16 0 0 1-.31.03c-4.11-12.04-8.04-26.97-7.33-39.8q.12-2.25-.7-4.29c-12.06-30.09-15.06-61.27-12.81-93.67q.03-.44.42-.23c21.63 12.12 48.95 11.91 71.51 2.27 12.29-5.25 25.81-15.65 29.66-29.1q2.08-7.27 2.44-15.5c1.34-30.99-6.9-63.54-17.57-92.44q-15.42-41.8-34.58-81.89a.95.94-23 0 0-1.18-.47q-.23.08-.33.52-.05.26.05.58c11.76 37.81 20.25 68.4 27.33 103.38 6.34 31.32 5.72 64.13-22.86 84.37q-10.04 7.11-19.63 11.84c-16.18 7.98-33.71 2.67-48.08-6.2q-40.24-24.81-63.26-66.26c-8.98-16.17-14.56-31.58-4.37-48.83q6.44-10.89 12.46-22.18a.46.45-86.3 0 0-.56-.64l-18.91 7.07a.06.05 12.4 0 1-.06-.09q9.1-8.99 19.03-17.1c7.09-5.8 17.57-12.82 26.05-19.7q.58-.48-.17-.48l-16.29.04a.23.22-58.6 0 1-.1-.43q15.81-8.26 32.37-14.89a.26.26 0 0 0-.1-.5l-22.93-.05a.15.15 0 0 1-.06-.28q27.34-12.29 55.05-24.04c15.12-6.41 25.07-10.75 39.01-8.87 13.49 1.83 20.09 10.55 27.86 20.97 14.08 18.88 34.45 28.88 58.18 33.5q.47.09.91-.11c16.57-7.61 31.5-15.06 50.2-19.87a1.61 1.61 0 0 0 .81-.49c10.06-11.2 23.38-22.12 37.98-27.15q1.14-.39.33.51" vector-effect="non-scaling-stroke"/><path d="m847.79 432.11 5.27 2.24a1.42 1.42 0 0 1 .7 1.96c-4.18 7.93-6.49 11.05-2.76 20.23 5.13 12.64 11.92 25.15 23.43 32.09q.43.26.91.17c9.1-1.58 18.71-1.46 27.32 2.21q.62.26.63-.42.09-8.42-.78-24.87-.97-18.42-14.01-29.66c-10.54-9.09-28.99-14.22-40.76-4.3a.21.21 0 0 0 .05.35M654.46 474.14c-14.99 19.89-7.97 48.01 12.3 61.38q.69.46 1.45.11 26.11-11.96 54.2-16.1c1.02-.15 2.11-.84 2.59-1.59q10.55-16.2 5.77-35.25c-1.48-5.91-4.75-9.4-8.09-13.85-3-4.01 1.52-7.37 3.68-10.08a1.9 1.9 0 0 0-.51-2.82q-2.81-1.68-5.43-2.29c-20.94-4.82-52.51 2.65-65.96 20.49M845.19 619.06c16.37 13.26 54.15 37.68 71.71 13.78q11.39-15.51 17.15-33.9c2.79-8.95 2.44-22.59-10.29-22.78q-34.87-.51-67.87 10.65-7.74 2.61-11.83 5.26c-10.03 6.47-7.25 20.21 1.13 26.99M982.66 1298.56c14.85 35.26 48.32 45.73 83.58 45.12 38.58-.66 71.78-16.84 80.75-57.19q6.9-31.02.62-62.23c-11.36-56.45-65.89-67.53-114.26-57.48-29.86 6.21-49.56 25.48-56.47 55.3-5.83 25.13-4.31 52.55 5.78 76.48M1287.75 1271.25v40.24q0 .49-.48.61-18.89 4.96-38.1 1c-24.02-4.95-36.3-20.96-40.39-43.83-6.3-35.19 4.35-69.65 44.49-75.47q34.59-5.02 67.12 8.35.61.25.61-.41v-28.9a.66.66 0 0 0-.43-.62c-19.22-7.13-40.81-9.41-61.11-8.3-41.35 2.25-74.99 17.66-84.02 61.6-4.44 21.59-3.44 46.87 3.81 67.48 11.08 31.52 37.65 46.49 69.74 49.78 23.56 2.42 49.42.78 71.55-8.35q.46-.18.46-.68v-92a.51.5 90 0 0-.5-.51l-51.66.02q-1.27 0-1.72 1.19l-10.58 27.73a.42.42 0 0 0 .39.57h30.32q.5 0 .5.5M291.38 1225.25c-6.93-42.22-38.37-60.06-78.63-60.19q-39.43-.13-78.8-.28-.95-.01-.95.95v176.26a.5.5 0 0 0 .5.5q38.71.07 77.44-.11c42.02-.19 70.32-19 79.19-60.62q5.94-27.92 1.25-56.51M386.07 1199.96a.33.33 0 0 1 .61 0l28.4 65.13a.33.33 0 0 1-.31.46l-36.06-.38a.33.33 0 0 0-.31.21l-11.17 28.19a.33.33 0 0 0 .3.45l56.38.31a.33.33 0 0 1 .3.19l22.11 47.79a.33.33 0 0 0 .3.19h34.98a.33.33 0 0 0 .3-.46l-76.89-176.91a.33.33 0 0 0-.31-.2l-35.11-.08a.33.33 0 0 0-.31.2l-75.26 176.99a.33.33 0 0 0 .3.46h33.36a.33.33 0 0 0 .3-.21l58.09-142.33M547.25 1194.15a.54.54 0 0 1 .54-.54l49.92.05a.54.54 0 0 0 .54-.54v-27.87a.54.54 0 0 0-.54-.54l-133.92-.04a.54.54 0 0 0-.54.54v27.86a.54.54 0 0 0 .54.54l49.93.09a.54.54 0 0 1 .54.54l-.03 147.72a.54.54 0 0 0 .54.54h31.94a.54.54 0 0 0 .54-.54v-147.81M673.19 1200.01a.34.34 0 0 1 .62-.01l28.35 64.92a.34.34 0 0 1-.31.48l-36.05.02a.34.34 0 0 0-.32.21l-11.15 28.13a.34.34 0 0 0 .32.47l56.35.03a.34.34 0 0 1 .31.2l22.18 47.84a.34.34 0 0 0 .31.2h34.95a.34.34 0 0 0 .31-.48l-76.85-176.86a.34.34 0 0 0-.31-.2l-35.16-.01a.34.34 0 0 0-.31.21l-75.26 176.87a.34.34 0 0 0 .31.47h33.36a.34.34 0 0 0 .32-.21l58.03-142.28M926.81 1182.69c-23.85-20.05-53.79-17.48-82.56-17.77-16.87-.17-34.64.29-51.83-.28a1.61 1.61 0 0 0-1.67 1.61v175.74a.44.44 0 0 0 .44.44q38.96.17 77.62.19c47.67.03 75.72-25.51 81.14-72.87 3.48-30.4 1.21-66.6-23.14-87.06M787.15 754.34q-20.56-3.35-40.04-11.08-1.91-.76-3.92-.49-28.7 3.82-56.98 7.83-.59.08-.52.67l36.06 301.8q.06.52.57.42l417.42-75.47q.65-.11.59-.77l-24.83-301.43a.38.36-7.1 0 0-.44-.33l-243.35 44.28q-.49.09-.81.48c-9.42 11.26-20.9 21.72-34.18 27.71-16 7.21-31.93 9.25-49.57 6.38" vector-effect="non-scaling-stroke"/><path d="M1032.39 850.5a.3.3 0 0 1-.44.12l-79.51-52.59a.3.3 0 0 0-.42.1L885.47 909.6a.3.3 0 0 1-.34.13l-77.25-22.64a.3.3 0 0 0-.33.13l-68.26 104.52a.3.3 0 0 0-.05.2l3.5 32.75a.3.3 0 0 0 .35.26l371.53-68.67a.3.3 0 0 0 .24-.32l-21.54-232.29a.3.3 0 0 0-.57-.1l-60.36 126.93M1009 1236.99c-4.06 27.53.37 66.09 32.91 75.12 16.05 4.45 37.23 4.19 51.74-4.79 11.34-7.02 17.98-19.64 20.49-32.39 5-25.42 3.23-62.61-23.11-76.45-13.94-7.32-34.64-7.79-49.53-3.21-19.94 6.14-29.59 22-32.5 41.72M166.95 1313.71q12.28.08 24.27-.11c4.93-.08 13.72.26 20.86-.29 27.97-2.19 42.04-19.04 46.58-44.79 6.04-34.31-2.6-72.47-45.17-74.49q-21.26-1-46.73-.3-.51.01-.51.52V1313q0 .71.7.71M917.5 1238c-3.1-29.33-22.84-43.85-51.26-44.19q-24.8-.29-41.75-.05-.49.01-.49.5v118.98a.43.43 0 0 0 .42.43q17.12.28 34.31-.01 13.81-.24 19.91-1.54c35.05-7.47 42.06-43.86 38.86-74.12" vector-effect="non-scaling-stroke"/></g><path fill="#fff" d="M0 0h1448v1448H0V0Zm682 284.31q-7.4 8.21-10.02 18.99a.23.23 0 0 0 .35.24l24.61-17.11a.3.3 0 0 1 .41.42q-5.13 7.23-8.98 15.23a1.45 1.44 87.9 0 0 2.02 1.88q14.25-8.15 29.37-14.51a.3.29 6.4 0 1 .36.44l-9.27 12.45q-.34.45.19.64c1.55.57 3.18.07 4.35.07q14.14.08 28.28.86 14.22.78 19.66.01c28.25-3.99 42.71-26.75 57.56-48.32 3.81-5.52 8.81-11.36 15.25-13.79q7.28-2.75 14.84-4.66c13.22-3.33 25.56 2.04 35.87 9.75q49.94 37.35 73.13 95.02c4.21 10.5 13.87 38.1-.66 44.13-18.44 7.65-50.31-31.17-59.83-44.05-13.17-17.82-20.56-36.18-25.09-57.74q-4.27-20.29-19.18-33.73-1.41-1.27-.68.49c5.94 14.31 8.29 27.04 8.77 42.66.64 20.77 4.46 44.04 16.4 61.57q.23.34.15.74l-3.05 16.24q-.14.69-.62.18c-17.71-18.42-40.79-30.44-62.84-41.37a1.22 1.2.9 0 1-.57-.58q-.26-.55-.72-.6a.21.21 0 0 0-.16.37c27.7 22.83 53.37 45.89 75.64 74.22q24.18 30.77 26.57 68.54.81 12.73 1.63 25.45.42 6.41 4.73 11.58 17.77 21.3 33.54 46.7 8.04 12.95 9.98 18.33c12.99 36.06 6.91 80.08-13.17 112.48q-.29.46-.82.54-19.83 3.03-39.68 6.23c-6.85 1.11-14.55-1.87-20.46-5.08a.74.73 28.3 0 1-.3-.99q4.97-9.43 8.6-19.52c.98-2.73.07-4.77-1.58-6.85q-.31-.4-.63.01-22.94 29.69-55.32 48.71c-23.64 13.89-52.89 14.71-78.42 6.03-40.46-13.74-79.32-35.95-113.32-61.52a.52.52 0 0 0-.83.41c-.03 3.71.29 6.72 2.92 9.69q4.42 4.98 9.23 9.62 29.56 28.53 63.72 51.59.82.56-.17.67l-61.48 6.77q-1.47.16-1.28 1.64l30.18 235.75a.36.35-8.6 0 1-.29.39l-29.38 4.96a.66.65-11.9 0 1-.75-.48c-9.75-36.51-31.18-70.82-62.64-91.8-26.31-17.54-60.43-20.4-90.87-14.02q-1.53.32-1.71 1.98-.06.52.46.48c33.51-3.14 70.99 8.54 92.85 35.18 22.55 27.49 37.33 63.23 43.33 98.04 5.68 33.01-5.39 75.65-37.15 92.55-32.54 17.31-70.05 13.03-99.55-7.21a.15.15 0 0 0-.22.2c10.46 17.43 26.8 33.88 47.3 37.67 35.32 6.55 79.94-2.2 98.14-37.74 12.64-24.7 16.15-55.33 14.44-83q-.04-.64.59-.73l27.26-3.95q.58-.09.66.5l10.18 72.53q.09.64.73.56l473.2-57.14q.64-.08.58-.72l-38.53-376.99q-.12-1.2-1.31-.97l-22.38 4.28a.5.5 0 0 1-.6-.45l-46.26-479.38q-.05-.49-.53-.43l-788.76 91.73q-.92.11-.81 1.03l97.16 790.91q.07.56.64.48l91.37-13.31a.52.52 0 0 0 .35-.82c-9.39-12.99-20.91-24.22-32.89-34.79q-9.87-8.7-12.54-12.16c-15.07-19.51-10.76-47-.01-67.62 8.71-16.74 19-28.63 33.3-41.19q19.72-17.31 39.57-34.45c25.19-21.76 58.61-53.62 57.6-89.83q-.55-19.36-5.88-39.42c-4.26-16.01-10.76-29.01-22.13-40.45a.49.49 0 0 0-.84.37l.6 15.68a.08.08 0 0 1-.15.05q-7.92-11.67-12.31-24.77-.75-2.25-2.29-3.95-5.77-6.4-10.91-13.43-.42-.56-.61.11-2.61 9.05-2.74 18.48a.07.06-56.8 0 1-.12.03q-6.01-14.83-8.23-30.67a.36.36 0 0 0-.69-.1q-3.89 8.24-4.87 17.33a.16.16 0 0 1-.31.03c-4.11-12.04-8.04-26.97-7.33-39.8q.12-2.25-.7-4.29c-12.06-30.09-15.06-61.27-12.81-93.67q.03-.44.42-.23c21.63 12.12 48.95 11.91 71.51 2.27 12.29-5.25 25.81-15.65 29.66-29.1q2.08-7.27 2.44-15.5c1.34-30.99-6.9-63.54-17.57-92.44q-15.42-41.8-34.58-81.89a.95.94-23 0 0-1.18-.47q-.23.08-.33.52-.05.26.05.58c11.76 37.81 20.25 68.4 27.33 103.38 6.34 31.32 5.72 64.13-22.86 84.37q-10.04 7.11-19.63 11.84c-16.18 7.98-33.71 2.67-48.08-6.2q-40.24-24.81-63.26-66.26c-8.98-16.17-14.56-31.58-4.37-48.83q6.44-10.89 12.46-22.18a.46.45-86.3 0 0-.56-.64l-18.91 7.07a.06.05 12.4 0 1-.06-.09q9.1-8.99 19.03-17.1c7.09-5.8 17.57-12.82 26.05-19.7q.58-.48-.17-.48l-16.29.04a.23.22-58.6 0 1-.1-.43q15.81-8.26 32.37-14.89a.26.26 0 0 0-.1-.5l-22.93-.05a.15.15 0 0 1-.06-.28q27.34-12.29 55.05-24.04c15.12-6.41 25.07-10.75 39.01-8.87 13.49 1.83 20.09 10.55 27.86 20.97 14.08 18.88 34.45 28.88 58.18 33.5q.47.09.91-.11c16.57-7.61 31.5-15.06 50.2-19.87a1.61 1.61 0 0 0 .81-.49c10.06-11.2 23.38-22.12 37.98-27.15q1.14-.39.33.51Zm165.79 147.8 5.27 2.24a1.42 1.42 0 0 1 .7 1.96c-4.18 7.93-6.49 11.05-2.76 20.23 5.13 12.64 11.92 25.15 23.43 32.09q.43.26.91.17c9.1-1.58 18.71-1.46 27.32 2.21q.62.26.63-.42.09-8.42-.78-24.87-.97-18.42-14.01-29.66c-10.54-9.09-28.99-14.22-40.76-4.3a.21.21 0 0 0 .05.35Zm-193.33 42.03c-14.99 19.89-7.97 48.01 12.3 61.38q.69.46 1.45.11 26.11-11.96 54.2-16.1c1.02-.15 2.11-.84 2.59-1.59q10.55-16.2 5.77-35.25c-1.48-5.91-4.75-9.4-8.09-13.85-3-4.01 1.52-7.37 3.68-10.08a1.9 1.9 0 0 0-.51-2.82q-2.81-1.68-5.43-2.29c-20.94-4.82-52.51 2.65-65.96 20.49Zm190.73 144.92c16.37 13.26 54.15 37.68 71.71 13.78q11.39-15.51 17.15-33.9c2.79-8.95 2.44-22.59-10.29-22.78q-34.87-.51-67.87 10.65-7.74 2.61-11.83 5.26c-10.03 6.47-7.25 20.21 1.13 26.99Zm137.47 679.5c14.85 35.26 48.32 45.73 83.58 45.12 38.58-.66 71.78-16.84 80.75-57.19q6.9-31.02.62-62.23c-11.36-56.45-65.89-67.53-114.26-57.48-29.86 6.21-49.56 25.48-56.47 55.3-5.83 25.13-4.31 52.55 5.78 76.48Zm305.09-27.31v40.24q0 .49-.48.61-18.89 4.96-38.1 1c-24.02-4.95-36.3-20.96-40.39-43.83-6.3-35.19 4.35-69.65 44.49-75.47q34.59-5.02 67.12 8.35.61.25.61-.41v-28.9a.66.66 0 0 0-.43-.62c-19.22-7.13-40.81-9.41-61.11-8.3-41.35 2.25-74.99 17.66-84.02 61.6-4.44 21.59-3.44 46.87 3.81 67.48 11.08 31.52 37.65 46.49 69.74 49.78 23.56 2.42 49.42.78 71.55-8.35q.46-.18.46-.68v-92a.51.5 90 0 0-.5-.51l-51.66.02q-1.27 0-1.72 1.19l-10.58 27.73a.42.42 0 0 0 .39.57h30.32q.5 0 .5.5Zm-996.37-46c-6.93-42.22-38.37-60.06-78.63-60.19q-39.43-.13-78.8-.28-.95-.01-.95.95v176.26a.5.5 0 0 0 .5.5q38.71.07 77.44-.11c42.02-.19 70.32-19 79.19-60.62q5.94-27.92 1.25-56.51Zm94.69-25.29a.33.33 0 0 1 .61 0l28.4 65.13a.33.33 0 0 1-.31.46l-36.06-.38a.33.33 0 0 0-.31.21l-11.17 28.19a.33.33 0 0 0 .3.45l56.38.31a.33.33 0 0 1 .3.19l22.11 47.79a.33.33 0 0 0 .3.19h34.98a.33.33 0 0 0 .3-.46l-76.89-176.91a.33.33 0 0 0-.31-.2l-35.11-.08a.33.33 0 0 0-.31.2l-75.26 176.99a.33.33 0 0 0 .3.46h33.36a.33.33 0 0 0 .3-.21l58.09-142.33Zm161.18-5.81a.54.54 0 0 1 .54-.54l49.92.05a.54.54 0 0 0 .54-.54v-27.87a.54.54 0 0 0-.54-.54l-133.92-.04a.54.54 0 0 0-.54.54v27.86a.54.54 0 0 0 .54.54l49.93.09a.54.54 0 0 1 .54.54l-.03 147.72a.54.54 0 0 0 .54.54h31.94a.54.54 0 0 0 .54-.54v-147.81Zm125.94 5.86a.34.34 0 0 1 .62-.01l28.35 64.92a.34.34 0 0 1-.31.48l-36.05.02a.34.34 0 0 0-.32.21l-11.15 28.13a.34.34 0 0 0 .32.47l56.35.03a.34.34 0 0 1 .31.2l22.18 47.84a.34.34 0 0 0 .31.2h34.95a.34.34 0 0 0 .31-.48l-76.85-176.86a.34.34 0 0 0-.31-.2l-35.16-.01a.34.34 0 0 0-.31.21l-75.26 176.87a.34.34 0 0 0 .31.47h33.36a.34.34 0 0 0 .32-.21l58.03-142.28Zm253.62-17.32c-23.85-20.05-53.79-17.48-82.56-17.77-16.87-.17-34.64.29-51.83-.28a1.61 1.61 0 0 0-1.67 1.61v175.74a.44.44 0 0 0 .44.44q38.96.17 77.62.19c47.67.03 75.72-25.51 81.14-72.87 3.48-30.4 1.21-66.6-23.14-87.06Z"/><path fill="#734b9e" d="M681.67 283.8c-14.6 5.03-27.92 15.95-37.98 27.15a1.61 1.61 0 0 1-.81.49c-18.7 4.81-33.63 12.26-50.2 19.87q-.44.2-.91.11c-23.73-4.62-44.1-14.62-58.18-33.5-7.77-10.42-14.37-19.14-27.86-20.97-13.94-1.88-23.89 2.46-39.01 8.87q-27.71 11.75-55.05 24.04a.15.15 0 0 0 .06.28l22.93.05a.26.26 0 0 1 .1.5q-16.56 6.63-32.37 14.89a.23.22-58.6 0 0 .1.43l16.29-.04q.75 0 .17.48c-8.48 6.88-18.96 13.9-26.05 19.7q-9.93 8.11-19.03 17.1a.06.05 12.4 0 0 .06.09l18.91-7.07a.46.45-86.3 0 1 .56.64q-6.02 11.29-12.46 22.18c-10.19 17.25-4.61 32.66 4.37 48.83q23.02 41.45 63.26 66.26c14.37 8.87 31.9 14.18 48.08 6.2q9.59-4.73 19.63-11.84c28.58-20.24 29.2-53.05 22.86-84.37-7.08-34.98-15.57-65.57-27.33-103.38q-.1-.32-.05-.58.1-.44.33-.52a.95.94-23 0 1 1.18.47q19.16 40.09 34.58 81.89c10.67 28.9 18.91 61.45 17.57 92.44q-.36 8.23-2.44 15.5c-3.85 13.45-17.37 23.85-29.66 29.1-22.56 9.64-49.88 9.85-71.51-2.27q-.39-.21-.42.23c-2.25 32.4.75 63.58 12.81 93.67q.82 2.04.7 4.29c-.71 12.83 3.22 27.76 7.33 39.8a.16.16 0 0 0 .31-.03q.98-9.09 4.87-17.33a.36.36 0 0 1 .69.1q2.22 15.84 8.23 30.67a.07.06-56.8 0 0 .12-.03q.13-9.43 2.74-18.48.19-.67.61-.11 5.14 7.03 10.91 13.43 1.54 1.7 2.29 3.95 4.39 13.1 12.31 24.77a.08.08 0 0 0 .15-.05l-.6-15.68a.49.49 0 0 1 .84-.37c11.37 11.44 17.87 24.44 22.13 40.45q5.33 20.06 5.88 39.42c1.01 36.21-32.41 68.07-57.6 89.83q-19.85 17.14-39.57 34.45c-14.3 12.56-24.59 24.45-33.3 41.19-10.75 20.62-15.06 48.11.01 67.62q2.67 3.46 12.54 12.16c11.98 10.57 23.5 21.8 32.89 34.79a.52.52 0 0 1-.35.82l-91.37 13.31q-.57.08-.64-.48L279.16 258.3q-.11-.92.81-1.03l788.76-91.73q.48-.06.53.43l46.26 479.38a.5.5 0 0 0 .6.45l22.38-4.28q1.19-.23 1.31.97l38.53 376.99q.06.64-.58.72l-473.2 57.14q-.64.08-.73-.56l-10.18-72.53q-.08-.59-.66-.5l-27.26 3.95q-.63.09-.59.73c1.71 27.67-1.8 58.3-14.44 83-18.2 35.54-62.82 44.29-98.14 37.74-20.5-3.79-36.84-20.24-47.3-37.67a.15.15 0 0 1 .22-.2c29.5 20.24 67.01 24.52 99.55 7.21 31.76-16.9 42.83-59.54 37.15-92.55-6-34.81-20.78-70.55-43.33-98.04-21.86-26.64-59.34-38.32-92.85-35.18q-.52.04-.46-.48.18-1.66 1.71-1.98c30.44-6.38 64.56-3.52 90.87 14.02 31.46 20.98 52.89 55.29 62.64 91.8a.66.65-11.9 0 0 .75.48l29.38-4.96a.36.35-8.6 0 0 .29-.39L661 735.48q-.19-1.48 1.28-1.64l61.48-6.77q.99-.11.17-.67-34.16-23.06-63.72-51.59-4.81-4.64-9.23-9.62c-2.63-2.97-2.95-5.98-2.92-9.69a.52.52 0 0 1 .83-.41c34 25.57 72.86 47.78 113.32 61.52 25.53 8.68 54.78 7.86 78.42-6.03q32.38-19.02 55.32-48.71.32-.41.63-.01c1.65 2.08 2.56 4.12 1.58 6.85q-3.63 10.09-8.6 19.52a.74.73 28.3 0 0 .3.99c5.91 3.21 13.61 6.19 20.46 5.08q19.85-3.2 39.68-6.23.53-.08.82-.54c20.08-32.4 26.16-76.42 13.17-112.48q-1.94-5.38-9.98-18.33-15.77-25.4-33.54-46.7-4.31-5.17-4.73-11.58-.82-12.72-1.63-25.45-2.39-37.77-26.57-68.54c-22.27-28.33-47.94-51.39-75.64-74.22a.21.21 0 0 1 .16-.37q.46.05.72.6a1.22 1.2.9 0 0 .57.58c22.05 10.93 45.13 22.95 62.84 41.37q.48.51.62-.18l3.05-16.24q.08-.4-.15-.74c-11.94-17.53-15.76-40.8-16.4-61.57-.48-15.62-2.83-28.35-8.77-42.66q-.73-1.76.68-.49 14.91 13.44 19.18 33.73c4.53 21.56 11.92 39.92 25.09 57.74 9.52 12.88 41.39 51.7 59.83 44.05 14.53-6.03 4.87-33.63.66-44.13q-23.19-57.67-73.13-95.02c-10.31-7.71-22.65-13.08-35.87-9.75q-7.56 1.91-14.84 4.66c-6.44 2.43-11.44 8.27-15.25 13.79-14.85 21.57-29.31 44.33-57.56 48.32q-5.44.77-19.66-.01-14.14-.78-28.28-.86c-1.17 0-2.8.5-4.35-.07q-.53-.19-.19-.64l9.27-12.45a.3.29 6.4 0 0-.36-.44q-15.12 6.36-29.37 14.51a1.45 1.44 87.9 0 1-2.02-1.88q3.85-8 8.98-15.23a.3.3 0 0 0-.41-.42l-24.61 17.11a.23.23 0 0 1-.35-.24q2.62-10.78 10.02-18.99.81-.9-.33-.51Zm105.48 470.54q-20.56-3.35-40.04-11.08-1.91-.76-3.92-.49-28.7 3.82-56.98 7.83-.59.08-.52.67l36.06 301.8q.06.52.57.42l417.42-75.47q.65-.11.59-.77l-24.83-301.43a.38.36-7.1 0 0-.44-.33l-243.35 44.28q-.49.09-.81.48c-9.42 11.26-20.9 21.72-34.18 27.71-16 7.21-31.93 9.25-49.57 6.38Z"/><path fill="#734b9e" d="M847.79 432.11a.21.21 0 0 1-.05-.35c11.77-9.92 30.22-4.79 40.76 4.3q13.04 11.24 14.01 29.66.87 16.45.78 24.87-.01.68-.63.42c-8.61-3.67-18.22-3.79-27.32-2.21q-.48.09-.91-.17c-11.51-6.94-18.3-19.45-23.43-32.09-3.73-9.18-1.42-12.3 2.76-20.23a1.42 1.42 0 0 0-.7-1.96l-5.27-2.24ZM666.76 535.52c-20.27-13.37-27.29-41.49-12.3-61.38 13.45-17.84 45.02-25.31 65.96-20.49q2.62.61 5.43 2.29a1.9 1.9 0 0 1 .51 2.82c-2.16 2.71-6.68 6.07-3.68 10.08 3.34 4.45 6.61 7.94 8.09 13.85q4.78 19.05-5.77 35.25c-.48.75-1.57 1.44-2.59 1.59q-28.09 4.14-54.2 16.1-.76.35-1.45-.11ZM845.19 619.06c-8.38-6.78-11.16-20.52-1.13-26.99q4.09-2.65 11.83-5.26 33-11.16 67.87-10.65c12.73.19 13.08 13.83 10.29 22.78q-5.76 18.39-17.15 33.9c-17.56 23.9-55.34-.52-71.71-13.78Z"/><path fill="#fff" d="M787.15 754.34c17.64 2.87 33.57.83 49.57-6.38 13.28-5.99 24.76-16.45 34.18-27.71q.32-.39.81-.48l243.35-44.28a.38.36-7.1 0 1 .44.33l24.83 301.43q.06.66-.59.77l-417.42 75.47q-.51.1-.57-.42l-36.06-301.8q-.07-.59.52-.67 28.28-4.01 56.98-7.83 2.01-.27 3.92.49 19.48 7.73 40.04 11.08Zm245.24 96.16a.3.3 0 0 1-.44.12l-79.51-52.59a.3.3 0 0 0-.42.1L885.47 909.6a.3.3 0 0 1-.34.13l-77.25-22.64a.3.3 0 0 0-.33.13l-68.26 104.52a.3.3 0 0 0-.05.2l3.5 32.75a.3.3 0 0 0 .35.26l371.53-68.67a.3.3 0 0 0 .24-.32l-21.54-232.29a.3.3 0 0 0-.57-.1l-60.36 126.93Z"/><path fill="#734b9e" d="m1032.39 850.5 60.36-126.93a.3.3 0 0 1 .57.1l21.54 232.29a.3.3 0 0 1-.24.32l-371.53 68.67a.3.3 0 0 1-.35-.26l-3.5-32.75a.3.3 0 0 1 .05-.2l68.26-104.52a.3.3 0 0 1 .33-.13l77.25 22.64a.3.3 0 0 0 .34-.13l66.55-111.47a.3.3 0 0 1 .42-.1l79.51 52.59a.3.3 0 0 0 .44-.12ZM1066.24 1343.68c-35.26.61-68.73-9.86-83.58-45.12-10.09-23.93-11.61-51.35-5.78-76.48 6.91-29.82 26.61-49.09 56.47-55.3 48.37-10.05 102.9 1.03 114.26 57.48q6.28 31.21-.62 62.23c-8.97 40.35-42.17 56.53-80.75 57.19ZM1009 1236.99c-4.06 27.53.37 66.09 32.91 75.12 16.05 4.45 37.23 4.19 51.74-4.79 11.34-7.02 17.98-19.64 20.49-32.39 5-25.42 3.23-62.61-23.11-76.45-13.94-7.32-34.64-7.79-49.53-3.21-19.94 6.14-29.59 22-32.5 41.72ZM1287.25 1270.75h-30.32a.42.42 0 0 1-.39-.57l10.58-27.73q.45-1.19 1.72-1.19l51.66-.02a.51.5 90 0 1 .5.51v92q0 .5-.46.68c-22.13 9.13-47.99 10.77-71.55 8.35-32.09-3.29-58.66-18.26-69.74-49.78-7.25-20.61-8.25-45.89-3.81-67.48 9.03-43.94 42.67-59.35 84.02-61.6 20.3-1.11 41.89 1.17 61.11 8.3a.66.66 0 0 1 .43.62v28.9q0 .66-.61.41-32.53-13.37-67.12-8.35c-40.14 5.82-50.79 40.28-44.49 75.47 4.09 22.87 16.37 38.88 40.39 43.83q19.21 3.96 38.1-1 .48-.12.48-.61v-40.24q0-.5-.5-.5ZM212.75 1165.06c40.26.13 71.7 17.97 78.63 60.19q4.69 28.59-1.25 56.51c-8.87 41.62-37.17 60.43-79.19 60.62q-38.73.18-77.44.11a.5.5 0 0 1-.5-.5v-176.26q0-.96.95-.95 39.37.15 78.8.28Zm-45.8 148.65q12.28.08 24.27-.11c4.93-.08 13.72.26 20.86-.29 27.97-2.19 42.04-19.04 46.58-44.79 6.04-34.31-2.6-72.47-45.17-74.49q-21.26-1-46.73-.3-.51.01-.51.52V1313q0 .71.7.71ZM386.07 1199.96l-58.09 142.33a.33.33 0 0 1-.3.21h-33.36a.33.33 0 0 1-.3-.46l75.26-176.99a.33.33 0 0 1 .31-.2l35.11.08a.33.33 0 0 1 .31.2l76.89 176.91a.33.33 0 0 1-.3.46h-34.98a.33.33 0 0 1-.3-.19l-22.11-47.79a.33.33 0 0 0-.3-.19l-56.38-.31a.33.33 0 0 1-.3-.45l11.17-28.19a.33.33 0 0 1 .31-.21l36.06.38a.33.33 0 0 0 .31-.46l-28.4-65.13a.33.33 0 0 0-.61 0ZM547.25 1194.15v147.81a.54.54 0 0 1-.54.54h-31.94a.54.54 0 0 1-.54-.54l.03-147.72a.54.54 0 0 0-.54-.54l-49.93-.09a.54.54 0 0 1-.54-.54v-27.86a.54.54 0 0 1 .54-.54l133.92.04a.54.54 0 0 1 .54.54v27.87a.54.54 0 0 1-.54.54l-49.92-.05a.54.54 0 0 0-.54.54ZM673.19 1200.01l-58.03 142.28a.34.34 0 0 1-.32.21h-33.36a.34.34 0 0 1-.31-.47l75.26-176.87a.34.34 0 0 1 .31-.21l35.16.01a.34.34 0 0 1 .31.2l76.85 176.86a.34.34 0 0 1-.31.48H733.8a.34.34 0 0 1-.31-.2l-22.18-47.84a.34.34 0 0 0-.31-.2l-56.35-.03a.34.34 0 0 1-.32-.47l11.15-28.13a.34.34 0 0 1 .32-.21l36.05-.02a.34.34 0 0 0 .31-.48L673.81 1200a.34.34 0 0 0-.62.01ZM926.81 1182.69c24.35 20.46 26.62 56.66 23.14 87.06-5.42 47.36-33.47 72.9-81.14 72.87q-38.66-.02-77.62-.19a.44.44 0 0 1-.44-.44v-175.74a1.61 1.61 0 0 1 1.67-1.61c17.19.57 34.96.11 51.83.28 28.77.29 58.71-2.28 82.56 17.77ZM917.5 1238c-3.1-29.33-22.84-43.85-51.26-44.19q-24.8-.29-41.75-.05-.49.01-.49.5v118.98a.43.43 0 0 0 .42.43q17.12.28 34.31-.01 13.81-.24 19.91-1.54c35.05-7.47 42.06-43.86 38.86-74.12Z"/><path fill="#fff" d="M1041.91 1312.11c-32.54-9.03-36.97-47.59-32.91-75.12 2.91-19.72 12.56-35.58 32.5-41.72 14.89-4.58 35.59-4.11 49.53 3.21 26.34 13.84 28.11 51.03 23.11 76.45-2.51 12.75-9.15 25.37-20.49 32.39-14.51 8.98-35.69 9.24-51.74 4.79ZM166.95 1313.71q-.7 0-.7-.71v-118.75q0-.51.51-.52 25.47-.7 46.73.3c42.57 2.02 51.21 40.18 45.17 74.49-4.54 25.75-18.61 42.6-46.58 44.79-7.14.55-15.93.21-20.86.29q-11.99.19-24.27.11ZM866.24 1193.81c28.42.34 48.16 14.86 51.26 44.19 3.2 30.26-3.81 66.65-38.86 74.12q-6.1 1.3-19.91 1.54-17.19.29-34.31.01a.43.43 0 0 1-.42-.43v-118.98q0-.49.49-.5 16.95-.24 41.75.05Z"/></svg>