<svg version="1.1" id="Layer_1" xmlns:x="ns_extend;" xmlns:i="ns_ai;" xmlns:graph="ns_graphs;" xmlns="http://www.w3.org/2000/svg" xmlns:xlink="http://www.w3.org/1999/xlink" x="0px" y="0px" viewBox="0 0 615.6 100" style="enable-background:new 0 0 615.6 100;" xml:space="preserve">
 <style type="text/css">
  .st0{fill:#050A30;}
 </style>
 <metadata>
  <sfw xmlns="ns_sfw;">
   <slices>
   </slices>
   <sliceSourceBounds bottomLeftOrigin="true" height="100" width="615.6" x="-68" y="105.2">
   </sliceSourceBounds>
  </sfw>
 </metadata>
 <g>
  <path class="st0" d="M127.7,6.5c0,3.6-2.9,6.5-6.5,6.5H87.7c-3.6,0-6.5-2.9-6.5-6.5c0-3.6,2.9-6.5,6.5-6.5h33.6
		C124.8,0,127.7,2.9,127.7,6.5">
  </path>
  <path class="st0" d="M592.3,6.5c0,3.6-2.9,6.5-6.5,6.5H144.5c-3.6,0-6.5-2.9-6.5-6.5c0-3.6,2.9-6.5,6.5-6.5h441.3
		C589.4,0,592.3,2.9,592.3,6.5">
  </path>
  <path class="st0" d="M75.1,0.4H9.8c0,0-7.1-0.6-7.1,6.5c0,0-1.5,7.9,11.9,7.8v64.2c0,0,0.5,6.5-4.2,7.5c0,0-9.7,0.2-10.3,6
		c0,0-1.2,7.3,5.9,7.6h44.6c0,0,4.7,0.5,5.3-5.3c0,0,1.2-7.7-5.3-7.7H40.2V56.4c0,0,6.1-3.9,7.4,0.6c0,0,0.1,4.5,7.2,4.4
		c0,0,4.1-0.6,5.4-4.1V39.9c0,0,1-7.7-3-5.3c0,0-7,1-8.1,5.3h-8.3V14.6h33.9C74.7,14.6,79.1,9.5,75.1,0.4">
  </path>
  <path class="st0" d="M118.1,99.9c0,0,5.6,0.6,5.4-5c0,0,1-6.3-6.7-6.5V37.5c0,0,8.8,1,8.8-6.4c0,0,0.9-6.5-8.1-6.5H88.8
		c-9,0.1-8.1,6.5-8.1,6.5c0,7.5,8.8,6.4,8.8,6.4v50.8c-7.8,0.2-6.7,6.5-6.7,6.5c-0.1,5.6,5.5,5,5.5,5H118.1">
  </path>
  <path class="st0" d="M553.4,38.2v48.2c0.2,4.1-3.8,3.9-3.8,3.9h-14.3c0,0-3.8,0.6-3.7-4.8V38.2c0,0-0.5-5.1,3.7-5.1h14.3
		C549.6,33,553.8,31.9,553.4,38.2 M578.4,89c0,0,0.3-49.8,0-57.3c-0.3-8.4-10.6-7.2-10.6-7.2H517c-10.9,0.9-9.8,11-9.8,11v55.3
		c-0.6,9.8,5.9,9,5.9,9h56.6C580.5,100.2,578.4,89,578.4,89z">
  </path>
  <path class="st0" d="M267.7,31.7c0,0,13.9-7.6,25.9-7.7c0,0,6.2-0.6,8.2,4.2c1.5,3.7,1.5,26.8,0,32.8c0,0,1.3,5.4-16.8,6.1
		c0,0-4-1.1-4.5-5.2V40.8c0,0,0.4-4.7-5.2-3.9c0,0-10.3,0.6-10.3,9v34.9c0,0-0.5,6.9,3.6,8.1c0,0,7.9,2.8,7.9,6.2
		c0,0,1.8,4.9-5.7,4.7h-33.6c-4.9-0.3-2.9-4.5-2.9-4.5c2.5-4.8,7.4-7,7.4-7l0-42.5c-0.1-6.3-5.3-8.8-5.3-8.8s-3.1-1.4-3.3-5.6
		c0,0-0.6-7,5.1-6.9h25C263.4,24.6,267.6,24.2,267.7,31.7">
  </path>
  <path class="st0" d="M367.2,89.7h-21.9V69c0,0,1.7-5.3,10.7-5.1c0,0,9.6-0.8,11.1,5.1V89.7 M391.9,93.7c-3.2-1.3-3-3.3-3-3.3V33.7
		c-0.5-10.3-14.3-9.1-14.3-9.1h-34.3c-15.4,0.2-14.8,7.2-14.8,7.2v18h19.2c0,0,2.5,0.2,2.5-3.3v-7.7c0.4-6.5,10.6-5.8,10.6-5.8
		c9.8-0.2,9.1,7.9,9.1,7.9V56c0,0-27.7-0.5-31.5,0.2C323.5,58.1,324.5,71,324.5,71v25.1c0,3.9,5.1,3.8,5.1,3.8h61.8
		C395.8,99.8,396.2,95.1,391.9,93.7z">
  </path>
  <path class="st0" d="M457.8,99.9h34.4c0.9-7.1-3.9-7.8-3.9-7.8c-4.6-0.4-4.2-7-4.2-7V31.6c-0.7-8.4-14.3-7.2-14.3-7.2
		c-5,0.1-15.8,5.4-15.8,5.4c-7.4,3.6-8-1.9-8-1.9c-0.9-3.8-4.9-3.4-4.9-3.4c-11.6,0-22,0-22,0s-8.5-0.8-8.8,3.5c0,0-1.5,8.2,2.8,8.8
		c7.4,0,7.3,5.2,7.3,5.2v42.1c-0.2,7.1-10.1,3.6-10.3,11.3c-0.6,4.6,2.8,4.5,2.8,4.5h33.4c4.6-0.3,3.6-4.6,3.6-4.6
		c-0.5-6.1-7.3-6.4-7.3-6.4c0-37.4-0.1-39.4,0-41.7c0.2-8.4,17.9-10.2,17.9-10.2v46.5c-0.1,2.7-4.8,6.4-4.8,6.4s-2.2,1.9-2,5.6
		C453.7,95.6,453.1,99.9,457.8,99.9">
  </path>
  <path class="st0" d="M187,38.2v48.2c0.2,4.1-3.8,3.9-3.8,3.9h-14.2c0,0-3.8,0.6-3.7-4.8V38.2c0,0-0.5-5.1,3.7-5.1h14.2
		C183.2,33,187.4,31.9,187,38.2 M212,89c0,0,0.3-49.8,0-57.3c-0.3-8.4-10.6-7.2-10.6-7.2h-50.8c-10.9,0.9-9.8,11-9.8,11v55.3
		c-0.6,9.8,5.9,9,5.9,9h56.6C214.1,100.2,212,89,212,89z">
  </path>
  <path class="st0" d="M608.7,0c1.2,0,2.3,0.3,3.4,0.9c1.1,0.6,1.9,1.4,2.6,2.5c0.6,1.1,0.9,2.3,0.9,3.4c0,1.2-0.3,2.3-0.9,3.4
		c-0.6,1.1-1.5,1.9-2.5,2.6c-1.1,0.6-2.2,0.9-3.4,0.9c-1.2,0-2.3-0.3-3.4-0.9c-1.1-0.6-1.9-1.5-2.6-2.6c-0.6-1.1-0.9-2.2-0.9-3.4
		c0-1.2,0.3-2.4,0.9-3.4c0.6-1.1,1.5-1.9,2.5-2.5C606.4,0.3,607.5,0,608.7,0 M608.7,1.3c-0.9,0-1.8,0.2-2.7,0.7
		c-0.9,0.5-1.6,1.1-2.1,2c-0.5,0.9-0.7,1.8-0.7,2.8c0,1,0.2,1.9,0.7,2.7c0.5,0.9,1.1,1.6,2,2c0.9,0.5,1.8,0.7,2.7,0.7
		c1,0,1.9-0.2,2.8-0.7c0.9-0.5,1.6-1.2,2.1-2c0.5-0.9,0.7-1.8,0.7-2.7c0-1-0.3-1.9-0.8-2.8c-0.5-0.9-1.2-1.6-2-2
		C610.6,1.6,609.7,1.3,608.7,1.3z M605.6,10.5V3.3h1.5c1.4,0,2.2,0,2.3,0c0.5,0,0.9,0.1,1.1,0.3c0.3,0.2,0.5,0.4,0.7,0.7
		c0.2,0.3,0.3,0.7,0.3,1c0,0.5-0.2,1-0.5,1.3c-0.3,0.4-0.8,0.6-1.4,0.7c0.2,0.1,0.4,0.2,0.5,0.3c0.1,0.1,0.3,0.3,0.5,0.6
		c0,0.1,0.2,0.4,0.5,0.9l0.9,1.5h-1.8l-0.6-1.2c-0.4-0.8-0.7-1.3-1-1.5c-0.3-0.2-0.6-0.3-1-0.3h-0.4v3H605.6z M607.1,6.4h0.6
		c0.9,0,1.4,0,1.6-0.1c0.2-0.1,0.3-0.2,0.5-0.3c0.1-0.2,0.2-0.4,0.2-0.6c0-0.2-0.1-0.4-0.2-0.5c-0.1-0.2-0.3-0.3-0.5-0.3
		c-0.2-0.1-0.7-0.1-1.6-0.1h-0.6V6.4z">
  </path>
 </g>
</svg>