<svg xmlns="http://www.w3.org/2000/svg" viewBox="0 0 383 383"><path fill="#f05033" d="M188.06 0h6.5q8.63 1.58 13.99 6.94 83.77 83.74 167.51 167.5 5.79 5.8 6.94 15.37v4.25c-1 7.58-3.94 12-9.68 17.74q-82.38 82.39-164.76 164.76-5.42 5.42-14.87 6.44h-4c-7.2-.97-11.64-3.6-17.1-9.03Q63.05 265.01 7.09 208.66 1.52 203.05 0 194.44v-6.75q1.45-8.51 5.81-12.87 57.8-57.81 115.64-115.64.43-.43.85 0l42.75 42.74q.39.39.21.91c-5.51 15.89.75 30.64 15.58 37.79q.41.2.41.65v104.46q0 .45-.41.64c-21.38 9.7-24.26 39.13-3.65 51.69 22.15 13.5 49.2-6.54 43.5-31.74q-2.82-12.44-14.98-19.01-.46-.25-.46-.78V143a.26.26 0 0 1 .44-.19l39.14 39.15q.34.33.15.77-3.69 8.81-1.08 18.18c6.25 22.44 33.99 29.29 49.88 11.84 11.87-13.03 9.04-34.11-5.83-43.72q-11.45-7.4-25.12-3.25-.52.16-.91-.23l-41.72-41.72q-.36-.36-.22-.86c6.46-23.56-13.05-43.79-36.7-36.96q-.5.15-.86-.22l-43.37-43.36q-.41-.41 0-.82 17.69-17.79 35.4-35.41 4.97-4.94 13.61-6.2Z"/></svg>