<svg xmlns="http://www.w3.org/2000/svg" viewBox="0 0 450 196"><g fill="none" stroke-width="2"><path stroke="#e4e4e4" d="M16.33 152.74q.31.69 1.01 1.08.4.22.59.64.66 1.44 2.88 2.74 12.45 7.31 18.94 10.39.46.22.97.16 1.31-.14 2.12.8.38.44.92.68 9.61 4.25 18.96 9.01 3.19 1.62 9.77 4.58c11.53 5.17 23.22 14.36 36.69 9.1 12.38-4.84 26.2-12.87 39.73-19.06q15.05-6.88 29.34-15.23c4.22-2.47 6.58-6.39 8.58-10.59q.23-.48.17-1.01-.12-1.04.6-1.78.36-.36.42-.87c1.68-16.17 2.25-32.06 3.18-48.61q1.07-18.9.53-37.84-.17-6.15-3.15-11.48c-3.12-5.58-10.4-9.33-15.77-11.5-7.25-2.94-17.98-6.52-27.67-10.6-6.14-2.59-13.85-5.14-18.69-7.1q-8.87-3.59-11.94-4.79-14.78-5.73-29.52.32c-1.54.63-4.38 1.53-6.35 2.75-1.64 1.02-3.22 1.01-4.91 1.73-6.59 2.81-13.49 4.83-20.05 7.72-2.57 1.13-5.64 1.49-8.02 2.47-3.22 1.33-6.3 2.05-9.42 3.75q-4.41 2.41-9.18 4.01-.22.07-.38.24l-.46.46q-.36.36-.86.45c-8.44 1.66-14.4 10.15-16.18 17.82-1.66 7.18-.49 15.33-.33 21.44l.44 17.29c.05 1.93.73 3.97.84 6.03.51 9.07.11 18.43.65 27.18.42 6.87-.51 21.58 5 26.83q.36.34.55.79" vector-effect="non-scaling-stroke"/><path stroke="#9dacc3" d="M231.23 132.12c-.97-17.14-3.58-29.73-5.81-44.78q-.09-.59-.68-.59h-16.11q-.63 0-.63.63v62.2q0 .59.59.6l8.87.1a.53.52 0 0 0 .53-.52c.03-15.5 1.19-32.44-.69-47.77q-.02-.14.08-.25l.2-.2a.14.14 0 0 1 .24.09q2.8 21.05 7.2 41.82c.31 1.47.47 4.12 1.15 6.1q.16.48.66.48l13.67.22a.5.5 0 0 0 .5-.5v-62.5q0-.5-.5-.5h-8.74q-.5 0-.5.51-.02 16.56-.01 33.09c0 3.19.66 7.82.38 11.77a.2.2 0 0 1-.4 0M311.88 116.23c2.04-1.11 4.61-1.64 6.1-3.11 3.47-3.41 3.45-16.91 1.31-20.96-3.63-6.84-19.52-5.83-27.33-5.13q-.49.05-.49.54l-.07 61.8q0 .61.61.65 8.2.55 16.38-.22c13.73-1.29 12.15-10.23 12.13-20.77-.01-6.8-.89-11.75-8.5-12.17q-1.16-.07-.14-.63M286.25 98.79v-8.17q0-.63-.63-.63l-10.09.03q-.56 0-.56.57l.04 8.17a.8.8 0 0 1-1.03.77l-1.02-.32a.61.61 0 0 0-.8.59l.09 7.33q.01.62.63.62h1.61q.54 0 .54.53-.1 27.92.02 35.65c.13 7.5 8.97 6.17 13.84 6.18q.61 0 .61-.61v-7.26a.55.55 0 0 0-.6-.55q-2.6.23-2.62-1.99-.09-15.78-.01-31.61a.57.57 0 0 1 .64-.56l2.02.28q.57.07.57-.5l-.01-7.38a.52.52 0 0 0-.55-.52l-1.9.12q-.79.05-.79-.74" vector-effect="non-scaling-stroke"/><path stroke="#9dacc3" d="M257.67 142.74a1.45 1.44-9.2 0 1-1.9-1.36l-.03-14.09q0-.79.78-.79H270q.58 0 .57-.58c-.2-13.67 4.34-29.67-16.99-27.31-7.4.82-8.95 7.1-9.03 13.38q-.15 13.92.11 27.81c.15 7.62 4.67 11.57 11.98 11.18 5.46-.29 9.57-.04 12.51-5.19 2.14-3.76 1.36-10.36 1.34-15.04q0-.5-.5-.5h-9.97q-.49 0-.49.48l-.09 10.74q-.01.69-.66.9l-1.11.37M324 119.16q0 8.7.03 17.41c.03 8.43 1.36 14.57 10.98 14.57 15.5.01 15.1-7.94 14.68-20.44q-.01-.45-.47-.45h-9.97a.5.5 0 0 0-.5.5v9.43a2.54 2.54 0 0 1-1.29 2.21q-1.85 1.05-2.47-.65c-1.05-2.89-.25-11.27-.23-14.74q0-.5.5-.5h13.78a.71.71 0 0 0 .71-.72q-.01-7.14 0-14.35c.02-6.68-1.86-11.26-8.59-12.68-2.64-.56-7.64-.51-10.05.16-7.42 2.07-6.9 8.11-7.16 14.6q-.02.49-.51.49h-1.77q-.65 0-.66.65l-.02 3.39q0 .8.8.74l1.66-.13q.55-.04.55.51M365.12 107.06q2.17-.56 2.7 2.05c2.42 11.8-13.15 8.98-14.56 19.4-.67 4.93-1.49 15.55 1.22 19.67 2.63 4.02 10.29 3.64 12.69-1.47a.41.41 0 0 1 .77.1l.5 2.74a.86.85 84.7 0 0 .84.7h9.94q.6 0 .49-.6c-.35-1.85-.53-3.52-.5-5.36q.35-21.94-.32-35.09c-.52-10.41-10.71-12.7-19.01-10.12-7.46 2.33-7.51 10.95-7.03 17.76q.03.41.44.41h9.94a1 .99-89.4 0 0 .99-.98l.1-8.19a1.08 1.07-7.2 0 1 .8-1.02M393.5 103v-2.85q0-.66-.66-.66l-9.84.01q-.5 0-.5.5v49.56q0 .56.56.57l10.16.17a.52.52 0 0 0 .53-.52v-39.74a1.85 1.85 0 0 1 2.46-1.75c1.33.46 1.05 2.17 1.05 3.35q-.06 18.97.02 37.99 0 .45.44.45l10.53-.11q.46-.01.47-.47.11-20.68 0-41.34-.03-4.56-1.19-6.44c-3.14-5.1-11.07-3.89-13.49 1.4a.28.28 0 0 1-.54-.12M426.68 108.07l.1 8.44q.01.72.73.72l9.94.06q.44 0 .46-.43c.44-8.87.23-17.73-10.68-18.29-6.21-.32-12.11.04-14.83 6.18-1.23 2.78-1 10.4.21 13.12 4.12 9.31 17.4 11.58 13.6 24.02a1.4 1.4 0 0 1-2.21.68q-1.07-.85-1.02-2.59.12-4.53-.02-9.25-.02-.48-.5-.48h-10.2q-.5 0-.5.51c-.04 7.35-1.78 17.56 7.96 19.82 16.14 3.74 19.7-6.44 17.95-19.79-1.24-9.51-15.74-10.82-14.7-21.22.14-1.4-.07-2.67 1.69-3.08a1.65 1.65 0 0 1 2.02 1.58" vector-effect="non-scaling-stroke"/><path stroke="#b3b4b5" d="M19.98 47.21c-3.17 1.28-4.89 3.19-5.41 6.76q-1.51 10.33-.53 20.78c.84 9.01.9 20.49 1.16 27.09.35 9.11-.39 18.92.96 27.87q.34 2.25.02 4.55-.07.49.02.98.22 1.1.14 3.76-.21 7.51 5.78 12.28c2.01 1.6 3.58 4.22 7.17 4.62a.5.48-10.6 0 1 .37.24q.56 1 2.81 1.9 4.06 1.62 14.66 7.28c1.08.58 2.78.68 3.63 1.16q8.93 5.08 12.48 6.27 3.03 1.01 4.7 2.12.4.27.87.32c2.4.25 4.57 2.06 6.16 2.72q3.91 1.63 7.66 3.62.12.06.12.19v.26q-.01.26.23.35c3.57 1.3 7.39 3.47 10.72 4.23q11.42 2.6 21.66-3.66.43-.26.93-.31 1.48-.17 3.56-1.22 10.98-5.53 17.52-9.13c6.91-3.82 14.36-7.43 21.68-10.33 3.72-1.48 6.66-3.7 10.6-5.32 4.48-1.83 11.89-8.66 12.61-13.59 1.61-10.9 1.82-26.42 2.43-38.42q1.24-24.43.9-48.88c-.04-3.11-1.9-9.61-5.6-10.32" vector-effect="non-scaling-stroke"/><path stroke="#9fa1a3" d="M179.99 45.38q-4.11-4.51-8.99-6.4-28.91-11.19-57.8-22.47c-6.91-2.7-12.73-4.8-20.19-1.99Q61.83 26.26 30.73 38.2q-7.14 2.74-10.75 9.01" vector-effect="non-scaling-stroke"/><path stroke="#8a8c8f" d="M179.99 45.38q2.87 4.44 2.97 10.87c.34 22.03-.87 40.71-1.6 61.09q-.08 2.08-.62 6.78c-.8 6.99.86 18.68-4.52 23.86q-3.21 3.1-8.06 5.6c-19.87 10.23-41.61 21.4-60.08 29.88-6.76 3.11-12.83 1.25-19.41-1.94-1.28-.62-2.31-.26-3.56-1.16-3.58-2.56-8.03-4.31-11.89-6.5" vector-effect="non-scaling-stroke"/><path stroke="#68788f" d="m73.22 173.86 1.04-.16" vector-effect="non-scaling-stroke"/><path stroke="#718497" d="M74.26 173.7q8.56 4.21 17.18 8.36c3.59 1.73 7.9.92 11.82 1.64q1.16.21 1.98-.64" vector-effect="non-scaling-stroke"/><path stroke="#88959a" d="M105.24 183.06q2.7-.62 3.35-.93 33.97-16.45 61.89-30.85c6.1-3.16 8.14-7.42 8.54-14.5 1.36-23.53 1.9-47.16 2.78-70.72.2-5.31.48-12.18-1.4-16.76" vector-effect="non-scaling-stroke"/><path stroke="#7f91b2" d="M180.4 49.3q-1.39-3.98-4.24-5.76" vector-effect="non-scaling-stroke"/><path stroke="#9eadad" d="M176.16 43.54q-2.39-1.87-3.6-2.35-31.86-12.86-63.98-25.04-8.28-3.14-16.14-.23-25.87 9.57-63.62 24.67-2.63 1.05-5.44 3.4" vector-effect="non-scaling-stroke"/><path stroke="#7f91b2" d="M23.38 43.99q-2.2 2.85-2.92 7.49" vector-effect="non-scaling-stroke"/><path stroke="#68788f" d="M20.46 51.48q-1.64 6.98-1.32 13.97c.53 11.9.47 23.79.82 35.7.05 1.83-.75 3.98-.51 6.12q.61 5.5.73 11.04 0 .08.08.11.13.05.29.08.3.05.29.36l-.25 22.37" vector-effect="non-scaling-stroke"/><path stroke="#8a8c8f" d="M20.59 141.23q-1.8-21.87-1.9-43.97c-.06-13.99-1.2-28.94-.91-41.19q.07-3.33 2.2-8.86" vector-effect="non-scaling-stroke"/><path stroke="#9cb4d8" d="m141.1 56.13 5.84-2.2q.38-.15.79-.18 2.06-.16 3.45-1.71a1.53 1.48-79.7 0 1 .46-.33l5.68-2.42" vector-effect="non-scaling-stroke"/><path stroke="#92acce" d="m180.4 49.3-1.37 6.49" vector-effect="non-scaling-stroke"/><path stroke="#9cb4d8" d="M179.03 55.79q.26-2.87-.73-3.03" vector-effect="non-scaling-stroke"/><path stroke="#b5cbee" d="M178.3 52.76c.53-6.3-7.73-3.53-10.59-2.1" vector-effect="non-scaling-stroke"/><path stroke="#c4d4f3" d="m167.71 50.66-40.33 16.97q-.47.19-.96.13-1.01-.14-1.85.56-.36.3-.8.48l-9.76 4.07" vector-effect="non-scaling-stroke"/><path stroke="#a7c4e1" d="M114.01 72.87c-2.48.02-4.2 1.53-6.06 2.02-4.58 1.2-8.74 2.31-13.45.55" vector-effect="non-scaling-stroke"/><path stroke="#9dbef2" d="M94.5 75.44c-7.67-2.99-14.56-5.65-22.82-9.33-5.4-2.4-11.14-4.57-16.27-6.9-11.88-5.4-20.27-8.77-28.51-10.64a.62.61-7.8 0 0-.68.89q1.26 2.32 3.93 2.67.46.06.76.42c3.48 4.08 7.88 2.51 11.89 5.14 1.44.95 3.01 1.31 4.46 2.23 4.75 3.03 10.32 4.93 15.81 7.16 4.39 1.79 8.34 4.8 13.3 6.08q.5.12.87.48.96.95 2.36.6.46-.12.85.15 2.28 1.62 4.84 2.5c2.58.9 3.58 2.09 5.5 3.73 2.08 1.77 4.68 5.76 4.96 7.88q2.36 17.89 2.05 23.55-.83 15.1.1 30.19c.12 1.94-1.39 4.63-1.4 7.08q-.02 9.37.02 18.75c.01 2.78-1.52 5.79-.27 8.86a1.03 1.03 0 0 0 1.92-.03l.9-2.43a1.02 1.02 0 0 1 1.95.13l.96 4.09q.11.47.56.66 1.68.71 3.38-.08" vector-effect="non-scaling-stroke"/><path stroke="#a7c4e1" d="M105.92 179.27q2.61-.7 3.88-3.35" vector-effect="non-scaling-stroke"/><path stroke="#9cb4d8" d="m109.8 175.92 2.01-.83" vector-effect="non-scaling-stroke"/><path stroke="#92acce" d="m111.81 175.09-4.46 5.33a1.06.98-77.6 0 1-.43.3l-3.29 1.26" vector-effect="non-scaling-stroke"/><path stroke="#7a9bcb" d="m103.63 181.98-5.8-.18" vector-effect="non-scaling-stroke"/><path stroke="#80a0da" d="M97.83 181.8c-12.12-7.54-11.11-24.08-13.73-36.11-1.99-9.16-5.12-15.41-10.28-24.14-7.84-13.28-15.89-28.13-21.86-38.5q-1.55-2.68-1.98-5.1-.08-.49-.48-.79-7.63-5.82-16.03-10.36-2.95-1.6-7.39-6.88c-1.86-2.21-2.46-5.08-3.42-7.72q-.31-.84-.2.05l.36 2.87q.06.48.34.87.9 1.26 0 2.68" vector-effect="non-scaling-stroke"/><path stroke="#7a9bcb" d="m23.16 58.67-.19-.66q-.12-.46-.22 0l-.3 1.5" vector-effect="non-scaling-stroke"/><path stroke="#7290c4" d="M22.45 59.51q-.01-4.38-1.99-8.03" vector-effect="non-scaling-stroke"/><path stroke="#a7c4e1" d="M176.16 43.54c-7.43-.25-12.56 3.31-18.84 5.75" vector-effect="non-scaling-stroke"/><path stroke="#bbd0d3" d="M157.32 49.29q-8.91 1.88-16.22 6.84" vector-effect="non-scaling-stroke"/><path stroke="#a7c4e1" d="M141.1 56.13Q126.37 62.55 111.39 69c-14.4 6.19-26.27-2.3-38.99-7.58-13.64-5.67-26.99-11.6-40.68-16.97-2.94-1.15-5.29-.74-8.34-.46" vector-effect="non-scaling-stroke"/><path stroke="#7d8ba1" d="M20.59 141.23q1.12 4.04 2.7 5.72 3.97 4.2 9.56 7.52c4.38 2.59 11.73 4.49 15.91 7.54 2.39 1.75 4.81 2.05 6.64 3q8.85 4.6 17.82 8.85" vector-effect="non-scaling-stroke"/><path stroke="#849fb3" d="M105.24 183.06q-.6-.64-1.61-1.08" vector-effect="non-scaling-stroke"/><path stroke="#a6b8c0" d="M111.81 175.09q2.77-.95 7.18-4.33 1.45-1.1 7.2-4.38c1.28-.73 2.62-2.07 4.12-2.74 5.27-2.34 10.18-5.79 15.14-8.73q.25-.15.29-.43.03-.22.19-.33 10.42-7.29 19.24-16.45.38-.39.51-.92 1.09-4.21 3.27-8.01.24-.41.27-.89c.07-1.58.95-2.74 1.12-4.15q1.08-9.32 2.5-18.6c.53-3.49.2-7.18.64-10.63q1.43-11.03 1.52-20.94c.06-6.69 3.7-11.39 4.03-17.77" vector-effect="non-scaling-stroke"/><path stroke="#6483a9" d="M22.45 59.51q-.23 5.28.54 10.36c.23 1.55 1.2 3.2 1.22 5.39q.06 7.41.06 14.82 0 .4.13.68.16.32.37.62a1.62 1.57 27 0 1 .31.91c.14 8.71.23 16.28.81 26.02q.51 8.64.34 17.3c-.06 3.05.98 4.68 2.84 6.84a.79.79 0 0 1-1.16 1.08l-.28-.27q-.29-.3-.68-.17l-3.22 1.07a.74.74 0 0 0-.36 1.13c1.77 2.45 3.76 4.23 6.62 5.72q22.05 11.51 44.27 22.69" vector-effect="non-scaling-stroke"/><path stroke="#7293bf" d="M97.83 181.8c-2.51 1.25-2.69-1.1-4.13-2.25q-.99-.8-1-.99-.02-.56-1.44-1.07-3.4-1.23-5.17-4.31-.22-.39-.67-.39h-.5q-.46.01-.75-.35-1.49-1.78-3.65-2.74c-.81-.37-1.93-2.12-2.94-2.69-4.9-2.8-10.08-6.48-15.52-8.01q-4.04-1.13-7-4.3-.33-.36-.83-.4-4.15-.38-7.21-3.06-.38-.33-.87-.42-2.09-.35-3.45-2.13-.23-.31-.62-.36-2.83-.38-5.28-1.93-.41-.26-.26-.72c.73-2.17-3.46-4.9-5.29-6.79q-.34-.34-.28-.82c.2-1.78-1.04-3.29-1.32-4.52-.58-2.51-.43-5.15-.71-7.3q-2.2-16.72-2.33-30.56-.03-3.27-1.27-5.5-.25-.45-.26-.96l-.3-17.32q0-.46-.33-.78-.9-.89-.75-1.89.76-4.92-.94-8.78-.66-1.49.4-1.79" vector-effect="non-scaling-stroke"/><path stroke="#bcdaed" d="m94.5 75.44-1.27.09q-.75.05-.32.67l6.12 8.7" vector-effect="non-scaling-stroke"/><path stroke="#d9e9ff" d="M99.03 84.9q-.12.68.05 1.08" vector-effect="non-scaling-stroke"/><path stroke="#cae1fa" d="M99.08 85.98c-.45 3.15.89 5.73.94 8.39.26 13.96-.66 28.15.65 42.03q1.11 11.7.29 23.47-.01.2.13.34l.26.26q.2.21.18.5-.38 4.89-.32 9.78.09 5.87 3.46 7.28" vector-effect="non-scaling-stroke"/><path stroke="#bbd3ec" d="m104.67 178.03 3.35-1.86" vector-effect="non-scaling-stroke"/><path stroke="#bcdaed" d="M108.02 176.17q-.31 1.59-2.1 3.1" vector-effect="non-scaling-stroke"/><path stroke="#c9d7df" d="m178.3 52.76-1.55 4.75" vector-effect="non-scaling-stroke"/><path stroke="#d3e1e8" d="M176.75 57.51c-4.86 6.97-14.82 9.71-22.55 13.95q-.4.21-.56.62-.19.47-.67.62-4.17 1.34-7.14 3.14c-3.39 2.06-7.02 3.47-9.99 5.45-4.98 3.32-12.87 6.74-15.93 11.87-2.34 3.91-2.36 9.63-2.79 14.16-.16 1.65-1.41 2.56-1.33 4.54q.13 2.97.21 5.94c.07 2.63-1.51 5.24-1.69 8.19q-.68 11.3-1.53 22.6c-.27 3.63-1.46 9.47-1.31 14.66q.23 8.06-6.8 14.78" vector-effect="non-scaling-stroke"/><path stroke="#f0f7fa" d="m99.08 85.98 1.4 6.98a.65.64-29.8 0 0 1.12.3q1.69-1.9 1.67-4.39-.01-.52.25-.98 1.89-3.38 5.16-5.49.42-.28.64-.73 1.04-2.15 2.69-2.61 4.78-1.3 7.37-4.28a1 .97-64.2 0 1 .88-.32c3.73.57 4.9-1.59 7.72-2.55 6.48-2.21 12.04-6.59 18.5-8.89q3.93-1.39 4.97-1.88c3.81-1.8 8.1-4.25 12.28-4.79q.56-.08.98-.44 2.35-1.99 5.35-2.8a.43.42-75.2 0 0 .22-.13l1.15-1.3q.33-.38-.17-.45l-3.55-.57" vector-effect="non-scaling-stroke"/><path stroke="#bbd0d3" d="m109.8 175.92 2.37-4.59" vector-effect="non-scaling-stroke"/><path stroke="#bacad2" d="M112.17 171.33q2.6-3.28 3.19-7.36 1.24-8.73 2.9-17.45.64-3.36 2.29-6.28c3.62-6.37 8.09-13.07 11.21-18.83q3.37-6.22 6.69-12.45c.67-1.25 2.12-2.93 2.73-4.37 3.16-7.42 7.68-14.18 10.99-21.66 1.06-2.38 4.59-6.62 6.58-8.1q6.14-4.58 12.79-8.38.43-.24.67-.66c1.18-2 2.97-3.03 3.8-4.97q.74-1.71.74-3.31" vector-effect="non-scaling-stroke"/><path stroke="#e3f0ee" d="M99.03 84.9q-.52-2.89.16-5.49a3.02 3.01-.9 0 1 2.08-2.14c3.34-.97 9.75-2.12 12.74-4.4" vector-effect="non-scaling-stroke"/><path stroke="#c5dadb" d="m112.17 171.33-4.15 4.84" vector-effect="non-scaling-stroke"/><path stroke="#9dacc3" d="m303.96 95.25.06 16.64a.43.43 0 0 0 .43.43l.71-.01a2.9 2.89-.2 0 0 2.89-2.9l-.04-11.72a2.9 2.89-.2 0 0-2.91-2.88l-.71.01a.43.43 0 0 0-.43.43M307.86 138.17q.27-6.94.14-13.94-.08-3.72-3.46-3.43-.55.05-.55.6l.02 18.62a.94.93-86.5 0 0 .82.93c2.12.23 2.95-.72 3.03-2.78M259.527 107.49a.92.92 0 0 0-.915-.924l-2.14-.011a.92.92 0 0 0-.925.915l-.054 10.38a.92.92 0 0 0 .915.924l2.14.011a.92.92 0 0 0 .925-.915l.054-10.38M338.75 107.5a.92.92 0 0 0-.92-.92h-2.16a.92.92 0 0 0-.92.92v10.38a.92.92 0 0 0 .92.92h2.16a.92.92 0 0 0 .92-.92V107.5M324.82 115.631a.82.82 0 0 0-.78-.857l-1.359-.064a.82.82 0 0 0-.857.78l-.064 1.359a.82.82 0 0 0 .78.857l1.359.064a.82.82 0 0 0 .857-.78l.064-1.359M365.72 127.15q-1.47 1.47-1.47 3.56v9.3a1.69 1.69 0 0 0 2.66 1.39q1.36-.95 1.3-2.68-.23-6.34-.21-12.91 0-.94-.66-.27l-1.62 1.61" vector-effect="non-scaling-stroke"/></g><path fill="#fff" d="M0 0h450v196H0V0Zm16.33 152.74q.31.69 1.01 1.08.4.22.59.64.66 1.44 2.88 2.74 12.45 7.31 18.94 10.39.46.22.97.16 1.31-.14 2.12.8.38.44.92.68 9.61 4.25 18.96 9.01 3.19 1.62 9.77 4.58c11.53 5.17 23.22 14.36 36.69 9.1 12.38-4.84 26.2-12.87 39.73-19.06q15.05-6.88 29.34-15.23c4.22-2.47 6.58-6.39 8.58-10.59q.23-.48.17-1.01-.12-1.04.6-1.78.36-.36.42-.87c1.68-16.17 2.25-32.06 3.18-48.61q1.07-18.9.53-37.84-.17-6.15-3.15-11.48c-3.12-5.58-10.4-9.33-15.77-11.5-7.25-2.94-17.98-6.52-27.67-10.6-6.14-2.59-13.85-5.14-18.69-7.1q-8.87-3.59-11.94-4.79-14.78-5.73-29.52.32c-1.54.63-4.38 1.53-6.35 2.75-1.64 1.02-3.22 1.01-4.91 1.73-6.59 2.81-13.49 4.83-20.05 7.72-2.57 1.13-5.64 1.49-8.02 2.47-3.22 1.33-6.3 2.05-9.42 3.75q-4.41 2.41-9.18 4.01-.22.07-.38.24l-.46.46q-.36.36-.86.45c-8.44 1.66-14.4 10.15-16.18 17.82-1.66 7.18-.49 15.33-.33 21.44l.44 17.29c.05 1.93.73 3.97.84 6.03.51 9.07.11 18.43.65 27.18.42 6.87-.51 21.58 5 26.83q.36.34.55.79Zm214.9-20.62c-.97-17.14-3.58-29.73-5.81-44.78q-.09-.59-.68-.59h-16.11q-.63 0-.63.63v62.2q0 .59.59.6l8.87.1a.53.52 0 0 0 .53-.52c.03-15.5 1.19-32.44-.69-47.77q-.02-.14.08-.25l.2-.2a.14.14 0 0 1 .24.09q2.8 21.05 7.2 41.82c.31 1.47.47 4.12 1.15 6.1q.16.48.66.48l13.67.22a.5.5 0 0 0 .5-.5v-62.5q0-.5-.5-.5h-8.74q-.5 0-.5.51-.02 16.56-.01 33.09c0 3.19.66 7.82.38 11.77a.2.2 0 0 1-.4 0Zm80.65-15.89c2.04-1.11 4.61-1.64 6.1-3.11 3.47-3.41 3.45-16.91 1.31-20.96-3.63-6.84-19.52-5.83-27.33-5.13q-.49.05-.49.54l-.07 61.8q0 .61.61.65 8.2.55 16.38-.22c13.73-1.29 12.15-10.23 12.13-20.77-.01-6.8-.89-11.75-8.5-12.17q-1.16-.07-.14-.63Zm-25.63-17.44v-8.17q0-.63-.63-.63l-10.09.03q-.56 0-.56.57l.04 8.17a.8.8 0 0 1-1.03.77l-1.02-.32a.61.61 0 0 0-.8.59l.09 7.33q.01.62.63.62h1.61q.54 0 .54.53-.1 27.92.02 35.65c.13 7.5 8.97 6.17 13.84 6.18q.61 0 .61-.61v-7.26a.55.55 0 0 0-.6-.55q-2.6.23-2.62-1.99-.09-15.78-.01-31.61a.57.57 0 0 1 .64-.56l2.02.28q.57.07.57-.5l-.01-7.38a.52.52 0 0 0-.55-.52l-1.9.12q-.79.05-.79-.74Zm-28.58 43.95a1.45 1.44-9.2 0 1-1.9-1.36l-.03-14.09q0-.79.78-.79H270q.58 0 .57-.58c-.2-13.67 4.34-29.67-16.99-27.31-7.4.82-8.95 7.1-9.03 13.38q-.15 13.92.11 27.81c.15 7.62 4.67 11.57 11.98 11.18 5.46-.29 9.57-.04 12.51-5.19 2.14-3.76 1.36-10.36 1.34-15.04q0-.5-.5-.5h-9.97q-.49 0-.49.48l-.09 10.74q-.01.69-.66.9l-1.11.37ZM324 119.16q0 8.7.03 17.41c.03 8.43 1.36 14.57 10.98 14.57 15.5.01 15.1-7.94 14.68-20.44q-.01-.45-.47-.45h-9.97a.5.5 0 0 0-.5.5v9.43a2.54 2.54 0 0 1-1.29 2.21q-1.85 1.05-2.47-.65c-1.05-2.89-.25-11.27-.23-14.74q0-.5.5-.5h13.78a.71.71 0 0 0 .71-.72q-.01-7.14 0-14.35c.02-6.68-1.86-11.26-8.59-12.68-2.64-.56-7.64-.51-10.05.16-7.42 2.07-6.9 8.11-7.16 14.6q-.02.49-.51.49h-1.77q-.65 0-.66.65l-.02 3.39q0 .8.8.74l1.66-.13q.55-.04.55.51Zm41.12-12.1q2.17-.56 2.7 2.05c2.42 11.8-13.15 8.98-14.56 19.4-.67 4.93-1.49 15.55 1.22 19.67 2.63 4.02 10.29 3.64 12.69-1.47a.41.41 0 0 1 .77.1l.5 2.74a.86.85 84.7 0 0 .84.7h9.94q.6 0 .49-.6c-.35-1.85-.53-3.52-.5-5.36q.35-21.94-.32-35.09c-.52-10.41-10.71-12.7-19.01-10.12-7.46 2.33-7.51 10.95-7.03 17.76q.03.41.44.41h9.94a1 .99-89.4 0 0 .99-.98l.1-8.19a1.08 1.07-7.2 0 1 .8-1.02ZM393.5 103v-2.85q0-.66-.66-.66l-9.84.01q-.5 0-.5.5v49.56q0 .56.56.57l10.16.17a.52.52 0 0 0 .53-.52v-39.74a1.85 1.85 0 0 1 2.46-1.75c1.33.46 1.05 2.17 1.05 3.35q-.06 18.97.02 37.99 0 .45.44.45l10.53-.11q.46-.01.47-.47.11-20.68 0-41.34-.03-4.56-1.19-6.44c-3.14-5.1-11.07-3.89-13.49 1.4a.28.28 0 0 1-.54-.12Zm33.18 5.07.1 8.44q.01.72.73.72l9.94.06q.44 0 .46-.43c.44-8.87.23-17.73-10.68-18.29-6.21-.32-12.11.04-14.83 6.18-1.23 2.78-1 10.4.21 13.12 4.12 9.31 17.4 11.58 13.6 24.02a1.4 1.4 0 0 1-2.21.68q-1.07-.85-1.02-2.59.12-4.53-.02-9.25-.02-.48-.5-.48h-10.2q-.5 0-.5.51c-.04 7.35-1.78 17.56 7.96 19.82 16.14 3.74 19.7-6.44 17.95-19.79-1.24-9.51-15.74-10.82-14.7-21.22.14-1.4-.07-2.67 1.69-3.08a1.65 1.65 0 0 1 2.02 1.58Z"/><path fill="#c8c9c9" d="M15.78 151.95c-5.51-5.25-4.58-19.96-5-26.83-.54-8.75-.14-18.11-.65-27.18-.11-2.06-.79-4.1-.84-6.03l-.44-17.29c-.16-6.11-1.33-14.26.33-21.44 1.78-7.67 7.74-16.16 16.18-17.82q.5-.09.86-.45l.46-.46q.16-.17.38-.24 4.77-1.6 9.18-4.01c3.12-1.7 6.2-2.42 9.42-3.75 2.38-.98 5.45-1.34 8.02-2.47 6.56-2.89 13.46-4.91 20.05-7.72 1.69-.72 3.27-.71 4.91-1.73 1.97-1.22 4.81-2.12 6.35-2.75q14.74-6.05 29.52-.32 3.07 1.2 11.94 4.79c4.84 1.96 12.55 4.51 18.69 7.1 9.69 4.08 20.42 7.66 27.67 10.6 5.37 2.17 12.65 5.92 15.77 11.5q2.98 5.33 3.15 11.48.54 18.94-.53 37.84c-.93 16.55-1.5 32.44-3.18 48.61q-.06.51-.42.87-.72.74-.6 1.78.06.53-.17 1.01c-2 4.2-4.36 8.12-8.58 10.59q-14.29 8.35-29.34 15.23c-13.53 6.19-27.35 14.22-39.73 19.06-13.47 5.26-25.16-3.93-36.69-9.1q-6.58-2.96-9.77-4.58-9.35-4.76-18.96-9.01-.54-.24-.92-.68-.81-.94-2.12-.8-.51.06-.97-.16-6.49-3.08-18.94-10.39-2.22-1.3-2.88-2.74-.19-.42-.59-.64-.7-.39-1.01-1.08-.19-.45-.55-.79Zm4.2-104.74c-3.17 1.28-4.89 3.19-5.41 6.76q-1.51 10.33-.53 20.78c.84 9.01.9 20.49 1.16 27.09.35 9.11-.39 18.92.96 27.87q.34 2.25.02 4.55-.07.49.02.98.22 1.1.14 3.76-.21 7.51 5.78 12.28c2.01 1.6 3.58 4.22 7.17 4.62a.5.48-10.6 0 1 .37.24q.56 1 2.81 1.9 4.06 1.62 14.66 7.28c1.08.58 2.78.68 3.63 1.16q8.93 5.08 12.48 6.27 3.03 1.01 4.7 2.12.4.27.87.32c2.4.25 4.57 2.06 6.16 2.72q3.91 1.63 7.66 3.62.12.06.12.19v.26q-.01.26.23.35c3.57 1.3 7.39 3.47 10.72 4.23q11.42 2.6 21.66-3.66.43-.26.93-.31 1.48-.17 3.56-1.22 10.98-5.53 17.52-9.13c6.91-3.82 14.36-7.43 21.68-10.33 3.72-1.48 6.66-3.7 10.6-5.32 4.48-1.83 11.89-8.66 12.61-13.59 1.61-10.9 1.82-26.42 2.43-38.42q1.24-24.43.9-48.88c-.04-3.11-1.9-9.61-5.6-10.32q-4.11-4.51-8.99-6.4-28.91-11.19-57.8-22.47c-6.91-2.7-12.73-4.8-20.19-1.99Q61.83 26.26 30.73 38.2q-7.14 2.74-10.75 9.01Z"/><path fill="#75797d" d="M179.99 45.38q2.87 4.44 2.97 10.87c.34 22.03-.87 40.71-1.6 61.09q-.08 2.08-.62 6.78c-.8 6.99.86 18.68-4.52 23.86q-3.21 3.1-8.06 5.6c-19.87 10.23-41.61 21.4-60.08 29.88-6.76 3.11-12.83 1.25-19.41-1.94-1.28-.62-2.31-.26-3.56-1.16-3.58-2.56-8.03-4.31-11.89-6.5l1.04-.16q8.56 4.21 17.18 8.36c3.59 1.73 7.9.92 11.82 1.64q1.16.21 1.98-.64 2.7-.62 3.35-.93 33.97-16.45 61.89-30.85c6.1-3.16 8.14-7.42 8.54-14.5 1.36-23.53 1.9-47.16 2.78-70.72.2-5.31.48-12.18-1.4-16.76q-1.39-3.98-4.24-5.76-2.39-1.87-3.6-2.35-31.86-12.86-63.98-25.04-8.28-3.14-16.14-.23-25.87 9.57-63.62 24.67-2.63 1.05-5.44 3.4-2.2 2.85-2.92 7.49-1.64 6.98-1.32 13.97c.53 11.9.47 23.79.82 35.7.05 1.83-.75 3.98-.51 6.12q.61 5.5.73 11.04 0 .08.08.11.13.05.29.08.3.05.29.36l-.25 22.37q-1.8-21.87-1.9-43.97c-.06-13.99-1.2-28.94-.91-41.19q.07-3.33 2.2-8.86 3.61-6.27 10.75-9.01 31.1-11.94 62.28-23.68c7.46-2.81 13.28-.71 20.19 1.99q28.89 11.28 57.8 22.47 4.88 1.89 8.99 6.4Z"/><path fill="#c6e0dc" d="M176.16 43.54c-7.43-.25-12.56 3.31-18.84 5.75q-8.91 1.88-16.22 6.84-14.73 6.42-29.71 12.87c-14.4 6.19-26.27-2.3-38.99-7.58-13.64-5.67-26.99-11.6-40.68-16.97-2.94-1.15-5.29-.74-8.34-.46q2.81-2.35 5.44-3.4 37.75-15.1 63.62-24.67 7.86-2.91 16.14.23 32.12 12.18 63.98 25.04 1.21.48 3.6 2.35Z"/><path fill="#88a8e6" d="m141.1 56.13 5.84-2.2q.38-.15.79-.18 2.06-.16 3.45-1.71a1.53 1.48-79.7 0 1 .46-.33l5.68-2.42c6.28-2.44 11.41-6 18.84-5.75q2.85 1.78 4.24 5.76l-1.37 6.49q.26-2.87-.73-3.03c.53-6.3-7.73-3.53-10.59-2.1l-40.33 16.97q-.47.19-.96.13-1.01-.14-1.85.56-.36.3-.8.48l-9.76 4.07c-2.48.02-4.2 1.53-6.06 2.02-4.58 1.2-8.74 2.31-13.45.55-7.67-2.99-14.56-5.65-22.82-9.33-5.4-2.4-11.14-4.57-16.27-6.9-11.88-5.4-20.27-8.77-28.51-10.64a.62.61-7.8 0 0-.68.89q1.26 2.32 3.93 2.67.46.06.76.42c3.48 4.08 7.88 2.51 11.89 5.14 1.44.95 3.01 1.31 4.46 2.23 4.75 3.03 10.32 4.93 15.81 7.16 4.39 1.79 8.34 4.8 13.3 6.08q.5.12.87.48.96.95 2.36.6.46-.12.85.15 2.28 1.62 4.84 2.5c2.58.9 3.58 2.09 5.5 3.73 2.08 1.77 4.68 5.76 4.96 7.88q2.36 17.89 2.05 23.55-.83 15.1.1 30.19c.12 1.94-1.39 4.63-1.4 7.08q-.02 9.37.02 18.75c.01 2.78-1.52 5.79-.27 8.86a1.03 1.03 0 0 0 1.92-.03l.9-2.43a1.02 1.02 0 0 1 1.95.13l.96 4.09q.11.47.56.66 1.68.71 3.38-.08 2.61-.7 3.88-3.35l2.01-.83-4.46 5.33a1.06.98-77.6 0 1-.43.3l-3.29 1.26-5.8-.18c-12.12-7.54-11.11-24.08-13.73-36.11-1.99-9.16-5.12-15.41-10.28-24.14-7.84-13.28-15.89-28.13-21.86-38.5q-1.55-2.68-1.98-5.1-.08-.49-.48-.79-7.63-5.82-16.03-10.36-2.95-1.6-7.39-6.88c-1.86-2.21-2.46-5.08-3.42-7.72q-.31-.84-.2.05l.36 2.87q.06.48.34.87.9 1.26 0 2.68l-.19-.66q-.12-.46-.22 0l-.3 1.5q-.01-4.38-1.99-8.03.72-4.64 2.92-7.49c3.05-.28 5.4-.69 8.34.46 13.69 5.37 27.04 11.3 40.68 16.97C85.12 66.7 96.99 75.19 111.39 69q14.98-6.45 29.71-12.87Z"/><path fill="#9e9fa0" d="M179.99 45.38c3.7.71 5.56 7.21 5.6 10.32q.34 24.45-.9 48.88c-.61 12-.82 27.52-2.43 38.42-.72 4.93-8.13 11.76-12.61 13.59-3.94 1.62-6.88 3.84-10.6 5.32-7.32 2.9-14.77 6.51-21.68 10.33q-6.54 3.6-17.52 9.13-2.08 1.05-3.56 1.22-.5.05-.93.31-10.24 6.26-21.66 3.66c-3.33-.76-7.15-2.93-10.72-4.23q-.24-.09-.23-.35v-.26q0-.13-.12-.19-3.75-1.99-7.66-3.62c-1.59-.66-3.76-2.47-6.16-2.72q-.47-.05-.87-.32-1.67-1.11-4.7-2.12-3.55-1.19-12.48-6.27c-.85-.48-2.55-.58-3.63-1.16q-10.6-5.66-14.66-7.28-2.25-.9-2.81-1.9a.5.48-10.6 0 0-.37-.24c-3.59-.4-5.16-3.02-7.17-4.62q-5.99-4.77-5.78-12.28.08-2.66-.14-3.76-.09-.49-.02-.98.32-2.3-.02-4.55c-1.35-8.95-.61-18.76-.96-27.87-.26-6.6-.32-18.08-1.16-27.09q-.98-10.45.53-20.78c.52-3.57 2.24-5.48 5.41-6.76q-2.13 5.53-2.2 8.86c-.29 12.25.85 27.2.91 41.19q.1 22.1 1.9 43.97 1.12 4.04 2.7 5.72 3.97 4.2 9.56 7.52c4.38 2.59 11.73 4.49 15.91 7.54 2.39 1.75 4.81 2.05 6.64 3q8.85 4.6 17.82 8.85c3.86 2.19 8.31 3.94 11.89 6.5 1.25.9 2.28.54 3.56 1.16 6.58 3.19 12.65 5.05 19.41 1.94 18.47-8.48 40.21-19.65 60.08-29.88q4.85-2.5 8.06-5.6c5.38-5.18 3.72-16.87 4.52-23.86q.54-4.7.62-6.78c.73-20.38 1.94-39.06 1.6-61.09q-.1-6.43-2.97-10.87Z"/><path fill="#b2d3fe" d="m94.5 75.44-1.27.09q-.75.05-.32.67l6.12 8.7q-.12.68.05 1.08c-.45 3.15.89 5.73.94 8.39.26 13.96-.66 28.15.65 42.03q1.11 11.7.29 23.47-.01.2.13.34l.26.26q.2.21.18.5-.38 4.89-.32 9.78.09 5.87 3.46 7.28l3.35-1.86q-.31 1.59-2.1 3.1-1.7.79-3.38.08-.45-.19-.56-.66l-.96-4.09a1.02 1.02 0 0 0-1.95-.13l-.9 2.43a1.03 1.03 0 0 1-1.92.03c-1.25-3.07.28-6.08.27-8.86q-.04-9.38-.02-18.75c.01-2.45 1.52-5.14 1.4-7.08q-.93-15.09-.1-30.19.31-5.66-2.05-23.55c-.28-2.12-2.88-6.11-4.96-7.88-1.92-1.64-2.92-2.83-5.5-3.73q-2.56-.88-4.84-2.5-.39-.27-.85-.15-1.4.35-2.36-.6-.37-.36-.87-.48c-4.96-1.28-8.91-4.29-13.3-6.08-5.49-2.23-11.06-4.13-15.81-7.16-1.45-.92-3.02-1.28-4.46-2.23-4.01-2.63-8.41-1.06-11.89-5.14q-.3-.36-.76-.42-2.67-.35-3.93-2.67a.62.61-7.8 0 1 .68-.89c8.24 1.87 16.63 5.24 28.51 10.64 5.13 2.33 10.87 4.5 16.27 6.9 8.26 3.68 15.15 6.34 22.82 9.33Z"/><path fill="#e1eef5" d="m178.3 52.76-1.55 4.75c-4.86 6.97-14.82 9.71-22.55 13.95q-.4.21-.56.62-.19.47-.67.62-4.17 1.34-7.14 3.14c-3.39 2.06-7.02 3.47-9.99 5.45-4.98 3.32-12.87 6.74-15.93 11.87-2.34 3.91-2.36 9.63-2.79 14.16-.16 1.65-1.41 2.56-1.33 4.54q.13 2.97.21 5.94c.07 2.63-1.51 5.24-1.69 8.19q-.68 11.3-1.53 22.6c-.27 3.63-1.46 9.47-1.31 14.66q.23 8.06-6.8 14.78-3.37-1.41-3.46-7.28-.06-4.89.32-9.78.02-.29-.18-.5l-.26-.26q-.14-.14-.13-.34.82-11.77-.29-23.47c-1.31-13.88-.39-28.07-.65-42.03-.05-2.66-1.39-5.24-.94-8.39l1.4 6.98a.65.64-29.8 0 0 1.12.3q1.69-1.9 1.67-4.39-.01-.52.25-.98 1.89-3.38 5.16-5.49.42-.28.64-.73 1.04-2.15 2.69-2.61 4.78-1.3 7.37-4.28a1 .97-64.2 0 1 .88-.32c3.73.57 4.9-1.59 7.72-2.55 6.48-2.21 12.04-6.59 18.5-8.89q3.93-1.39 4.97-1.88c3.81-1.8 8.1-4.25 12.28-4.79q.56-.08.98-.44 2.35-1.99 5.35-2.8a.43.42-75.2 0 0 .22-.13l1.15-1.3q.33-.38-.17-.45l-3.55-.57c2.86-1.43 11.12-4.2 10.59 2.1Z"/><path fill="#b0c0c9" d="m157.32 49.29-5.68 2.42a1.53 1.48-79.7 0 0-.46.33q-1.39 1.55-3.45 1.71-.41.03-.79.18l-5.84 2.2q7.31-4.96 16.22-6.84Z"/><path fill="#9bb0b6" d="M180.4 49.3c1.88 4.58 1.6 11.45 1.4 16.76-.88 23.56-1.42 47.19-2.78 70.72-.4 7.08-2.44 11.34-8.54 14.5q-27.92 14.4-61.89 30.85-.65.31-3.35.93-.6-.64-1.61-1.08l3.29-1.26a1.06.98-77.6 0 0 .43-.3l4.46-5.33q2.77-.95 7.18-4.33 1.45-1.1 7.2-4.38c1.28-.73 2.62-2.07 4.12-2.74 5.27-2.34 10.18-5.79 15.14-8.73q.25-.15.29-.43.03-.22.19-.33 10.42-7.29 19.24-16.45.38-.39.51-.92 1.09-4.21 3.27-8.01.24-.41.27-.89c.07-1.58.95-2.74 1.12-4.15q1.08-9.32 2.5-18.6c.53-3.49.2-7.18.64-10.63q1.43-11.03 1.52-20.94c.06-6.69 3.7-11.39 4.03-17.77l1.37-6.49Z"/><path fill="#fff" d="m167.71 50.66 3.55.57q.5.07.17.45l-1.15 1.3a.43.42-75.2 0 1-.22.13q-3 .81-5.35 2.8-.42.36-.98.44c-4.18.54-8.47 2.99-12.28 4.79q-1.04.49-4.97 1.88c-6.46 2.3-12.02 6.68-18.5 8.89-2.82.96-3.99 3.12-7.72 2.55a1 .97-64.2 0 0-.88.32q-2.59 2.98-7.37 4.28-1.65.46-2.69 2.61-.22.45-.64.73-3.27 2.11-5.16 5.49-.26.46-.25.98.02 2.49-1.67 4.39a.65.64-29.8 0 1-1.12-.3l-1.4-6.98q-.17-.4-.05-1.08-.52-2.89.16-5.49a3.02 3.01-.9 0 1 2.08-2.14c3.34-.97 9.75-2.12 12.74-4.4l9.76-4.07q.44-.18.8-.48.84-.7 1.85-.56.49.06.96-.13l40.33-16.97Z"/><path fill="#5b77a1" d="M20.46 51.48q1.98 3.65 1.99 8.03-.23 5.28.54 10.36c.23 1.55 1.2 3.2 1.22 5.39q.06 7.41.06 14.82 0 .4.13.68.16.32.37.62a1.62 1.57 27 0 1 .31.91c.14 8.71.23 16.28.81 26.02q.51 8.64.34 17.3c-.06 3.05.98 4.68 2.84 6.84a.79.79 0 0 1-1.16 1.08l-.28-.27q-.29-.3-.68-.17l-3.22 1.07a.74.74 0 0 0-.36 1.13c1.77 2.45 3.76 4.23 6.62 5.72q22.05 11.51 44.27 22.69l-1.04.16q-8.97-4.25-17.82-8.85c-1.83-.95-4.25-1.25-6.64-3-4.18-3.05-11.53-4.95-15.91-7.54q-5.59-3.32-9.56-7.52-1.58-1.68-2.7-5.72l.25-22.37q.01-.31-.29-.36-.16-.03-.29-.08-.08-.03-.08-.11-.12-5.54-.73-11.04c-.24-2.14.56-4.29.51-6.12-.35-11.91-.29-23.8-.82-35.7q-.32-6.99 1.32-13.97Z"/><path fill="#7897cd" d="M97.83 181.8c-2.51 1.25-2.69-1.1-4.13-2.25q-.99-.8-1-.99-.02-.56-1.44-1.07-3.4-1.23-5.17-4.31-.22-.39-.67-.39h-.5q-.46.01-.75-.35-1.49-1.78-3.65-2.74c-.81-.37-1.93-2.12-2.94-2.69-4.9-2.8-10.08-6.48-15.52-8.01q-4.04-1.13-7-4.3-.33-.36-.83-.4-4.15-.38-7.21-3.06-.38-.33-.87-.42-2.09-.35-3.45-2.13-.23-.31-.62-.36-2.83-.38-5.28-1.93-.41-.26-.26-.72c.73-2.17-3.46-4.9-5.29-6.79q-.34-.34-.28-.82c.2-1.78-1.04-3.29-1.32-4.52-.58-2.51-.43-5.15-.71-7.3q-2.2-16.72-2.33-30.56-.03-3.27-1.27-5.5-.25-.45-.26-.96l-.3-17.32q0-.46-.33-.78-.9-.89-.75-1.89.76-4.92-.94-8.78-.66-1.49.4-1.79.9-1.42 0-2.68-.28-.39-.34-.87l-.36-2.87q-.11-.89.2-.05c.96 2.64 1.56 5.51 3.42 7.72q4.44 5.28 7.39 6.88 8.4 4.54 16.03 10.36.4.3.48.79.43 2.42 1.98 5.1c5.97 10.37 14.02 25.22 21.86 38.5 5.16 8.73 8.29 14.98 10.28 24.14 2.62 12.03 1.61 28.57 13.73 36.11Z"/><path fill="#b0c0c9" d="M178.3 52.76q.99.16.73 3.03c-.33 6.38-3.97 11.08-4.03 17.77q-.09 9.91-1.52 20.94c-.44 3.45-.11 7.14-.64 10.63q-1.42 9.28-2.5 18.6c-.17 1.41-1.05 2.57-1.12 4.15q-.03.48-.27.89-2.18 3.8-3.27 8.01-.13.53-.51.92-8.82 9.16-19.24 16.45-.16.11-.19.33-.04.28-.29.43c-4.96 2.94-9.87 6.39-15.14 8.73-1.5.67-2.84 2.01-4.12 2.74q-5.75 3.28-7.2 4.38-4.41 3.38-7.18 4.33l-2.01.83 2.37-4.59q2.6-3.28 3.19-7.36 1.24-8.73 2.9-17.45.64-3.36 2.29-6.28c3.62-6.37 8.09-13.07 11.21-18.83q3.37-6.22 6.69-12.45c.67-1.25 2.12-2.93 2.73-4.37 3.16-7.42 7.68-14.18 10.99-21.66 1.06-2.38 4.59-6.62 6.58-8.1q6.14-4.58 12.79-8.38.43-.24.67-.66c1.18-2 2.97-3.03 3.8-4.97q.74-1.71.74-3.31l1.55-4.75Z"/><path fill="#6c8eb0" d="M23.16 58.67q-1.06.3-.4 1.79 1.7 3.86.94 8.78-.15 1 .75 1.89.33.32.33.78l.3 17.32q.01.51.26.96 1.24 2.23 1.27 5.5.13 13.84 2.33 30.56c.28 2.15.13 4.79.71 7.3.28 1.23 1.52 2.74 1.32 4.52q-.06.48.28.82c1.83 1.89 6.02 4.62 5.29 6.79q-.15.46.26.72 2.45 1.55 5.28 1.93.39.05.62.36 1.36 1.78 3.45 2.13.49.09.87.42 3.06 2.68 7.21 3.06.5.04.83.4 2.96 3.17 7 4.3c5.44 1.53 10.62 5.21 15.52 8.01 1.01.57 2.13 2.32 2.94 2.69q2.16.96 3.65 2.74.29.36.75.35h.5q.45 0 .67.39 1.77 3.08 5.17 4.31 1.42.51 1.44 1.07.01.19 1 .99c1.44 1.15 1.62 3.5 4.13 2.25l5.8.18q1.01.44 1.61 1.08-.82.85-1.98.64c-3.92-.72-8.23.09-11.82-1.64q-8.62-4.15-17.18-8.36-22.22-11.18-44.27-22.69c-2.86-1.49-4.85-3.27-6.62-5.72a.74.74 0 0 1 .36-1.13l3.22-1.07q.39-.13.68.17l.28.27a.79.79 0 0 0 1.16-1.08c-1.86-2.16-2.9-3.79-2.84-6.84q.17-8.66-.34-17.3c-.58-9.74-.67-17.31-.81-26.02a1.62 1.57 27 0 0-.31-.91q-.21-.3-.37-.62-.13-.28-.13-.68 0-7.41-.06-14.82c-.02-2.19-.99-3.84-1.22-5.39q-.77-5.08-.54-10.36l.3-1.5q.1-.46.22 0l.19.66Z"/><path fill="#c4d3da" d="M176.75 57.51q0 1.6-.74 3.31c-.83 1.94-2.62 2.97-3.8 4.97q-.24.42-.67.66-6.65 3.8-12.79 8.38c-1.99 1.48-5.52 5.72-6.58 8.1-3.31 7.48-7.83 14.24-10.99 21.66-.61 1.44-2.06 3.12-2.73 4.37q-3.32 6.23-6.69 12.45c-3.12 5.76-7.59 12.46-11.21 18.83q-1.65 2.92-2.29 6.28-1.66 8.72-2.9 17.45-.59 4.08-3.19 7.36l-4.15 4.84-3.35 1.86q7.03-6.72 6.8-14.78c-.15-5.19 1.04-11.03 1.31-14.66q.85-11.3 1.53-22.6c.18-2.95 1.76-5.56 1.69-8.19q-.08-2.97-.21-5.94c-.08-1.98 1.17-2.89 1.33-4.54.43-4.53.45-10.25 2.79-14.16 3.06-5.13 10.95-8.55 15.93-11.87 2.97-1.98 6.6-3.39 9.99-5.45q2.97-1.8 7.14-3.14.48-.15.67-.62.16-.41.56-.62c7.73-4.24 17.69-6.98 22.55-13.95Z"/><path fill="#c6e0dc" d="M114.01 72.87c-2.99 2.28-9.4 3.43-12.74 4.4a3.02 3.01-.9 0 0-2.08 2.14q-.68 2.6-.16 5.49l-6.12-8.7q-.43-.62.32-.67l1.27-.09c4.71 1.76 8.87.65 13.45-.55 1.86-.49 3.58-2 6.06-2.02Z"/><path fill="#3a5987" d="M231.63 132.12c.28-3.95-.38-8.58-.38-11.77q-.01-16.53.01-33.09 0-.51.5-.51h8.74q.5 0 .5.5v62.5a.5.5 0 0 1-.5.5l-13.67-.22q-.5 0-.66-.48c-.68-1.98-.84-4.63-1.15-6.1q-4.4-20.77-7.2-41.82a.14.14 0 0 0-.24-.09l-.2.2q-.1.11-.08.25c1.88 15.33.72 32.27.69 47.77a.53.52 0 0 1-.53.52l-8.87-.1q-.59-.01-.59-.6v-62.2q0-.63.63-.63h16.11q.59 0 .68.59c2.23 15.05 4.84 27.64 5.81 44.78a.2.2 0 0 0 .4 0ZM312.02 116.86c7.61.42 8.49 5.37 8.5 12.17.02 10.54 1.6 19.48-12.13 20.77q-8.18.77-16.38.22-.61-.04-.61-.65l.07-61.8q0-.49.49-.54c7.81-.7 23.7-1.71 27.33 5.13 2.14 4.05 2.16 17.55-1.31 20.96-1.49 1.47-4.06 2-6.1 3.11q-1.02.56.14.63Zm-8.06-21.61.06 16.64a.43.43 0 0 0 .43.43l.71-.01a2.9 2.89-.2 0 0 2.89-2.9l-.04-11.72a2.9 2.89-.2 0 0-2.91-2.88l-.71.01a.43.43 0 0 0-.43.43Zm3.9 42.92q.27-6.94.14-13.94-.08-3.72-3.46-3.43-.55.05-.55.6l.02 18.62a.94.93-86.5 0 0 .82.93c2.12.23 2.95-.72 3.03-2.78ZM287.04 99.53l1.9-.12a.52.52 0 0 1 .55.52l.01 7.38q0 .57-.57.5l-2.02-.28a.57.57 0 0 0-.64.56q-.08 15.83.01 31.61.02 2.22 2.62 1.99a.55.55 0 0 1 .6.55v7.26q0 .61-.61.61c-4.87-.01-13.71 1.32-13.84-6.18q-.12-7.73-.02-35.65 0-.53-.54-.53h-1.61q-.62 0-.63-.62l-.09-7.33a.61.61 0 0 1 .8-.59l1.02.32a.8.8 0 0 0 1.03-.77l-.04-8.17q0-.57.56-.57l10.09-.03q.63 0 .63.63v8.17q0 .79.79.74Z"/><path fill="#fff" d="M303.96 95.25a.43.43 0 0 1 .43-.43l.71-.01a2.9 2.89-.2 0 1 2.91 2.88l.04 11.72a2.9 2.89-.2 0 1-2.89 2.9l-.71.01a.43.43 0 0 1-.43-.43l-.06-16.64Z"/><path fill="#3a5987" d="m257.67 142.74 1.11-.37q.65-.21.66-.9l.09-10.74q0-.48.49-.48h9.97q.5 0 .5.5c.02 4.68.8 11.28-1.34 15.04-2.94 5.15-7.05 4.9-12.51 5.19-7.31.39-11.83-3.56-11.98-11.18q-.26-13.89-.11-27.81c.08-6.28 1.63-12.56 9.03-13.38 21.33-2.36 16.79 13.64 16.99 27.31q.01.58-.57.58h-13.48q-.78 0-.78.79l.03 14.09a1.45 1.44-9.2 0 0 1.9 1.36Zm1.857-35.25a.92.92 0 0 0-.915-.924l-2.14-.011a.92.92 0 0 0-.925.915l-.054 10.38a.92.92 0 0 0 .915.924l2.14.011a.92.92 0 0 0 .925-.915l.054-10.38ZM323.45 118.65l-1.66.13q-.8.06-.8-.74l.02-3.39q.01-.65.66-.65h1.77q.49 0 .51-.49c.26-6.49-.26-12.53 7.16-14.6 2.41-.67 7.41-.72 10.05-.16 6.73 1.42 8.61 6 8.59 12.68q-.01 7.21 0 14.35a.71.71 0 0 1-.71.72h-13.78q-.5 0-.5.5c-.02 3.47-.82 11.85.23 14.74q.62 1.7 2.47.65a2.54 2.54 0 0 0 1.29-2.21v-9.43a.5.5 0 0 1 .5-.5h9.97q.46 0 .47.45c.42 12.5.82 20.45-14.68 20.44-9.62 0-10.95-6.14-10.98-14.57q-.03-8.71-.03-17.41 0-.55-.55-.51Zm15.3-11.15a.92.92 0 0 0-.92-.92h-2.16a.92.92 0 0 0-.92.92v10.38a.92.92 0 0 0 .92.92h2.16a.92.92 0 0 0 .92-.92V107.5Zm-13.93 8.131a.82.82 0 0 0-.78-.857l-1.359-.064a.82.82 0 0 0-.857.78l-.064 1.359a.82.82 0 0 0 .78.857l1.359.064a.82.82 0 0 0 .857-.78l.064-1.359ZM364.32 108.08l-.1 8.19a1 .99-89.4 0 1-.99.98h-9.94q-.41 0-.44-.41c-.48-6.81-.43-15.43 7.03-17.76 8.3-2.58 18.49-.29 19.01 10.12q.67 13.15.32 35.09c-.03 1.84.15 3.51.5 5.36q.11.6-.49.6h-9.94a.86.85 84.7 0 1-.84-.7l-.5-2.74a.41.41 0 0 0-.77-.1c-2.4 5.11-10.06 5.49-12.69 1.47-2.71-4.12-1.89-14.74-1.22-19.67 1.41-10.42 16.98-7.6 14.56-19.4q-.53-2.61-2.7-2.05a1.08 1.07-7.2 0 0-.8 1.02Zm1.4 19.07q-1.47 1.47-1.47 3.56v9.3a1.69 1.69 0 0 0 2.66 1.39q1.36-.95 1.3-2.68-.23-6.34-.21-12.91 0-.94-.66-.27l-1.62 1.61ZM393.5 103a.28.28 0 0 0 .54.12c2.42-5.29 10.35-6.5 13.49-1.4q1.16 1.88 1.19 6.44.11 20.66 0 41.34-.01.46-.47.47l-10.53.11q-.44 0-.44-.45-.08-19.02-.02-37.99c0-1.18.28-2.89-1.05-3.35a1.85 1.85 0 0 0-2.46 1.75v39.74a.52.52 0 0 1-.53.52l-10.16-.17q-.56-.01-.56-.57V100q0-.5.5-.5l9.84-.01q.66 0 .66.66V103ZM426.68 108.07a1.65 1.65 0 0 0-2.02-1.58c-1.76.41-1.55 1.68-1.69 3.08-1.04 10.4 13.46 11.71 14.7 21.22 1.75 13.35-1.81 23.53-17.95 19.79-9.74-2.26-8-12.47-7.96-19.82q0-.51.5-.51h10.2q.48 0 .5.48.14 4.72.02 9.25-.05 1.74 1.02 2.59a1.4 1.4 0 0 0 2.21-.68c3.8-12.44-9.48-14.71-13.6-24.02-1.21-2.72-1.44-10.34-.21-13.12 2.72-6.14 8.62-6.5 14.83-6.18 10.91.56 11.12 9.42 10.68 18.29q-.02.43-.46.43l-9.94-.06q-.72 0-.73-.72l-.1-8.44Z"/><rect width="3.98" height="12.22" x="-1.99" y="-6.11" fill="#fff" rx=".92" transform="rotate(.3 -21389.58 49237.01)"/><rect width="4" height="12.22" x="334.75" y="106.58" fill="#fff" rx=".92"/><rect width="3" height="3" x="-1.5" y="-1.5" fill="#fff" rx=".82" transform="rotate(2.7 -2304.588 6917.277)"/><path fill="#fff" d="M307.86 138.17c-.08 2.06-.91 3.01-3.03 2.78a.94.93-86.5 0 1-.82-.93l-.02-18.62q0-.55.55-.6 3.38-.29 3.46 3.43.13 7-.14 13.94ZM365.72 127.15l1.62-1.61q.66-.67.66.27-.02 6.57.21 12.91.06 1.73-1.3 2.68a1.69 1.69 0 0 1-2.66-1.39v-9.3q0-2.09 1.47-3.56Z"/><path fill="#c6e0dc" d="m112.17 171.33-2.37 4.59q-1.27 2.65-3.88 3.35 1.79-1.51 2.1-3.1l4.15-4.84Z"/></svg>