<svg xmlns="http://www.w3.org/2000/svg" viewBox="0 0 200 200"><g fill="none" stroke-width="2"><path stroke="#8d6021" d="M100.21 33.9q-3.34 2.93-4.52 7.11a1.02 1.01-.6 0 1-.69.7q-5.03 1.48-9.35 4.42-.44.3-.94.12-4.3-1.59-8.42-1.23" vector-effect="non-scaling-stroke"/><path stroke="#8e6a1d" d="M76.29 45.02q-5.02 0-9.05 1.85-.43.19-.46.66-.62 9.26 4.43 16.95.28.44.13.93-.93 2.91-1.63 5.88c-.52 2.2.39 3.02-1.94 4.47q-6.92 4.31-9.91 11.93a1.15 1.14-55.9 0 0 .23 1.21q6.2 6.63 15.14 8.47.52.11.81.54l2.49 3.59" vector-effect="non-scaling-stroke"/><path stroke="#8d6021" d="m76.53 101.5 2.58 3.04q.33.39.19.88-1.94 6.73.39 13.29.18.53.75.51 7.98-.24 14.91-4.76" vector-effect="non-scaling-stroke"/><path stroke="#8b4e23" d="M95.35 114.46c4.14 2.28 9.14 1.65 13.58 2.54" vector-effect="non-scaling-stroke"/><path stroke="#893d25" d="M108.93 117q2.9 4.57 9.62 5.74a.82.79 25.7 0 0 .72-.24q4.34-4.6 4.81-10.92.03-.47.42-.75 4.59-3.32 7.66-8.1a.96.96 0 0 1 .77-.44q4.78-.12 8.5-3.06.42-.34.32-.87-.93-5.06-4.73-8.46-.41-.37-.36-.91c1.38-15.17-10.6-27.3-25.75-25.94" vector-effect="non-scaling-stroke"/><path stroke="#8b4e23" d="M110.91 63.05Q99.22 64.97 95.72 75.5c-2.14 6.44-.1 13.81 5.74 17.33 3.73 2.25 10.07 3.13 13.61-.48a.78.78 0 0 0-.83-1.28c-17.45 6.59-19.4-21.88-.72-20.57" vector-effect="non-scaling-stroke"/><path stroke="#893d25" d="M113.52 70.5c9.4 1.74 14.48 8.74 12.92 18.24q-2.04 12.33-15.94 15.91" vector-effect="non-scaling-stroke"/><path stroke="#8b4e23" d="M110.5 104.65q-6.36.52-12.23-1.56" vector-effect="non-scaling-stroke"/><path stroke="#8d6021" d="M98.27 103.09c-12.26-5.3-18.52-16.6-16.14-29.6 1.77-9.68 7.7-18.24 17.24-21.67" vector-effect="non-scaling-stroke"/><path stroke="#8b4e23" d="M99.37 51.82q6.32-1.91 12.58-1.95" vector-effect="non-scaling-stroke"/><path stroke="#893d25" d="M111.95 49.87q22.75 2.67 29.37 24.61.24.82.9.77a.74.73 87.5 0 0 .68-.75q-.27-14-10.07-23.86a1.03 1.01-63.3 0 1-.29-.9q.82-4.6-1.4-8.7-.24-.44-.73-.45-4.45-.06-8.31 2.1a1.21 1.19 39 0 1-.97.09l-9.47-3.15" vector-effect="non-scaling-stroke"/><path stroke="#8b4e23" d="M111.66 39.63q-1.68-5.64-7.33-8.67-.43-.23-.87 0-2.17 1.17-3.25 2.94" vector-effect="non-scaling-stroke"/><path stroke="#f46b29" d="M111.66 39.63q-4.06 4.81.29 10.24" vector-effect="non-scaling-stroke"/><path stroke="#f88e25" d="M99.37 51.82q-3.17-8.94.84-17.92M98.27 103.09q-.33 1.2-1.98 1.42a.67.65-3.2 0 0-.57.62l-.37 9.33" vector-effect="non-scaling-stroke"/><path stroke="#fcab1f" d="m76.53 101.5-.24-56.48" vector-effect="non-scaling-stroke"/><path stroke="#f46b29" d="m108.93 117 1.18-11.32q.01-.09.08-.13l.39-.23a.17.17 0 0 0-.09-.32h-.51q-.59 0-.03-.18l.55-.17M113.52 70.5q-1.95-.84-1.74-2.28.38-2.57-.87-5.17" vector-effect="non-scaling-stroke"/><path stroke="#7b7b7b" d="M44.65 151.56c-3.74 15.7-25.36 11.15-24.09-3.88q.43-5.06 4.33-8.84 7.18-6.95 17.31.19.41.29.72-.11l2.13-2.67a.58.58 0 0 0-.1-.82c-11.97-9.2-26.12-3.97-28.75 10.31-2.27 12.32 9.95 24.65 22.49 19.46q11.34-4.69 10.89-18.08-.01-.37-.38-.37H31.25q-.5 0-.5.5v3.25q0 .5.5.5h12.96a.45.45 0 0 1 .44.56M100.56 141.84c-.63-4.59 3.32-4.67 6.69-4.57a.76.75-77.9 0 0 .71-.47l1.34-3.31q.21-.51-.34-.58c-6.68-.85-13.13.71-13.18 8.59q-.08 12-.01 24 0 .5.5.5h3.43q.63 0 .64-.64l.2-18.35q.01-.51.51-.51h6.08q.62 0 .62-.63V143q0-.75-.75-.75h-5.96q-.42 0-.48-.41M87.28 144.45a.33.33 0 0 1-.52.3q-5.91-4.26-11.73-1.98c-17.04 6.66-2.61 32.75 11.55 20.68a.41.41 0 0 1 .67.31v1.74q0 .5.5.5h2.74q.49 0 .49-.49l.06-22.24a1.02 1.02 0 0 0-1.02-1.02h-2.26a.64.63 87.1 0 0-.63.7l.15 1.5M127.86 144.68q-7.77-5.26-14.28-.49c-12.72 9.33.45 29.61 14.4 19.26a.35.35 0 0 1 .55.36l-.33 1.47a.6.59-84.1 0 0 .58.72h2.72q.75 0 .75-.75v-22.5q0-.5-.5-.5H129q-.75 0-.75.75v1.48q0 .47-.39.2M141.1 143.37v-.69a.42.42 0 0 0-.41-.42l-2.68-.02q-.76 0-.76.75v22.38q0 .63.63.63h3.32q.53 0 .53-.54c0-3.82-.67-14.01 1.51-16.96 1.95-2.65 6.63-2.19 8.32.8 1.55 2.75.68 12.42.7 15.99a.72.71 89.6 0 0 .71.71h3.52a.54.54 0 0 0 .54-.55l-.16-11.78c-.12-9.05-5.79-14.48-15.17-9.92q-.6.29-.6-.38M179.79 144.78c-9.62-7.22-22.34 1.38-18.95 12.66 2.51 8.36 11.94 11.83 18.82 6.02q.59-.5.59.27v1.65q0 .62.63.62h2.85q.48 0 .48-.48l-.1-22.63q-.01-.64-.65-.64h-2.84q-.71 0-.59.7l.26 1.52q.14.78-.5.31M57.25 143.28v-.4q0-.63-.63-.63h-2.49q-.63 0-.63.62v22.63q0 .5.5.5h3.5a.75.74 0 0 0 .75-.74q.01-6.39 0-12.86c-.01-4.3 2.94-6.15 6.97-5.57a.78.78 0 0 0 .82-.47l1.42-3.38q.21-.51-.33-.6-4.89-.78-9.28 1.28-.6.28-.6-.38" vector-effect="non-scaling-stroke"/><path stroke="#7b7b7b" d="M86.55 154.13a7.27 7.27 0 0 0-7.27-7.27 7.27 7.27 0 0 0-7.27 7.27 7.27 7.27 0 0 0 7.27 7.27 7.27 7.27 0 0 0 7.27-7.27M127.71 154.11a7.27 7.27 0 0 0-7.27-7.27 7.27 7.27 0 0 0-7.27 7.27 7.27 7.27 0 0 0 7.27 7.27 7.27 7.27 0 0 0 7.27-7.27M179.59 154.13a7.26 7.26 0 0 0-7.26-7.26 7.26 7.26 0 0 0-7.26 7.26 7.26 7.26 0 0 0 7.26 7.26 7.26 7.26 0 0 0 7.26-7.26" vector-effect="non-scaling-stroke"/></g><path fill="#1f1f1f" d="M0 0h200v200H0V0Zm100.21 33.9q-3.34 2.93-4.52 7.11a1.02 1.01-.6 0 1-.69.7q-5.03 1.48-9.35 4.42-.44.3-.94.12-4.3-1.59-8.42-1.23-5.02 0-9.05 1.85-.43.19-.46.66-.62 9.26 4.43 16.95.28.44.13.93-.93 2.91-1.63 5.88c-.52 2.2.39 3.02-1.94 4.47q-6.92 4.31-9.91 11.93a1.15 1.14-55.9 0 0 .23 1.21q6.2 6.63 15.14 8.47.52.11.81.54l2.49 3.59 2.58 3.04q.33.39.19.88-1.94 6.73.39 13.29.18.53.75.51 7.98-.24 14.91-4.76c4.14 2.28 9.14 1.65 13.58 2.54q2.9 4.57 9.62 5.74a.82.79 25.7 0 0 .72-.24q4.34-4.6 4.81-10.92.03-.47.42-.75 4.59-3.32 7.66-8.1a.96.96 0 0 1 .77-.44q4.78-.12 8.5-3.06.42-.34.32-.87-.93-5.06-4.73-8.46-.41-.37-.36-.91c1.38-15.17-10.6-27.3-25.75-25.94Q99.22 64.97 95.72 75.5c-2.14 6.44-.1 13.81 5.74 17.33 3.73 2.25 10.07 3.13 13.61-.48a.78.78 0 0 0-.83-1.28c-17.45 6.59-19.4-21.88-.72-20.57 9.4 1.74 14.48 8.74 12.92 18.24q-2.04 12.33-15.94 15.91-6.36.52-12.23-1.56c-12.26-5.3-18.52-16.6-16.14-29.6 1.77-9.68 7.7-18.24 17.24-21.67q6.32-1.91 12.58-1.95 22.75 2.67 29.37 24.61.24.82.9.77a.74.73 87.5 0 0 .68-.75q-.27-14-10.07-23.86a1.03 1.01-63.3 0 1-.29-.9q.82-4.6-1.4-8.7-.24-.44-.73-.45-4.45-.06-8.31 2.1a1.21 1.19 39 0 1-.97.09l-9.47-3.15q-1.68-5.64-7.33-8.67-.43-.23-.87 0-2.17 1.17-3.25 2.94ZM44.65 151.56c-3.74 15.7-25.36 11.15-24.09-3.88q.43-5.06 4.33-8.84 7.18-6.95 17.31.19.41.29.72-.11l2.13-2.67a.58.58 0 0 0-.1-.82c-11.97-9.2-26.12-3.97-28.75 10.31-2.27 12.32 9.95 24.65 22.49 19.46q11.34-4.69 10.89-18.08-.01-.37-.38-.37H31.25q-.5 0-.5.5v3.25q0 .5.5.5h12.96a.45.45 0 0 1 .44.56Zm55.91-9.72c-.63-4.59 3.32-4.67 6.69-4.57a.76.75-77.9 0 0 .71-.47l1.34-3.31q.21-.51-.34-.58c-6.68-.85-13.13.71-13.18 8.59q-.08 12-.01 24 0 .5.5.5h3.43q.63 0 .64-.64l.2-18.35q.01-.51.51-.51h6.08q.62 0 .62-.63V143q0-.75-.75-.75h-5.96q-.42 0-.48-.41Zm-13.28 2.61a.33.33 0 0 1-.52.3q-5.91-4.26-11.73-1.98c-17.04 6.66-2.61 32.75 11.55 20.68a.41.41 0 0 1 .67.31v1.74q0 .5.5.5h2.74q.49 0 .49-.49l.06-22.24a1.02 1.02 0 0 0-1.02-1.02h-2.26a.64.63 87.1 0 0-.63.7l.15 1.5Zm40.58.23q-7.77-5.26-14.28-.49c-12.72 9.33.45 29.61 14.4 19.26a.35.35 0 0 1 .55.36l-.33 1.47a.6.59-84.1 0 0 .58.72h2.72q.75 0 .75-.75v-22.5q0-.5-.5-.5H129q-.75 0-.75.75v1.48q0 .47-.39.2Zm13.24-1.31v-.69a.42.42 0 0 0-.41-.42l-2.68-.02q-.76 0-.76.75v22.38q0 .63.63.63h3.32q.53 0 .53-.54c0-3.82-.67-14.01 1.51-16.96 1.95-2.65 6.63-2.19 8.32.8 1.55 2.75.68 12.42.7 15.99a.72.71 89.6 0 0 .71.71h3.52a.54.54 0 0 0 .54-.55l-.16-11.78c-.12-9.05-5.79-14.48-15.17-9.92q-.6.29-.6-.38Zm38.69 1.41c-9.62-7.22-22.34 1.38-18.95 12.66 2.51 8.36 11.94 11.83 18.82 6.02q.59-.5.59.27v1.65q0 .62.63.62h2.85q.48 0 .48-.48l-.1-22.63q-.01-.64-.65-.64h-2.84q-.71 0-.59.7l.26 1.52q.14.78-.5.31Zm-122.54-1.5v-.4q0-.63-.63-.63h-2.49q-.63 0-.63.62v22.63q0 .5.5.5h3.5a.75.74 0 0 0 .75-.74q.01-6.39 0-12.86c-.01-4.3 2.94-6.15 6.97-5.57a.78.78 0 0 0 .82-.47l1.42-3.38q.21-.51-.33-.6-4.89-.78-9.28 1.28-.6.28-.6-.38Z"/><path fill="#f67c27" d="M111.66 39.63q-4.06 4.81.29 10.24-6.26.04-12.58 1.95-3.17-8.94.84-17.92 1.08-1.77 3.25-2.94.44-.23.87 0 5.65 3.03 7.33 8.67Z"/><path fill="#faa023" d="M100.21 33.9q-4.01 8.98-.84 17.92c-9.54 3.43-15.47 11.99-17.24 21.67-2.38 13 3.88 24.3 16.14 29.6q-.33 1.2-1.98 1.42a.67.65-3.2 0 0-.57.62l-.37 9.33q-6.93 4.52-14.91 4.76-.57.02-.75-.51-2.33-6.56-.39-13.29.14-.49-.19-.88l-2.58-3.04-.24-56.48q4.12-.36 8.42 1.23.5.18.94-.12 4.32-2.94 9.35-4.42a1.02 1.01-.6 0 0 .69-.7q1.18-4.18 4.52-7.11Z"/><path fill="#f25a2a" d="m111.66 39.63 9.47 3.15a1.21 1.19 39 0 0 .97-.09q3.86-2.16 8.31-2.1.49.01.73.45 2.22 4.1 1.4 8.7a1.03 1.01-63.3 0 0 .29.9q9.8 9.86 10.07 23.86a.74.73 87.5 0 1-.68.75q-.66.05-.9-.77-6.62-21.94-29.37-24.61-4.35-5.43-.29-10.24Z"/><path fill="#fdb51b" d="m76.29 45.02.24 56.48-2.49-3.59q-.29-.43-.81-.54-8.94-1.84-15.14-8.47a1.15 1.14-55.9 0 1-.23-1.21q2.99-7.62 9.91-11.93c2.33-1.45 1.42-2.27 1.94-4.47q.7-2.97 1.63-5.88.15-.49-.13-.93-5.05-7.69-4.43-16.95.03-.47.46-.66 4.03-1.85 9.05-1.85Z"/><path fill="#f25a2a" d="m108.93 117 1.18-11.32q.01-.09.08-.13l.39-.23a.17.17 0 0 0-.09-.32h-.51q-.59 0-.03-.18l.55-.17q13.9-3.58 15.94-15.91c1.56-9.5-3.52-16.5-12.92-18.24q-1.95-.84-1.74-2.28.38-2.57-.87-5.17c15.15-1.36 27.13 10.77 25.75 25.94q-.05.54.36.91 3.8 3.4 4.73 8.46.1.53-.32.87-3.72 2.94-8.5 3.06a.96.96 0 0 0-.77.44q-3.07 4.78-7.66 8.1-.39.28-.42.75-.47 6.32-4.81 10.92a.82.79 25.7 0 1-.72.24q-6.72-1.17-9.62-5.74Z"/><path fill="#f67c27" d="M110.91 63.05q1.25 2.6.87 5.17-.21 1.44 1.74 2.28c-18.68-1.31-16.73 27.16.72 20.57a.78.78 0 0 1 .83 1.28c-3.54 3.61-9.88 2.73-13.61.48-5.84-3.52-7.88-10.89-5.74-17.33q3.5-10.53 15.19-12.45ZM98.27 103.09q5.87 2.08 12.23 1.56l-.55.17q-.56.18.03.18h.51a.17.17 0 0 1 .09.32l-.39.23q-.07.04-.08.13L108.93 117c-4.44-.89-9.44-.26-13.58-2.54l.37-9.33a.67.65-3.2 0 1 .57-.62q1.65-.22 1.98-1.42Z"/><path fill="#d6d6d6" d="M44.65 151.56a.45.45 0 0 0-.44-.56H31.25q-.5 0-.5-.5v-3.25q0-.5.5-.5H49.2q.37 0 .38.37.45 13.39-10.89 18.08c-12.54 5.19-24.76-7.14-22.49-19.46 2.63-14.28 16.78-19.51 28.75-10.31a.58.58 0 0 1 .1.82l-2.13 2.67q-.31.4-.72.11-10.13-7.14-17.31-.19-3.9 3.78-4.33 8.84c-1.27 15.03 20.35 19.58 24.09 3.88ZM101.04 142.25H107q.75 0 .75.75v2.87q0 .63-.62.63h-6.08q-.5 0-.51.51l-.2 18.35q-.01.64-.64.64h-3.43q-.5 0-.5-.5-.07-12 .01-24c.05-7.88 6.5-9.44 13.18-8.59q.55.07.34.58l-1.34 3.31a.76.75-77.9 0 1-.71.47c-3.37-.1-7.32-.02-6.69 4.57q.06.41.48.41ZM87.28 144.45l-.15-1.5a.64.63 87.1 0 1 .63-.7h2.26a1.02 1.02 0 0 1 1.02 1.02l-.06 22.24q0 .49-.49.49h-2.74q-.5 0-.5-.5v-1.74a.41.41 0 0 0-.67-.31c-14.16 12.07-28.59-14.02-11.55-20.68q5.82-2.28 11.73 1.98a.33.33 0 0 0 .52-.3Zm-.73 9.68a7.27 7.27 0 0 0-7.27-7.27 7.27 7.27 0 0 0-7.27 7.27 7.27 7.27 0 0 0 7.27 7.27 7.27 7.27 0 0 0 7.27-7.27ZM128.25 144.48V143q0-.75.75-.75h2.75q.5 0 .5.5v22.5q0 .75-.75.75h-2.72a.6.59-84.1 0 1-.58-.72l.33-1.47a.35.35 0 0 0-.55-.36c-13.95 10.35-27.12-9.93-14.4-19.26q6.51-4.77 14.28.49.39.27.39-.2Zm-.54 9.63a7.27 7.27 0 0 0-7.27-7.27 7.27 7.27 0 0 0-7.27 7.27 7.27 7.27 0 0 0 7.27 7.27 7.27 7.27 0 0 0 7.27-7.27ZM141.7 143.75c9.38-4.56 15.05.87 15.17 9.92l.16 11.78a.54.54 0 0 1-.54.55h-3.52a.72.71 89.6 0 1-.71-.71c-.02-3.57.85-13.24-.7-15.99-1.69-2.99-6.37-3.45-8.32-.8-2.18 2.95-1.51 13.14-1.51 16.96q0 .54-.53.54h-3.32q-.63 0-.63-.63v-22.38q0-.75.76-.75l2.68.02a.42.42 0 0 1 .41.42v.69q0 .67.6.38ZM180.29 144.47l-.26-1.52q-.12-.7.59-.7h2.84q.64 0 .65.64l.1 22.63q0 .48-.48.48h-2.85q-.63 0-.63-.62v-1.65q0-.77-.59-.27c-6.88 5.81-16.31 2.34-18.82-6.02-3.39-11.28 9.33-19.88 18.95-12.66q.64.47.5-.31Zm-.7 9.66a7.26 7.26 0 0 0-7.26-7.26 7.26 7.26 0 0 0-7.26 7.26 7.26 7.26 0 0 0 7.26 7.26 7.26 7.26 0 0 0 7.26-7.26ZM57.85 143.66q4.39-2.06 9.28-1.28.54.09.33.6l-1.42 3.38a.78.78 0 0 1-.82.47c-4.03-.58-6.98 1.27-6.97 5.57q.01 6.47 0 12.86a.75.74 0 0 1-.75.74H54q-.5 0-.5-.5v-22.63q0-.62.63-.62h2.49q.63 0 .63.63v.4q0 .66.6.38Z"/><circle cx="79.28" cy="154.13" r="7.27" fill="#1f1f1f"/><circle cx="120.44" cy="154.11" r="7.27" fill="#1f1f1f"/><circle cx="172.33" cy="154.13" r="7.26" fill="#1f1f1f"/></svg>