<svg xmlns="http://www.w3.org/2000/svg" viewBox="0 0 176 160"><g fill="none" stroke-width="2"><path stroke="#896ca7" d="M48.25 40.04q.94 1.84 0 3.67" vector-effect="non-scaling-stroke"/><path stroke="#7a57a2" stroke-opacity=".996" d="m128.9 44.05 1.6-3.76" vector-effect="non-scaling-stroke"/><path stroke="#a387bf" stroke-opacity=".992" d="M23.47 50.31q7.74-.38 15.34-.13c2.63.08 5.7-.71 8.78-.15a1.32 1.31 15.6 0 0 1.46-.82q.39-.99-.3-1.87-.36-.46-.94-.47l-24.34-.22M91.25 47.46q-2.95-.74-6-.73-16.76.04-33.56-.02M91.46 49.75q-6.4.64-12.81.53c-10.37-.17-18.29.14-27.44-.05M115.82 46.73l-20.94.18q-.56 0-.75.53c-.57 1.65.24 2.68 1.92 2.72q9.35.18 18.7-.01.5-.01.85-.37.7-.73.69-1.78M149.83 46.54l-22.57.58M149.97 49.75q-10.58.85-21.21.31-.99-.05-1.97-.31" vector-effect="non-scaling-stroke"/><path stroke="#7a57a2" stroke-opacity=".996" d="M143.46 61.5q-9.56-1.05-19.15-1-.47.01-.84.31-1.23 1.02-.43 2.14.29.4.78.37 9.71-.52 19.39.18" vector-effect="non-scaling-stroke"/><path stroke="#a387bf" stroke-opacity=".992" d="m130.46 67.75-1.11-.59q-.48-.26-1.01-.26l-13.4-.13q-.6-.01-.83.55c-1.91 4.73 13.85 2.42 15.6 2.18M143.29 67h-11.25M143.54 70.01l-11.64.37M42.46 67.75q-5.59-1.97-11.59-.42M41.96 69.75q-5.32.94-10.83.22M87.29 67q-13.92-.56-27.85-.07-.42.01-.48-.4-.02-.16-.05-.37M88.5 69.21l-.93.64q-.4.27-.87.27l-27.91-.11M111.32 66.78q-5.87-.57-11.32.76M111.46 69.75l-11.48.62M49.46 83q-.87-2.21-3.71-2.25-13.01-.19-22.21.5M49.29 84.5l-.02-.27q-.04-.29-.34-.29l-25.22.14M91.46 81.25q-3.12-.46-4.71-.48-17.61-.21-35.21.23M91 83.54l-39.74.71M111.46 81.5c-5.27-1.36-11.43-.83-16.84-.44q-.69.06-.62.75l.12 1.2a1.11 1.1-2.9 0 0 1.1.99h14.52q.37 0 .64-.26c.25-.26.77-.43.91.01M150.25 81.79l-.92-.36q-.44-.18-.92-.22-8.19-.69-16.38-.2M149.96 83.5l-17.98.64" vector-effect="non-scaling-stroke"/><path stroke="#896ca7" d="M121.75 86.79c-.64.97-.58 3.8 1 2.42" vector-effect="non-scaling-stroke"/><path stroke="#9f8cb0" stroke-opacity=".996" d="m122.75 89.21.29.29" vector-effect="non-scaling-stroke"/><path stroke="#7a57a2" stroke-opacity=".996" d="m122.75 89.21-.79-2.46M86.5 89.16q-.86-1.15-.75-2.37" vector-effect="non-scaling-stroke"/><path stroke="#896ca7" d="M94.76 86.99q-1.17 1.83-.01 3.72" vector-effect="non-scaling-stroke"/><path stroke="#7a57a2" stroke-opacity=".996" d="m111.46 89.5-4.69.66q-.22.03-.24.25-.02.15-.03.3M46.5 87.04q1.42.63 2.1 1.63a.81.81 0 0 1-.66 1.27l-24.44.25M150.23 89.45c-4.77.35-13.85 1.41-18.19-.2" vector-effect="non-scaling-stroke"/><path stroke="#4e4a53" stroke-opacity=".992" d="M105.39 105.03q-.73 3.75.15 7.33.27 1.07-.52.29l-.44-.45q-.31-.31-.33-.75-.05-1.01-.54-1.95" vector-effect="non-scaling-stroke"/><path stroke="#706b73" stroke-opacity=".992" d="m109.5 107.79.85 2.14q.38.96.7-.02l.63-1.93q.07-.22.3-.24.14-.02.27-.03" vector-effect="non-scaling-stroke"/><path stroke="#4e4a53" stroke-opacity=".992" d="M112.5 107.79q.26.27.45.6.23.41.02.82l-1.43 2.86q-.34.66.41.68.24.01.36-.19.43-.67.44-.8.12-1.04.93-1.62.21-.14.33.07.07.12.03.29M108.29 112.5l.91.24q.65.17.73-.5.27-2.3-2.22-3.94" vector-effect="non-scaling-stroke"/><path stroke="#857f89" stroke-opacity=".992" d="m120.04 111.25-.04 1.54" vector-effect="non-scaling-stroke"/><path stroke="#635e69" stroke-opacity=".992" d="M121.47 112.41q1.01-2.44.24-4.41" vector-effect="non-scaling-stroke"/><path stroke="#706b73" stroke-opacity=".992" d="M92.5 105.96q-1.14.26-.8 1.3.39 1.2-.51.3l-.37-.37q-.53-.52-.67.21l-.15.77q-.06.32.19.53.29.23.78.07.51-.17.41.36l-.19 1.01q-.11.56-.68.63-1.37.16-1.12 2.33" vector-effect="non-scaling-stroke"/><path stroke="#7a57a2" stroke-opacity=".996" d="M121.161 61.99a1 1 0 0 0-.984-1.016l-18.278-.287a1 1 0 0 0-1.015.984l-.005.34a1 1 0 0 0 .984 1.015l18.278.287a1 1 0 0 0 1.015-.984l.005-.34M41.549 62.112a4.87 1.2 1.2 0 0-4.844-1.302 4.87 1.2 1.2 0 0-4.894 1.098 4.87 1.2 1.2 0 0 4.844 1.302 4.87 1.2 1.2 0 0 4.894-1.098" vector-effect="non-scaling-stroke"/><path stroke="#a387bf" stroke-opacity=".992" d="M124.627 82.146a2.85 1.69-2.5 0 0-2.92-1.564 2.85 1.69-2.5 0 0-2.774 1.812 2.85 1.69-2.5 0 0 2.92 1.564 2.85 1.69-2.5 0 0 2.774-1.812" vector-effect="non-scaling-stroke"/><path stroke="#7a57a2" stroke-opacity=".996" d="M51.5 104.29q-1.19-2.86-3.25-.25" vector-effect="non-scaling-stroke"/><path stroke="#3f295b" stroke-opacity=".996" d="m27.46 106.5.04.77q.02.19.19.11l.27-.13" vector-effect="non-scaling-stroke"/><path stroke="#896ca7" d="m27.96 107.25-.33 1.93M30.04 109.75l2.21-.21" vector-effect="non-scaling-stroke"/><path stroke="#7a57a2" stroke-opacity=".996" d="M32.71 112q2.08.47 3.25-2.25M37.58 111.81q.16 1.99 1.92.66.42-.32.03-.68-.89-.8.17-2.05 1.19-1.41.44.27-.58 1.31.47 2.08.4.3.87.12.32-.12.52-.5" vector-effect="non-scaling-stroke"/><path stroke="#745791" d="m43 111.96 1.49.19M44.79 106c.51-1.37-.98-1.34-1.75-1.5" vector-effect="non-scaling-stroke"/><path stroke="#7a57a2" stroke-opacity=".996" d="M42.04 104.5q-.3-.56-.78-.46-.48.11-.54.59-.12.93-.72 1.66M39.75 106.21q-.22-.73-.9-.78-.44-.04-.69.32l-.37.5M37.21 106.25l-2.46-.54M33.79 104.75l-.04-.41q-.04-.39-.43-.34-1.48.19-2.54-.86a.39.38-60.4 0 0-.64.18q-.16.65.15.93" vector-effect="non-scaling-stroke"/><path stroke="#896ca7" d="M29.96 106.5q-.67-.96-1.67-.25" vector-effect="non-scaling-stroke"/><path stroke="#3f295b" stroke-opacity=".996" d="M28.29 106.25q.26-1.23-.54-2.04" vector-effect="non-scaling-stroke"/><path stroke="#7a57a2" stroke-opacity=".996" d="M27.75 104.21q.12-.36-.04-.75-.25-.62-.76-.2l-.82.69q-.51.42-.08.92l1.41 1.63" vector-effect="non-scaling-stroke"/><path stroke="#544964" stroke-opacity=".992" d="m27.75 104.21-.29 2.29" vector-effect="non-scaling-stroke"/><path stroke="#635e69" stroke-opacity=".992" d="m28.29 106.25-.33 1" vector-effect="non-scaling-stroke"/><path stroke="#9f8cb0" stroke-opacity=".996" d="M32.79 108.5q.1-1.66-1.29-2.54" vector-effect="non-scaling-stroke"/><path stroke="#745791" d="m57.54 106-.06-.38q-.05-.36-.42-.38-.99-.04-2.17.57M54.75 113.21q1.95.58 3.54-.71" vector-effect="non-scaling-stroke"/><path stroke="#896ca7" d="M58.29 112.5q1.25.2 1.5-1" vector-effect="non-scaling-stroke"/><path stroke="#745791" d="M60.46 111.75q3.39 2.06 5.58-1.25" vector-effect="non-scaling-stroke"/><path stroke="#7a57a2" stroke-opacity=".996" d="M66.29 110.75q-.28.36-.38.75-.14.54.35.82 3.05 1.71 4.95-1.32" vector-effect="non-scaling-stroke"/><path stroke="#896ca7" d="m71.5 111.29.03.51q.03.5.53.62c1.58.37 1.3-4.19 1.55-5.51" vector-effect="non-scaling-stroke"/><path stroke="#7a57a2" stroke-opacity=".996" d="m71.25 106.79-1.21.21" vector-effect="non-scaling-stroke"/><path stroke="#896ca7" d="M69.54 106.25q-.69-1.34-2.04-.46" vector-effect="non-scaling-stroke"/><path stroke="#745791" d="m67.5 105.79-3.46.71M63.54 106q-.31-.83-1.06-.99-.56-.12-.91.34l-.32.44" vector-effect="non-scaling-stroke"/><path stroke="#896ca7" d="M60.04 104.5c.04-.56-.14-1-.77-1.03q-.38-.01-.48.36l-.58 2.17" vector-effect="non-scaling-stroke"/><path stroke="#998d9f" stroke-opacity=".996" d="m58.29 112.5-.33-1M57.5 109.21v-1.17M67.5 105.79l-.29 1.21" vector-effect="non-scaling-stroke"/><path stroke="#9f8cb0" stroke-opacity=".996" d="m69.04 108.75.21 1.21M67.75 111.04l-.75-.33" vector-effect="non-scaling-stroke"/><path stroke="#745791" d="M75.5 107.54q-.22 2.13 1.14 3.61c.15.17.18.34.05.53q-.17.26-.37.01l-.82-1.04q-.21-.26-.48-.06l-.29.21q-.58.42-.09.94 1.42 1.49 3.36.72" vector-effect="non-scaling-stroke"/><path stroke="#7a57a2" stroke-opacity=".996" d="m78 112.46 4.7.54q.56.06.52-.5c-.14-2.11-2.67-1.97-4.18-1.5" vector-effect="non-scaling-stroke"/><path stroke="#745791" d="m79.04 111-.33-1.75M78.21 108.5l-1.75-1.5" vector-effect="non-scaling-stroke"/><path stroke="#89789a" stroke-opacity=".996" d="M79.04 111 78 112.46" vector-effect="non-scaling-stroke"/><path stroke="#4e4a53" stroke-opacity=".992" d="M127.503 109.26a1.02.67 87.6 0 0 .626-1.048 1.02.67 87.6 0 0-.712-.991 1.02.67 87.6 0 0-.626 1.047 1.02.67 87.6 0 0 .712.991" vector-effect="non-scaling-stroke"/></g><path fill="#653799" d="M48.25 40.04q.94 1.84 0 3.67l-24.16.19q-.59 0-.59-.59V40.7q0-.6.59-.6l24.16-.06Z"/><path fill="#aea1b5" fill-opacity=".996" d="M48.25 40.04c2.42-.58 2.27 3.26 0 3.67q.94-1.83 0-3.67Z"/><rect width="21.7" height="3.84" x="-10.85" y="-1.92" fill="#653799" rx=".49" transform="rotate(.2 -12003.08 29780.438)"/><path fill="#653799" d="m128.9 44.05 1.6-3.76q9.61-.64 19.22.03.67.05.58.71l-.3 2.33q-.09.64-.73.64l-20.37.05ZM86.92 44.12l-34.95-.16q-.48-.01-.48-.49l.03-2.53q0-.69.69-.69 11.85 0 23.66-.01c3.56 0 6.8.95 10.38 1.38q1.51.19 1.4 1.82-.05.69-.73.68Z"/><path fill="#9077ab" fill-opacity=".992" d="m130.5 40.29-1.6 3.76q-1.94-3.01 1.6-3.76Z"/><path fill="#e2d9e5" fill-opacity=".98" d="M23.47 50.31q7.74-.38 15.34-.13c2.63.08 5.7-.71 8.78-.15a1.32 1.31 15.6 0 0 1.46-.82q.39-.99-.3-1.87-.36-.46-.94-.47l-24.34-.22q12.75-1.26 25.53-.33.68.05.7.73l.07 2.82q.02.64-.62.68-12.85.88-25.68-.24ZM91.25 47.46q-2.95-.74-6-.73-16.76.04-33.56-.02c2.06-1.83 37.31-.58 38.01-.57.83.02 1.46.51 1.55 1.32ZM115.82 46.73l-20.94.18q-.56 0-.75.53c-.57 1.65.24 2.68 1.92 2.72q9.35.18 18.7-.01.5-.01.85-.37.7-.73.69-1.78.64.56.6 1.97a1.05 1.05 0 0 1-1.04 1.02q-9.86.04-19.6-.02-1.21-.01-2.36-.4-.63-.22-.69-.89l-.24-2.91q-.05-.55.5-.59 11.22-.75 22.36.55ZM149.83 46.54l-22.57.58q-.03-.16.33-.6.31-.38.8-.41 10.72-.52 21.44.43Z"/><path fill="#653799" d="M51.69 46.71q16.8.06 33.56.02 3.05-.01 6 .73l.21 2.29q-6.4.64-12.81.53c-10.37-.17-18.29.14-27.44-.05l.48-3.52ZM23.47 50.31v-3.66l24.34.22q.58.01.94.47.69.88.3 1.87a1.32 1.31 15.6 0 1-1.46.82c-3.08-.56-6.15.23-8.78.15q-7.6-.25-15.34.13ZM115.82 46.73l.47 1.27q.01 1.05-.69 1.78-.35.36-.85.37-9.35.19-18.7.01c-1.68-.04-2.49-1.07-1.92-2.72q.19-.53.75-.53l20.94-.18ZM149.83 46.54l.14 3.21q-10.58.85-21.21.31-.99-.05-1.97-.31l.47-2.63 22.57-.58Z"/><path fill="#e2d9e5" fill-opacity=".98" d="M149.97 49.75q.1.21-.19.65-.27.42-.78.43-10.26.06-20.49.21-1.41.02-1.72-1.29.98.26 1.97.31 10.63.54 21.21-.31ZM91.46 49.75q.07.2.05.4-.04.43-.47.47c-6.08.59-13.52.2-18.09.28-3.79.07-19.3 1.06-21.74-.67 9.15.19 17.07-.12 27.44.05q6.41.11 12.81-.53Z"/><rect width="10.64" height="4.02" x="-5.32" y="-2.01" fill="#653799" rx=".26" transform="rotate(-.6 5317.186 -3472.995)"/><rect width="11.1" height="3.96" x="58.65" y="53.51" fill="#653799" rx=".74"/><rect width="12.02" height="3.92" x="-6.01" y="-1.96" fill="#653799" rx=".79" transform="rotate(-.9 3576.689 -5432.42)"/><rect width="19.06" height="3.98" x="-9.53" y="-1.99" fill="#653799" rx=".93" transform="rotate(.1 -31755.719 62927.05)"/><rect width="19.64" height="4" x="123.86" y="53.5" fill="#653799" rx=".73"/><path fill="#653799" d="m89.46 61.29-2.68 2.46a.64.64 0 0 1-.43.17l-26.6.12a.64.64 0 0 1-.64-.61l-.13-2.55a.64.64 0 0 1 .63-.67l29.42-.03a.64.64 0 0 1 .43 1.11Z"/><path fill="#9077ab" fill-opacity=".992" d="M143.46 61.5q-9.56-1.05-19.15-1-.47.01-.84.31-1.23 1.02-.43 2.14.29.4.78.37 9.71-.52 19.39.18.2.55-.04.93-.32.51-.82.18c-1.77-1.15-4.02-.08-5.97-.29q-3.3-.34-3.81-.34-15.94.26-31.88 0-.68-.01-.68-.69v-2.58q0-.69.68-.67 9.05.31 18.06.23c1.16-.01 3.08.61 4.8.25 5.38-1.14 13.52-.32 19.17-.26q.49 0 .65.46.15.4.09.78Zm-22.299.49a1 1 0 0 0-.984-1.016l-18.278-.287a1 1 0 0 0-1.015.984l-.005.34a1 1 0 0 0 .984 1.015l18.278.287a1 1 0 0 0 1.015-.984l.005-.34ZM41.738 63.699a.26.26 0 0 1-.256.264l-9.898.173a.26.26 0 0 1-.265-.255l-.057-3.26a.26.26 0 0 1 .256-.264l9.898-.173a.26.26 0 0 1 .265.255l.057 3.26Zm-.19-1.587a4.87 1.2 1.2 0 0-4.843-1.302 4.87 1.2 1.2 0 0-4.894 1.098 4.87 1.2 1.2 0 0 4.844 1.302 4.87 1.2 1.2 0 0 4.894-1.098Z"/><rect width="20.28" height="2.34" x="-10.14" y="-1.17" fill="#653799" rx="1" transform="rotate(.9 -3891.451 7098.607)"/><path fill="#653799" d="m143.46 61.5-.25 2q-9.68-.7-19.39-.18-.49.03-.78-.37-.8-1.12.43-2.14.37-.3.84-.31 9.59-.05 19.15 1Z"/><ellipse fill="#653799" rx="4.87" ry="1.2" transform="rotate(1.2 -2942.311 1782.282)"/><path fill="#e2d9e5" fill-opacity=".98" d="m130.46 67.75-1.11-.59q-.48-.26-1.01-.26l-13.4-.13q-.6-.01-.83.55c-1.91 4.73 13.85 2.42 15.6 2.18-.18 2.04-12.9 1.25-14.96 1.25q-.56 0-.84-.48-.99-1.74-.61-3.83.13-.67.81-.65l15.99.44q.57.02.64.59.08.58-.28.93ZM143.29 67h-11.25q2.08-1.38 4.64-1.23.27.02 3.16.08 1.86.04 3.45 1.15ZM42.46 67.75q-5.59-1.97-11.59-.42 5.28-2.49 10.62-1.32 1.19.25.97 1.74ZM87.29 67q-13.92-.56-27.85-.07-.42.01-.48-.4-.02-.16-.05-.37c.55-.01 26.55-1.19 28.38.84ZM111.32 66.78q-5.87-.57-11.32.76-.14-.39.05-.85.17-.45.64-.51 5.38-.77 10.63.6Z"/><path fill="#653799" d="M58.91 66.16q.03.21.05.37.06.41.48.4 13.93-.49 27.85.07l1.21 2.21-.93.64q-.4.27-.87.27l-27.91-.11q-.57-2 .12-3.85ZM42.46 67.75l-.5 2q-5.32.94-10.83.22l-.26-2.64q6-1.55 11.59.42ZM111.32 66.78l.14 2.97-11.48.62.02-2.83q5.45-1.33 11.32-.76ZM130.46 67.75l-.75 1.75c-1.75.24-17.51 2.55-15.6-2.18q.23-.56.83-.55l13.4.13q.53 0 1.01.26l1.11.59ZM143.29 67l.25 3.01-11.64.37q-.26-1.86.14-3.38h11.25Z"/><path fill="#e2d9e5" fill-opacity=".98" d="m88.5 69.21 1.11.68q.39.24.06.56l-.24.24q-.2.2-.49.2-14.34-.26-28.68.08-1.17.03-1.47-.96l27.91.11q.47 0 .87-.27l.93-.64ZM41.96 69.75q.04.79-.53.92-5.01 1.15-10.3-.7 5.51.72 10.83-.22ZM111.46 69.75q.14.26.05.63-.12.48-.62.46l-10.91-.47 11.48-.62ZM143.54 70.01q-5.77 1.96-11.64.37l11.64-.37Z"/><rect width="10.92" height="4.04" x="-5.46" y="-2.02" fill="#653799" rx=".57" transform="rotate(-.5 8666.42 -4144.83)"/><rect width="11.66" height="4" x="-5.83" y="-2" fill="#653799" rx="1.24" transform="rotate(-.5 8687.146 -7318.966)"/><rect width="12.04" height="4" x="-6.02" y="-2" fill="#653799" rx=".69" transform="rotate(.1 -43226.927 49123.042)"/><rect width="11.5" height="4" x="100.01" y="73.5" fill="#653799" rx=".68"/><rect width="12" height="3.96" x="115.64" y="73.5" fill="#653799" rx=".74"/><rect width="11.42" height="3.96" x="-5.71" y="-1.98" fill="#653799" rx="1.08" transform="rotate(-.9 4877.175 -8732.765)"/><path fill="#e2d9e5" fill-opacity=".98" d="M49.46 83q-.87-2.21-3.71-2.25-13.01-.19-22.21.5-.11-.28-.04-.66.11-.61.74-.61l24.12.07q.51 0 .88.35 1.11 1.04.22 2.6ZM91.46 81.25q-3.12-.46-4.71-.48-17.61-.21-35.21.23-.14-.2-.07-.45.15-.52.7-.53 18.45-.09 36.89.04 2.03.01 2.4 1.19ZM111.46 81.5c-5.27-1.36-11.43-.83-16.84-.44q-.69.06-.62.75l.12 1.2a1.11 1.1-2.9 0 0 1.1.99h14.52q.37 0 .64-.26c.25-.26.77-.43.91.01l-.2.59q-.15.41-.59.41H94.14q-.65 0-.74-.64l-.47-3.29q-.11-.78.68-.79 8.46-.09 16.79 0c.96.01 1.41.52 1.06 1.47ZM118.45 80.16c2.15-.41 4.04-.01 6.11.12q.52.03.62.55c.74 3.88-2.54 4.28-5.38 4.16q-.61-.03-.8-.59l-1.13-3.23q-.29-.85.58-1.01Zm6.177 1.986a2.85 1.69-2.5 0 0-2.92-1.564 2.85 1.69-2.5 0 0-2.774 1.812 2.85 1.69-2.5 0 0 2.92 1.564 2.85 1.69-2.5 0 0 2.774-1.812ZM150.25 81.79l-.92-.36q-.44-.18-.92-.22-8.19-.69-16.38-.2-.12-.17-.02-.5.16-.51.7-.51h16.02q.43 0 .8.22.98.58.72 1.57Z"/><path fill="#653799" d="m49.46 83-.17 1.5-.02-.27q-.04-.29-.34-.29l-25.22.14q-.4-1.75-.17-2.83 9.2-.69 22.21-.5 2.84.04 3.71 2.25ZM91.46 81.25q.51 1.26-.46 2.29l-39.74.71.28-3.25q17.6-.44 35.21-.23 1.59.02 4.71.48ZM111.46 81.5l-.17 2.25c-.14-.44-.66-.27-.91-.01q-.27.26-.64.26H95.22a1.11 1.1-2.9 0 1-1.1-.99l-.12-1.2q-.07-.69.62-.75c5.41-.39 11.57-.92 16.84.44Z"/><ellipse fill="#653799" rx="2.85" ry="1.69" transform="rotate(-2.5 1946.08 -2749.414)"/><path fill="#653799" d="m150.25 81.79-.29 1.71-17.98.64.05-3.13q8.19-.49 16.38.2.48.04.92.22l.92.36Z"/><path fill="#e2d9e5" fill-opacity=".98" d="M49.29 84.5q-12.8.94-25.58-.42l25.22-.14q.3 0 .34.29l.02.27ZM91 83.54q-.44 1.16-1.32 1.19-15.67.57-38.42-.48L91 83.54ZM149.96 83.5q.08 1.46-1.71 1.45-9.44-.02-16.27-.81l17.98-.64Z"/><path fill="#aea1b5" fill-opacity=".996" d="M121.75 86.79c-.64.97-.58 3.8 1 2.42l.29.29q.07.7-.35 1.33-.79 1.22-1.52-.03-1.12-1.9-1.19-4.09-.02-.64.58-.4l1.19.48Z"/><path fill="#9077ab" fill-opacity=".992" d="m123.04 89.5-.29-.29-.79-2.46q.13-.31.37-.43.48-.26.76.22.82 1.42-.05 2.96ZM86.5 89.16q-.86-1.15-.75-2.37l.4-.14q.41-.14.74.15 1.44 1.28-.39 2.36Z"/><path fill="#653799" d="M85.75 86.79q-.11 1.22.75 2.37c-10.89 2.76-23.35 1.62-34.57 1.58q-.79-.01-.72-.8l.21-2.22q.06-.73.8-.74l33.53-.19Z"/><path fill="#aea1b5" fill-opacity=".996" d="M94.76 86.99q-1.17 1.83-.01 3.72c-2.27.64-2.81-3.52.01-3.72Z"/><path fill="#653799" d="m111.46 89.5-4.69.66q-.22.03-.24.25-.02.15-.03.3H94.75q-1.16-1.89.01-3.72 7.47-.2 14.85-.01c1.71.04 2.4.81 1.85 2.52ZM121.75 86.79l.21-.04.79 2.46c-1.58 1.38-1.64-1.45-1-2.42ZM46.5 87.04q1.42.63 2.1 1.63a.81.81 0 0 1-.66 1.27l-24.44.25q-.18-1.82.34-2.76.26-.46.8-.46l21.86.07Z"/><path fill="#9077ab" fill-opacity=".992" d="m46.5 87.04 2.95.04q.76.01.62.76L49.66 90q-.11.61-.73.63-12.73.53-25.43-.44l24.44-.25a.81.81 0 0 0 .66-1.27q-.68-1-2.1-1.63Z"/><path fill="#653799" d="M150.23 89.45c-4.77.35-13.85 1.41-18.19-.2q-.25-.99.25-1.84.24-.41.72-.41h16.07q.54 0 .67.53l.48 1.92Z"/><path fill="#9077ab" fill-opacity=".992" d="M132.04 89.25c4.34 1.61 13.42.55 18.19.2.52.92-.92 1.51-1.67 1.52q-11.24.14-15.5-.01-1.45-.05-1.02-1.71ZM111.46 89.5l.05.71q.04.58-.54.57l-4.47-.07q.01-.15.03-.3.02-.22.24-.25l4.69-.66Z"/><path fill="#653799" d="M85.917 115.385a.83.83 0 0 1-.831.828l-61.26-.106a.83.83 0 0 1-.829-.832l.026-14.5a.83.83 0 0 1 .831-.828l61.26.106a.83.83 0 0 1 .829.832l-.026 14.5ZM48.25 104.04q-.92 1.51-.66 3.26.08.51.6.58 1.9.24 2.75 1.97.28.57-.29.87-1.37.72-2.85-.13-2.23-1.27-.36.49 1.41 1.32 3.39.84.41-.1.47-.52l.41-2.87q.08-.58-.45-.84l-2.42-1.17a.72.72 0 0 1 .3-1.37l2.31-.04q.33-.01.3-.35-.02-.26-.25-.47-1.19-2.86-3.25-.25Zm-20.79 2.46.04.77q.02.19.19.11l.27-.13-.33 1.93q-.66 2.39 1.58 2.61.65.06.71-.59l.12-1.45 2.21-.21q-.83 1.54.46 2.46 2.08.47 3.25-2.25.15 1.33 1.62 2.06.16 1.99 1.92.66.42-.32.03-.68-.89-.8.17-2.05 1.19-1.41.44.27-.58 1.31.47 2.08.4.3.87.12.32-.12.52-.5l1 .25 1.49.19q2.62-2.07 1.42-5.6c-.18-.55-.59-.72-1.12-.55.51-1.37-.98-1.34-1.75-1.5q-.1-.09-.17-.22-.24-.43-.57-.07l-.26.29q-.3-.56-.78-.46-.48.11-.54.59-.12.93-.72 1.66-.13-.04-.25-.08-.22-.73-.9-.78-.44-.04-.69.32l-.37.5h-.58l-2.46-.54.28-.69q.29-.71-.48-.74-.41-.02-.76.47l-.04-.41q-.04-.39-.43-.34-1.48.19-2.54-.86a.39.38-60.4 0 0-.64.18q-.16.65.15.93l-.33 2.25q-.67-.96-1.67-.25.26-1.23-.54-2.04.12-.36-.04-.75-.25-.62-.76-.2l-.82.69q-.51.42-.08.92l1.41 1.63Zm30.75-.5h-.67l-.06-.38q-.05-.36-.42-.38-.99-.04-2.17.57-1.57 3.22-.9 6.88c.07.39.36.64.76.52q1.95.58 3.54-.71 1.25.2 1.5-1l.67.25q3.39 2.06 5.58-1.25l.25.25q-.28.36-.38.75-.14.54.35.82 3.05 1.71 4.95-1.32l.29.29.03.51q.03.5.53.62c1.58.37 1.3-4.19 1.55-5.51q-.6-1.76-2.36-.12l-1.21.21-.5-.75q-.69-1.34-2.04-.46l-3.46.71-.5-.5q-.31-.83-1.06-.99-.56-.12-.91.34l-.32.44q-.32-.44-.26-.99.04-.47-.42-.52-.28-.03-.53.22c.04-.56-.14-1-.77-1.03q-.38-.01-.48.36l-.58 2.17Zm17.29 1.54q-.22 2.13 1.14 3.61c.15.17.18.34.05.53q-.17.26-.37.01l-.82-1.04q-.21-.26-.48-.06l-.29.21q-.58.42-.09.94 1.42 1.49 3.36.72l4.7.54q.56.06.52-.5c-.14-2.11-2.67-1.97-4.18-1.5l-.33-1.75c.92-.64 1.27-2.3.04-2.81q-16.57-6.81-.45.47.27.13.62.21.76.17.16.66l-.87.72-1.75-1.5q.21-.49-.18-.76a.63.63 0 0 0-.93.25q-.33.7.15 1.05Z"/><path fill="#9077ab" fill-opacity=".992" d="m51.5 104.29-3.25-.25q2.06-2.61 3.25.25ZM27.75 104.21l-.29 2.29-1.41-1.63q-.43-.5.08-.92l.82-.69q.51-.42.76.2.16.39.04.75ZM33.79 104.75q.04.2-.05.49-.24.76.52.52.29-.09.49-.05l2.46.54q-1.49 1.42-1.25 3.5-1.17 2.72-3.25 2.25l1.27-4.2q.04-.15-.07-.27l-.23-.22q-.37-.37-.53.12l-.36 1.07q.1-1.66-1.29-2.54.12-1.39-1.21-1.71-.31-.28-.15-.93a.39.38-60.4 0 1 .64-.18q1.06 1.05 2.54.86.39-.05.43.34l.04.41Z"/><path fill="#aea1b5" fill-opacity=".996" d="m60.04 104.5-.25 7q-.25 1.2-1.5 1l-.33-1q.34-1.33-.46-2.29v-1.17l.71-2.04.58-2.17q.1-.37.48-.36c.63.03.81.47.77 1.03Z"/><path fill="#9077ab" fill-opacity=".992" d="m42.04 104.5-.04 7.21q-.2.38-.52.5-.47.18-.87-.12-1.05-.77-.47-2.08.75-1.68-.44-.27-1.06 1.25-.17 2.05.39.36-.03.68-1.76 1.33-1.92-.66-1.31-2.89.21-5.56l.37-.5q.25-.36.69-.32.68.05.9.78-.67 1.11-.39 2.33.18.8.3-.01l.34-2.24q.6-.73.72-1.66.06-.48.54-.59.48-.1.78.46Z"/><path fill="#181b1d" fill-opacity=".988" d="M27.75 104.21q.8.81.54 2.04l-.33 1-.27.13q-.17.08-.19-.11l-.04-.77.29-2.29Z"/><path fill="#5c5d5c" fill-opacity=".988" d="m104 105.04-.71 2.21q-1.75 2.24-1.58 5.4.05.91-.8.59-2.21-.84-4.47.08-.54.21-.98-.17c-1.93-1.73-1.91-6.25.11-7.6q-.53 1.49.68 2.41c-1.08.65-1.34 3.31.25 3.08q.26.55.27 1.18 0 .63.47.21l1.07-.95q.37-.33.84-.22.44.11.49.67.04.47.51.54.57.08.6-.46.21-3.73 2.03-6.24.31-.42-.21-.38l-4.06.32q2.54-2.53 5.49-.67Z"/><path fill="#837889" fill-opacity=".996" d="M43.04 104.5c.77.16 2.26.13 1.75 1.5l-.3 6.15-1.49-.19.26-.26q.13-.13.12-.3l-.34-6.9ZM63.54 106q-.4 2.37-.21 4.76.1 1.31.36.02.43-2.11.35-4.28l3.46-.71-.29 1.21q-1.99 1.04-1.17 3.5-2.19 3.31-5.58 1.25.95-2.9.79-5.96l.32-.44q.35-.46.91-.34.75.16 1.06.99Z"/><path fill="#181b1d" fill-opacity=".988" d="m104 105.04 1.39-.01q-.73 3.75.15 7.33.27 1.07-.52.29l-.44-.45q-.31-.31-.33-.75-.05-1.01-.54-1.95.07-1.2-.42-2.25l.71-2.21Z"/><path fill="#837889" fill-opacity=".996" d="m105.39 105.03.98.82q.38.32.86.23 1.56-.27 2.27 1.71l.85 2.14q.38.96.7-.02l.63-1.93q.07-.22.3-.24.14-.02.27-.03.13.04.25.08.26.27.45.6.23.41.02.82l-1.43 2.86q-.34.66.41.68.24.01.36-.19.43-.67.44-.8.12-1.04.93-1.62.21-.14.33.07.07.12.03.29.33 1.72-.91 2.8-.42.36-.91.11-1.46-.73-2.97-.02-.55.26-.9-.24-.25-.35-.06-.65l.91.24q.65.17.73-.5.27-2.3-2.22-3.94-3.36.36-.85 3.16a1.02 1.02 0 0 1-.48 1.66c-2.9.84-2.58-1.89-2.67-3.62q.49.94.54 1.95.02.44.33.75l.44.45q.79.78.52-.29-.88-3.58-.15-7.33ZM57.54 106q-1.06 1.07-.04 2.04v1.17l-1.16 2.13q-.33.61.36.67.76.06 1.26-.51l.33 1q-1.59 1.29-3.54.71 1.49-3.38.14-7.4 1.18-.61 2.17-.57.37.02.42.38l.06.38Z"/><path fill="#181b1d" fill-opacity=".988" d="m96.5 111.04.37-2.61q.05-.36-.3-.39-.19-.01-.32-.08-1.21-.92-.68-2.41 1.6.58 2.94.16l4.06-.32q.52-.04.21.38-1.82 2.51-2.03 6.24-.03.54-.6.46-.47-.07-.51-.54-.05-.56-.49-.67-.47-.11-.84.22l-1.07.95q-.47.42-.47-.21-.01-.63-.27-1.18Z"/><path fill="#aea1b5" fill-opacity=".996" d="m69.54 106.25-.5 2.5.21 1.21-1.5 1.08-.75-.33.21-3.71.29-1.21q1.35-.88 2.04.46Z"/><path fill="#181b1d" fill-opacity=".988" d="M123.75 106.04q-.32 1.19.5 1.92-1.56.32-1.06 1.58 1.72 4.35-1.72 2.87 1.01-2.44.24-4.41l-.17-1q.85-.19.91-1 .01-.18-.17-.22-.14-.04-.28-.07l1.75.33Z"/><path fill="#5c5d5c" fill-opacity=".988" d="M92.5 105.96q-1.14.26-.8 1.3.39 1.2-.51.3l-.37-.37q-.53-.52-.67.21l-.15.77q-.06.32.19.53.29.23.78.07.51-.17.41.36l-.19 1.01q-.11.56-.68.63-1.37.16-1.12 2.33-1.8-1.13-1-3.09.2-.5-.04-.99-.72-1.41-.05-2.79.2-.42.67-.4l3.53.13ZM112.25 107.71q-.13.01-.27.03-.23.02-.3.24l-.63 1.93q-.32.98-.7.02l-.85-2.14q.85-.57 1.08-1.59.17-.79.74-.22.66.67.93 1.73Z"/><path fill="#181b1d" fill-opacity=".988" d="m119.46 106.75-1.88.23q-.7.08-.34.69.55.94.51 2.04l-.71.29-.05-1.6q-.02-.57-.57-.43l-1.16.29q-.26.06-.26-.21v-.38q-.01-.38.37-.38 1.76-.04.94-1.32 2.16-1.05 3.15.78Z"/><path fill="#5c5d5c" fill-opacity=".988" d="M122 105.71q.14.03.28.07.18.04.17.22-.06.81-.91 1-.05-.15-.19-.28-.31-.28.02-.53l.63-.48ZM125.29 106.75q.82 2.03-.79 3.29-.42-.17-.5-.54-.1-.51.42-.5.43.01.5-.51.03-.2-.12-.34-.19-.18-.55-.19-.82-.73-.5-1.92.23-.06.48-.31.8-.85.87.4.02.36.19.62Z"/><path fill="#181b1d" fill-opacity=".988" d="M128.61 105.71q.95 4.07-1.27 7.56-2.34-.89-2.84-3.23 1.61-1.26.79-3.29 1.39-.86 3.32-1.04Zm-1.107 3.55a1.02.67 87.6 0 0 .626-1.048 1.02.67 87.6 0 0-.712-.991 1.02.67 87.6 0 0-.626 1.047 1.02.67 87.6 0 0 .712.991Z"/><path fill="#5c5d5c" fill-opacity=".988" d="M128.61 105.71q2.5 2.23 1.15 5.79-.66 1.76-2.42 1.77 2.22-3.49 1.27-7.56Z"/><path fill="#aea1b5" fill-opacity=".996" d="M29.96 106.5q.92.43 1.54-.54 1.39.88 1.29 2.54l-.54 1.04-2.21.21q-.83-.79-2.41-.57l.33-1.93.33-1q1-.71 1.67.25Z"/><path fill="#837889" fill-opacity=".996" d="M92.5 105.96c1.04 1.06.14 2.81.14 4.12.01 2.3-.69 3.63-3.25 3.02q-.25-2.17 1.12-2.33.57-.07.68-.63l.19-1.01q.1-.53-.41-.36-.49.16-.78-.07-.25-.21-.19-.53l.15-.77q.14-.73.67-.21l.37.37q.9.9.51-.3-.34-1.04.8-1.3Z"/><path fill="#5c5d5c" fill-opacity=".988" d="M116.31 105.97q.82 1.28-.94 1.32-.38 0-.37.38v.38q0 .27.26.21l1.16-.29q.55-.14.57.43l.05 1.6c-.01.87.62 1.65 1.49 1.03q.5-.36.05-.79-.36-.35-.83-.53.04-1.1-.51-2.04-.36-.61.34-.69l1.88-.23.58 4.5-.04 1.54-3.76.46q-.6.07-.66-.53c-.08-.78.3-3.2-1.08-2.93l-1.29-2.79q1.1-1.25 3.1-1.03Z"/><path fill="#9077ab" fill-opacity=".992" d="m71.25 106.79-.04 4.21q-1.9 3.03-4.95 1.32-.49-.28-.35-.82.1-.39.38-.75l.71-.04.75.33q-.14.14-.19.3-.1.39.3.43c.79.06 2.44-1.11 1.39-1.81l-.21-1.21q1.15-.4 1-1.75l1.21-.21Z"/><path fill="#aea1b5" fill-opacity=".996" d="M73.61 106.91c-.25 1.32.03 5.88-1.55 5.51q-.5-.12-.53-.62l-.03-.51c.32-1.55-.12-4.43 2.11-4.38Z"/><path fill="#837889" fill-opacity=".996" d="m76.46 107 1.75 1.5.5.75.33 1.75-1.04 1.46q-1.94.77-3.36-.72-.49-.52.09-.94l.29-.21q.27-.2.48.06l.82 1.04q.2.25.37-.01c.13-.19.1-.36-.05-.53q-1.36-1.48-1.14-3.61l.96-.54Z"/><path fill="#181b1d" fill-opacity=".988" d="m113.21 107 1.29 2.79-.46.71q.04-.17-.03-.29-.12-.21-.33-.07-.81.58-.93 1.62-.01.13-.44.8-.12.2-.36.19-.75-.02-.41-.68l1.43-2.86q.21-.41-.02-.82-.19-.33-.45-.6l.71-.79Z"/><ellipse fill="#837889" fill-opacity=".996" rx="1.02" ry=".67" transform="rotate(87.6 7.294 120.577)"/><path fill="#aea1b5" fill-opacity=".996" d="M121.71 108q.77 1.97-.24 4.41l-1.47.38.04-1.54 1.67-3.25Z"/><path fill="#181b1d" fill-opacity=".988" d="M107.71 108.3q2.49 1.64 2.22 3.94-.08.67-.73.5l-.91-.24q-1.15-1.8-.58-4.2Z"/><path fill="#9077ab" fill-opacity=".992" d="m78 112.46 1.04-1.46c1.51-.47 4.04-.61 4.18 1.5q.04.56-.52.5l-4.7-.54Z"/></svg>