<svg xmlns="http://www.w3.org/2000/svg" viewBox="0 0 185 256"><g fill="none" stroke-width="2"><path stroke="#8a7b6c" d="M63.96 40.03q-1.29 7.24-2.34 14.59c-.77 5.34 1.13 11.24 2.18 16.52q.12.59-.38.93-3.39 2.31-7.55 1.6-.48-.08-.63-.55l-1.2-3.87" vector-effect="non-scaling-stroke"/><path stroke="#8d8277" d="M54.04 69.25c-2.03-6.38-7.94-7.59-13.12-3.95-6.99 4.92-6.13 13.22-1.75 20.24" vector-effect="non-scaling-stroke"/><path stroke="#8a7b6c" d="M39.17 85.54q5.95 10.95 16.39 3.52.92-.65 1.65.78" vector-effect="non-scaling-stroke"/><path stroke="#8d8277" d="M57.21 89.84q-1.05 3.12-3.36 5.57-.36.38-.36.91c.01 6.77 6.1 22.65 11.8 26.7q3.36 2.37 8 2.81" vector-effect="non-scaling-stroke"/><path stroke="#8a7b6c" d="M73.29 125.83q4.22 1.43 9.35 1.46.5 0 .88-.32 4.03-3.37 9.4-1.91.83.22.12-.27c-6.15-4.23-18.09-14.94-18.76-23.27q-.08-.98.48-.17c13.63 19.6 29.72 32.34 53.97 18.03q3.95-2.33 6.94-6.03c14.37-17.76 17.84-41.34 15.33-63.54q-.81-7.13-2.73-10.3c-2.7-4.44-9.79-8.26-14.83-4.74q-.42.29-.63-.18-.17-.39-.1-.84" vector-effect="non-scaling-stroke"/><path stroke="#8d8277" d="M132.71 33.75c1.08-5.09 4.9-5.41 9.28-4.98q.88.09.33-.59l-3.82-4.72" vector-effect="non-scaling-stroke"/><path stroke="#8a7b6c" d="M138.5 23.46q-3.99-5.88-9.96-9.71" vector-effect="non-scaling-stroke"/><path stroke="#8d8277" d="M128.54 13.75c-10.78-6.07-27.58-10.83-39.77-5.51-8.82 3.85-20.71 12.04-25.81 21.17q-.25.46-.08.96 1.65 4.69 1.08 9.66" vector-effect="non-scaling-stroke"/><path stroke="#f4ddc2" d="M128.54 13.75c-.45.58-1.12.78-1.82.47-6.87-2.98-15.81-2.21-23.05-1.36-17.63 2.08-30.52 10.2-38.18 26.89q-.6 1.3-1.53.28M138.5 23.46c-4.9 2.32-8.21 4.14-7.37 9.85q.06.44.5.44h1.08M73.29 125.83q-8.13-8.69-11.52-20.09-1.17-3.95-3.11-15.22-.09-.53-.58-.74-.44-.19-.87.06M39.17 85.54l1.58-12.75" vector-effect="non-scaling-stroke"/><path stroke="#8a7b6c" d="M40.75 72.79q.91-1.35 2.82-1.78a.57.57 0 0 1 .67.74q-1.99 5.94.71 11.48.95 1.96.66-.2-.65-4.77.77-9.28.16-.51.68-.65c3.13-.85 4.13 3.68 5.57 5.58q.41.53.54-.13.97-4.88-2.42-8.51" vector-effect="non-scaling-stroke"/><path stroke="#f4ddc2" d="m50.75 70.04 3.29-.79" vector-effect="non-scaling-stroke"/><path stroke="#8d8277" d="M50.75 70.04c-3.52-3.5-9.76-3.15-10 2.75" vector-effect="non-scaling-stroke"/><path stroke="#484547" d="M54.25 27.71c3.77.13 7.02.88 9.33-2.89q3.35-5.47 7.18-9.34" vector-effect="non-scaling-stroke"/><path stroke="#807c7c" d="m70.76 15.48 5.09-3.08q.4-.24.4-.7v-.46a.7.7 0 0 0-.88-.67c-9.64 2.72-22.62 9.49-27.33 18.75q-.25.49.29.4 3.2-.56 5.92-2.01" vector-effect="non-scaling-stroke"/><path stroke="#a5a2a3" d="M70.76 15.48q-5.01 1.68-10 5.52-4.2 3.23-6.51 6.71" vector-effect="non-scaling-stroke"/><path stroke="#484547" d="M41.25 59.04c8.74-1.26 15.19.06 17.49 9.84a.51.51 0 0 0 .78.31q1.53-1.02.9-3.17c-3.02-10.34-.03-19.9.16-30.68q.01-.5-.22-.95l-.32-.64" vector-effect="non-scaling-stroke"/><path stroke="#807c7c" d="M60.04 33.75q.05-.93-.35-1.76-.22-.45-.72-.4c-7.28.71-15.95 4.78-18.47 12.15-1.71 5.01-1.19 10.65-.93 15.83a.59.59 0 0 0 .89.48q.74-.43.79-1.01" vector-effect="non-scaling-stroke"/><path stroke="#a5a2a3" d="m60.04 33.75-.07.34q-.07.33-.4.37-18.2 2.63-19.13 20.76c-.06 1.12.47 2.76.81 3.82" vector-effect="non-scaling-stroke"/><path stroke="#7b2c2a" d="M6.04 131.25q2.81 32.2 25.04 55.39.41.43.37-.16c-.96-15.26-6.96-28.15-11.51-41.95-1.67-5.03-.4-6.98 4-9.66q13.65-8.31 27.36-16.52c1.93-1.15 3.7-2.87 2.45-5.07q-4.54-8.01-5.73-14.54-.09-.48-.57-.59c-12.27-2.62-16.72-15.99-16.37-27.26" vector-effect="non-scaling-stroke"/><path stroke="#892e2d" d="M31.08 70.89c.63-4.03 4.16-8.59 3.02-12.25q-.2-.64-.68-.16Q3.25 88.3 6.04 131.25" vector-effect="non-scaling-stroke"/><path stroke="#e13b37" d="M31.08 70.89c-14.95 16.52-22.6 37.75-24.01 60.1q-.03.54-.57.47-.23-.03-.46-.21" vector-effect="non-scaling-stroke"/><path stroke="#7b2c2a" d="M158.85 126.92c3.17 2.9 2.93 6.03 1.78 10.05q-5.71 19.84-12.61 39.39a.31.31 0 0 0 .45.37q7.87-4.42 16.78-5.81.52-.08.8-.53c20.65-34.63 16.06-77.38-10.31-107.18a.27.27 0 0 0-.47.18c-.23 12.66-2.38 29.57-8.4 40.82-1.13 2.11-4.71 7.44-2.52 9.44q7.26 6.63 14.5 13.27" vector-effect="non-scaling-stroke"/><path stroke="#2b3841" d="M140.54 126.65q3.32 10.4.3 20.58-.17.56.16 1.04l2.62 3.85q.25.37.02.75l-15.85 26.67a.25.24 3.7 0 0 .31.35c4.77-2.05 13.35.39 15.65-4.84q8.56-19.45 11.96-37.55" vector-effect="non-scaling-stroke"/><path stroke="#364956" d="M155.71 137.5q1.44-4.01-1.92-6.81-4-3.33-13.83-12.82-.41-.4-.83-.01l-4.51 4.28q-.39.37.13.46 3.87.67 5.79 4.05" vector-effect="non-scaling-stroke"/><path stroke="#3e6176" d="m155.71 137.5-15.17-10.85" vector-effect="non-scaling-stroke"/><path stroke="#2b3841" d="M40.61 209.32c9.31 5.53 20.1 10.74 30.45 11.36q.53.03.46-.5L67.96 192" vector-effect="non-scaling-stroke"/><path stroke="#364956" d="M67.96 192q.95-4.23-2.46-4.25-7.29-.05-9.79-.5" vector-effect="non-scaling-stroke"/><path stroke="#2b3841" d="M55.71 187.25c.86-2.98 3.99-1.58 5.31-3.73q.3-.49 0-.99l-1.89-3.19a.72.72 0 0 1 .96-1l5.51 3.02q.39.22.52-.22c1.88-6.14.71-11.84.37-17.88-.07-1.11.23-5.35 1.84-5.5q.55-.06.72.47l.41 1.27" vector-effect="non-scaling-stroke"/><path stroke="#364956" d="M69.46 159.5c-.18 6.56-1.66 16.67.33 22.76q.17.51.7.46l2.76-.26" vector-effect="non-scaling-stroke"/><path stroke="#2b3841" d="m73.25 182.46 37.49-2.97q.85-.06.08-.41-13.18-5.93-18.55-9.08c-3.82-2.24.29-6.79 1.44-9.17q.39-.81-.42-.43c-2.78 1.3-4.96.4-6.35-2.32-2.78-5.45-3.72-11.59-5.31-17.5q-.13-.5-.6-.7-9.69-4.03-18.03-10.17" vector-effect="non-scaling-stroke"/><path stroke="#364956" d="m63 129.71-6.09-6.86q-.34-.39-.82-.18c-11.57 4.88-20.07 11.11-30.71 19.08q-.41.31-.22.78c8.59 20.67 12.24 42.76 12.92 65.04q.01.51.42.82.91.72 2.11.93" vector-effect="non-scaling-stroke"/><path stroke="#3e6176" d="M63 129.71 33.81 142.6a.58.57 71.6 0 0-.33.67q6.2 24.76 8.32 50.22.61 7.35-1.19 15.83M73.25 182.46q.95-12.63-.19-19.27-.36-2.14-3.6-3.69M55.71 187.25q-.9-.26-1.27.21-.37.48.13.81c4.47 2.98 8.16 3.2 13.39 3.73" vector-effect="non-scaling-stroke"/><path stroke="#7b2c2a" d="M122.25 142.71q-.46.72-.1 1.35.25.47.77.58 7.01 1.59 14.19 1.82.54.02.77-.47c2.07-4.3.87-10.87-.34-14.99" vector-effect="non-scaling-stroke"/><path stroke="#892e2d" d="M137.54 131c-1.81-7.46-12.27.74-16.2 3.18q-.44.28-.29.78l.57 2q.18.62.82.56 1.99-.18 3.91.27 1.34.31-.01.59l-3.31.69q-.64.13-.67.78l-.11 2.86" vector-effect="non-scaling-stroke"/><path stroke="#e13b37" d="m137.54 131-7.19 1.5a2.16 2.15 85.5 0 0-1.71 2.01l-.22 4.65q-.03.61-.6.85l-3.29 1.39q-.43.18-.73.52-.6.71-1.55.79" vector-effect="non-scaling-stroke"/><path stroke="#918f90" d="M81.37 130.28c-3.74-.23-8.08-.52-11.54-1.98q-.55-.23-.78.31c-1.29 3.03 9.6 6.25 11.5 6.52q.61.09.71-.51l.64-3.66q.11-.64-.53-.68" vector-effect="non-scaling-stroke"/><path stroke="#8a7b6c" d="M122.46 128.3c-5.46 1.48-10.35 2.22-15.96 1.52q-1.07-.13-.22.52 3.96 3.01 8.82 2.74c3.07-.17 5.22-2.54 7.54-4.42q.74-.61-.18-.36" vector-effect="non-scaling-stroke"/><path stroke="#7b2c2a" d="m87.29 151.25 1.51 4.33q.17.48.64.69c4.71 2.09 15.24-5.81 19.67-9.48 1.47-1.22 1.58-2.71.89-4.33" vector-effect="non-scaling-stroke"/><path stroke="#892e2d" d="m110 142.46-5.47-1.7q-.94-.29 0-.57l4.74-1.42a.78.78 0 0 0 .1-1.46c-6.22-2.87-11.74-6.09-18.79-7.68-9.63-2.17-4.69 18.17-3.29 21.62" vector-effect="non-scaling-stroke"/><path stroke="#e13b37" d="M110 142.46q-4.26 1.66-6.98-1.66-.32-.4-.13-.88c2.29-5.77-8.81-5.65-11.91-5.46-2.64.17-3.64 1.27-3.62 3.87q.05 6.76.97 12.26.08.5-.41.66-.35.11-.63 0" vector-effect="non-scaling-stroke"/><path stroke="#7b2c2a" d="m112.56 138.01.57 4.53a1.32 1.32 0 0 0 1.47 1.14l1.21-.15a3.51 3.42 82.8 0 0 2.96-3.91l-.02-.18a3.51 3.42 82.8 0 0-3.84-3.06l-1.21.16a1.32 1.32 0 0 0-1.14 1.47" vector-effect="non-scaling-stroke"/><path stroke="#918f90" d="M123.21 173.5q.06 1 .68 1.54.41.36.53-.17 2.47-10.91 2.29-22.12" vector-effect="non-scaling-stroke"/><path stroke="#807c7c" d="M126.71 152.75c.36-1.03.94-3.79-1.16-3.5q-.59.08-1.11-.23l-4.67-2.78q-.44-.26-.92-.09l-3.92 1.39q-.51.18-1.04.1-1.89-.32-2.88 1.57-.23.44.04.85c4.88 7.53 8.12 15.44 12.16 23.44" vector-effect="non-scaling-stroke"/><path stroke="#eeecec" d="M126.71 152.75c-2.44-.71-5.81-3.23-7.99-2.67-2.32.59-3.1 2.86-2.22 5.11q2.64 6.69 7.2 15.34.76 1.42-.49 2.97" vector-effect="non-scaling-stroke"/><path stroke="#526872" d="M129.83 150.5c-1.01 8.54-1.39 16.6-3.27 24.96q-.15.65.24.11 7.34-10.31 13.42-21.43.25-.46-.05-.89-3.63-5.07-9.71-3.47-.56.14-.63.72M95.5 165.96c7.79 4.17 15.5 7.9 23.93 10.54q.37.12.24-.25-4.41-12.46-11.66-23.5-.28-.44-.73-.17c-5.19 3.17-10.11 6.79-12.06 12.69q-.15.46.28.69" vector-effect="non-scaling-stroke"/><path stroke="#807c7c" d="M148.42 183.44q-1.65.29-1.39 1.55c1.43 6.94 1.79 13.08 2.97 20.67q.08.55.64.52c5.15-.31 12.15-1.21 17.08.26q.84.25-.01.46l-9.06 2.15a.49.49 0 0 0 .06.96q5.06.59 10.05-.34c9.26-1.71 9.86-12.47 7.03-19.67" vector-effect="non-scaling-stroke"/><path stroke="#918f90" d="M175.79 190c-.99-6.25-3.73-16.92-12.24-13.37-3.33 1.39-13.34 4.31-15.13 6.81" vector-effect="non-scaling-stroke"/><path stroke="#eeecec" d="m175.79 190-3.22 11q-.18.6-.8.56l-19.75-1.11q-.63-.03-.74-.66l-2.86-16.35" vector-effect="non-scaling-stroke"/><path stroke="#807c7c" d="m139.79 204 .56 4q.09.62.7.46l4.79-1.26q.52-.14.51-.69l-.14-5.01" vector-effect="non-scaling-stroke"/><path stroke="#918f90" d="M146.21 201.5q-.16-8.66-3.54-16.53-.23-.54-.82-.54l-3.98-.03q-.73 0-.63.71l2.55 18.89" vector-effect="non-scaling-stroke"/><path stroke="#eeecec" d="m146.21 201.5-6.42 2.5" vector-effect="non-scaling-stroke"/><path stroke="#807c7c" d="M105.96 250.37q9.47.07 18.67-2.39.51-.13.46-.66c-2.17-20.04-2.65-40.31-4.3-60.73q-.07-.78-.84-.89l-2.7-.41" vector-effect="non-scaling-stroke"/><path stroke="#918f90" d="M117.25 185.29c-15.31-1.95-31.4-.23-46.54 2.49q-.44.08-.4.53 2.77 29.72 11.67 58.18.16.52.68.67 11.49 3.29 23.3 3.21" vector-effect="non-scaling-stroke"/><path stroke="#eeecec" d="M117.25 185.29q-1.58 29.16 3.11 58.03.09.54-.39.8-6.79 3.58-14.01 6.25" vector-effect="non-scaling-stroke"/><path stroke="#2b3841" d="M124.54 193.25q-.09 10.04 1.03 20.13.05.43.47.35l8.21-1.44q.31-.06.29-.38L132.71 191" vector-effect="non-scaling-stroke"/><path stroke="#364956" d="m132.71 191-1.03-5.26q-.13-.67-.81-.61l-5.77.56q-.66.06-.74.72-.43 3.48.18 6.84" vector-effect="non-scaling-stroke"/><path stroke="#3e6176" d="M132.71 191q-3.78 2.23-8.17 2.25" vector-effect="non-scaling-stroke"/><path stroke="#807c7c" d="M132.15 221.32q-.23-.9-.14-1.92.06-.54-.35-.9c-1.17-1.06-4.08-.26-5.29.35q-.57.29-.53.92l.99 17.83q.04.79.82.61l5.91-1.36q.61-.14.6-.77-.15-7.56-2.01-14.76" vector-effect="non-scaling-stroke"/><path stroke="#8a7b6c" d="M79.21 43.75c.32.65.5 2.02 1.45 2q.56 0 .8-.51c3.27-7.11 7.5-9.97 15.44-9.62q1 .04 1.01-.96.02-3.56-4.44-4.24" vector-effect="non-scaling-stroke"/><path stroke="#f4ddc2" d="M93.47 30.42c1.72-3.82-4.66-2.34-6.05-1.75q-9.59 4.06-9.46 14.31.01.52.48.73.34.15.77.04" vector-effect="non-scaling-stroke"/><path stroke="#8d8277" d="M93.47 30.42q-11.66 1.86-14.26 13.33" vector-effect="non-scaling-stroke"/><path stroke="#f4ddc2" d="M142.96 49q-5.21 1.32-5.66 6.48a1.68 1.67-1.1 0 0 1.88 1.8q2.94-.38 5.48-1.9" vector-effect="non-scaling-stroke"/><path stroke="#8a7b6c" d="m144.66 55.38.68 1.88a1.1 1.09-13.5 0 1-.9 1.46l-7.15.9q-.77.1-.6.86c1.52 6.52 10.1 2.63 12.83-.34q.37-.4.12-.89l-6.14-12.08q-.26-.5-.42.04-.27.9-.12 1.79" vector-effect="non-scaling-stroke"/><path stroke="#8d8277" d="m144.66 55.38-1.7-6.38" vector-effect="non-scaling-stroke"/><path stroke="#f4ddc2" d="M102.21 49.5c-3.91-.31-9.32 2.88-6.98 7.52q.23.48.71.71 4.66 2.21 9.1-.48" vector-effect="non-scaling-stroke"/><path stroke="#8a7b6c" d="m105.04 57.25 1.47 2.81q.27.51-.23.79c-3.02 1.68-6.93.72-10.2.23q-.5-.08-.71.38c-2.91 6.35 16.51 8.03 15.03-1.32q-.09-.53-.47-.91-4.79-4.8-6.95-11.25-.21-.63-.57-.08-.46.71-.2 1.6" vector-effect="non-scaling-stroke"/><path stroke="#8d8277" d="M105.04 57.25q-2.17-3.6-2.83-7.75" vector-effect="non-scaling-stroke"/><path stroke="#f4ddc2" d="M115.79 84.25q3.07-1.07 5.2-3.52.33-.37.17-.85-.76-2.28-3.06-2.69-.56-.1-.75.43l-1.89 5.13" vector-effect="non-scaling-stroke"/><path stroke="#8a7b6c" d="M115.46 82.75q-3.21 4.66.62 8.65.35.36.85.38c9.44.43 16.04-2.79 23.83-7.56q.47-.28.59-.82l1.34-6.14q.11-.52-.26-.89c-6.68-6.71-15.14-15.89-18.14-24.92q-.33-.99-1.17-.97-.58.02-.58.6c-.06 9.7 8.36 18.61 14.16 25.75 2.01 2.46 1.3 5.68-1.65 7.09-4.8 2.31-11.8 5.78-17.17 4.18q-.51-.16-.72-.65l-1.37-3.2" vector-effect="non-scaling-stroke"/><path stroke="#8d8277" d="m115.46 82.75.33 1.5" vector-effect="non-scaling-stroke"/><path stroke="#8a7b6c" d="M144.43 88.87c-5.06 2.65-9.38 4.9-15.07 5.97q-.59.11-.59.71v4.65q0 .62.62.59c6.99-.35 12.56-5.44 15.36-11.61q.29-.63-.32-.31M125.76 95.38c-7.26-.38-15.25.1-21.82-2.53q-3.08-1.23-.91 1.28c5.44 6.27 15.32 7.23 23.06 7.06q.51-.01.47-.51l-.35-4.86q-.03-.42-.45-.44" vector-effect="non-scaling-stroke"/><path stroke="#f4ddc2" d="M98.22 95.2q.62-.56-.17-.84-2.75-.97-5.24.4-.6.33-.49 1.01l1 6.27q.11.7.77.46l.71-.25q.47-.17.49-.67.14-3.83 2.93-6.38" vector-effect="non-scaling-stroke"/><path stroke="#8a7b6c" d="M129.44 106.43c-9.08.56-23.5 1.55-28.42-8.13q-.29-.58-.91-.35l-1.33.49q-.7.26-.21.82c2.7 3.13 5.63 8.1 8.93 10.03 4.45 2.61 20.06 3.68 22.3-2.38q.2-.52-.36-.48" vector-effect="non-scaling-stroke"/><path stroke="#918f90" d="M122.29 153.49a1.7 1.7 0 0 0-1.7-1.7 1.7 1.7 0 0 0-1.7 1.7 1.7 1.7 0 0 0 1.7 1.7 1.7 1.7 0 0 0 1.7-1.7M124.21 162.25a1.71 1.71 0 0 0-1.71-1.71 1.71 1.71 0 0 0-1.71 1.71 1.71 1.71 0 0 0 1.71 1.71 1.71 1.71 0 0 0 1.71-1.71M153.72 188.27c3.77-.97 7.54-3.44 11.35-5.17q.55-.25-.06-.24-6.74.09-11.8 4.43a.57.57 0 0 0 .51.98M155.91 191.67c3.17.3 8.09.13 11.34-.53q.7-.14.02-.36-5.75-1.86-11.46-.04a.48.48 0 0 0 .1.93M155.08 197.68l13.39.46a.11.11 0 0 0 .11-.1v-.03a6.67 1.36 2 0 0-6.61-1.59l-.28-.01a6.67 1.36 2 0 0-6.72 1.12v.03a.11.11 0 0 0 .11.12" vector-effect="non-scaling-stroke"/></g><path fill="#231f20" d="M104.69 256h-5c-6.75-.69-13.08-.72-19.86-3.27q-.61-.23-.81-.85l-8-25.2q-.13-.44-.6-.43c-11.88.21-23.24-6.42-34.19-11.47-1.69-.78-2.89-2.31-2.97-4.05q-.33-7.13-.75-14.41-.03-.51-.4-.87C11.99 175.9.92 153.86 0 125.44v-3.25q1.59-43.01 33.42-71.23.38-.34.42-.86c.52-7.59 1.82-14.79 8.84-18.92q.44-.26.58-.75c3.54-11.91 17.57-18.6 27.95-23.5 19.51-9.22 46.92-10.33 63.99 4.88 13.65 12.15 19.12 23.86 19.82 42.17q.02.49.36.83c31.38 31.41 38.36 77.8 16.5 116.64q-.29.51.22.81c6 3.45 9.98 17.88 9.9 24.21-.08 5.54-2.65 14.98-9.07 16.47q-8.24 1.92-16.61-.01-.49-.11-.79-.52l-1.21-1.68q-.35-.49-.95-.53-6.04-.4-11.67 1.71-.58.22-.62.84-.2 3.21-3.42 3.84-.48.09-.61.57c-1.87 6.8 6.14 19.49-1.11 24.07-1.56.98-4.26 1.12-6.26 2.04q-.53.25-.4.81 2.18 9.38-7.31 10.62-7.48.98-17.28 1.3ZM63.96 40.03q-1.29 7.24-2.34 14.59c-.77 5.34 1.13 11.24 2.18 16.52q.12.59-.38.93-3.39 2.31-7.55 1.6-.48-.08-.63-.55l-1.2-3.87c-2.03-6.38-7.94-7.59-13.12-3.95-6.99 4.92-6.13 13.22-1.75 20.24q5.95 10.95 16.39 3.52.92-.65 1.65.78-1.05 3.12-3.36 5.57-.36.38-.36.91c.01 6.77 6.1 22.65 11.8 26.7q3.36 2.37 8 2.81 4.22 1.43 9.35 1.46.5 0 .88-.32 4.03-3.37 9.4-1.91.83.22.12-.27c-6.15-4.23-18.09-14.94-18.76-23.27q-.08-.98.48-.17c13.63 19.6 29.72 32.34 53.97 18.03q3.95-2.33 6.94-6.03c14.37-17.76 17.84-41.34 15.33-63.54q-.81-7.13-2.73-10.3c-2.7-4.44-9.79-8.26-14.83-4.74q-.42.29-.63-.18-.17-.39-.1-.84c1.08-5.09 4.9-5.41 9.28-4.98q.88.09.33-.59l-3.82-4.72q-3.99-5.88-9.96-9.71c-10.78-6.07-27.58-10.83-39.77-5.51-8.82 3.85-20.71 12.04-25.81 21.17q-.25.46-.08.96 1.65 4.69 1.08 9.66Zm-9.71-12.32c3.77.13 7.02.88 9.33-2.89q3.35-5.47 7.18-9.34l5.09-3.08q.4-.24.4-.7v-.46a.7.7 0 0 0-.88-.67c-9.64 2.72-22.62 9.49-27.33 18.75q-.25.49.29.4 3.2-.56 5.92-2.01Zm-13 31.33c8.74-1.26 15.19.06 17.49 9.84a.51.51 0 0 0 .78.31q1.53-1.02.9-3.17c-3.02-10.34-.03-19.9.16-30.68q.01-.5-.22-.95l-.32-.64q.05-.93-.35-1.76-.22-.45-.72-.4c-7.28.71-15.95 4.78-18.47 12.15-1.71 5.01-1.19 10.65-.93 15.83a.59.59 0 0 0 .89.48q.74-.43.79-1.01ZM6.04 131.25q2.81 32.2 25.04 55.39.41.43.37-.16c-.96-15.26-6.96-28.15-11.51-41.95-1.67-5.03-.4-6.98 4-9.66q13.65-8.31 27.36-16.52c1.93-1.15 3.7-2.87 2.45-5.07q-4.54-8.01-5.73-14.54-.09-.48-.57-.59c-12.27-2.62-16.72-15.99-16.37-27.26.63-4.03 4.16-8.59 3.02-12.25q-.2-.64-.68-.16Q3.25 88.3 6.04 131.25Zm152.81-4.33c3.17 2.9 2.93 6.03 1.78 10.05q-5.71 19.84-12.61 39.39a.31.31 0 0 0 .45.37q7.87-4.42 16.78-5.81.52-.08.8-.53c20.65-34.63 16.06-77.38-10.31-107.18a.27.27 0 0 0-.47.18c-.23 12.66-2.38 29.57-8.4 40.82-1.13 2.11-4.71 7.44-2.52 9.44q7.26 6.63 14.5 13.27Zm-18.31-.27q3.32 10.4.3 20.58-.17.56.16 1.04l2.62 3.85q.25.37.02.75l-15.85 26.67a.25.24 3.7 0 0 .31.35c4.77-2.05 13.35.39 15.65-4.84q8.56-19.45 11.96-37.55 1.44-4.01-1.92-6.81-4-3.33-13.83-12.82-.41-.4-.83-.01l-4.51 4.28q-.39.37.13.46 3.87.67 5.79 4.05Zm-99.93 82.67c9.31 5.53 20.1 10.74 30.45 11.36q.53.03.46-.5L67.96 192q.95-4.23-2.46-4.25-7.29-.05-9.79-.5c.86-2.98 3.99-1.58 5.31-3.73q.3-.49 0-.99l-1.89-3.19a.72.72 0 0 1 .96-1l5.51 3.02q.39.22.52-.22c1.88-6.14.71-11.84.37-17.88-.07-1.11.23-5.35 1.84-5.5q.55-.06.72.47l.41 1.27c-.18 6.56-1.66 16.67.33 22.76q.17.51.7.46l2.76-.26 37.49-2.97q.85-.06.08-.41-13.18-5.93-18.55-9.08c-3.82-2.24.29-6.79 1.44-9.17q.39-.81-.42-.43c-2.78 1.3-4.96.4-6.35-2.32-2.78-5.45-3.72-11.59-5.31-17.5q-.13-.5-.6-.7-9.69-4.03-18.03-10.17l-6.09-6.86q-.34-.39-.82-.18c-11.57 4.88-20.07 11.11-30.71 19.08q-.41.31-.22.78c8.59 20.67 12.24 42.76 12.92 65.04q.01.51.42.82.91.72 2.11.93Zm81.64-66.61q-.46.72-.1 1.35.25.47.77.58 7.01 1.59 14.19 1.82.54.02.77-.47c2.07-4.3.87-10.87-.34-14.99-1.81-7.46-12.27.74-16.2 3.18q-.44.28-.29.78l.57 2q.18.62.82.56 1.99-.18 3.91.27 1.34.31-.01.59l-3.31.69q-.64.13-.67.78l-.11 2.86Zm-40.88-12.43c-3.74-.23-8.08-.52-11.54-1.98q-.55-.23-.78.31c-1.29 3.03 9.6 6.25 11.5 6.52q.61.09.71-.51l.64-3.66q.11-.64-.53-.68Zm41.09-1.98c-5.46 1.48-10.35 2.22-15.96 1.52q-1.07-.13-.22.52 3.96 3.01 8.82 2.74c3.07-.17 5.22-2.54 7.54-4.42q.74-.61-.18-.36Zm-35.17 22.95 1.51 4.33q.17.48.64.69c4.71 2.09 15.24-5.81 19.67-9.48 1.47-1.22 1.58-2.71.89-4.33l-5.47-1.7q-.94-.29 0-.57l4.74-1.42a.78.78 0 0 0 .1-1.46c-6.22-2.87-11.74-6.09-18.79-7.68-9.63-2.17-4.69 18.17-3.29 21.62Zm25.27-13.24.57 4.53a1.32 1.32 0 0 0 1.47 1.14l1.21-.15a3.51 3.42 82.8 0 0 2.96-3.91l-.02-.18a3.51 3.42 82.8 0 0-3.84-3.06l-1.21.16a1.32 1.32 0 0 0-1.14 1.47Zm10.65 35.49q.06 1 .68 1.54.41.36.53-.17 2.47-10.91 2.29-22.12c.36-1.03.94-3.79-1.16-3.5q-.59.08-1.11-.23l-4.67-2.78q-.44-.26-.92-.09l-3.92 1.39q-.51.18-1.04.1-1.89-.32-2.88 1.57-.23.44.04.85c4.88 7.53 8.12 15.44 12.16 23.44Zm6.62-23c-1.01 8.54-1.39 16.6-3.27 24.96q-.15.65.24.11 7.34-10.31 13.42-21.43.25-.46-.05-.89-3.63-5.07-9.71-3.47-.56.14-.63.72ZM95.5 165.96c7.79 4.17 15.5 7.9 23.93 10.54q.37.12.24-.25-4.41-12.46-11.66-23.5-.28-.44-.73-.17c-5.19 3.17-10.11 6.79-12.06 12.69q-.15.46.28.69Zm52.92 17.48q-1.65.29-1.39 1.55c1.43 6.94 1.79 13.08 2.97 20.67q.08.55.64.52c5.15-.31 12.15-1.21 17.08.26q.84.25-.01.46l-9.06 2.15a.49.49 0 0 0 .06.96q5.06.59 10.05-.34c9.26-1.71 9.86-12.47 7.03-19.67-.99-6.25-3.73-16.92-12.24-13.37-3.33 1.39-13.34 4.31-15.13 6.81ZM139.79 204l.56 4q.09.62.7.46l4.79-1.26q.52-.14.51-.69l-.14-5.01q-.16-8.66-3.54-16.53-.23-.54-.82-.54l-3.98-.03q-.73 0-.63.71l2.55 18.89Zm-33.83 46.37q9.47.07 18.67-2.39.51-.13.46-.66c-2.17-20.04-2.65-40.31-4.3-60.73q-.07-.78-.84-.89l-2.7-.41c-15.31-1.95-31.4-.23-46.54 2.49q-.44.08-.4.53 2.77 29.72 11.67 58.18.16.52.68.67 11.49 3.29 23.3 3.21Zm18.58-57.12q-.09 10.04 1.03 20.13.05.43.47.35l8.21-1.44q.31-.06.29-.38L132.71 191l-1.03-5.26q-.13-.67-.81-.61l-5.77.56q-.66.06-.74.72-.43 3.48.18 6.84Zm7.61 28.07q-.23-.9-.14-1.92.06-.54-.35-.9c-1.17-1.06-4.08-.26-5.29.35q-.57.29-.53.92l.99 17.83q.04.79.82.61l5.91-1.36q.61-.14.6-.77-.15-7.56-2.01-14.76Z"/><path fill="#f7e4cd" d="M128.54 13.75c-.45.58-1.12.78-1.82.47-6.87-2.98-15.81-2.21-23.05-1.36-17.63 2.08-30.52 10.2-38.18 26.89q-.6 1.3-1.53.28.57-4.97-1.08-9.66-.17-.5.08-.96c5.1-9.13 16.99-17.32 25.81-21.17 12.19-5.32 28.99-.56 39.77 5.51Z"/><path fill="#dcd9d8" d="M70.76 15.48q-5.01 1.68-10 5.52-4.2 3.23-6.51 6.71-2.72 1.45-5.92 2.01-.54.09-.29-.4c4.71-9.26 17.69-16.03 27.33-18.75a.7.7 0 0 1 .88.67v.46q0 .46-.4.7l-5.09 3.08Z"/><path fill="#f0d6b7" d="M128.54 13.75q5.97 3.83 9.96 9.71c-4.9 2.32-8.21 4.14-7.37 9.85q.06.44.5.44h1.08q-.07.45.1.84.21.47.63.18c5.04-3.52 12.13.3 14.83 4.74q1.92 3.17 2.73 10.3c2.51 22.2-.96 45.78-15.33 63.54q-2.99 3.7-6.94 6.03c-24.25 14.31-40.34 1.57-53.97-18.03q-.56-.81-.48.17c.67 8.33 12.61 19.04 18.76 23.27q.71.49-.12.27-5.37-1.46-9.4 1.91-.38.32-.88.32-5.13-.03-9.35-1.46-8.13-8.69-11.52-20.09-1.17-3.95-3.11-15.22-.09-.53-.58-.74-.44-.19-.87.06-.73-1.43-1.65-.78-10.44 7.43-16.39-3.52l1.58-12.75q.91-1.35 2.82-1.78a.57.57 0 0 1 .67.74q-1.99 5.94.71 11.48.95 1.96.66-.2-.65-4.77.77-9.28.16-.51.68-.65c3.13-.85 4.13 3.68 5.57 5.58q.41.53.54-.13.97-4.88-2.42-8.51l3.29-.79 1.2 3.87q.15.47.63.55 4.16.71 7.55-1.6.5-.34.38-.93c-1.05-5.28-2.95-11.18-2.18-16.52q1.05-7.35 2.34-14.59.93 1.02 1.53-.28c7.66-16.69 20.55-24.81 38.18-26.89 7.24-.85 16.18-1.62 23.05 1.36.7.31 1.37.11 1.82-.47Zm-49.33 30c.32.65.5 2.02 1.45 2q.56 0 .8-.51c3.27-7.11 7.5-9.97 15.44-9.62q1 .04 1.01-.96.02-3.56-4.44-4.24c1.72-3.82-4.66-2.34-6.05-1.75q-9.59 4.06-9.46 14.31.01.52.48.73.34.15.77.04ZM142.96 49q-5.21 1.32-5.66 6.48a1.68 1.67-1.1 0 0 1.88 1.8q2.94-.38 5.48-1.9l.68 1.88a1.1 1.09-13.5 0 1-.9 1.46l-7.15.9q-.77.1-.6.86c1.52 6.52 10.1 2.63 12.83-.34q.37-.4.12-.89l-6.14-12.08q-.26-.5-.42.04-.27.9-.12 1.79Zm-40.75.5c-3.91-.31-9.32 2.88-6.98 7.52q.23.48.71.71 4.66 2.21 9.1-.48l1.47 2.81q.27.51-.23.79c-3.02 1.68-6.93.72-10.2.23q-.5-.08-.71.38c-2.91 6.35 16.51 8.03 15.03-1.32q-.09-.53-.47-.91-4.79-4.8-6.95-11.25-.21-.63-.57-.08-.46.71-.2 1.6Zm13.58 34.75q3.07-1.07 5.2-3.52.33-.37.17-.85-.76-2.28-3.06-2.69-.56-.1-.75.43l-1.89 5.13q-3.21 4.66.62 8.65.35.36.85.38c9.44.43 16.04-2.79 23.83-7.56q.47-.28.59-.82l1.34-6.14q.11-.52-.26-.89c-6.68-6.71-15.14-15.89-18.14-24.92q-.33-.99-1.17-.97-.58.02-.58.6c-.06 9.7 8.36 18.61 14.16 25.75 2.01 2.46 1.3 5.68-1.65 7.09-4.8 2.31-11.8 5.78-17.17 4.18q-.51-.16-.72-.65l-1.37-3.2Zm28.64 4.62c-5.06 2.65-9.38 4.9-15.07 5.97q-.59.11-.59.71v4.65q0 .62.62.59c6.99-.35 12.56-5.44 15.36-11.61q.29-.63-.32-.31Zm-18.67 6.51c-7.26-.38-15.25.1-21.82-2.53q-3.08-1.23-.91 1.28c5.44 6.27 15.32 7.23 23.06 7.06q.51-.01.47-.51l-.35-4.86q-.03-.42-.45-.44Zm-27.54-.18q.62-.56-.17-.84-2.75-.97-5.24.4-.6.33-.49 1.01l1 6.27q.11.7.77.46l.71-.25q.47-.17.49-.67.14-3.83 2.93-6.38Zm31.22 11.23c-9.08.56-23.5 1.55-28.42-8.13q-.29-.58-.91-.35l-1.33.49q-.7.26-.21.82c2.7 3.13 5.63 8.1 8.93 10.03 4.45 2.61 20.06 3.68 22.3-2.38q.2-.52-.36-.48Z"/><path fill="#6d6b6d" d="M70.76 15.48q-3.83 3.87-7.18 9.34c-2.31 3.77-5.56 3.02-9.33 2.89q2.31-3.48 6.51-6.71 4.99-3.84 10-5.52Z"/><path fill="#f7e4cd" d="m138.5 23.46 3.82 4.72q.55.68-.33.59c-4.38-.43-8.2-.11-9.28 4.98h-1.08q-.44 0-.5-.44c-.84-5.71 2.47-7.53 7.37-9.85ZM93.47 30.42q-11.66 1.86-14.26 13.33-.43.11-.77-.04-.47-.21-.48-.73-.13-10.25 9.46-14.31c1.39-.59 7.77-2.07 6.05 1.75Z"/><path fill="#231f20" d="M93.47 30.42q4.46.68 4.44 4.24-.01 1-1.01.96c-7.94-.35-12.17 2.51-15.44 9.62q-.24.51-.8.51c-.95.02-1.13-1.35-1.45-2q2.6-11.47 14.26-13.33Z"/><path fill="#dcd9d8" d="m60.04 33.75-.07.34q-.07.33-.4.37-18.2 2.63-19.13 20.76c-.06 1.12.47 2.76.81 3.82q-.05.58-.79 1.01a.59.59 0 0 1-.89-.48c-.26-5.18-.78-10.82.93-15.83 2.52-7.37 11.19-11.44 18.47-12.15q.5-.05.72.4.4.83.35 1.76Z"/><path fill="#6d6b6d" d="m60.04 33.75.32.64q.23.45.22.95c-.19 10.78-3.18 20.34-.16 30.68q.63 2.15-.9 3.17a.51.51 0 0 1-.78-.31c-2.3-9.78-8.75-11.1-17.49-9.84-.34-1.06-.87-2.7-.81-3.82q.93-18.13 19.13-20.76.33-.04.4-.37l.07-.34Z"/><path fill="#231f20" d="m144.66 55.38-1.7-6.38q-.15-.89.12-1.79.16-.54.42-.04l6.14 12.08q.25.49-.12.89c-2.73 2.97-11.31 6.86-12.83.34q-.17-.76.6-.86l7.15-.9a1.1 1.09-13.5 0 0 .9-1.46l-.68-1.88ZM105.04 57.25q-2.17-3.6-2.83-7.75-.26-.89.2-1.6.36-.55.57.08 2.16 6.45 6.95 11.25.38.38.47.91c1.48 9.35-17.94 7.67-15.03 1.32q.21-.46.71-.38c3.27.49 7.18 1.45 10.2-.23q.5-.28.23-.79l-1.47-2.81Z"/><path fill="#f7e4cd" d="m142.96 49 1.7 6.38q-2.54 1.52-5.48 1.9a1.68 1.67-1.1 0 1-1.88-1.8q.45-5.16 5.66-6.48ZM102.21 49.5q.66 4.15 2.83 7.75-4.44 2.69-9.1.48-.48-.23-.71-.71c-2.34-4.64 3.07-7.83 6.98-7.52Z"/><path fill="#231f20" d="m115.46 82.75.33 1.5 1.37 3.2q.21.49.72.65c5.37 1.6 12.37-1.87 17.17-4.18 2.95-1.41 3.66-4.63 1.65-7.09-5.8-7.14-14.22-16.05-14.16-25.75q0-.58.58-.6.84-.02 1.17.97c3 9.03 11.46 18.21 18.14 24.92q.37.37.26.89l-1.34 6.14q-.12.54-.59.82c-7.79 4.77-14.39 7.99-23.83 7.56q-.5-.02-.85-.38-3.83-3.99-.62-8.65Z"/><path fill="#ef3d3a" d="M31.08 70.89c-14.95 16.52-22.6 37.75-24.01 60.1q-.03.54-.57.47-.23-.03-.46-.21Q3.25 88.3 33.42 58.48q.48-.48.68.16c1.14 3.66-2.39 8.22-3.02 12.25Z"/><path fill="#d33833" d="M160.63 136.97c1.15-4.02 1.39-7.15-1.78-10.05q-7.24-6.64-14.5-13.27c-2.19-2 1.39-7.33 2.52-9.44 6.02-11.25 8.17-28.16 8.4-40.82a.27.27 0 0 1 .47-.18c26.37 29.8 30.96 72.55 10.31 107.18q-.28.45-.8.53-8.91 1.39-16.78 5.81a.31.31 0 0 1-.45-.37q6.9-19.55 12.61-39.39Z"/><path fill="#f7e4cd" d="m54.04 69.25-3.29.79c-3.52-3.5-9.76-3.15-10 2.75l-1.58 12.75c-4.38-7.02-5.24-15.32 1.75-20.24 5.18-3.64 11.09-2.43 13.12 3.95Z"/><path fill="#231f20" d="M50.75 70.04q3.39 3.63 2.42 8.51-.13.66-.54.13c-1.44-1.9-2.44-6.43-5.57-5.58q-.52.14-.68.65-1.42 4.51-.77 9.28.29 2.16-.66.2-2.7-5.54-.71-11.48a.57.57 0 0 0-.67-.74q-1.91.43-2.82 1.78c.24-5.9 6.48-6.25 10-2.75Z"/><path fill="#d33833" d="M31.08 70.89c-.35 11.27 4.1 24.64 16.37 27.26q.48.11.57.59 1.19 6.53 5.73 14.54c1.25 2.2-.52 3.92-2.45 5.07q-13.71 8.21-27.36 16.52c-4.4 2.68-5.67 4.63-4 9.66 4.55 13.8 10.55 26.69 11.51 41.95q.04.59-.37.16-22.23-23.19-25.04-55.39.23.18.46.21.54.07.57-.47c1.41-22.35 9.06-43.58 24.01-60.1Z"/><path fill="#f7e4cd" d="m115.79 84.25-.33-1.5 1.89-5.13q.19-.53.75-.43 2.3.41 3.06 2.69.16.48-.17.85-2.13 2.45-5.2 3.52Z"/><path fill="#231f20" d="M129.36 94.84c5.69-1.07 10.01-3.32 15.07-5.97q.61-.32.32.31c-2.8 6.17-8.37 11.26-15.36 11.61q-.62.03-.62-.59v-4.65q0-.6.59-.71Z"/><path fill="#f7e4cd" d="M57.21 89.84q.43-.25.87-.06.49.21.58.74 1.94 11.27 3.11 15.22 3.39 11.4 11.52 20.09-4.64-.44-8-2.81c-5.7-4.05-11.79-19.93-11.8-26.7q0-.53.36-.91 2.31-2.45 3.36-5.57Z"/><path fill="#231f20" d="M103.94 92.85c6.57 2.63 14.56 2.15 21.82 2.53q.42.02.45.44l.35 4.86q.04.5-.47.51c-7.74.17-17.62-.79-23.06-7.06q-2.17-2.51.91-1.28Z"/><path fill="#f7e4cd" d="M98.22 95.2q-2.79 2.55-2.93 6.38-.02.5-.49.67l-.71.25q-.66.24-.77-.46l-1-6.27q-.11-.68.49-1.01 2.49-1.37 5.24-.4.79.28.17.84Z"/><path fill="#231f20" d="M101.02 98.3c4.92 9.68 19.34 8.69 28.42 8.13q.56-.04.36.48c-2.24 6.06-17.85 4.99-22.3 2.38-3.3-1.93-6.23-6.9-8.93-10.03q-.49-.56.21-.82l1.33-.49q.62-.23.91.35Z"/><path fill="#49728b" d="m155.71 137.5-15.17-10.85q-1.92-3.38-5.79-4.05-.52-.09-.13-.46l4.51-4.28q.42-.39.83.01 9.83 9.49 13.83 12.82 3.36 2.8 1.92 6.81ZM63 129.71 33.81 142.6a.58.57 71.6 0 0-.33.67q6.2 24.76 8.32 50.22.61 7.35-1.19 15.83-1.2-.21-2.11-.93-.41-.31-.42-.82c-.68-22.28-4.33-44.37-12.92-65.04q-.19-.47.22-.78c10.64-7.97 19.14-14.2 30.71-19.08q.48-.21.82.18l6.09 6.86Z"/><path fill="#335061" d="m140.54 126.65 15.17 10.85q-3.4 18.1-11.96 37.55c-2.3 5.23-10.88 2.79-15.65 4.84a.25.24 3.7 0 1-.31-.35l15.85-26.67q.23-.38-.02-.75l-2.62-3.85q-.33-.48-.16-1.04 3.02-10.18-.3-20.58Z"/><path fill="#ef3d3a" d="m137.54 131-7.19 1.5a2.16 2.15 85.5 0 0-1.71 2.01l-.22 4.65q-.03.61-.6.85l-3.29 1.39q-.43.18-.73.52-.6.71-1.55.79l.11-2.86q.03-.65.67-.78l3.31-.69q1.35-.28.01-.59-1.92-.45-3.91-.27-.64.06-.82-.56l-.57-2q-.15-.5.29-.78c3.93-2.44 14.39-10.64 16.2-3.18Z"/><path fill="#fff" d="M69.83 128.3c3.46 1.46 7.8 1.75 11.54 1.98q.64.04.53.68l-.64 3.66q-.1.6-.71.51c-1.9-.27-12.79-3.49-11.5-6.52q.23-.54.78-.31Z"/><path fill="#f0d6b7" d="M106.5 129.82c5.61.7 10.5-.04 15.96-1.52q.92-.25.18.36c-2.32 1.88-4.47 4.25-7.54 4.42q-4.86.27-8.82-2.74-.85-.65.22-.52Z"/><path fill="#ef3d3a" d="M110 142.46q-4.26 1.66-6.98-1.66-.32-.4-.13-.88c2.29-5.77-8.81-5.65-11.91-5.46-2.64.17-3.64 1.27-3.62 3.87q.05 6.76.97 12.26.08.5-.41.66-.35.11-.63 0c-1.4-3.45-6.34-23.79 3.29-21.62 7.05 1.59 12.57 4.81 18.79 7.68a.78.78 0 0 1-.1 1.46l-4.74 1.42q-.94.28 0 .57l5.47 1.7Z"/><path fill="#335061" d="M63 129.71q8.34 6.14 18.03 10.17.47.2.6.7c1.59 5.91 2.53 12.05 5.31 17.5 1.39 2.72 3.57 3.62 6.35 2.32q.81-.38.42.43c-1.15 2.38-5.26 6.93-1.44 9.17q5.37 3.15 18.55 9.08.77.35-.08.41l-37.49 2.97q.95-12.63-.19-19.27-.36-2.14-3.6-3.69l-.41-1.27q-.17-.53-.72-.47c-1.61.15-1.91 4.39-1.84 5.5.34 6.04 1.51 11.74-.37 17.88q-.13.44-.52.22l-5.51-3.02a.72.72 0 0 0-.96 1l1.89 3.19q.3.5 0 .99c-1.32 2.15-4.45.75-5.31 3.73q-.9-.26-1.27.21-.37.48.13.81c4.47 2.98 8.16 3.2 13.39 3.73l3.56 28.18q.07.53-.46.5c-10.35-.62-21.14-5.83-30.45-11.36q1.8-8.48 1.19-15.83-2.12-25.46-8.32-50.22a.58.57 71.6 0 1 .33-.67L63 129.71Z"/><path fill="#d33833" d="M137.54 131c1.21 4.12 2.41 10.69.34 14.99q-.23.49-.77.47-7.18-.23-14.19-1.82-.52-.11-.77-.58-.36-.63.1-1.35.95-.08 1.55-.79.3-.34.73-.52l3.29-1.39q.57-.24.6-.85l.22-4.65a2.16 2.15 85.5 0 1 1.71-2.01l7.19-1.5ZM110 142.46c.69 1.62.58 3.11-.89 4.33-4.43 3.67-14.96 11.57-19.67 9.48q-.47-.21-.64-.69l-1.51-4.33q.28.11.63 0 .49-.16.41-.66-.92-5.5-.97-12.26c-.02-2.6.98-3.7 3.62-3.87 3.1-.19 14.2-.31 11.91 5.46q-.19.48.13.88 2.72 3.32 6.98 1.66ZM112.56 138.01a1.32 1.32 0 0 1 1.14-1.47l1.21-.16a3.51 3.42 82.8 0 1 3.84 3.06l.02.18a3.51 3.42 82.8 0 1-2.96 3.91l-1.21.15a1.32 1.32 0 0 1-1.47-1.14l-.57-4.53Z"/><path fill="#dcd9d8" d="M126.71 152.75c-2.44-.71-5.81-3.23-7.99-2.67-2.32.59-3.1 2.86-2.22 5.11q2.64 6.69 7.2 15.34.76 1.42-.49 2.97c-4.04-8-7.28-15.91-12.16-23.44q-.27-.41-.04-.85.99-1.89 2.88-1.57.53.08 1.04-.1l3.92-1.39q.48-.17.92.09l4.67 2.78q.52.31 1.11.23c2.1-.29 1.52 2.47 1.16 3.5Z"/><path fill="#81b0c4" d="M126.56 175.46c1.88-8.36 2.26-16.42 3.27-24.96q.07-.58.63-.72 6.08-1.6 9.71 3.47.3.43.05.89-6.08 11.12-13.42 21.43-.39.54-.24-.11Z"/><path fill="#fff" d="M126.71 152.75q.18 11.21-2.29 22.12-.12.53-.53.17-.62-.54-.68-1.54 1.25-1.55.49-2.97-4.56-8.65-7.2-15.34c-.88-2.25-.1-4.52 2.22-5.11 2.18-.56 5.55 1.96 7.99 2.67Zm-4.42.74a1.7 1.7 0 0 0-1.7-1.7 1.7 1.7 0 0 0-1.7 1.7 1.7 1.7 0 0 0 1.7 1.7 1.7 1.7 0 0 0 1.7-1.7Zm1.92 8.76a1.71 1.71 0 0 0-1.71-1.71 1.71 1.71 0 0 0-1.71 1.71 1.71 1.71 0 0 0 1.71 1.71 1.71 1.71 0 0 0 1.71-1.71Z"/><circle cx="120.59" cy="153.49" r="1.7" fill="#231f20"/><path fill="#81b0c4" d="M119.43 176.5c-8.43-2.64-16.14-6.37-23.93-10.54q-.43-.23-.28-.69c1.95-5.9 6.87-9.52 12.06-12.69q.45-.27.73.17 7.25 11.04 11.66 23.5.13.37-.24.25Z"/><path fill="#49728b" d="m73.25 182.46-2.76.26q-.53.05-.7-.46c-1.99-6.09-.51-16.2-.33-22.76q3.24 1.55 3.6 3.69 1.14 6.64.19 19.27Z"/><circle cx="122.5" cy="162.25" r="1.71" fill="#231f20"/><path fill="#fff" d="m175.79 190-3.22 11q-.18.6-.8.56l-19.75-1.11q-.63-.03-.74-.66l-2.86-16.35c1.79-2.5 11.8-5.42 15.13-6.81 8.51-3.55 11.25 7.12 12.24 13.37Zm-22.07-1.73c3.77-.97 7.54-3.44 11.35-5.17q.55-.25-.06-.24-6.74.09-11.8 4.43a.57.57 0 0 0 .51.98Zm2.19 3.4c3.17.3 8.09.13 11.34-.53q.7-.14.02-.36-5.75-1.86-11.46-.04a.48.48 0 0 0 .1.93Zm-.83 6.01 13.39.46a.11.11 0 0 0 .11-.1v-.03a6.67 1.36 2 0 0-6.61-1.59l-.28-.01a6.67 1.36 2 0 0-6.72 1.12v.03a.11.11 0 0 0 .11.12Z"/><path fill="#231f20" d="M165.07 183.1c-3.81 1.73-7.58 4.2-11.35 5.17a.57.57 0 0 1-.51-.98q5.06-4.34 11.8-4.43.61-.01.06.24Z"/><path fill="#dcd9d8" d="m148.42 183.44 2.86 16.35q.11.63.74.66l19.75 1.11q.62.04.8-.56l3.22-11c2.83 7.2 2.23 17.96-7.03 19.67q-4.99.93-10.05.34a.49.49 0 0 1-.06-.96l9.06-2.15q.85-.21.01-.46c-4.93-1.47-11.93-.57-17.08-.26q-.56.03-.64-.52c-1.18-7.59-1.54-13.73-2.97-20.67q-.26-1.26 1.39-1.55Z"/><path fill="#fff" d="m146.21 201.5-6.42 2.5-2.55-18.89q-.1-.71.63-.71l3.98.03q.59 0 .82.54 3.38 7.87 3.54 16.53ZM117.25 185.29q-1.58 29.16 3.11 58.03.09.54-.39.8-6.79 3.58-14.01 6.25-11.81.08-23.3-3.21-.52-.15-.68-.67-8.9-28.46-11.67-58.18-.04-.45.4-.53c15.14-2.72 31.23-4.44 46.54-2.49Z"/><path fill="#dcd9d8" d="m117.25 185.29 2.7.41q.77.11.84.89c1.65 20.42 2.13 40.69 4.3 60.73q.05.53-.46.66-9.2 2.46-18.67 2.39 7.22-2.67 14.01-6.25.48-.26.39-.8-4.69-28.87-3.11-58.03Z"/><path fill="#49728b" d="M132.71 191q-3.78 2.23-8.17 2.25-.61-3.36-.18-6.84.08-.66.74-.72l5.77-.56q.68-.06.81.61l1.03 5.26ZM55.71 187.25q2.5.45 9.79.5 3.41.02 2.46 4.25c-5.23-.53-8.92-.75-13.39-3.73q-.5-.33-.13-.81.37-.47 1.27-.21Z"/><path fill="#231f20" d="M167.25 191.14c-3.25.66-8.17.83-11.34.53a.48.48 0 0 1-.1-.93q5.71-1.82 11.46.04.68.22-.02.36Z"/><path fill="#335061" d="m132.71 191 1.83 20.91q.02.32-.29.38l-8.21 1.44q-.42.08-.47-.35-1.12-10.09-1.03-20.13 4.39-.02 8.17-2.25Z"/><path fill="#231f20" d="M155.08 197.68a.11.11 0 0 1-.11-.12v-.03a6.67 1.36 2 0 1 6.72-1.12l.28.01a6.67 1.36 2 0 1 6.61 1.59v.03a.11.11 0 0 1-.11.1l-13.39-.46Z"/><path fill="#dcd9d8" d="m146.21 201.5.14 5.01q.01.55-.51.69l-4.79 1.26q-.61.16-.7-.46l-.56-4 6.42-2.5ZM132.15 221.32q1.86 7.2 2.01 14.76.01.63-.6.77l-5.91 1.36q-.78.18-.82-.61l-.99-17.83q-.04-.63.53-.92c1.21-.61 4.12-1.41 5.29-.35q.41.36.35.9-.09 1.02.14 1.92Z"/></svg>