<svg xmlns="http://www.w3.org/2000/svg" viewBox="0 0 1168 153"><g fill="none" stroke="#1a74ef" stroke-width="2"><path d="M115.75 110.29q-.41-.61.06-1.04.43-.39.01-.81L91.18 83.82q-.92-.92-2.5-.57M73.67 54.58c-2.31-3.32-5.12-6.6-6.79-10.1q-9.59-20.14 2.44-39.65M54.6 73.49Q41.8 59.04 27.18 46.58M73.32 98.45q11.2 12.39 11.08 27.48-.1 12.03-8.2 23.77" vector-effect="non-scaling-stroke"/></g><path fill="#2684ff" d="M115.75 110.29q-.41-.61.06-1.04.43-.39.01-.81L91.18 83.82q-.92-.92-2.5-.57l6.3-6.48q.43-.43 0-.86L73.67 54.58c-2.31-3.32-5.12-6.6-6.79-10.1q-9.59-20.14 2.44-39.65 1.37-2.3 3.93-4.06.38-.26.7.06 34.75 34.73 69.48 69.47c3.83 3.84 4.96 7.13.9 11.22q-14.29 14.39-28.58 28.77Z"/><path fill="#0e64de" d="M69.32 4.83q-12.03 19.51-2.44 39.65c1.67 3.5 4.48 6.78 6.79 10.1L54.6 73.49Q41.8 59.04 27.18 46.58 47.52 25.61 69.32 4.83Z"/><path fill="#253858" d="M692.25 46.25h21.12q.63 0 .63.62V60a.5.5 0 0 1-.5.5H692q-.5 0-.5.5v73.09a.41.4-90 0 1-.4.41h-13.97q-.63 0-.63-.62V61a.5.5 0 0 0-.5-.5h-13q-.75 0-.75-.75V46.88q0-.63.63-.63h13.09q.47 0 .48-.48c.13-10.34-.98-20.19 6.31-28.37 7.52-8.45 20.67-9.94 31.41-7.15q.58.16.58.76v12.75q0 .87-.85.7c-9.16-1.76-19.84-1.7-22.3 9.7q-.62 2.89.1 11.59.05.5.55.5Z"/><circle cx="263.44" cy="23.04" r="10.86" fill="#253858"/><path fill="#253858" d="M499.8 34.77c-9.7 3.59-13.3 15.25-5.73 22.92q3.53 3.56 11.93 6.32c9.2 3.01 24.58 5.82 36.14 12.61 14.29 8.39 16.98 25.84 11.31 40.32-10.66 27.22-59.73 20.96-79.57 10.39q-.38-.2-.38-.63v-15.2q0-.71.65-.42 20.17 9.15 42.35 9.32c11.21.09 23.62-3.37 23.44-17.16-.15-11.22-10.45-15.68-19.7-18.2-12.1-3.29-25.29-6.08-35.41-13.35-10.12-7.26-13.08-21.71-9.38-33.01 9.38-28.67 53.92-24.72 74.43-13.74q.37.2.37.62v14.69q0 .79-.71.45c-14.55-6.94-34.73-11.49-49.74-5.93ZM215.47 112.88q3-4.52 3-8.94.06-42.51.02-85.08a.36.36 0 0 1 .36-.36h15.35q.51 0 .52.51.08 40.4.08 80.73c.01 31.52-22.85 41.01-49.96 32.57q-.59-.18-.59-.8v-14.46q0-.62.58-.4c8.84 3.37 24.39 5.68 30.64-3.77ZM752.25 46.25h22q.5 0 .5.5V60a.5.5 0 0 1-.5.5h-22.24q-.5 0-.5.51-.03 23.26-.01 46.48c.02 11.94 13.49 13.36 22.08 10.65a.9.89-8.8 0 1 1.17.85v13.32q0 .56-.54.7c-13.86 3.72-30.97.02-36.02-14.44q-1.63-4.67-1.67-17.88-.06-19.81 0-39.68a.51.51 0 0 0-.51-.51H723q-.75 0-.75-.75v-13q0-.5.5-.5H736q.5 0 .5-.5V28a.5.5 0 0 1 .5-.5h14q.5 0 .5.5v17.5q0 .75.75.75ZM410.52 60.11l-.03-13.23q0-.63.63-.63H425q.75 0 .75.75v87.09a.41.4-90 0 1-.4.41h-14.36q-.51 0-.51-.51l.05-13.77a.33.33 0 0 0-.62-.16c-9.19 16.86-31.41 20.42-46.71 11.15-20.24-12.26-21.13-47.33-12.47-66.29 6.49-14.22 19.98-22.01 35.62-20.3 10.75 1.17 18.69 6.08 23.61 15.62q.56 1.09.56-.13Zm-.47 37.37c1.86-15.78-.57-36.41-20.55-38.56-27.39-2.96-31.49 25.25-26.98 44.83 3.04 13.19 12.74 19.31 26.03 17.7q18.94-2.28 21.5-23.97ZM649.04 68.98c6.4 15.63 4.77 35.62-3.84 49.71-11.7 19.16-40.48 22.47-58.14 10.53-15.76-10.67-20.28-33.23-16.7-51.21 4.07-20.41 19.83-34.16 41.14-33.63 17.2.42 30.85 8.26 37.54 24.6Zm-64.76 19.53c-.31 16.3 6.48 31.52 24.65 33.21 31.43 2.92 38.22-44.83 16.67-58.93-6.68-4.38-15.94-5.19-23.53-2.68-12.09 3.99-17.55 16.42-17.79 28.4ZM998 60V46.75q0-.5.5-.5h14q.75 0 .75.75v87a.5.5 0 0 1-.5.5H998.5a.5.5 0 0 1-.5-.5v-14.01a.35.35 0 0 0-.66-.16c-10.03 19.09-37.59 21.72-52.38 6.96-17.4-17.36-16.04-60.93 4.35-75.92 15.16-11.15 38.88-8.36 48.05 9.29q.64 1.23.64-.16Zm-.09 37.01c1.42-17.16-1.96-38.16-24-38.3-25.62-.15-29.02 29.1-23.47 47.1 4.81 15.57 21.07 19.75 34.43 12.92q11.74-6.01 13.04-21.72ZM1103.57 97.58c4.87 29.49 38.28 26.01 58.61 19.25q.57-.19.57.41v13.05q0 .56-.5.81-2.65 1.35-5.5 2.15c-25.86 7.25-59.82 2.76-67.09-28.34-7.99-34.15 11.39-67.98 50.76-59.26 23.81 5.27 28.31 30.27 27.26 50.75q-.03.6-.62.6h-63q-.58 0-.49.58Zm27.44-39.26c-16.28-1.26-26.13 9.72-27.54 25.08q-.03.35.32.35h47.48a.82.81 87.1 0 0 .81-.9c-1.21-13.01-6.71-23.43-21.07-24.53ZM308.94 60.46q9.47-16.85 29.32-15.56 1.49.1 1.49 1.59v12.97q0 .51-.51.46c-11.21-1.25-24.41.31-28.93 11.99q-1.5 3.85-1.53 12.49-.08 24.85-.01 49.73a.37.36 90 0 1-.36.37h-14.28q-.63 0-.63-.62V46.66a.41.4-90 0 1 .4-.41h14.35q.5 0 .5.5v13.66a.1.1 0 0 0 .19.05ZM1051.41 60.53c6.08-12.14 17.2-16.17 30.11-15.79a.75.74.8 0 1 .73.74v14.01a.45.45 0 0 1-.5.45c-11.56-1.33-25.6.27-29.65 13.47q-1 3.26-1.05 11.68-.13 24.27-.02 48.85a.56.56 0 0 1-.56.56h-13.72q-.75 0-.75-.75v-87a.5.5 0 0 1 .5-.5h13.97a.53.52 90 0 1 .52.53l.02 13.65a.21.21 0 0 0 .4.1Z"/><rect width="15.5" height="88.26" x="255.5" y="46.25" fill="#253858" rx=".6"/><path fill="#253858" d="M820.72 119.55q.29.86.58.01l25.09-72.88a.64.63-80.3 0 1 .6-.43h13.77q.54 0 .72.51l25.05 72.79a.31.31 0 0 0 .59 0l24.57-72.34q.32-.96 1.33-.96h15.23a.57.57 0 0 1 .54.77l-32 86.96q-.19.52-.75.52h-18.29q-.5 0-.69-.47-12.78-33.43-22.83-67.76a.34.34 0 0 0-.65 0q-10.03 34.4-22.86 67.88-.13.35-.51.35h-18.44q-.53 0-.71-.5l-32.11-87.27a.36.36 0 0 1 .34-.48h16.21q.33 0 .43.31l24.79 72.99Z"/><path fill="#2684ff" d="M27.18 46.58Q41.8 59.04 54.6 73.49l-2.73 2.69q-.39.38-.01.76l21.46 21.51q11.2 12.39 11.08 27.48-.1 12.03-8.2 23.77-.81 1.38-2.26 2.38-.43.3-.81-.08-35.92-35.91-71.81-71.81-.8-.8-1.32-3.25v-1.25c.71-1.69.71-2.53 2.11-3.92q12.42-12.35 25.07-25.19Z"/><path fill="#0e64de" d="M115.75 110.29 76.2 149.7q8.1-11.74 8.2-23.77.12-15.09-11.08-27.48l15.36-15.2q1.58-.35 2.5.57l24.64 24.62q.42.42-.01.81-.47.43-.06 1.04Z"/></svg>