<svg xmlns="http://www.w3.org/2000/svg" viewBox="0 0 881 511"><g fill="none" stroke-width="2"><path stroke="#92d0b1" d="M572.49 441.81q60.53 29.32 126.45 18.08c85.11-14.5 153.99-84.54 166.79-169.97 14.17-94.54-36.14-184.21-124.27-221.37q-2.6-1.1-8.38-3.06" vector-effect="non-scaling-stroke"/><path stroke="#eda8a5" d="M733.08 65.49C634.39 29.36 523.48 74 478.3 168.98c-48.4 101.74-7.01 222.34 94.19 272.83" vector-effect="non-scaling-stroke"/><path stroke="#807956" d="m733.08 65.49.11 49.33" vector-effect="non-scaling-stroke"/><path stroke="#eda8a5" d="m733.19 114.82-142.84.24q-.48 0-.91-.21-.64-.33-1.06.09-.33.33-.4 1.23-5.18 66.15-10.56 134.56-.04.53.41.8l19.35 11.45q.42.24.89.14c42.4-9.51 116.09-15.37 107.65 53.86-4.28 35.11-35.67 44.83-66.29 43.45q-35.58-1.61-67.24-17.75-.49-.25-.5.3l-.25 39.92" vector-effect="non-scaling-stroke"/><path stroke="#807956" d="M571.44 382.9q.35 27.32.37 54.39c0 1.55.51 2.92.68 4.52" vector-effect="non-scaling-stroke"/><path stroke="#92d0b1" d="M571.44 382.9q19.11 9.76 41.81 12.82c54.29 7.34 121.13-1.65 136.2-65.68 11.09-47.09-6.22-93.48-56.29-106.43-23.64-6.11-46.64-3.52-71.29.15q-.56.09-.51-.49l6.11-67.55q.09-.97 1.06-.97h104.21q.47 0 .47-.47l-.02-39.46" vector-effect="non-scaling-stroke"/><path stroke="#bcbcbc" d="M354.747 182.444a.68.68 0 0 0-.68-.681l-14.62-.026a.68.68 0 0 0-.68.68l-.034 18.899a.68.68 0 0 0 .68.681l14.62.026a.68.68 0 0 0 .68-.68l.034-18.899M18.61 351.4c32.17 2.27 43.62-13.86 43.63-44.15q.02-59.86 0-119.74 0-.51-.5-.51H45.27a.54.53 0 0 0-.54.53q.06 61.41-.02 122.9c-.03 18.92-6.24 27.3-25.99 26.51a.62.61-88.2 0 0-.64.61l-.12 13.15q0 .65.65.7M110.19 308.31c13.05 10.95 32.75 12.12 49.04 8.9 24.29-4.81 34.4-24.23 34.46-47.47q.11-41.08.05-82.23-.01-.51-.51-.51h-15.71a1.25 1.25 0 0 0-1.25 1.25q.02 40.66-.26 81.18c-.1 14.85-4.3 29.94-20.52 33.75-25.38 5.97-42.57-5.41-43.02-32.44q-.5-29.28-.12-83.12 0-.62-.62-.62H95.26a.51.5-89.4 0 0-.5.5q-.05 38.72.02 77.47c.03 16.06 2.3 32.35 15.41 43.34M404.27 219.01l-.15-26.68a.6.6 0 0 0-.6-.59l-14.66.04q-.61 0-.61.61v26.36q0 .75-.75.75H377q-.5 0-.5.5v11.25q0 .5.5.5h10.74q.52 0 .52.52-.06 28.34.11 56.66c.19 31.27 26.51 27.39 48.03 27.4q.61 0 .6-.6v-12.25a.57.56-1 0 0-.59-.56q-9.77.33-19.52-.15c-12.17-.6-12.63-7.76-12.63-18.28q-.02-26.08-.02-52.23 0-.51.52-.51h31.74a.5.5 0 0 0 .5-.5V220q0-.5-.5-.5h-31.74q-.49 0-.49-.49M241.22 233.28l.05-13.27q0-.51-.51-.51h-14.98q-.53 0-.53.53v95.96a.48.47-.6 0 0 .49.47l15.01-.28q.5-.01.5-.51-.01-27.2.02-54.41c.01-17.33 9.83-30.44 27.8-30.25 15.14.17 21.46 10.94 21.44 24.75q-.06 29.97.01 60.01 0 .63.63.62l14.85-.18q.47-.01.47-.48.08-29.24.09-58.48c.01-18.76-6.67-36.8-27.58-39.61q-23.86-3.21-37.03 15.87a.4.4 0 0 1-.73-.23M354.606 219.746a.26.26 0 0 0-.26-.26l-15.42.028a.26.26 0 0 0-.26.26l.168 96.48a.26.26 0 0 0 .26.26l15.42-.028a.26.26 0 0 0 .26-.26l-.168-96.48" vector-effect="non-scaling-stroke"/></g><path fill="#fff" d="M0 0h881v511H0V0Zm572.49 441.81q60.53 29.32 126.45 18.08c85.11-14.5 153.99-84.54 166.79-169.97 14.17-94.54-36.14-184.21-124.27-221.37q-2.6-1.1-8.38-3.06C634.39 29.36 523.48 74 478.3 168.98c-48.4 101.74-7.01 222.34 94.19 272.83ZM354.747 182.444a.68.68 0 0 0-.68-.681l-14.62-.026a.68.68 0 0 0-.68.68l-.034 18.899a.68.68 0 0 0 .68.681l14.62.026a.68.68 0 0 0 .68-.68l.034-18.899ZM18.61 351.4c32.17 2.27 43.62-13.86 43.63-44.15q.02-59.86 0-119.74 0-.51-.5-.51H45.27a.54.53 0 0 0-.54.53q.06 61.41-.02 122.9c-.03 18.92-6.24 27.3-25.99 26.51a.62.61-88.2 0 0-.64.61l-.12 13.15q0 .65.65.7Zm91.58-43.09c13.05 10.95 32.75 12.12 49.04 8.9 24.29-4.81 34.4-24.23 34.46-47.47q.11-41.08.05-82.23-.01-.51-.51-.51h-15.71a1.25 1.25 0 0 0-1.25 1.25q.02 40.66-.26 81.18c-.1 14.85-4.3 29.94-20.52 33.75-25.38 5.97-42.57-5.41-43.02-32.44q-.5-29.28-.12-83.12 0-.62-.62-.62H95.26a.51.5-89.4 0 0-.5.5q-.05 38.72.02 77.47c.03 16.06 2.3 32.35 15.41 43.34Zm294.08-89.3-.15-26.68a.6.6 0 0 0-.6-.59l-14.66.04q-.61 0-.61.61v26.36q0 .75-.75.75H377q-.5 0-.5.5v11.25q0 .5.5.5h10.74q.52 0 .52.52-.06 28.34.11 56.66c.19 31.27 26.51 27.39 48.03 27.4q.61 0 .6-.6v-12.25a.57.56-1 0 0-.59-.56q-9.77.33-19.52-.15c-12.17-.6-12.63-7.76-12.63-18.28q-.02-26.08-.02-52.23 0-.51.52-.51h31.74a.5.5 0 0 0 .5-.5V220q0-.5-.5-.5h-31.74q-.49 0-.49-.49Zm-163.05 14.27.05-13.27q0-.51-.51-.51h-14.98q-.53 0-.53.53v95.96a.48.47-.6 0 0 .49.47l15.01-.28q.5-.01.5-.51-.01-27.2.02-54.41c.01-17.33 9.83-30.44 27.8-30.25 15.14.17 21.46 10.94 21.44 24.75q-.06 29.97.01 60.01 0 .63.63.62l14.85-.18q.47-.01.47-.48.08-29.24.09-58.48c.01-18.76-6.67-36.8-27.58-39.61q-23.86-3.21-37.03 15.87a.4.4 0 0 1-.73-.23Zm113.386-13.534a.26.26 0 0 0-.26-.26l-15.42.028a.26.26 0 0 0-.26.26l.168 96.48a.26.26 0 0 0 .26.26l15.42-.028a.26.26 0 0 0 .26-.26l-.168-96.48Z"/><path fill="#db514a" d="m733.08 65.49.11 49.33-142.84.24q-.48 0-.91-.21-.64-.33-1.06.09-.33.33-.4 1.23-5.18 66.15-10.56 134.56-.04.53.41.8l19.35 11.45q.42.24.89.14c42.4-9.51 116.09-15.37 107.65 53.86-4.28 35.11-35.67 44.83-66.29 43.45q-35.58-1.61-67.24-17.75-.49-.25-.5.3l-.25 39.92q.35 27.32.37 54.39c0 1.55.51 2.92.68 4.52-101.2-50.49-142.59-171.09-94.19-272.83C523.48 74 634.39 29.36 733.08 65.49Z"/><path fill="#25a162" d="M733.08 65.49q5.78 1.96 8.38 3.06c88.13 37.16 138.44 126.83 124.27 221.37-12.8 85.43-81.68 155.47-166.79 169.97q-65.92 11.24-126.45-18.08c-.17-1.6-.68-2.97-.68-4.52q-.02-27.07-.37-54.39 19.11 9.76 41.81 12.82c54.29 7.34 121.13-1.65 136.2-65.68 11.09-47.09-6.22-93.48-56.29-106.43-23.64-6.11-46.64-3.52-71.29.15q-.56.09-.51-.49l6.11-67.55q.09-.97 1.06-.97h104.21q.47 0 .47-.47l-.02-39.46-.11-49.33Z"/><path fill="#fff" d="m733.19 114.82.02 39.46q0 .47-.47.47H628.53q-.97 0-1.06.97l-6.11 67.55q-.05.58.51.49c24.65-3.67 47.65-6.26 71.29-.15 50.07 12.95 67.38 59.34 56.29 106.43-15.07 64.03-81.91 73.02-136.2 65.68q-22.7-3.06-41.81-12.82l.25-39.92q.01-.55.5-.3 31.66 16.14 67.24 17.75c30.62 1.38 62.01-8.34 66.29-43.45 8.44-69.23-65.25-63.37-107.65-53.86q-.47.1-.89-.14l-19.35-11.45q-.45-.27-.41-.8 5.38-68.41 10.56-134.56.07-.9.4-1.23.42-.42 1.06-.09.43.21.91.21l142.84-.24Z"/><rect width="15.98" height="20.26" x="-7.99" y="-10.13" fill="#797979" rx=".68" transform="rotate(.1 -109765.744 198763.275)"/><path fill="#797979" d="M62.24 307.25c-.01 30.29-11.46 46.42-43.63 44.15q-.65-.05-.65-.7l.12-13.15a.62.61-88.2 0 1 .64-.61c19.75.79 25.96-7.59 25.99-26.51q.08-61.49.02-122.9a.54.53 0 0 1 .54-.53h16.47q.5 0 .5.51.02 59.88 0 119.74ZM110.19 308.31c-13.11-10.99-15.38-27.28-15.41-43.34q-.07-38.75-.02-77.47a.51.5-89.4 0 1 .5-.5h16.47q.62 0 .62.62-.38 53.84.12 83.12c.45 27.03 17.64 38.41 43.02 32.44 16.22-3.81 20.42-18.9 20.52-33.75q.28-40.52.26-81.18a1.25 1.25 0 0 1 1.25-1.25h15.71q.5 0 .51.51.06 41.15-.05 82.23c-.06 23.24-10.17 42.66-34.46 47.47-16.29 3.22-35.99 2.05-49.04-8.9ZM404.76 219.5h31.74q.5 0 .5.5v11.25a.5.5 0 0 1-.5.5h-31.74q-.52 0-.52.51 0 26.15.02 52.23c0 10.52.46 17.68 12.63 18.28q9.75.48 19.52.15a.57.56-1 0 1 .59.56v12.25q.01.6-.6.6c-21.52-.01-47.84 3.87-48.03-27.4q-.17-28.32-.11-56.66 0-.52-.52-.52H377q-.5 0-.5-.5V220q0-.5.5-.5h10.5q.75 0 .75-.75v-26.36q0-.61.61-.61l14.66-.04a.6.6 0 0 1 .6.59l.15 26.68q0 .49.49.49ZM241.22 233.28a.4.4 0 0 0 .73.23q13.17-19.08 37.03-15.87c20.91 2.81 27.59 20.85 27.58 39.61q-.01 29.24-.09 58.48 0 .47-.47.48l-14.85.18q-.63.01-.63-.62-.07-30.04-.01-60.01c.02-13.81-6.3-24.58-21.44-24.75-17.97-.19-27.79 12.92-27.8 30.25q-.03 27.21-.02 54.41 0 .5-.5.51l-15.01.28a.48.47-.6 0 1-.49-.47v-95.96q0-.53.53-.53h14.98q.51 0 .51.51l-.05 13.27Z"/><rect width="15.94" height="97" x="-7.97" y="-48.5" fill="#797979" rx=".26" transform="rotate(-.1 153726.01 -198521.876)"/></svg>