<svg xmlns="http://www.w3.org/2000/svg" viewBox="0 0 863 390"><g fill="none" stroke-width="2"><path stroke="#f4a3c5" d="m2.53 0-.08 147.51" vector-effect="non-scaling-stroke"/><path stroke="#918f90" d="m2.45 147.51.03 173.45" vector-effect="non-scaling-stroke"/><path stroke="#f4a3c5" d="M2.48 320.96q-1.25 15.76.05 31.58" vector-effect="non-scaling-stroke"/><path stroke="#918f90" d="m2.53 352.54-.04 13.12" vector-effect="non-scaling-stroke"/><path stroke="#9bd2ca" d="M2.49 365.66 2.28 390" vector-effect="non-scaling-stroke"/><path stroke="#f4a3c5" d="m305.56 0 .09.33a.45.44-33.3 0 1-.09.4L153.12 184.28" vector-effect="non-scaling-stroke"/><path stroke="#863356" d="M153.12 184.28q-6.06-2.96-12.29-6-65.32-31.89-138.38-30.77" vector-effect="non-scaling-stroke"/><path stroke="#9fdfd8" d="M304.79 390c-13.16-67.26-50.17-128.01-102.48-172.05" vector-effect="non-scaling-stroke"/><path stroke="#9bd2ca" d="M202.31 217.95q-22.63-19.02-49.26-33.72" vector-effect="non-scaling-stroke"/><path stroke="#918f90" d="M153.05 184.23q.04.02.07.05" vector-effect="non-scaling-stroke"/><path stroke="#f4a3c5" d="m305.5 170.72.13 9.79" vector-effect="non-scaling-stroke"/><path stroke="#918f90" d="m305.63 180.51-.16 61.86a.63.62.4 0 0 .63.63h13.15q.5 0 .5-.5v-42.84q0-.59.59-.61l14.05-.38q.54-.02.84.44l27.98 43.59q.22.34.63.34l15.31-.12q.6-.01.28-.51l-31.42-50.05q-.7-1.11.06-2.19l29.55-41.79q.8-1.13-.58-1.13h-14.53q-.52 0-.82.43L335 185.34q-.28.41-.78.43l-13.98.68a.46.46 0 0 1-.49-.46v-80.24q0-.5-.5-.5h-13.2q-.54 0-.54.54l-.01 64.93" vector-effect="non-scaling-stroke"/><path stroke="#863356" d="m305.63 180.51-.13-9.79" vector-effect="non-scaling-stroke"/><path stroke="#918f90" d="M453.75 151v-45a.75.75 0 0 0-.75-.75h-13.27a.52.51-90 0 0-.51.52l.1 136.47q0 .61.62.69 19.81 2.51 39.81 1.52 9.16-.45 16.23-3.25c21.91-8.7 21.53-39.21 20.2-58.48-.41-5.89-1.52-11.33-3.04-16.91-7.3-26.97-39.42-22.69-58.83-14.44q-.56.24-.56-.37M412.014 108.963a.45.45 0 0 0-.45-.45l-13.86-.025a.45.45 0 0 0-.45.45l-.028 16.1a.45.45 0 0 0 .45.45l13.86.024a.45.45 0 0 0 .45-.45l.028-16.1M595.85 237.62q7.34 6.54 15.4 6.91 4.56.21 6.69.46.34.04.36-.3l.51-10.9q.03-.49-.45-.49c-6.14.01-10.42-3.46-10.4-9.68q.1-24.16-.17-48.31c-.25-23-13.04-31.48-35.04-30.22q-16.47.95-32.73 4.19a.64.63 83.7 0 0-.51.65l.32 9.65q.02.67.69.6 12.81-1.36 30.23-2.14c20.91-.93 22.92 6.6 22.54 25.51a1.01 1-1.2 0 1-.94.98q-16.26.96-32.28 3.16c-17.61 2.43-25.6 9.96-25.99 28.06-.82 38.04 39.07 31.72 60.98 21.76q.43-.2.79.11M650.31 153.17l-.08-5.42q-.01-.54-.54-.53l-13.2.05q-.5 0-.5.49l.05 94.61q0 .58.58.58l13.24.07q.64.01.64-.63v-76.41q0-.49.43-.73c11.44-6.26 39.92-14.05 44.85 3.97q2.47 9.03 2.5 19.78.06 26.76-.07 53.12a.88.88 0 0 0 .88.88h12.9a.52.51 0 0 0 .52-.51q.05-28.33-.24-56.67c-.14-13.64-1.72-32.3-16.27-38.14-14.31-5.75-32.11-1.58-45.03 5.87a.45.44 74.4 0 1-.66-.38M778.74 157.99c13.88.33 14.2 15.95 13.69 25.82q-.03.5-.53.55-13.45 1.16-26.87 2.48c-13.07 1.29-28.27 4.41-31.19 20.44-3.52 19.29 3.05 37.22 25.41 37.59q18.03.29 34.68-7.4.45-.2.83.12 9.44 7.98 21.88 7.14.49-.03.53-.52l.89-9.95q.05-.56-.5-.68c-6.48-1.44-10.58-2.75-10.57-10.42q.03-24.15-.01-48.3c-.04-24.02-15.93-31.49-37.15-29.59-10.27.91-19.83 1.7-30.88 4.13q-.56.12-.52.69l.53 9.63q.04.69.73.61 22.09-2.74 39.05-2.34M411.91 147.49a.29.29 0 0 0-.29-.29h-14.08a.29.29 0 0 0-.29.29v95.1a.29.29 0 0 0 .29.29h14.08a.29.29 0 0 0 .29-.29v-95.1" vector-effect="non-scaling-stroke"/><path stroke="#918f90" d="M454.18 230.73c16.65 2.74 40.22 4.44 45.43-16.06 3.33-13.09 3.11-28.46 0-41.45-2.21-9.22-7.52-14.7-17.62-14.99q-14.49-.43-27.8 5.35-.44.19-.44.68v65.96q0 .44.43.51M565.81 197.99c-9.9.9-16.63 4.52-16.75 15.76-.11 10.08 2.02 19.12 14.23 19.03q15.3-.1 29.47-5.89.46-.19.47-.68l.35-29.96q.01-1-.99-.9-13.22 1.42-26.78 2.64M762.22 198.3c-6.25.57-12.57 4.33-13.73 10.94-2.04 11.65.31 23.85 14.85 23.55q14.87-.31 28.77-6 .39-.16.39-.58v-30.45q0-.52-.51-.46-14.93 1.66-29.77 3" vector-effect="non-scaling-stroke"/><path stroke="#2d625b" d="M153.05 184.23 2.49 365.66" vector-effect="non-scaling-stroke"/><path stroke="#863356" d="M2.53 352.54c.67-6.51.03-13.54.16-19.38q.15-6.11-.21-12.2" vector-effect="non-scaling-stroke"/><path stroke="#3bb2a3" d="M202.31 217.95q-.45 1.12-.81 1.55-69.16 83.47-138.26 167-2.01 2.43-2.32 3.5" vector-effect="non-scaling-stroke"/></g><path fill="#fff" d="M0 0h2.53l-.08 147.51.03 173.45q-1.25 15.76.05 31.58l-.04 13.12L2.28 390H0V0Z"/><path fill="#e9478b" d="M2.53 0h303.03l.09.33a.45.44-33.3 0 1-.09.4L153.12 184.28q-6.06-2.96-12.29-6-65.32-31.89-138.38-30.77L2.53 0Z"/><path fill="#fff" d="M305.56 0H863v390H304.79c-13.16-67.26-50.17-128.01-102.48-172.05q-22.63-19.02-49.26-33.72.04.02.07.05L305.56.73a.45.44-33.3 0 0 .09-.4l-.09-.33Zm-.06 170.72.13 9.79-.16 61.86a.63.62.4 0 0 .63.63h13.15q.5 0 .5-.5v-42.84q0-.59.59-.61l14.05-.38q.54-.02.84.44l27.98 43.59q.22.34.63.34l15.31-.12q.6-.01.28-.51l-31.42-50.05q-.7-1.11.06-2.19l29.55-41.79q.8-1.13-.58-1.13h-14.53q-.52 0-.82.43L335 185.34q-.28.41-.78.43l-13.98.68a.46.46 0 0 1-.49-.46v-80.24q0-.5-.5-.5h-13.2q-.54 0-.54.54l-.01 64.93ZM453.75 151v-45a.75.75 0 0 0-.75-.75h-13.27a.52.51-90 0 0-.51.52l.1 136.47q0 .61.62.69 19.81 2.51 39.81 1.52 9.16-.45 16.23-3.25c21.91-8.7 21.53-39.21 20.2-58.48-.41-5.89-1.52-11.33-3.04-16.91-7.3-26.97-39.42-22.69-58.83-14.44q-.56.24-.56-.37Zm-41.736-42.037a.45.45 0 0 0-.45-.45l-13.86-.025a.45.45 0 0 0-.45.45l-.028 16.1a.45.45 0 0 0 .45.45l13.86.024a.45.45 0 0 0 .45-.45l.028-16.1ZM595.85 237.62q7.34 6.54 15.4 6.91 4.56.21 6.69.46.34.04.36-.3l.51-10.9q.03-.49-.45-.49c-6.14.01-10.42-3.46-10.4-9.68q.1-24.16-.17-48.31c-.25-23-13.04-31.48-35.04-30.22q-16.47.95-32.73 4.19a.64.63 83.7 0 0-.51.65l.32 9.65q.02.67.69.6 12.81-1.36 30.23-2.14c20.91-.93 22.92 6.6 22.54 25.51a1.01 1-1.2 0 1-.94.98q-16.26.96-32.28 3.16c-17.61 2.43-25.6 9.96-25.99 28.06-.82 38.04 39.07 31.72 60.98 21.76q.43-.2.79.11Zm54.46-84.45-.08-5.42q-.01-.54-.54-.53l-13.2.05q-.5 0-.5.49l.05 94.61q0 .58.58.58l13.24.07q.64.01.64-.63v-76.41q0-.49.43-.73c11.44-6.26 39.92-14.05 44.85 3.97q2.47 9.03 2.5 19.78.06 26.76-.07 53.12a.88.88 0 0 0 .88.88h12.9a.52.51 0 0 0 .52-.51q.05-28.33-.24-56.67c-.14-13.64-1.72-32.3-16.27-38.14-14.31-5.75-32.11-1.58-45.03 5.87a.45.44 74.4 0 1-.66-.38Zm128.43 4.82c13.88.33 14.2 15.95 13.69 25.82q-.03.5-.53.55-13.45 1.16-26.87 2.48c-13.07 1.29-28.27 4.41-31.19 20.44-3.52 19.29 3.05 37.22 25.41 37.59q18.03.29 34.68-7.4.45-.2.83.12 9.44 7.98 21.88 7.14.49-.03.53-.52l.89-9.95q.05-.56-.5-.68c-6.48-1.44-10.58-2.75-10.57-10.42q.03-24.15-.01-48.3c-.04-24.02-15.93-31.49-37.15-29.59-10.27.91-19.83 1.7-30.88 4.13q-.56.12-.52.69l.53 9.63q.04.69.73.61 22.09-2.74 39.05-2.34Zm-366.83-10.5a.29.29 0 0 0-.29-.29h-14.08a.29.29 0 0 0-.29.29v95.1a.29.29 0 0 0 .29.29h14.08a.29.29 0 0 0 .29-.29v-95.1Z"/><path fill="#231f20" d="m305.63 180.51-.13-9.79.01-64.93q0-.54.54-.54h13.2q.5 0 .5.5v80.24a.46.46 0 0 0 .49.46l13.98-.68q.5-.02.78-.43l26.69-37.66q.3-.43.82-.43h14.53q1.38 0 .58 1.13l-29.55 41.79q-.76 1.08-.06 2.19l31.42 50.05q.32.5-.28.51l-15.31.12q-.41 0-.63-.34l-27.98-43.59q-.3-.46-.84-.44l-14.05.38q-.59.02-.59.61v42.84q0 .5-.5.5H306.1a.63.62.4 0 1-.63-.63l.16-61.86ZM454.31 151.37c19.41-8.25 51.53-12.53 58.83 14.44 1.52 5.58 2.63 11.02 3.04 16.91 1.33 19.27 1.71 49.78-20.2 58.48q-7.07 2.8-16.23 3.25-20 .99-39.81-1.52-.62-.08-.62-.69l-.1-136.47a.52.51 90 0 1 .51-.52H453a.75.75 0 0 1 .75.75v45q0 .61.56.37Zm-.13 79.36c16.65 2.74 40.22 4.44 45.43-16.06 3.33-13.09 3.11-28.46 0-41.45-2.21-9.22-7.52-14.7-17.62-14.99q-14.49-.43-27.8 5.35-.44.19-.44.68v65.96q0 .44.43.51Z"/><rect width="14.76" height="17" x="-7.38" y="-8.5" fill="#231f20" rx=".45" transform="rotate(.1 -66833.735 231888.624)"/><path fill="#231f20" d="M595.06 237.51c-21.91 9.96-61.8 16.28-60.98-21.76.39-18.1 8.38-25.63 25.99-28.06q16.02-2.2 32.28-3.16a1.01 1-1.2 0 0 .94-.98c.38-18.91-1.63-26.44-22.54-25.51q-17.42.78-30.23 2.14-.67.07-.69-.6l-.32-9.65a.64.63 83.7 0 1 .51-.65q16.26-3.24 32.73-4.19c22-1.26 34.79 7.22 35.04 30.22q.27 24.15.17 48.31c-.02 6.22 4.26 9.69 10.4 9.68q.48 0 .45.49l-.51 10.9q-.02.34-.36.3-2.13-.25-6.69-.46-8.06-.37-15.4-6.91-.36-.31-.79-.11Zm-29.25-39.52c-9.9.9-16.63 4.52-16.75 15.76-.11 10.08 2.02 19.12 14.23 19.03q15.3-.1 29.47-5.89.46-.19.47-.68l.35-29.96q.01-1-.99-.9-13.22 1.42-26.78 2.64ZM650.31 153.17a.45.44 74.4 0 0 .66.38c12.92-7.45 30.72-11.62 45.03-5.87 14.55 5.84 16.13 24.5 16.27 38.14q.29 28.34.24 56.67a.52.51 0 0 1-.52.51h-12.9a.88.88 0 0 1-.88-.88q.13-26.36.07-53.12-.03-10.75-2.5-19.78c-4.93-18.02-33.41-10.23-44.85-3.97q-.43.24-.43.73v76.41q0 .64-.64.63l-13.24-.07q-.58 0-.58-.58l-.05-94.61q0-.49.5-.49l13.2-.05q.53-.01.54.53l.08 5.42ZM792.43 183.81c.51-9.87.19-25.49-13.69-25.82q-16.96-.4-39.05 2.34-.69.08-.73-.61l-.53-9.63q-.04-.57.52-.69c11.05-2.43 20.61-3.22 30.88-4.13 21.22-1.9 37.11 5.57 37.15 29.59q.04 24.15.01 48.3c-.01 7.67 4.09 8.98 10.57 10.42q.55.12.5.68l-.89 9.95q-.04.49-.53.52-12.44.84-21.88-7.14-.38-.32-.83-.12-16.65 7.69-34.68 7.4c-22.36-.37-28.93-18.3-25.41-37.59 2.92-16.03 18.12-19.15 31.19-20.44q13.42-1.32 26.87-2.48.5-.05.53-.55Zm-30.21 14.49c-6.25.57-12.57 4.33-13.73 10.94-2.04 11.65.31 23.85 14.85 23.55q14.87-.31 28.77-6 .39-.16.39-.58v-30.45q0-.52-.51-.46-14.93 1.66-29.77 3Z"/><rect width="14.66" height="95.68" x="397.25" y="147.2" fill="#231f20" rx=".29"/><path fill="#231f20" d="M2.45 147.51q73.06-1.12 138.38 30.77 6.23 3.04 12.29 6-.03-.03-.07-.05L2.49 365.66l.04-13.12c.67-6.51.03-13.54.16-19.38q.15-6.11-.21-12.2l-.03-173.45Z"/><path fill="#fff" d="M499.61 214.67c-5.21 20.5-28.78 18.8-45.43 16.06q-.43-.07-.43-.51v-65.96q0-.49.44-.68 13.31-5.78 27.8-5.35c10.1.29 15.41 5.77 17.62 14.99 3.11 12.99 3.33 28.36 0 41.45Z"/><path fill="#e9478b" d="m305.5 170.72.13 9.79-.13-9.79Z"/><path fill="#37a595" d="M153.05 184.23q26.63 14.7 49.26 33.72-.45 1.12-.81 1.55-69.16 83.47-138.26 167-2.01 2.43-2.32 3.5H2.28l.21-24.34 150.56-181.43Z"/><path fill="#fff" d="M549.06 213.75c.12-11.24 6.85-14.86 16.75-15.76q13.56-1.22 26.78-2.64 1-.1.99.9l-.35 29.96q-.01.49-.47.68-14.17 5.79-29.47 5.89c-12.21.09-14.34-8.95-14.23-19.03ZM748.49 209.24c1.16-6.61 7.48-10.37 13.73-10.94q14.84-1.34 29.77-3 .51-.06.51.46v30.45q0 .42-.39.58-13.9 5.69-28.77 6c-14.54.3-16.89-11.9-14.85-23.55Z"/><path fill="#3ebeb0" d="M202.31 217.95c52.31 44.04 89.32 104.79 102.48 172.05H60.92q.31-1.07 2.32-3.5 69.1-83.53 138.26-167 .36-.43.81-1.55Z"/><path fill="#e9478b" d="M2.48 320.96q.36 6.09.21 12.2c-.13 5.84.51 12.87-.16 19.38q-1.3-15.82-.05-31.58Z"/></svg>