<svg xmlns="http://www.w3.org/2000/svg" viewBox="0 0 580 309"><g fill="none" stroke-width="2"><path stroke="#e5f5fb" d="M351.37 23.69c-19.57-3.62-22.93 24.63-2.63 24.57q15.59-.04 31.13.01 7.54.03 8.82-.24c9.26-1.92 8.29-15.14-1.25-16.41q-.49-.06-.51-.56-.55-12.2-10.8-17.5c-3.12-1.62-5.9-2.76-9.18-2.16q-10.7 1.95-14.87 11.9-.2.48-.71.39" vector-effect="non-scaling-stroke"/><path stroke="#dce99b" d="M298.86 37.08a30.88 9.36 0 0 0-30.88-9.36 30.88 9.36 0 0 0-30.88 9.36 30.88 9.36 0 0 0 30.88 9.36 30.88 9.36 0 0 0 30.88-9.36" vector-effect="non-scaling-stroke"/><path stroke="#e5f5fb" d="m229.21 67.75-5.43-1.67q-.54-.16-.54-.73c-.22-26.81-34.03-32.38-44.72-8.5a.82.8 19.6 0 1-.95.44c-13.13-3.65-24.02 9.35-18.02 21.42 4.43 8.89 11.92 9.12 22.08 9.03q20.32-.19 40.62-.33 3.42-.02 6.79-.66" vector-effect="non-scaling-stroke"/><path stroke="#9dcce3" d="M229.04 86.75q.16 9.07.03 18.19-.09 6.86.04 7.67c1.71 10 23.19 13.43 32.22 13.71" vector-effect="non-scaling-stroke"/><path stroke="#e5f5fb" d="M261.33 126.32q-4.84 3.23-6.65 8.69-.16.49-.67.39c-25.47-5.1-29.48 32.04-.5 32.24q66.12.48 132.26.36 6.64-.01 9.76-1.43c4.04-1.84 10.08-8.45 7.79-13.57q-3.2-7.21-11.06-9.06-.48-.11-.42-.59 1.94-17.28-11.02-25.12c-8.89-5.37-18.97-4.34-27.01 2.02q-.47.37-.68-.2-4.83-13.07-17.36-18.99" vector-effect="non-scaling-stroke"/><path stroke="#a1a2a2" d="M335.77 101.06q-.52-3.66-3.77-6.05-.35-.26-.74-.06l-5.92 3.03q-.49.24-1.01.1c-4.46-1.24-4.94-4.6-6.21-8.48q-.2-.61-.83-.61l-4.91.02q-.65 0-.83.63c-.94 3.13-1.27 6.93-4.82 8.01" vector-effect="non-scaling-stroke"/><path stroke="#add9ec" d="m306.73 97.65.08-56.9q0-.54-.35-.12c-8.34 9.85-27.09 11.55-39.42 11.62" vector-effect="non-scaling-stroke"/><path stroke="#9dcce3" d="M267.04 52.25c-10.68-.61-31.78-2.18-37.54-12q-.24-.41-.24.07l-.05 27.43" vector-effect="non-scaling-stroke"/><path stroke="#4ba6cf" d="M267.04 52.25q.36 35.77.21 71.54c0 1.01.35 1.8.75 2.67" vector-effect="non-scaling-stroke"/><path stroke="#83c2de" d="m268 126.46-6.67-.14M229.04 86.75l.17-19" vector-effect="non-scaling-stroke"/><path stroke="#4f7c8e" d="M306.73 97.65q-4.31.14-7.91-2.5-.53-.39-1 .06L293.89 99q-.41.39-.15.89c1.54 3.03 4.26 5.96 2.11 9.42-1.27 2.04-4.53 2.68-6.77 3.36q-1.24.37-1.15 1.66l.33 4.6q.03.56.55.76l6.27 2.49" vector-effect="non-scaling-stroke"/><path stroke="#93cfe7" d="M295.08 122.18q-13.09 4.8-27.08 4.28" vector-effect="non-scaling-stroke"/><path stroke="#87989d" d="m335.77 101.06-2.7 4.88q-.29.52-.03 1.05l1.46 2.98q.27.53.84.72l6.13 2.05q.53.18.53.73v5.02q0 .57-.52.81c-3.98 1.84-10.69 2.33-7.43 8.99q1.02 2.09 2.33 4.05.3.44-.09.8l-3.98 3.77q-.44.41-.98.16l-5.99-2.7q-.5-.22-1.02-.04l-2.99 1.06q-.61.22-.8.83l-1.95 6.14q-.18.56-.77.57l-5.21.1q-.58.01-.77-.54c-.69-1.89-1.75-6.19-3.5-7.22-3.74-2.2-6.46.58-9.85 2.08q-.48.21-.83-.16l-3.5-3.74q-.36-.38-.14-.85l2.79-6.01q.22-.47.07-.98-.65-2.16-1.79-3.43" vector-effect="non-scaling-stroke"/><path stroke="gray" d="M270.97 278.18c15.45 6.14 44.1 7.31 48.28-13.87q1.3-6.57-1.8-12.56c-4.96-9.6-17.64-14.81-26.75-19.45-5.92-3.02-11.52-7.88-10.27-14.72 2.75-15.05 26.28-11.11 35.22-6.08q.46.26.47-.27l.16-9.13a1.62 1.61-81.3 0 0-1.15-1.58c-13.73-4.08-37.64-3.68-43.62 12.46-4.27 11.54 2.58 21.47 12.74 26.77q8.35 4.35 16.61 8.84c9.71 5.28 12.97 18.78.74 23.58-9.49 3.72-22.5.14-30.75-5.15q-.44-.28-.43.23l.12 10.3q0 .46.43.63M392.87 275.75a.33.33 0 0 1-.01-.53c25.32-19.95 20.18-74.19-17.89-76.48q-31.8-1.91-41.01 25.68c-3.64 10.94-3.28 26.36 1.59 36.84 8.59 18.46 27.53 24.11 46.7 19.21q.49-.13.9.18c2.82 2.13 13.16 11.04 15.92 11.29q4.21.39 15.65-.07.87-.04.16-.54l-22.01-15.58M173.36 267.67a.24.24 0 0 1-.44.16l-43.2-67.64q-.28-.44-.8-.44h-11.49q-.56 0-.56.57l-.11 80.06q0 .62.62.62h8.09q.78 0 .78-.78v-67.83q0-.5.27-.08l43.96 68.15a1.18 1.18 0 0 0 .99.54h10.28q.5 0 .5-.5l.01-80.39q0-.39-.39-.39l-8.38.04a.75.75 0 0 0-.74.75q-.04 29.84.14 59.93.03 3.77.47 7.23M435.33 272a.33.33 0 0 1-.33-.33v-71.65a.33.33 0 0 0-.33-.33h-8.84a.33.33 0 0 0-.33.33v80.65a.33.33 0 0 0 .33.33h41.34a.33.33 0 0 0 .33-.33v-8.34a.33.33 0 0 0-.33-.33h-31.84M256.69 254.48c.84-11.98-3.3-26.86-16.26-31.17-15.35-5.1-33.7.16-38.93 16.93-7.24 23.18 7.11 47.11 33.51 41.31 13.62-2.99 20.73-13.6 21.68-27.07" vector-effect="non-scaling-stroke"/><path stroke="#9dcce3" d="M250.33 87.27c3.45-3.27 3.07-8.64 2.91-13.01a1.7 1.67 76.6 0 1 .95-1.57l2.27-1.08q.54-.25.55-.85l.06-4.4a.58.58 0 0 0-.63-.59c-10.19.82-12.17 3.76-11.71 13.75.14 3.07-.34 4.89-3.48 5.57q-.44.09-.43.55l.13 4.52q.01.52.53.59c5.2.76 2.14 10.79 4.27 14.67 2.35 4.29 6.69 3.82 10.94 4.33q.48.05.47-.43l-.08-4.59a1.02 1.01 1.9 0 0-.94-1q-3.31-.23-2.83-3.68.96-6.78-3.04-11.97-.33-.43.06-.81" vector-effect="non-scaling-stroke"/><path stroke="#add9ec" d="M289.19 83.91c-2.88-5.98 1.91-13.16-5.35-16.77q-2.36-1.18-7.29-1-.56.02-.56.58l.02 4.41q0 .56.57.61 3.73.3 3.22 4.23-.88 6.65 3.19 11.75.37.45-.1.79c-5.49 3.96-.32 14.88-6.28 15.42q-.6.06-.6.66l-.02 4.45q0 .64.64.63c19.96-.47 5.94-17.05 15.18-19.08q.45-.1.43-.56l-.18-4.39q-.03-.67-.68-.83l-1.55-.38q-.44-.11-.64-.52" vector-effect="non-scaling-stroke"/><path stroke="#87989d" d="M323.33 116.16a8.31 8.31 0 0 0-8.31-8.31 8.31 8.31 0 0 0-8.31 8.31 8.31 8.31 0 0 0 8.31 8.31 8.31 8.31 0 0 0 8.31-8.31" vector-effect="non-scaling-stroke"/><path stroke="gray" d="M353.19 268.06c9.76 7.36 23.62 7.35 33.48.38 13.74-9.72 14.43-35.23 7.15-48.41-4.67-8.46-13.03-12.81-22.73-13.06-15.57-.39-25.95 10.14-28.71 24.86-2.34 12.48.12 28.17 10.81 36.23M239.81 232.94c-7.77-6.09-20.23-4.21-25.92 3.31-9.12 12.06-5.48 36.25 12.59 37.95 9.13.85 16.71-3.37 19.36-12.38 2.65-9.02 2.22-22.42-6.03-28.88" vector-effect="non-scaling-stroke"/></g><path fill="#fff" d="M0 0h580v309H0V0Zm351.37 23.69c-19.57-3.62-22.93 24.63-2.63 24.57q15.59-.04 31.13.01 7.54.03 8.82-.24c9.26-1.92 8.29-15.14-1.25-16.41q-.49-.06-.51-.56-.55-12.2-10.8-17.5c-3.12-1.62-5.9-2.76-9.18-2.16q-10.7 1.95-14.87 11.9-.2.48-.71.39Zm-52.51 13.39a30.88 9.36 0 0 0-30.88-9.36 30.88 9.36 0 0 0-30.88 9.36 30.88 9.36 0 0 0 30.88 9.36 30.88 9.36 0 0 0 30.88-9.36Zm-69.65 30.67-5.43-1.67q-.54-.16-.54-.73c-.22-26.81-34.03-32.38-44.72-8.5a.82.8 19.6 0 1-.95.44c-13.13-3.65-24.02 9.35-18.02 21.42 4.43 8.89 11.92 9.12 22.08 9.03q20.32-.19 40.62-.33 3.42-.02 6.79-.66.16 9.07.03 18.19-.09 6.86.04 7.67c1.71 10 23.19 13.43 32.22 13.71q-4.84 3.23-6.65 8.69-.16.49-.67.39c-25.47-5.1-29.48 32.04-.5 32.24q66.12.48 132.26.36 6.64-.01 9.76-1.43c4.04-1.84 10.08-8.45 7.79-13.57q-3.2-7.21-11.06-9.06-.48-.11-.42-.59 1.94-17.28-11.02-25.12c-8.89-5.37-18.97-4.34-27.01 2.02q-.47.37-.68-.2-4.83-13.07-17.36-18.99-.52-3.66-3.77-6.05-.35-.26-.74-.06l-5.92 3.03q-.49.24-1.01.1c-4.46-1.24-4.94-4.6-6.21-8.48q-.2-.61-.83-.61l-4.91.02q-.65 0-.83.63c-.94 3.13-1.27 6.93-4.82 8.01l.08-56.9q0-.54-.35-.12c-8.34 9.85-27.09 11.55-39.42 11.62-10.68-.61-31.78-2.18-37.54-12q-.24-.41-.24.07l-.05 27.43Zm41.76 210.43c15.45 6.14 44.1 7.31 48.28-13.87q1.3-6.57-1.8-12.56c-4.96-9.6-17.64-14.81-26.75-19.45-5.92-3.02-11.52-7.88-10.27-14.72 2.75-15.05 26.28-11.11 35.22-6.08q.46.26.47-.27l.16-9.13a1.62 1.61-81.3 0 0-1.15-1.58c-13.73-4.08-37.64-3.68-43.62 12.46-4.27 11.54 2.58 21.47 12.74 26.77q8.35 4.35 16.61 8.84c9.71 5.28 12.97 18.78.74 23.58-9.49 3.72-22.5.14-30.75-5.15q-.44-.28-.43.23l.12 10.3q0 .46.43.63Zm121.9-2.43a.33.33 0 0 1-.01-.53c25.32-19.95 20.18-74.19-17.89-76.48q-31.8-1.91-41.01 25.68c-3.64 10.94-3.28 26.36 1.59 36.84 8.59 18.46 27.53 24.11 46.7 19.21q.49-.13.9.18c2.82 2.13 13.16 11.04 15.92 11.29q4.21.39 15.65-.07.87-.04.16-.54l-22.01-15.58Zm-219.51-8.08a.24.24 0 0 1-.44.16l-43.2-67.64q-.28-.44-.8-.44h-11.49q-.56 0-.56.57l-.11 80.06q0 .62.62.62h8.09q.78 0 .78-.78v-67.83q0-.5.27-.08l43.96 68.15a1.18 1.18 0 0 0 .99.54h10.28q.5 0 .5-.5l.01-80.39q0-.39-.39-.39l-8.38.04a.75.75 0 0 0-.74.75q-.04 29.84.14 59.93.03 3.77.47 7.23ZM435.33 272a.33.33 0 0 1-.33-.33v-71.65a.33.33 0 0 0-.33-.33h-8.84a.33.33 0 0 0-.33.33v80.65a.33.33 0 0 0 .33.33h41.34a.33.33 0 0 0 .33-.33v-8.34a.33.33 0 0 0-.33-.33h-31.84Zm-178.64-17.52c.84-11.98-3.3-26.86-16.26-31.17-15.35-5.1-33.7.16-38.93 16.93-7.24 23.18 7.11 47.11 33.51 41.31 13.62-2.99 20.73-13.6 21.68-27.07Z"/><path fill="#cbebf6" d="M352.08 23.3q4.17-9.95 14.87-11.9c3.28-.6 6.06.54 9.18 2.16q10.25 5.3 10.8 17.5.02.5.51.56c9.54 1.27 10.51 14.49 1.25 16.41q-1.28.27-8.82.24-15.54-.05-31.13-.01c-20.3.06-16.94-28.19 2.63-24.57q.51.09.71-.39Z"/><ellipse cx="267.98" cy="37.08" fill="#b8d336" rx="30.88" ry="9.36"/><path fill="#3a99c6" d="M267.04 52.25q.36 35.77.21 71.54c0 1.01.35 1.8.75 2.67l-6.67-.14c-9.03-.28-30.51-3.71-32.22-13.71q-.13-.81-.04-7.67.13-9.12-.03-18.19l.17-19 .05-27.43q0-.48.24-.07c5.76 9.82 26.86 11.39 37.54 12Zm-16.71 35.02c3.45-3.27 3.07-8.64 2.91-13.01a1.7 1.67 76.6 0 1 .95-1.57l2.27-1.08q.54-.25.55-.85l.06-4.4a.58.58 0 0 0-.63-.59c-10.19.82-12.17 3.76-11.71 13.75.14 3.07-.34 4.89-3.48 5.57q-.44.09-.43.55l.13 4.52q.01.52.53.59c5.2.76 2.14 10.79 4.27 14.67 2.35 4.29 6.69 3.82 10.94 4.33q.48.05.47-.43l-.08-4.59a1.02 1.01 1.9 0 0-.94-1q-3.31-.23-2.83-3.68.96-6.78-3.04-11.97-.33-.43.06-.81Z"/><path fill="#5bb3d8" d="M306.73 97.65q-4.31.14-7.91-2.5-.53-.39-1 .06L293.89 99q-.41.39-.15.89c1.54 3.03 4.26 5.96 2.11 9.42-1.27 2.04-4.53 2.68-6.77 3.36q-1.24.37-1.15 1.66l.33 4.6q.03.56.55.76l6.27 2.49q-13.09 4.8-27.08 4.28c-.4-.87-.75-1.66-.75-2.67q.15-35.77-.21-71.54c12.33-.07 31.08-1.77 39.42-11.62q.35-.42.35.12l-.08 56.9Zm-17.54-13.74c-2.88-5.98 1.91-13.16-5.35-16.77q-2.36-1.18-7.29-1-.56.02-.56.58l.02 4.41q0 .56.57.61 3.73.3 3.22 4.23-.88 6.65 3.19 11.75.37.45-.1.79c-5.49 3.96-.32 14.88-6.28 15.42q-.6.06-.6.66l-.02 4.45q0 .64.64.63c19.96-.47 5.94-17.05 15.18-19.08q.45-.1.43-.56l-.18-4.39q-.03-.67-.68-.83l-1.55-.38q-.44-.11-.64-.52Z"/><path fill="#cbebf6" d="m229.21 67.75-.17 19q-3.37.64-6.79.66-20.3.14-40.62.33c-10.16.09-17.65-.14-22.08-9.03-6-12.07 4.89-25.07 18.02-21.42a.82.8 19.6 0 0 .95-.44c10.69-23.88 44.5-18.31 44.72 8.5q0 .57.54.73l5.43 1.67Z"/><path fill="#fff" d="M250.27 88.08q4 5.19 3.04 11.97-.48 3.45 2.83 3.68a1.02 1.01 1.9 0 1 .94 1l.08 4.59q.01.48-.47.43c-4.25-.51-8.59-.04-10.94-4.33-2.13-3.88.93-13.91-4.27-14.67q-.52-.07-.53-.59l-.13-4.52q-.01-.46.43-.55c3.14-.68 3.62-2.5 3.48-5.57-.46-9.99 1.52-12.93 11.71-13.75a.58.58 0 0 1 .63.59l-.06 4.4q-.01.6-.55.85l-2.27 1.08a1.7 1.67 76.6 0 0-.95 1.57c.16 4.37.54 9.74-2.91 13.01q-.39.38-.06.81ZM289.83 84.43l1.55.38q.65.16.68.83l.18 4.39q.02.46-.43.56c-9.24 2.03 4.78 18.61-15.18 19.08q-.64.01-.64-.63l.02-4.45q0-.6.6-.66c5.96-.54.79-11.46 6.28-15.42q.47-.34.1-.79-4.07-5.1-3.19-11.75.51-3.93-3.22-4.23-.57-.05-.57-.61l-.02-4.41q0-.56.56-.58 4.93-.18 7.29 1c7.26 3.61 2.47 10.79 5.35 16.77q.2.41.64.52Z"/><path fill="#434444" d="m335.77 101.06-2.7 4.88q-.29.52-.03 1.05l1.46 2.98q.27.53.84.72l6.13 2.05q.53.18.53.73v5.02q0 .57-.52.81c-3.98 1.84-10.69 2.33-7.43 8.99q1.02 2.09 2.33 4.05.3.44-.09.8l-3.98 3.77q-.44.41-.98.16l-5.99-2.7q-.5-.22-1.02-.04l-2.99 1.06q-.61.22-.8.83l-1.95 6.14q-.18.56-.77.57l-5.21.1q-.58.01-.77-.54c-.69-1.89-1.75-6.19-3.5-7.22-3.74-2.2-6.46.58-9.85 2.08q-.48.21-.83-.16l-3.5-3.74q-.36-.38-.14-.85l2.79-6.01q.22-.47.07-.98-.65-2.16-1.79-3.43l-6.27-2.49q-.52-.2-.55-.76l-.33-4.6q-.09-1.29 1.15-1.66c2.24-.68 5.5-1.32 6.77-3.36 2.15-3.46-.57-6.39-2.11-9.42q-.26-.5.15-.89l3.93-3.79q.47-.45 1-.06 3.6 2.64 7.91 2.5c3.55-1.08 3.88-4.88 4.82-8.01q.18-.63.83-.63l4.91-.02q.63 0 .83.61c1.27 3.88 1.75 7.24 6.21 8.48q.52.14 1.01-.1l5.92-3.03q.39-.2.74.06 3.25 2.39 3.77 6.05Zm-12.44 15.1a8.31 8.31 0 0 0-8.31-8.31 8.31 8.31 0 0 0-8.31 8.31 8.31 8.31 0 0 0 8.31 8.31 8.31 8.31 0 0 0 8.31-8.31Z"/><path fill="#cbebf6" d="M335.77 101.06q12.53 5.92 17.36 18.99.21.57.68.2c8.04-6.36 18.12-7.39 27.01-2.02q12.96 7.84 11.02 25.12-.06.48.42.59 7.86 1.85 11.06 9.06c2.29 5.12-3.75 11.73-7.79 13.57q-3.12 1.42-9.76 1.43-66.14.12-132.26-.36c-28.98-.2-24.97-37.34.5-32.24q.51.1.67-.39 1.81-5.46 6.65-8.69l6.67.14q13.99.52 27.08-4.28 1.14 1.27 1.79 3.43.15.51-.07.98l-2.79 6.01q-.22.47.14.85l3.5 3.74q.35.37.83.16c3.39-1.5 6.11-4.28 9.85-2.08 1.75 1.03 2.81 5.33 3.5 7.22q.19.55.77.54l5.21-.1q.59-.01.77-.57l1.95-6.14q.19-.61.8-.83l2.99-1.06q.52-.18 1.02.04l5.99 2.7q.54.25.98-.16l3.98-3.77q.39-.36.09-.8-1.31-1.96-2.33-4.05c-3.26-6.66 3.45-7.15 7.43-8.99q.52-.24.52-.81v-5.02q0-.55-.53-.73l-6.13-2.05q-.57-.19-.84-.72l-1.46-2.98q-.26-.53.03-1.05l2.7-4.88Z"/><circle cx="315.02" cy="116.16" r="8.31" fill="#cbebf6"/><path d="M270.97 278.18q-.43-.17-.43-.63l-.12-10.3q-.01-.51.43-.23c8.25 5.29 21.26 8.87 30.75 5.15 12.23-4.8 8.97-18.3-.74-23.58q-8.26-4.49-16.61-8.84c-10.16-5.3-17.01-15.23-12.74-26.77 5.98-16.14 29.89-16.54 43.62-12.46a1.62 1.61-81.3 0 1 1.15 1.58l-.16 9.13q-.01.53-.47.27c-8.94-5.03-32.47-8.97-35.22 6.08-1.25 6.84 4.35 11.7 10.27 14.72 9.11 4.64 21.79 9.85 26.75 19.45q3.1 5.99 1.8 12.56c-4.18 21.18-32.83 20.01-48.28 13.87ZM392.87 275.75l22.01 15.58q.71.5-.16.54-11.44.46-15.65.07c-2.76-.25-13.1-9.16-15.92-11.29q-.41-.31-.9-.18c-19.17 4.9-38.11-.75-46.7-19.21-4.87-10.48-5.23-25.9-1.59-36.84q9.21-27.59 41.01-25.68c38.07 2.29 43.21 56.53 17.89 76.48a.33.33 0 0 0 .01.53Zm-39.68-7.69c9.76 7.36 23.62 7.35 33.48.38 13.74-9.72 14.43-35.23 7.15-48.41-4.67-8.46-13.03-12.81-22.73-13.06-15.57-.39-25.95 10.14-28.71 24.86-2.34 12.48.12 28.17 10.81 36.23ZM173.36 267.67q-.44-3.46-.47-7.23-.18-30.09-.14-59.93a.75.75 0 0 1 .74-.75l8.38-.04q.39 0 .39.39l-.01 80.39q0 .5-.5.5h-10.28a1.18 1.18 0 0 1-.99-.54l-43.96-68.15q-.27-.42-.27.08v67.83q0 .78-.78.78h-8.09q-.62 0-.62-.62l.11-80.06q0-.57.56-.57h11.49q.52 0 .8.44l43.2 67.64a.24.24 0 0 0 .44-.16ZM435.33 272h31.84a.33.33 0 0 1 .33.33v8.34a.33.33 0 0 1-.33.33h-41.34a.33.33 0 0 1-.33-.33v-80.65a.33.33 0 0 1 .33-.33h8.84a.33.33 0 0 1 .33.33v71.65a.33.33 0 0 0 .33.33Z"/><path fill="#fff" d="M353.19 268.06c-10.69-8.06-13.15-23.75-10.81-36.23 2.76-14.72 13.14-25.25 28.71-24.86 9.7.25 18.06 4.6 22.73 13.06 7.28 13.18 6.59 38.69-7.15 48.41-9.86 6.97-23.72 6.98-33.48-.38Z"/><path d="M240.43 223.31c12.96 4.31 17.1 19.19 16.26 31.17-.95 13.47-8.06 24.08-21.68 27.07-26.4 5.8-40.75-18.13-33.51-41.31 5.23-16.77 23.58-22.03 38.93-16.93Zm-.62 9.63c-7.77-6.09-20.23-4.21-25.92 3.31-9.12 12.06-5.48 36.25 12.59 37.95 9.13.85 16.71-3.37 19.36-12.38 2.65-9.02 2.22-22.42-6.03-28.88Z"/><path fill="#fff" d="M239.81 232.94c8.25 6.46 8.68 19.86 6.03 28.88-2.65 9.01-10.23 13.23-19.36 12.38-18.07-1.7-21.71-25.89-12.59-37.95 5.69-7.52 18.15-9.4 25.92-3.31Z"/></svg>