<svg xmlns="http://www.w3.org/2000/svg" viewBox="0 0 300 300"><g fill="none" stroke-width="2"><path stroke="#96999d" d="M57.71 111.48c-1.19.4-2.62-.3-3.86-.16-4.42.52-12.73-.61-12.8 6q-.16 13.42.15 49.12.02 3.19 1.9 5.72c2.23 3.01 11.6 16.58 14.9 16.58q19.99 0 52.37-3.54c5.27-.58 7.64.69 7.63-6.29v-54.42a2.41 2.4 17.6 0 0-1.03-1.97q-7.65-5.32-15.08-10.65c-5-3.59-9.03-3.03-15.81-2.6q-13.32.86-26.63 1.71c-.6.04-1.18.31-1.74.5" vector-effect="non-scaling-stroke"/><path stroke="#828282" d="m166.71 142.75.02-8.86a.64.64 0 0 0-.64-.64h-1.69a.64.63 90 0 0-.63.64l.02 7.86" vector-effect="non-scaling-stroke"/><path stroke="#96999d" d="m163.79 141.75.1 11.88a.62.62 0 0 1-1.13.35l-13.49-20.26a1.11 1.1 71.5 0 0-.97-.49l-2.26.09a.57.56 89 0 0-.54.57l.11 26.54a.57.57 0 0 0 .57.57h1.72a.65.64 90 0 0 .64-.65l-.12-20.33a.62.61 28 0 1 1.13-.34l13.87 20.85a1.06 1.04-16.5 0 0 .88.47h1.84a.61.61 0 0 0 .61-.61l-.04-17.64" vector-effect="non-scaling-stroke"/><path stroke="#191c1f" d="M163.79 141.75q.47.49.6 1.17a.94.94 0 0 0 .56.68q1.09.43 1.76-.85" vector-effect="non-scaling-stroke"/><path stroke="#96999d" d="M212.74 134.24a.53.53 0 0 0-.539-.521l-2.44.043a.53.53 0 0 0-.52.539l.038 2.2a.53.53 0 0 0 .54.52l2.44-.042a.53.53 0 0 0 .52-.54l-.038-2.2m-12.991 6.511v-6.09a.58.58 0 0 0-.59-.58l-2.14.07a.58.58 0 0 0-.56.58l.01 5.95a.58.57 0 0 1-.58.57h-2.28a.62.62 0 0 0-.62.64l.04 1.23a.65.65 0 0 0 .65.63h2.17a.61.61 0 0 1 .61.6l.14 14.06a1.44 1.4-70.2 0 0 .47 1.04q2.99 2.71 7.14 1.61a.71.7 83.6 0 0 .53-.67l.01-1.29a.49.49 0 0 0-.64-.47c-3 .95-4.39-.86-4.38-3.73q0-5.18.08-10.52a.64.64 0 0 1 .64-.63h3.76a.7.69-87.3 0 0 .69-.63l.12-1.21a.61.61 0 0 0-.61-.66h-4.16a.5.5 0 0 1-.5-.5m-18.74 20.878a10.51 9.33 91.2 0 0 9.548-10.313 10.51 9.33 91.2 0 0-9.108-10.703 10.51 9.33 91.2 0 0-9.548 10.313 10.51 9.33 91.2 0 0 9.108 10.703m45.994-.01a10.52 9.35 89 0 0 9.165-10.681 10.52 9.35 89 0 0-9.533-10.355 10.52 9.35 89 0 0-9.165 10.681 10.52 9.35 89 0 0 9.533 10.355m17.016-18.658-.12-1.35a.63.62-6.6 0 0-.71-.56l-1.98.25a.51.5 86.1 0 0-.43.5l-.09 18.67a.53.53 0 0 0 .53.53h2.15a.63.63 0 0 0 .63-.63v-13.05a1.17 1.16-23.2 0 1 .33-.81c2.41-2.42 9.06-5.55 9.64.43q.65 6.63-.07 13.36a.56.56 0 0 0 .53.62l2.17.11a.62.61 1.3 0 0 .65-.61q.04-7.18-.18-14.36c-.22-7.19-8.48-5.63-12.61-2.89a.29.28 70.2 0 1-.44-.21m-31.28-1.28a.43.43 0 0 0-.43-.43h-2.38a.43.43 0 0 0-.43.43v18.88a.43.43 0 0 0 .43.43h2.38a.43.43 0 0 0 .43-.43v-18.88" vector-effect="non-scaling-stroke"/><path stroke="#191c1f" d="m49.25 118.71-.48.15a.39.39 0 0 0-.18.62q6.09 7.5 15.46 6.71c5.01-.42 8.27-.51 12.33-1.18a.44.44 0 0 0 .37-.42v-.35a.7.7 0 0 0-.65-.72l-.85-.06" vector-effect="non-scaling-stroke"/><path stroke="#96999d" d="M75.25 123.46c2.12-.17 23.69-2.15 23.8-1.7a.22.22 0 0 0 .24.18l7.17-.51a.54.54 0 0 0 .27-.99c-4.62-3.15-9.22-7.81-14.98-7.4q-21.09 1.52-42.96 3.11a1.01 1 75.9 0 0-.84 1.42q.26.58 1.3 1.14" vector-effect="non-scaling-stroke"/><path stroke="#828282" d="M75.25 123.46c-6 .16-12.08 1.05-18.03.79a1.61 1.61 0 0 1-.9-.32l-7.07-5.22" vector-effect="non-scaling-stroke"/><path stroke="#96999d" d="m64 129.29-4.85.42a2.6 2.6 0 0 0-2.37 2.58q-.07 23.62 0 47.15 0 1.59 1.34 2.71a1.42 1.4-24.1 0 0 .88.33q3.47.09 6.93-.11 21.6-1.25 43.19-2.55c1.54-.09 3.61-.74 3.61-2.38q.05-24.56 0-49.2a1.48 1.47-1.3 0 0-1.55-1.47l-33.93 1.69" vector-effect="non-scaling-stroke"/><path stroke="#191c1f" d="M77.25 128.46q.73-.52.7-1.11a.63.63 0 0 0-.57-.59c-1.26-.11-15.86-.49-14.84 1.96a.84.84 0 0 0 .73.52l.73.05" vector-effect="non-scaling-stroke"/><path stroke="#828282" d="m77.25 128.46-13.25.83m27.25 25.17-11.27-17.27a.86.83 70.4 0 0-.77-.38c-2.92.27-13.26-.27-13.66 3.4a.69.68-75.2 0 0 .41.71q1.35.57 2.79.29" vector-effect="non-scaling-stroke"/><path stroke="#96999d" d="m68.75 141.21.75.33" vector-effect="non-scaling-stroke"/><path stroke="#828282" d="m69.5 141.54.04 22.96" vector-effect="non-scaling-stroke"/><path stroke="#96999d" d="m69.54 164.5-.12 7.37a.58.58 0 0 1-.6.57q-2.82-.09-3.42 2.37a.48.47-83.9 0 0 .47.59c4.65-.2 13.91.09 14.08-2.95a.58.57 6.7 0 0-.48-.6l-3.36-.62a.68.68 0 0 1-.55-.63l-.35-6.6" vector-effect="non-scaling-stroke"/><path stroke="#828282" d="m75.21 164-.17-15.5" vector-effect="non-scaling-stroke"/><path stroke="#96999d" d="M75.04 148.5q.69-.5 1.18.29 6.76 10.66 13.63 21.36c2.89 4.52 6.23 6.27 11 3.09a.91.9-17.1 0 0 .4-.75v-33.21a.6.6 0 0 1 .46-.58c1.56-.35 3.84-.85 3.42-2.7a.62.62 0 0 0-.62-.49c-2.87.04-11.3-.57-12.71 2.34a.91.91 0 0 0 .71 1.3l2.76.34a.54.53 3 0 1 .48.53V160q0 .83-.47.15l-4.03-5.69" vector-effect="non-scaling-stroke"/><path stroke="#191c1f" d="m75.04 148.5-.45-.78a.55.55 0 0 0-.56-.29l-.39.05a.63.62-4.7 0 0-.54.63l.28 16.7a.35.34 84.5 0 0 .41.34q1.02-.19 1.42-1.15m-5.67.5q.21.16.26.43a.38.37-2.7 0 0 .36.32h.35a.16.15 0 0 0 .16-.15q.28-11.32.11-22.65c-.01-.83-.5-1.2-1.28-.91" vector-effect="non-scaling-stroke"/><path stroke="#191c1f" d="M68.75 141.21q-.7-1.15-.23-1.95a.88.87 13.8 0 1 .72-.43l9.31-.27a.95.94-18.7 0 1 .78.38q5.5 7.42 10.21 15.35c.47.79 1.13 1.01 1.71.17" vector-effect="non-scaling-stroke"/><path stroke="#96999d" d="M181.361 158.55a7.45 5.77 89.3 0 0 5.679-7.52 7.45 5.77 89.3 0 0-5.861-7.38 7.45 5.77 89.3 0 0-5.679 7.52 7.45 5.77 89.3 0 0 5.861 7.38m45.415.04a7.46 5.87 89.8 0 0 5.844-7.48 7.46 5.87 89.8 0 0-5.896-7.44 7.46 5.87 89.8 0 0-5.844 7.48 7.46 5.87 89.8 0 0 5.896 7.44" vector-effect="non-scaling-stroke"/></g><path fill="#fff" d="M0 0h300v300H0V0Zm57.71 111.48c-1.19.4-2.62-.3-3.86-.16-4.42.52-12.73-.61-12.8 6q-.16 13.42.15 49.12.02 3.19 1.9 5.72c2.23 3.01 11.6 16.58 14.9 16.58q19.99 0 52.37-3.54c5.27-.58 7.64.69 7.63-6.29v-54.42a2.41 2.4 17.6 0 0-1.03-1.97q-7.65-5.32-15.08-10.65c-5-3.59-9.03-3.03-15.81-2.6q-13.32.86-26.63 1.71c-.6.04-1.18.31-1.74.5Zm109 31.27.02-8.86a.64.64 0 0 0-.64-.64h-1.69a.64.63 90 0 0-.63.64l.02 7.86.1 11.88a.62.62 0 0 1-1.13.35l-13.49-20.26a1.11 1.1 71.5 0 0-.97-.49l-2.26.09a.57.56 89 0 0-.54.57l.11 26.54a.57.57 0 0 0 .57.57h1.72a.65.64 90 0 0 .64-.65l-.12-20.33a.62.61 28 0 1 1.13-.34l13.87 20.85a1.06 1.04-16.5 0 0 .88.47h1.84a.61.61 0 0 0 .61-.61l-.04-17.64Zm46.03-8.51a.53.53 0 0 0-.539-.521l-2.44.043a.53.53 0 0 0-.52.539l.038 2.2a.53.53 0 0 0 .54.52l2.44-.042a.53.53 0 0 0 .52-.54l-.038-2.2Zm-12.99 6.51v-6.09a.58.58 0 0 0-.59-.58l-2.14.07a.58.58 0 0 0-.56.58l.01 5.95a.58.57 0 0 1-.58.57h-2.28a.62.62 0 0 0-.62.64l.04 1.23a.65.65 0 0 0 .65.63h2.17a.61.61 0 0 1 .61.6l.14 14.06a1.44 1.4-70.2 0 0 .47 1.04q2.99 2.71 7.14 1.61a.71.7 83.6 0 0 .53-.67l.01-1.29a.49.49 0 0 0-.64-.47c-3 .95-4.39-.86-4.38-3.73q0-5.18.08-10.52a.64.64 0 0 1 .64-.63h3.76a.7.69-87.3 0 0 .69-.63l.12-1.21a.61.61 0 0 0-.61-.66h-4.16a.5.5 0 0 1-.5-.5Zm-18.74 20.878a10.51 9.33 91.2 0 0 9.548-10.313 10.51 9.33 91.2 0 0-9.108-10.703 10.51 9.33 91.2 0 0-9.548 10.313 10.51 9.33 91.2 0 0 9.108 10.703Zm45.994-.01a10.52 9.35 89 0 0 9.165-10.681 10.52 9.35 89 0 0-9.533-10.355 10.52 9.35 89 0 0-9.165 10.681 10.52 9.35 89 0 0 9.533 10.355Zm17.016-18.658-.12-1.35a.63.62-6.6 0 0-.71-.56l-1.98.25a.51.5 86.1 0 0-.43.5l-.09 18.67a.53.53 0 0 0 .53.53h2.15a.63.63 0 0 0 .63-.63v-13.05a1.17 1.16-23.2 0 1 .33-.81c2.41-2.42 9.06-5.55 9.64.43q.65 6.63-.07 13.36a.56.56 0 0 0 .53.62l2.17.11a.62.61 1.3 0 0 .65-.61q.04-7.18-.18-14.36c-.22-7.19-8.48-5.63-12.61-2.89a.29.28 70.2 0 1-.44-.21Zm-31.28-1.28a.43.43 0 0 0-.43-.43h-2.38a.43.43 0 0 0-.43.43v18.88a.43.43 0 0 0 .43.43h2.38a.43.43 0 0 0 .43-.43v-18.88Z"/><path fill="#2d333a" d="M57.71 111.48c.56-.19 1.14-.46 1.74-.5q13.31-.85 26.63-1.71c6.78-.43 10.81-.99 15.81 2.6q7.43 5.33 15.08 10.65a2.41 2.4 17.6 0 1 1.03 1.97v54.42c.01 6.98-2.36 5.71-7.63 6.29q-32.38 3.54-52.37 3.54c-3.3 0-12.67-13.57-14.9-16.58q-1.88-2.53-1.9-5.72-.31-35.7-.15-49.12c.07-6.61 8.38-5.48 12.8-6 1.24-.14 2.67.56 3.86.16Zm-8.46 7.23-.48.15a.39.39 0 0 0-.18.62q6.09 7.5 15.46 6.71c5.01-.42 8.27-.51 12.33-1.18a.44.44 0 0 0 .37-.42v-.35a.7.7 0 0 0-.65-.72l-.85-.06c2.12-.17 23.69-2.15 23.8-1.7a.22.22 0 0 0 .24.18l7.17-.51a.54.54 0 0 0 .27-.99c-4.62-3.15-9.22-7.81-14.98-7.4q-21.09 1.52-42.96 3.11a1.01 1 75.9 0 0-.84 1.42q.26.58 1.3 1.14ZM64 129.29l-4.85.42a2.6 2.6 0 0 0-2.37 2.58q-.07 23.62 0 47.15 0 1.59 1.34 2.71a1.42 1.4-24.1 0 0 .88.33q3.47.09 6.93-.11 21.6-1.25 43.19-2.55c1.54-.09 3.61-.74 3.61-2.38q.05-24.56 0-49.2a1.48 1.47-1.3 0 0-1.55-1.47l-33.93 1.69q.73-.52.7-1.11a.63.63 0 0 0-.57-.59c-1.26-.11-15.86-.49-14.84 1.96a.84.84 0 0 0 .73.52l.73.05Z"/><path fill="#fff" d="M75.25 123.46c-6 .16-12.08 1.05-18.03.79a1.61 1.61 0 0 1-.9-.32l-7.07-5.22q-1.04-.56-1.3-1.14a1.01 1 75.9 0 1 .84-1.42q21.87-1.59 42.96-3.11c5.76-.41 10.36 4.25 14.98 7.4a.54.54 0 0 1-.27.99l-7.17.51a.22.22 0 0 1-.24-.18c-.11-.45-21.68 1.53-23.8 1.7Z"/><path fill="#040504" d="m49.25 118.71 7.07 5.22a1.61 1.61 0 0 0 .9.32c5.95.26 12.03-.63 18.03-.79l.85.06a.7.7 0 0 1 .65.72v.35a.44.44 0 0 1-.37.42c-4.06.67-7.32.76-12.33 1.18q-9.37.79-15.46-6.71a.39.39 0 0 1 .18-.62l.48-.15Zm28 9.75-13.25.83-.73-.05a.84.84 0 0 1-.73-.52c-1.02-2.45 13.58-2.07 14.84-1.96a.63.63 0 0 1 .57.59q.03.59-.7 1.11Z"/><path fill="#fff" d="m64 129.29 13.25-.83 33.93-1.69a1.48 1.47-1.3 0 1 1.55 1.47q.05 24.64 0 49.2c0 1.64-2.07 2.29-3.61 2.38q-21.59 1.3-43.19 2.55-3.46.2-6.93.11a1.42 1.4-24.1 0 1-.88-.33q-1.34-1.12-1.34-2.71-.07-23.53 0-47.15a2.6 2.6 0 0 1 2.37-2.58l4.85-.42Zm27.25 25.17-11.27-17.27a.86.83 70.4 0 0-.77-.38c-2.92.27-13.26-.27-13.66 3.4a.69.68-75.2 0 0 .41.71q1.35.57 2.79.29l.75.33.04 22.96-.12 7.37a.58.58 0 0 1-.6.57q-2.82-.09-3.42 2.37a.48.47-83.9 0 0 .47.59c4.65-.2 13.91.09 14.08-2.95a.58.57 6.7 0 0-.48-.6l-3.36-.62a.68.68 0 0 1-.55-.63l-.35-6.6-.17-15.5q.69-.5 1.18.29 6.76 10.66 13.63 21.36c2.89 4.52 6.23 6.27 11 3.09a.91.9-17.1 0 0 .4-.75v-33.21a.6.6 0 0 1 .46-.58c1.56-.35 3.84-.85 3.42-2.7a.62.62 0 0 0-.62-.49c-2.87.04-11.3-.57-12.71 2.34a.91.91 0 0 0 .71 1.3l2.76.34a.54.53 3 0 1 .48.53V160q0 .83-.47.15l-4.03-5.69Z"/><path fill="#2d333a" d="M163.79 141.75q.47.49.6 1.17a.94.94 0 0 0 .56.68q1.09.43 1.76-.85l.04 17.64a.61.61 0 0 1-.61.61h-1.84a1.06 1.04-16.5 0 1-.88-.47l-13.87-20.85a.62.61 28 0 0-1.13.34l.12 20.33a.65.64 90 0 1-.64.65h-1.72a.57.57 0 0 1-.57-.57l-.11-26.54a.57.56 89 0 1 .54-.57l2.26-.09a1.11 1.1 71.5 0 1 .97.49l13.49 20.26a.62.62 0 0 0 1.13-.35l-.1-11.88Z"/><path fill="#040504" d="M166.71 142.75q-.67 1.28-1.76.85a.94.94 0 0 1-.56-.68q-.13-.68-.6-1.17l-.02-7.86a.64.63 90 0 1 .63-.64h1.69a.64.64 0 0 1 .64.64l-.02 8.86Z"/><rect width="3.5" height="3.26" x="-1.75" y="-1.63" fill="#2d333a" rx=".53" transform="rotate(-1 7861.438 -12021.99)"/><path fill="#2d333a" d="M200.25 141.25h4.16a.61.61 0 0 1 .61.66l-.12 1.21a.7.69-87.3 0 1-.69.63h-3.76a.64.64 0 0 0-.64.63q-.08 5.34-.08 10.52c-.01 2.87 1.38 4.68 4.38 3.73a.49.49 0 0 1 .64.47l-.01 1.29a.71.7 83.6 0 1-.53.67q-4.15 1.1-7.14-1.61a1.44 1.4-70.2 0 1-.47-1.04l-.14-14.06a.61.61 0 0 0-.61-.6h-2.17a.65.65 0 0 1-.65-.63l-.04-1.23a.62.62 0 0 1 .62-.64h2.28a.58.57 0 0 0 .58-.57l-.01-5.95a.58.58 0 0 1 .56-.58l2.14-.07a.58.58 0 0 1 .59.58v6.09a.5.5 0 0 0 .5.5ZM75.04 148.5l-.45-.78a.55.55 0 0 0-.56-.29l-.39.05a.63.62-4.7 0 0-.54.63l.28 16.7a.35.34 84.5 0 0 .41.34q1.02-.19 1.42-1.15l.35 6.6a.68.68 0 0 0 .55.63l3.36.62a.58.57 6.7 0 1 .48.6c-.17 3.04-9.43 2.75-14.08 2.95a.48.47-83.9 0 1-.47-.59q.6-2.46 3.42-2.37a.58.58 0 0 0 .6-.57l.12-7.37q.21.16.26.43a.38.37-2.7 0 0 .36.32h.35a.16.15 0 0 0 .16-.15q.28-11.32.11-22.65c-.01-.83-.5-1.2-1.28-.91l-.75-.33q-.7-1.15-.23-1.95a.88.87 13.8 0 1 .72-.43l9.31-.27a.95.94-18.7 0 1 .78.38q5.5 7.42 10.21 15.35c.47.79 1.13 1.01 1.71.17l4.03 5.69q.47.68.47-.15v-19.98a.54.53 3 0 0-.48-.53l-2.76-.34a.91.91 0 0 1-.71-1.3c1.41-2.91 9.84-2.3 12.71-2.34a.62.62 0 0 1 .62.49c.42 1.85-1.86 2.35-3.42 2.7a.6.6 0 0 0-.46.58v33.21a.91.9-17.1 0 1-.4.75c-4.77 3.18-8.11 1.43-11-3.09q-6.87-10.7-13.63-21.36-.49-.79-1.18-.29Z"/><path fill="#040504" d="M91.25 154.46c-.58.84-1.24.62-1.71-.17q-4.71-7.93-10.21-15.35a.95.94-18.7 0 0-.78-.38l-9.31.27a.88.87 13.8 0 0-.72.43q-.47.8.23 1.95-1.44.28-2.79-.29a.69.68-75.2 0 1-.41-.71c.4-3.67 10.74-3.13 13.66-3.4a.86.83 70.4 0 1 .77.38l11.27 17.27Z"/><path fill="#2d333a" d="M181.01 161.628a10.51 9.33 91.2 0 1-9.108-10.703 10.51 9.33 91.2 0 1 9.548-10.313 10.51 9.33 91.2 0 1 9.108 10.703 10.51 9.33 91.2 0 1-9.548 10.313Zm.351-3.079a7.45 5.77 89.3 0 0 5.679-7.52 7.45 5.77 89.3 0 0-5.861-7.378 7.45 5.77 89.3 0 0-5.679 7.52 7.45 5.77 89.3 0 0 5.861 7.378Zm45.643 3.069a10.52 9.35 89 0 1-9.533-10.355 10.52 9.35 89 0 1 9.165-10.681 10.52 9.35 89 0 1 9.533 10.355 10.52 9.35 89 0 1-9.165 10.681Zm-.228-3.028a7.46 5.87 89.8 0 0 5.844-7.48 7.46 5.87 89.8 0 0-5.896-7.44 7.46 5.87 89.8 0 0-5.844 7.48 7.46 5.87 89.8 0 0 5.896 7.44Z"/><path fill="#2d333a" d="M244.46 143.17c4.13-2.74 12.39-4.3 12.61 2.89q.22 7.18.18 14.36a.62.61 1.3 0 1-.65.61l-2.17-.11a.56.56 0 0 1-.53-.62q.72-6.73.07-13.36c-.58-5.98-7.23-2.85-9.64-.43a1.17 1.16-23.2 0 0-.33.81v13.05a.63.63 0 0 1-.63.63h-2.15a.53.53 0 0 1-.53-.53l.09-18.67a.51.5 86.1 0 1 .43-.5l1.98-.25a.63.62-6.6 0 1 .71.56l.12 1.35a.29.28 70.2 0 0 .44.21Z"/><rect width="3.24" height="19.74" x="209.5" y="141.25" fill="#2d333a" rx=".43"/><path fill="#040504" d="M69.5 141.54c.78-.29 1.27.08 1.28.91q.17 11.33-.11 22.65a.16.15 0 0 1-.16.15h-.35a.38.37-2.7 0 1-.36-.32q-.05-.27-.26-.43l-.04-22.96Z"/><ellipse fill="#fff" rx="7.45" ry="5.77" transform="rotate(89.3 14.156 167.3)"/><ellipse fill="#fff" rx="7.46" ry="5.87" transform="rotate(89.8 37.546 189.336)"/><path fill="#040504" d="m75.04 148.5.17 15.5q-.4.96-1.42 1.15a.35.34 84.5 0 1-.41-.34l-.28-16.7a.63.62-4.7 0 1 .54-.63l.39-.05a.55.55 0 0 1 .56.29l.45.78Z"/></svg>