<svg xmlns="http://www.w3.org/2000/svg" viewBox="0 0 800 278"><path fill="#e6522c" d="M0 129.69v-1.77q2.81.24 4.25.58 13.68 3.23 27.42 5.87.86.16.32-.54-14.98-19.52-7.2-43.33c4.03-12.34 11.22-26.47 8.49-39.66q-.32-1.51.95-.64c8.43 5.83 10.82 20.27 10.99 29.65a.5.49-3.7 0 0 .55.48c.25-.03.98-.55 1.1-.8q8.07-16.49 7.6-35.03-.09-3.5 3.03-10.39c.92-2.03 7.03-10.3 9.26-9.15a.56.55-64.4 0 1 .25.73q-2.96 6.52-.38 13.4c3.87 10.3 9.76 22.37 10.74 33.31.3 3.31 1.72 17.57 2.39 17.8a.41.41 0 0 0 .54-.37c.52-15.11 2.82-33.49 11.95-46.05q.45-.61 1.08-.78a.32.32 0 0 1 .39.39c-4.54 17.63 6.14 27.57 11.61 42.53 5.91 16.19 4.78 34-6.08 47.79q-.77.98.46.74l34.03-6.87q.87-.18.57.66-5.2 14.71-15.82 26.15a1.14 1.11 20.6 0 1-.83.36H16.05a1.09 1.07-20.9 0 1-.8-.35Q5.23 143.48 0 129.69Z"/><path fill="#da4e31" d="M552.44 125.85c7.86-6.1 14.37-10.45 24.66-7.92 11.57 2.86 15.09 12.96 15.12 23.75q.07 18.53.01 37.05a.52.52 0 0 1-.52.52h-9.7a.52.52 0 0 1-.52-.52q.05-18.38-.02-36.74c-.03-7.3-1.14-13.68-8.41-15.88-7.47-2.25-15.71 2.08-20.75 7.82a1.28 1.26-25 0 0-.31.83v43.87a.62.62 0 0 1-.62.62h-9a.63.62 0 0 1-.63-.62l-.01-87a.63.63 0 0 1 .63-.63h9.16a.53.53 0 0 1 .53.53l-.21 34.04q0 .74.59.28Zm-391.21 20.22a.59.58-89.5 0 0-.59.59l.16 31.04a.51.5-.6 0 1-.5.5l-10.37.17a.68.68 0 0 1-.69-.68V93.2a.95.94-.3 0 1 .94-.94q12.09-.03 24.81-.03c12.59.01 25.85 4.19 30.29 17.5q3.83 11.46-1.49 21.5c-8.64 16.28-27.25 14.9-42.56 14.84Zm27.14-14.35c11.99-10.27 5.69-28.84-10.13-29.2q-5.04-.12-16.99.03a.47.46-.6 0 0-.46.46l-.12 32.06a.56.56 0 0 0 .54.56c10.8.34 20.66 1.66 27.16-3.91Zm322.6-13.23a.77.76 0 0 0 .77.76h15.98a.48.48 0 0 1 .48.47l.16 6.22a.55.54-1 0 1-.55.56h-15.96a.53.53 0 0 0-.53.53q-.14 18.77-.05 37.41c.04 8.86 8.79 7 13.6 3.52a.85.84-34 0 1 1.22.23l3.27 5.13a1.11 1.1-33.4 0 1-.32 1.52c-8.5 5.67-22.75 7.36-27.52-3.56q-1.47-3.36-1.5-10.89-.05-16.63-.02-33.26a.63.63 0 0 0-.63-.63l-7.44.01a1.2 1.2 0 0 1-1.2-1.13l-.3-4.56a.58.57-5.4 0 1 .5-.6l9.05-1.1a.69.69 0 0 0 .61-.6l2.33-18.92q.26-2.13 2.4-2.25l4.85-.28a.79.79 0 0 1 .83.79l-.03 20.63Zm-245.41 17.28c4.59-15.69 20.49-22.04 35.46-18.51 18.74 4.42 23.55 25.32 19.4 41.67-5.06 19.96-30.31 26.64-45.88 14.37-10.97-8.64-12.67-24.88-8.98-37.53Zm14.52-4.92c-7.57 9.47-7.08 32.55 5.56 38.04 6.18 2.68 16.71 1.71 20.38-4.65q9.19-15.95.52-31.75c-5.15-9.38-20.09-9.62-26.46-1.64Zm66.1-6.64c3-2.56 6.11-5.54 9.95-6.77q14.22-4.56 21.46 10.4.39.82.79-.01c3.89-8.17 11.78-11.91 20.7-11.39 14.92.87 18.32 13.21 18.38 26.31q.09 17.46-.02 34.92a.52.52 0 0 1-.51.52l-9.61.21a.5.5 0 0 1-.51-.5q-.09-17.66-.07-35.28.02-7.36-.87-10.11c-2.72-8.39-12.57-10.19-19.11-5.23q-5.16 3.92-5.21 11.72-.14 23.02.1 38.65a.56.55-1 0 1-.55.56l-9.8.14a.53.53 0 0 1-.54-.53q.01-20.66-.04-41.25c-.02-8.33-7.53-14.34-15.52-11.4q-4.95 1.82-9.37 7.12a1.43 1.41-25.1 0 0-.34.92l.06 44.49a.51.51 0 0 1-.5.51l-9.52.16a.53.52 89.5 0 1-.53-.53v-59.96a.63.63 0 0 1 .63-.63h6.35a1.24 1.24 0 0 1 1 .51q1.84 2.55 1.71 5.73-.08 2.05 1.49.72Zm84.13 32.04c-9.3-49.03 55.79-53.93 52.85-10.31q-.12 1.81-1.93 1.81h-40.52a.64.64 0 0 0-.64.68c.67 12.87 6.71 23.02 21.13 22.49 5.31-.19 11.08-3.85 15.77-6.14a.89.89 0 0 1 .9.07q2.62 1.83 4.24 4.62a.83.81-38.4 0 1-.12.98c-7.82 8.14-21.66 10.53-31.98 7.79-10.57-2.8-17.7-11.46-19.7-21.99Zm43.07-15.4c-1.68-22.46-30.17-20.71-32.66-.18a.51.51 0 0 0 .51.57l31.77.02a.38.38 0 0 0 .38-.41Zm156.65 38.21c-38.01-3.75-33.8-66.82 4.76-62.71 16.24 1.74 23.27 13.82 22.86 29.1q-.06 2.29-2.35 2.29l-40.07.01a.71.7 88.8 0 0-.7.74c.28 6.93 2.28 14.2 7.95 18.53 9.57 7.3 19.01 3.18 28.69-2.23a1.03 1.02-45.3 0 1 .96-.01q3.13 1.66 4.21 5.06a.98.96 59.9 0 1-.25.99c-6.82 6.6-16.84 9.14-26.06 8.23Zm8.76-53.04c-11.27-4.05-22.45 2.66-23.48 14.73a.45.45 0 0 0 .45.49l31.78.04a.46.46 0 0 0 .46-.51c-.69-5.93-3.21-12.59-9.21-14.75Zm96.23 5.24c1.43-11.83 14.96-15.84 24.87-14.82q8.51.88 15.22 6.94a.74.74 0 0 1 .11.96l-3.04 4.38a1.42 1.41 31.2 0 1-1.81.44c-7.21-3.8-14.92-7.01-22.15-2.02-7 4.83-1.89 12.36 4.51 14.16q6.03 1.69 14.54 5.19c5.83 2.4 8.43 6.27 8.85 12.64.74 11.09-6.49 17.55-16.88 19.57q-13.87 2.7-25.89-6.18a.64.64 0 0 1-.15-.88l3.02-4.5q1.14-1.69 2.92-.7c3.16 1.76 6.76 4 10.03 4.85 5.26 1.35 12.4.42 15.63-4.39 3.95-5.89-.08-11.54-6.04-13.39-11.54-3.57-25.68-6.25-23.74-22.25Zm-504.86-3.29q1.39-.93 2.34-2.3c5.7-8.26 13.16-11.3 23.18-7.92a1.31 1.31 0 0 1 .87 1.47l-1.21 6.76q-.43 2.37-2.7 1.57c-9.77-3.46-17.07.96-21.34 9.74q-1.05 2.15-1.05 4.74v35.85a.36.36 0 0 1-.36.36l-9.64.02a.51.5 90 0 1-.5-.51v-60a.49.49 0 0 1 .49-.49l6.41-.03q2.18 0 2.34 2.17l.63 8.31a.35.34-18.9 0 0 .54.26Zm480.1 42.28-.33.1a.72.66-73.9 0 0-.33.2c-10.62 11.29-31.62 13.14-37.96-3.8q-1.25-3.34-1.32-10.06-.21-19.44-.21-38.89a.55.55 0 0 1 .55-.55h9.24a.57.56 90 0 1 .56.57q.01 19.61.04 39.16c.04 18.99 20.85 16.22 29.21 5.37a1.42 1.41 63.8 0 0 .29-.86v-43.74a.5.5 0 0 1 .5-.5h9.49a.5.49 0 0 1 .5.49l.04 59.87a.64.64 0 0 1-.64.64h-6.29a1.89 1.89 0 0 1-1.7-1.06q-1.47-3.08-1.06-6.44a.46.45 85.5 0 0-.58-.5Z"/><rect width="102.8" height="18.5" x="15.44" y="164.75" fill="#e6522c" rx=".3"/><path fill="#e6522c" d="M97.72 192.52c-1.58 33.22-60.41 33.03-61.93-.01a.49.49 0 0 1 .49-.51h60.94a.5.49 1.6 0 1 .5.52Z"/></svg>