<svg xmlns="http://www.w3.org/2000/svg" viewBox="0 0 280 280"><g fill="none" stroke-width="2"><path stroke="#e7878c" d="m19.46 140.25 1 4.65a1.01 1-16 0 1-.64 1.15l-8.65 3.11a1.01 1.01 0 0 0-.62 1.21q1.41 5.23 4.47 9.7a1 1 0 0 0 1.19.36l3.92-1.5a.99.98 58.5 0 1 1.1.27l2.77 3.09" vector-effect="non-scaling-stroke"/><path stroke="#e7878c" d="M24 162.29c13.88 13.39 33.82 13.93 47.46.7q9.82-9.53 9.91-24.8a1 1 0 0 0-1.38-.93l-3.03 1.24a1 1 0 0 1-1.37-.84q-.48-5.16-2.64-9.9a1.01 1 67.8 0 1 .57-1.36l8.33-3.03a1.01 1-24.9 0 0 .53-1.44l-1.8-3.14a1 .99 63.7 0 0-1.25-.43l-3.4 1.41a1 .99-29.6 0 1-1.17-.32c-11.2-14.68-32.25-17.65-46.72-6.65q-13.37 10.18-13.29 27.58a1 1 0 0 0 1.3.95l3.41-1.08" vector-effect="non-scaling-stroke"/><path stroke="#ce0e19" d="M24 162.29c2.18-1.6 4.89-1.75 6.88-2.56q2.77-1.11 5.62-2.02" vector-effect="non-scaling-stroke"/><path stroke="#e7878c" d="M36.5 157.71q8.61 5.23 16.93 2.73 13.54-4.09 16.09-17.84.32-1.78-1.36-1.11l-2.53 1.01a1 1 0 0 1-1.37-.96q.15-5.18-2.27-9.72a1 .99 66.4 0 1 .55-1.41l8.2-2.85a1 .99 61.7 0 0 .46-1.55l-2.37-3.13a1 1 0 0 0-1.17-.33l-3.57 1.43a1 1 0 0 1-1.04-.19c-13.66-12.49-34.47-4.81-36.55 13.67" vector-effect="non-scaling-stroke"/><path stroke="#ce0e19" d="M26.5 137.46q-3.32 1.89-7.04 2.79" vector-effect="non-scaling-stroke"/><path stroke="#e7878c" d="m36.5 157.71-3.64-2.85a1 1 0 0 0-.98-.14l-4.2 1.67a1.01 1 58.6 0 1-1.13-.28q-3.68-4.27-5.18-9.79a1.01 1.01 0 0 1 .63-1.21l8.8-3.16a1.01 1 78.7 0 0 .66-1l-.22-3.81a1.01 1 78.6 0 0-1.33-.89l-3.41 1.21" vector-effect="non-scaling-stroke"/><path stroke="gray" d="M155.8 123.29a.3.3 0 0 1-.3-.3v-4.94a.3.3 0 0 0-.3-.3h-3.59a.3.3 0 0 0-.3.3l-.09 14.4a.3.3 0 0 0 .3.3h3.66a.3.3 0 0 0 .3-.3l.05-5.34a.3.3 0 0 1 .3-.3l4.11-.02a.3.3 0 0 1 .3.3l.01 5.52a.3.3 0 0 0 .31.3l3.65-.12a.3.3 0 0 0 .29-.3v-14.48a.3.3 0 0 0-.31-.3l-3.65.06a.3.3 0 0 0-.29.3v4.86a.3.3 0 0 1-.3.3l-4.15.06" vector-effect="non-scaling-stroke"/><path stroke="#e7878c" d="M199.13 117.37q-2.61.53-1.9 3.15a1.02 1-4.2 0 0 .86.73l1.53.16a1 .99-2.5 0 0 1.09-1.18l-.4-2.07a1.01 1 78.5 0 0-1.18-.79" vector-effect="non-scaling-stroke"/><path stroke="gray" d="M103.82 117.88q-3.19-.46-6.45-.04a1.01 1.01 0 0 0-.87 1v12.91a1 1 0 0 0 1 1h2a1 1 0 0 0 1-1v-3.21a1 .99-23.2 0 1 .28-.69c1.45-1.51 3.22 3.53 3.81 4.44a1.01.99 74 0 0 .82.46l2.22.06q1.74.04.9-1.49l-1.8-3.25a1.01 1 54 0 1 .19-1.21c4.13-3.93 2.15-8.23-3.1-8.98m12.66 10.3q.18-2.68 3.18-1.53a1 1 0 0 0 1.28-.54q.91-2.15-.99-2.81c-1.11-.38-4.37 1.08-3.3-1.52a1.02 1 11.5 0 1 .95-.62l5.38.12a1 1 0 0 0 1.02-1v-1.53a1 .99.3 0 0-1-1h-9.5a1 1 0 0 0-1 1v13.05a1 1 0 0 0 1.01 1l9.66-.07a1.01 1 .6 0 0 1-.97l.04-1.48a1 1 0 0 0-1-1.03h-5.74a1 .99-87.9 0 1-.99-1.07m23.24-6.43c-2.12-4.33-7.29-4.63-11.57-3.92a.99.99 0 0 0-.83.99l.09 12.98a1.01 1.01 0 0 0 .99 1q3.56.06 7.05-.53c4.89-.83 6.04-6.92 4.27-10.52m32.99 8.66c.84-.58 2.59-.09 3.8-.12a1 .99 85.1 0 1 1 .85l.12.75a1.01 1.01 0 0 0 .97.85l2.42.05a1 .99 80.4 0 0 .95-1.35l-4.84-13.04a.99.99 0 0 0-.93-.65h-2.69a1 .99 10 0 0-.94.65l-4.84 13.12a1 .99-81.5 0 0 .99 1.34l2.28-.13a1.01 1 1.7 0 0 .94-.88q.12-.98.77-1.44m18.14-8.71a.32.32 0 0 1 .31-.32l3.71-.19a.32.32 0 0 0 .31-.32l-.05-2.8a.32.32 0 0 0-.32-.32H182.8a.32.32 0 0 0-.32.32l.05 2.96a.32.32 0 0 0 .32.31l3.57-.09a.32.32 0 0 1 .33.32v10.86a.32.32 0 0 0 .32.32h3.61a.32.32 0 0 0 .32-.32l-.15-10.73m-86.132 38.27a11.68 9.42 90.5 0 0 9.522-11.598 11.68 9.42 90.5 0 0-9.318-11.762 11.68 9.42 90.5 0 0-9.522 11.598 11.68 9.42 90.5 0 0 9.318 11.762m90.452-5.42c-1.33 4.44-7.17 3.36-9.84.94a.99.99 0 0 0-1.39.05l-.48.5a.99.99 0 0 0 .12 1.48c4.4 3.33 13.51 3.7 14.17-3.46.74-8.07-9.46-5.71-11.66-10.91-1.99-4.71 6.12-4.9 8.94-2.69a1.01 1.01 0 0 0 1.35-.1l.43-.46a1 1 0 0 0-.21-1.54c-3.65-2.23-10.22-2.82-12.53 1.68-4.74 9.2 13.09 7.91 11.1 14.51m-71.57-3.74q2.13-.02 4.25-.12 3.33-.14 5.01-1.29c3.97-2.72 3.87-10.45-1.12-11.93q-3.06-.89-10.53-.45a.99.99 0 0 0-.94.99l-.1 20.49a1 1 0 0 0 1 1h.62a1 .99-.5 0 0 1.01-1.02l-.19-6.64a1 1 0 0 1 .99-1.03m20.25 6.44a.35.35 0 0 1-.35-.35v-7.86a.35.35 0 0 1 .36-.35l5.67.08a.35.35 0 0 0 .36-.33l.08-1.6a.35.35 0 0 0-.35-.37l-5.77.04a.35.35 0 0 1-.35-.35v-6.57a.35.35 0 0 1 .35-.35l10.53.03a.35.35 0 0 0 .34-.42l-.3-1.57a.35.35 0 0 0-.34-.28h-12.73a.35.35 0 0 0-.35.35v21.8a.35.35 0 0 0 .35.35h13.61a.35.35 0 0 0 .35-.42l-.3-1.55a.35.35 0 0 0-.35-.28h-10.81m30.12-2.72c-1.34-2.31-9.67-17.09-11.21-17.51q-.62-.17-1.25-.01a1 1 0 0 0-.76.97v20.52a1 1 0 0 0 1 1h.53a1 .99-.3 0 0 1-1l-.03-14.42q-.01-2.79 1.48-.43l9.64 15.38a1 .99-15.6 0 0 .85.47h1.03a1 1 0 0 0 1-1V138a1 1 0 0 0-1-1h-.49a1.01 1-89.7 0 0-1 1q-.02 8.12-.01 16.25.01.52-.46.48a.4.38 75.5 0 1-.32-.2m43.42-5.57a.36.36 0 0 1 .36.36v9.79a.36.36 0 0 0 .34.36l1.78.12a.36.36 0 0 0 .38-.36v-21.87a.36.36 0 0 0-.36-.36h-1.78a.36.36 0 0 0-.36.36v9.03a.36.36 0 0 1-.36.36h-10.53a.36.36 0 0 1-.36-.36v-9.03a.36.36 0 0 0-.36-.36h-1.68a.36.36 0 0 0-.36.36l-.04 21.83a.36.36 0 0 0 .31.36l1.72.26a.36.36 0 0 0 .41-.36v-10.13a.36.36 0 0 1 .36-.36h10.53m12.625-11.033a.92.92 0 0 0-.915-.925l-.84-.004a.92.92 0 0 0-.925.915l-.11 20.88a.92.92 0 0 0 .916.925l.84.004a.92.92 0 0 0 .924-.915l.11-20.88m9.905 8.913a.41.41 0 0 1-.42-.41v-6.78a.41.41 0 0 1 .41-.41l9.93.03a.41.41 0 0 0 .41-.41v-1.45a.41.41 0 0 0-.41-.41l-12.41.02a.41.41 0 0 0-.41.41l-.06 21.67a.41.41 0 0 0 .41.41l1.72-.01a.41.41 0 0 0 .41-.41v-9.66a.41.41 0 0 1 .44-.41l5.2.32a.41.41 0 0 0 .43-.38l.15-1.81a.41.41 0 0 0-.42-.44l-5.38.13m20.48-7.59a.35.35 0 0 1 .35.35v19.55a.35.35 0 0 0 .35.35h1.81a.35.35 0 0 0 .35-.35l-.02-19.57a.35.35 0 0 1 .36-.35l5.75.09a.35.35 0 0 0 .35-.29l.3-1.62a.35.35 0 0 0-.34-.41H254.6a.35.35 0 0 0-.35.35v1.55a.35.35 0 0 0 .35.35h5.8" vector-effect="non-scaling-stroke"/><path stroke="gray" d="M101.65 120.98q-.28-.07-.55.03a.79.78-4.3 0 0-.5.57q-.99 4.49 3.44 2.49a.99.97 89.5 0 0 .52-.54q.99-2.51-2.02-2.38-.23.01-.89-.17m33.89 6.64c1.16-2.27.56-7.19-3.2-6.36a1.02 1.01-6.2 0 0-.79.97l-.07 6.03a1.01 1.01 0 0 0 .97 1.02q2.2.07 3.09-1.66m38.1-1.23a.33.33 0 0 0 .31.42l1.76.06a.33.33 0 0 0 .34-.4l-.77-3.71a.33.33 0 0 0-.64-.02l-1 3.65m-68.834 31.24a9.32 6.85 89.9 0 0 6.834-9.332 9.32 6.85 89.9 0 0-6.866-9.308 9.32 6.85 89.9 0 0-6.834 9.332 9.32 6.85 89.9 0 0 6.866 9.308m24.164-18q-2.6-.45-5.4-.24a1 1 0 0 0-.92 1l.02 7.03a1.01 1 4.7 0 0 .84.99q3.41.55 6.6-.37c2.66-.77 3.96-3.68 2.75-6.01q-.98-1.89-3.89-2.4" vector-effect="non-scaling-stroke"/></g><path fill="#fff" d="M0 0h280v280H0V0Zm19.46 140.25 1 4.65a1.01 1-16 0 1-.64 1.15l-8.65 3.11a1.01 1.01 0 0 0-.62 1.21q1.41 5.23 4.47 9.7a1 1 0 0 0 1.19.36l3.92-1.5a.99.98 58.5 0 1 1.1.27l2.77 3.09c13.88 13.39 33.82 13.93 47.46.7q9.82-9.53 9.91-24.8a1 1 0 0 0-1.38-.93l-3.03 1.24a1 1 0 0 1-1.37-.84q-.48-5.16-2.64-9.9a1.01 1 67.8 0 1 .57-1.36l8.33-3.03a1.01 1-24.9 0 0 .53-1.44l-1.8-3.14a1 .99 63.7 0 0-1.25-.43l-3.4 1.41a1 .99-29.6 0 1-1.17-.32c-11.2-14.68-32.25-17.65-46.72-6.65q-13.37 10.18-13.29 27.58a1 1 0 0 0 1.3.95l3.41-1.08Zm136.34-16.96a.3.3 0 0 1-.3-.3v-4.94a.3.3 0 0 0-.3-.3h-3.59a.3.3 0 0 0-.3.3l-.09 14.4a.3.3 0 0 0 .3.3h3.66a.3.3 0 0 0 .3-.3l.05-5.34a.3.3 0 0 1 .3-.3l4.11-.02a.3.3 0 0 1 .3.3l.01 5.52a.3.3 0 0 0 .31.3l3.65-.12a.3.3 0 0 0 .29-.3v-14.48a.3.3 0 0 0-.31-.3l-3.65.06a.3.3 0 0 0-.29.3v4.86a.3.3 0 0 1-.3.3l-4.15.06Zm43.33-5.92q-2.61.53-1.9 3.15a1.02 1-4.2 0 0 .86.73l1.53.16a1 .99-2.5 0 0 1.09-1.18l-.4-2.07a1.01 1 78.5 0 0-1.18-.79Zm-95.31.51q-3.19-.46-6.45-.04a1.01 1.01 0 0 0-.87 1v12.91a1 1 0 0 0 1 1h2a1 1 0 0 0 1-1v-3.21a1 .99-23.2 0 1 .28-.69c1.45-1.51 3.22 3.53 3.81 4.44a1.01.99 74 0 0 .82.46l2.22.06q1.74.04.9-1.49l-1.8-3.25a1.01 1 54 0 1 .19-1.21c4.13-3.93 2.15-8.23-3.1-8.98Zm12.66 10.3q.18-2.68 3.18-1.53a1 1 0 0 0 1.28-.54q.91-2.15-.99-2.81c-1.11-.38-4.37 1.08-3.3-1.52a1.02 1 11.5 0 1 .95-.62l5.38.12a1 1 0 0 0 1.02-1v-1.53a1 .99.3 0 0-1-1h-9.5a1 1 0 0 0-1 1v13.05a1 1 0 0 0 1.01 1l9.66-.07a1.01 1 .6 0 0 1-.97l.04-1.48a1 1 0 0 0-1-1.03h-5.74a1 .99-87.9 0 1-.99-1.07Zm23.24-6.43c-2.12-4.33-7.29-4.63-11.57-3.92a.99.99 0 0 0-.83.99l.09 12.98a1.01 1.01 0 0 0 .99 1q3.56.06 7.05-.53c4.89-.83 6.04-6.92 4.27-10.52Zm32.99 8.66c.84-.58 2.59-.09 3.8-.12a1 .99 85.1 0 1 1 .85l.12.75a1.01 1.01 0 0 0 .97.85l2.42.05a1 .99 80.4 0 0 .95-1.35l-4.84-13.04a.99.99 0 0 0-.93-.65h-2.69a1 .99 10 0 0-.94.65l-4.84 13.12a1 .99-81.5 0 0 .99 1.34l2.28-.13a1.01 1 1.7 0 0 .94-.88q.12-.98.77-1.44Zm18.14-8.71a.32.32 0 0 1 .31-.32l3.71-.19a.32.32 0 0 0 .31-.32l-.05-2.8a.32.32 0 0 0-.32-.32H182.8a.32.32 0 0 0-.32.32l.05 2.96a.32.32 0 0 0 .32.31l3.57-.09a.32.32 0 0 1 .33.32v10.86a.32.32 0 0 0 .32.32h3.61a.32.32 0 0 0 .32-.32l-.15-10.73Zm-86.132 38.27a11.68 9.42 90.5 0 0 9.522-11.598 11.68 9.42 90.5 0 0-9.318-11.762 11.68 9.42 90.5 0 0-9.522 11.598 11.68 9.42 90.5 0 0 9.318 11.762Zm90.452-5.42c-1.33 4.44-7.17 3.36-9.84.94a.99.99 0 0 0-1.39.05l-.48.5a.99.99 0 0 0 .12 1.48c4.4 3.33 13.51 3.7 14.17-3.46.74-8.07-9.46-5.71-11.66-10.91-1.99-4.71 6.12-4.9 8.94-2.69a1.01 1.01 0 0 0 1.35-.1l.43-.46a1 1 0 0 0-.21-1.54c-3.65-2.23-10.22-2.82-12.53 1.68-4.74 9.2 13.09 7.91 11.1 14.51Zm-71.57-3.74q2.13-.02 4.25-.12 3.33-.14 5.01-1.29c3.97-2.72 3.87-10.45-1.12-11.93q-3.06-.89-10.53-.45a.99.99 0 0 0-.94.99l-.1 20.49a1 1 0 0 0 1 1h.62a1 .99-.5 0 0 1.01-1.02l-.19-6.64a1 1 0 0 1 .99-1.03Zm20.25 6.44a.35.35 0 0 1-.35-.35v-7.86a.35.35 0 0 1 .36-.35l5.67.08a.35.35 0 0 0 .36-.33l.08-1.6a.35.35 0 0 0-.35-.37l-5.77.04a.35.35 0 0 1-.35-.35v-6.57a.35.35 0 0 1 .35-.35l10.53.03a.35.35 0 0 0 .34-.42l-.3-1.57a.35.35 0 0 0-.34-.28h-12.73a.35.35 0 0 0-.35.35v21.8a.35.35 0 0 0 .35.35h13.61a.35.35 0 0 0 .35-.42l-.3-1.55a.35.35 0 0 0-.35-.28h-10.81Zm30.12-2.72c-1.34-2.31-9.67-17.09-11.21-17.51q-.62-.17-1.25-.01a1 1 0 0 0-.76.97v20.52a1 1 0 0 0 1 1h.53a1 .99-.3 0 0 1-1l-.03-14.42q-.01-2.79 1.48-.43l9.64 15.38a1 .99-15.6 0 0 .85.47h1.03a1 1 0 0 0 1-1V138a1 1 0 0 0-1-1h-.49a1.01 1-89.7 0 0-1 1q-.02 8.12-.01 16.25.01.52-.46.48a.4.38 75.5 0 1-.32-.2Zm43.42-5.57a.36.36 0 0 1 .36.36v9.79a.36.36 0 0 0 .34.36l1.78.12a.36.36 0 0 0 .38-.36v-21.87a.36.36 0 0 0-.36-.36h-1.78a.36.36 0 0 0-.36.36v9.03a.36.36 0 0 1-.36.36h-10.53a.36.36 0 0 1-.36-.36v-9.03a.36.36 0 0 0-.36-.36h-1.68a.36.36 0 0 0-.36.36l-.04 21.83a.36.36 0 0 0 .31.36l1.72.26a.36.36 0 0 0 .41-.36v-10.13a.36.36 0 0 1 .36-.36h10.53Zm12.625-11.033a.92.92 0 0 0-.915-.925l-.84-.004a.92.92 0 0 0-.925.915l-.11 20.88a.92.92 0 0 0 .916.925l.84.004a.92.92 0 0 0 .924-.915l.11-20.88Zm9.905 8.913a.41.41 0 0 1-.42-.41v-6.78a.41.41 0 0 1 .41-.41l9.93.03a.41.41 0 0 0 .41-.41v-1.45a.41.41 0 0 0-.41-.41l-12.41.02a.41.41 0 0 0-.41.41l-.06 21.67a.41.41 0 0 0 .41.41l1.72-.01a.41.41 0 0 0 .41-.41v-9.66a.41.41 0 0 1 .44-.41l5.2.32a.41.41 0 0 0 .43-.38l.15-1.81a.41.41 0 0 0-.42-.44l-5.38.13Zm20.48-7.59a.35.35 0 0 1 .35.35v19.55a.35.35 0 0 0 .35.35h1.81a.35.35 0 0 0 .35-.35l-.02-19.57a.35.35 0 0 1 .36-.35l5.75.09a.35.35 0 0 0 .35-.29l.3-1.62a.35.35 0 0 0-.34-.41H254.6a.35.35 0 0 0-.35.35v1.55a.35.35 0 0 0 .35.35h5.8Z"/><path fill="#ce0e19" d="M24 162.29c2.18-1.6 4.89-1.75 6.88-2.56q2.77-1.11 5.62-2.02 8.61 5.23 16.93 2.73 13.54-4.09 16.09-17.84.32-1.78-1.36-1.11l-2.53 1.01a1 1 0 0 1-1.37-.96q.15-5.18-2.27-9.72a1 .99 66.4 0 1 .55-1.41l8.2-2.85a1 .99 61.7 0 0 .46-1.55l-2.37-3.13a1 1 0 0 0-1.17-.33l-3.57 1.43a1 1 0 0 1-1.04-.19c-13.66-12.49-34.47-4.81-36.55 13.67q-3.32 1.89-7.04 2.79l-3.41 1.08a1 1 0 0 1-1.3-.95q-.08-17.4 13.29-27.58c14.47-11 35.52-8.03 46.72 6.65a1 .99-29.6 0 0 1.17.32l3.4-1.41a1 .99 63.7 0 1 1.25.43l1.8 3.14a1.01 1-24.9 0 1-.53 1.44l-8.33 3.03a1.01 1 67.8 0 0-.57 1.36q2.16 4.74 2.64 9.9a1 1 0 0 0 1.37.84l3.03-1.24a1 1 0 0 1 1.38.93q-.09 15.27-9.91 24.8c-13.64 13.23-33.58 12.69-47.46-.7Z"/><path d="m155.8 123.29 4.15-.06a.3.3 0 0 0 .3-.3v-4.86a.3.3 0 0 1 .29-.3l3.65-.06a.3.3 0 0 1 .31.3v14.48a.3.3 0 0 1-.29.3l-3.65.12a.3.3 0 0 1-.31-.3l-.01-5.52a.3.3 0 0 0-.3-.3l-4.11.02a.3.3 0 0 0-.3.3l-.05 5.34a.3.3 0 0 1-.3.3h-3.66a.3.3 0 0 1-.3-.3l.09-14.4a.3.3 0 0 1 .3-.3h3.59a.3.3 0 0 1 .3.3v4.94a.3.3 0 0 0 .3.3Z"/><path fill="#ce0e19" d="m200.31 118.16.4 2.07a1 .99-2.5 0 1-1.09 1.18l-1.53-.16a1.02 1-4.2 0 1-.86-.73q-.71-2.62 1.9-3.15a1.01 1 78.5 0 1 1.18.79Z"/><path fill="#fff" d="m36.5 157.71-3.64-2.85a1 1 0 0 0-.98-.14l-4.2 1.67a1.01 1 58.6 0 1-1.13-.28q-3.68-4.27-5.18-9.79a1.01 1.01 0 0 1 .63-1.21l8.8-3.16a1.01 1 78.7 0 0 .66-1l-.22-3.81a1.01 1 78.6 0 0-1.33-.89l-3.41 1.21c2.08-18.48 22.89-26.16 36.55-13.67a1 1 0 0 0 1.04.19l3.57-1.43a1 1 0 0 1 1.17.33l2.37 3.13a1 .99 61.7 0 1-.46 1.55l-8.2 2.85a1 .99 66.4 0 0-.55 1.41q2.42 4.54 2.27 9.72a1 1 0 0 0 1.37.96l2.53-1.01q1.68-.67 1.36 1.11-2.55 13.75-16.09 17.84-8.32 2.5-16.93-2.73Z"/><path d="M103.82 117.88c5.25.75 7.23 5.05 3.1 8.98a1.01 1 54 0 0-.19 1.21l1.8 3.25q.84 1.53-.9 1.49l-2.22-.06a1.01.99 74 0 1-.82-.46c-.59-.91-2.36-5.95-3.81-4.44a1 .99-23.2 0 0-.28.69v3.21a1 1 0 0 1-1 1h-2a1 1 0 0 1-1-1v-12.91a1.01 1.01 0 0 1 .87-1q3.26-.42 6.45.04Zm-2.17 3.1q-.28-.07-.55.03a.79.78-4.3 0 0-.5.57q-.99 4.49 3.44 2.49a.99.97 89.5 0 0 .52-.54q.99-2.51-2.02-2.38-.23.01-.89-.17Zm15.82 8.27h5.74a1 1 0 0 1 1 1.03l-.04 1.48a1.01 1 .6 0 1-1 .97l-9.66.07a1 1 0 0 1-1.01-1v-13.05a1 1 0 0 1 1-1h9.5a1 .99.3 0 1 1 1v1.53a1 1 0 0 1-1.02 1l-5.38-.12a1.02 1 11.5 0 0-.95.62c-1.07 2.6 2.19 1.14 3.3 1.52q1.9.66.99 2.81a1 1 0 0 1-1.28.54q-3-1.15-3.18 1.53a1 .99-87.9 0 0 .99 1.07Zm22.25-7.5c1.77 3.6.62 9.69-4.27 10.52q-3.49.59-7.05.53a1.01 1.01 0 0 1-.99-1l-.09-12.98a.99.99 0 0 1 .83-.99c4.28-.71 9.45-.41 11.57 3.92Zm-4.18 5.87c1.16-2.27.56-7.19-3.2-6.36a1.02 1.01-6.2 0 0-.79.97l-.07 6.03a1.01 1.01 0 0 0 .97 1.02q2.2.07 3.09-1.66Zm37.17 2.79q-.65.46-.77 1.44a1.01 1 1.7 0 1-.94.88l-2.28.13a1 .99-81.5 0 1-.99-1.34l4.84-13.12a1 .99 10 0 1 .94-.65h2.69a.99.99 0 0 1 .93.65l4.84 13.04a1 .99 80.4 0 1-.95 1.35l-2.42-.05a1.01 1.01 0 0 1-.97-.85l-.12-.75a1 .99 85.1 0 0-1-.85c-1.21.03-2.96-.46-3.8.12Zm.93-4.02a.33.33 0 0 0 .31.42l1.76.06a.33.33 0 0 0 .34-.4l-.77-3.71a.33.33 0 0 0-.64-.02l-1 3.65Zm17.21-4.69.15 10.73a.32.32 0 0 1-.32.32h-3.61a.32.32 0 0 1-.32-.32v-10.86a.32.32 0 0 0-.33-.32l-3.57.09a.32.32 0 0 1-.32-.31l-.05-2.96a.32.32 0 0 1 .32-.32h12.01a.32.32 0 0 1 .32.32l.05 2.8a.32.32 0 0 1-.31.32l-3.71.19a.32.32 0 0 0-.31.32Z"/><path fill="#fff" d="M102.54 121.15q3.01-.13 2.02 2.38a.99.97 89.5 0 1-.52.54q-4.43 2-3.44-2.49a.79.78-4.3 0 1 .5-.57q.27-.1.55-.03.66.18.89.17Zm29.8.11c3.76-.83 4.36 4.09 3.2 6.36q-.89 1.73-3.09 1.66a1.01 1.01 0 0 1-.97-1.02l.07-6.03a1.02 1.01-6.2 0 1 .79-.97Zm41.3 5.13 1-3.65a.33.33 0 0 1 .64.02l.77 3.71a.33.33 0 0 1-.34.4l-1.76-.06a.33.33 0 0 1-.31-.42Z"/><path fill="#ce0e19" d="M36.5 157.71q-2.85.91-5.62 2.02c-1.99.81-4.7.96-6.88 2.56l-2.77-3.09a.99.98 58.5 0 0-1.1-.27l-3.92 1.5a1 1 0 0 1-1.19-.36q-3.06-4.47-4.47-9.7a1.01 1.01 0 0 1 .62-1.21l8.65-3.11a1.01 1-16 0 0 .64-1.15l-1-4.65q3.72-.9 7.04-2.79l3.41-1.21a1.01 1 78.6 0 1 1.33.89l.22 3.81a1.01 1 78.7 0 1-.66 1l-8.8 3.16a1.01 1.01 0 0 0-.63 1.21q1.5 5.52 5.18 9.79a1.01 1 58.6 0 0 1.13.28l4.2-1.67a1 1 0 0 1 .98.14l3.64 2.85Z"/><path d="M104.718 159.97a11.68 9.42 90.5 0 1-9.318-11.762 11.68 9.42 90.5 0 1 9.522-11.598 11.68 9.42 90.5 0 1 9.318 11.762 11.68 9.42 90.5 0 1-9.522 11.598Zm.088-2.34a9.32 6.85 89.9 0 0 6.834-9.332 9.32 6.85 89.9 0 0-6.866-9.308 9.32 6.85 89.9 0 0-6.834 9.332 9.32 6.85 89.9 0 0 6.866 9.308Zm90.364-3.08c1.99-6.6-15.84-5.31-11.1-14.51 2.31-4.5 8.88-3.91 12.53-1.68a1 1 0 0 1 .21 1.54l-.43.46a1.01 1.01 0 0 1-1.35.1c-2.82-2.21-10.93-2.02-8.94 2.69 2.2 5.2 12.4 2.84 11.66 10.91-.66 7.16-9.77 6.79-14.17 3.46a.99.99 0 0 1-.12-1.48l.48-.5a.99.99 0 0 1 1.39-.05c2.67 2.42 8.51 3.5 9.84-.94Z"/><path d="m122.61 151.84.19 6.64a1 .99-.5 0 1-1.01 1.02h-.62a1 1 0 0 1-1-1l.1-20.49a.99.99 0 0 1 .94-.99q7.47-.44 10.53.45c4.99 1.48 5.09 9.21 1.12 11.93q-1.68 1.15-5.01 1.29-2.12.1-4.25.12a1 1 0 0 0-.99 1.03Zm6.36-12.21q-2.6-.45-5.4-.24a1 1 0 0 0-.92 1l.02 7.03a1.01 1 4.7 0 0 .84.99q3.41.55 6.6-.37c2.66-.77 3.96-3.68 2.75-6.01q-.98-1.89-3.89-2.4Zm14.88 17.62h10.81a.35.35 0 0 1 .35.28l.3 1.55a.35.35 0 0 1-.35.42h-13.61a.35.35 0 0 1-.35-.35v-21.8a.35.35 0 0 1 .35-.35h12.73a.35.35 0 0 1 .34.28l.3 1.57a.35.35 0 0 1-.34.42l-10.53-.03a.35.35 0 0 0-.35.35v6.57a.35.35 0 0 0 .35.35l5.77-.04a.35.35 0 0 1 .35.37l-.08 1.6a.35.35 0 0 1-.36.33l-5.67-.08a.35.35 0 0 0-.36.35v7.86a.35.35 0 0 0 .35.35Zm30.44-2.52q.47.04.46-.48-.01-8.13.01-16.25a1.01 1-89.7 0 1 1-1h.49a1 1 0 0 1 1 1v20.5a1 1 0 0 1-1 1h-1.03a1 .99-15.6 0 1-.85-.47l-9.64-15.38q-1.49-2.36-1.48.43l.03 14.42a1 .99-.3 0 1-1 1h-.53a1 1 0 0 1-1-1v-20.52a1 1 0 0 1 .76-.97q.63-.16 1.25.01c1.54.42 9.87 15.2 11.21 17.51a.4.38 75.5 0 0 .32.2Zm43.1-5.77h-10.53a.36.36 0 0 0-.36.36v10.13a.36.36 0 0 1-.41.36l-1.72-.26a.36.36 0 0 1-.31-.36l.04-21.83a.36.36 0 0 1 .36-.36h1.68a.36.36 0 0 1 .36.36v9.03a.36.36 0 0 0 .36.36h10.53a.36.36 0 0 0 .36-.36v-9.03a.36.36 0 0 1 .36-.36h1.78a.36.36 0 0 1 .36.36v21.87a.36.36 0 0 1-.38.36l-1.78-.12a.36.36 0 0 1-.34-.36v-9.79a.36.36 0 0 0-.36-.36Z"/><rect width="2.68" height="22.72" x="-1.34" y="-11.36" rx=".92" transform="rotate(.3 -28220.298 43737.284)"/><path d="m239.92 146.84 5.38-.13a.41.41 0 0 1 .42.44l-.15 1.81a.41.41 0 0 1-.43.38l-5.2-.32a.41.41 0 0 0-.44.41v9.66a.41.41 0 0 1-.41.41l-1.72.01a.41.41 0 0 1-.41-.41l.06-21.67a.41.41 0 0 1 .41-.41l12.41-.02a.41.41 0 0 1 .41.41v1.45a.41.41 0 0 1-.41.41l-9.93-.03a.41.41 0 0 0-.41.41v6.78a.41.41 0 0 0 .42.41Zm20.48-7.59h-5.8a.35.35 0 0 1-.35-.35v-1.55a.35.35 0 0 1 .35-.35h15.06a.35.35 0 0 1 .34.41l-.3 1.62a.35.35 0 0 1-.35.29l-5.75-.09a.35.35 0 0 0-.36.35l.02 19.57a.35.35 0 0 1-.35.35h-1.81a.35.35 0 0 1-.35-.35V139.6a.35.35 0 0 0-.35-.35Z"/><ellipse fill="#fff" rx="9.32" ry="6.85" transform="rotate(89.9 -21.89 126.642)"/><path fill="#fff" d="M132.86 142.03c1.21 2.33-.09 5.24-2.75 6.01q-3.19.92-6.6.37a1.01 1 4.7 0 1-.84-.99l-.02-7.03a1 1 0 0 1 .92-1q2.8-.21 5.4.24 2.91.51 3.89 2.4Z"/></svg>