<svg xmlns="http://www.w3.org/2000/svg" viewBox="0 0 412 412"><g fill="none" stroke-width="2"><path stroke="#3a9717" stroke-opacity=".533" d="M342.29 159.5C314.42 48.88 176.67 14.78 100.75 99.79" vector-effect="non-scaling-stroke"/><path stroke="#399316" stroke-opacity=".549" d="M342.29 159.5c9.08 42.29.51 84.96-26.05 118.73-48.42 61.57-138.85 72.02-199.22 21.75-60.95-50.75-68.12-140.42-16.27-200.19" vector-effect="non-scaling-stroke"/><path stroke="#9fd08c" d="M173.71 162.413a.41.41 0 0 0-.41-.41l-7.32.013a.41.41 0 0 0-.41.411l.08 45.16a.41.41 0 0 0 .41.41l7.32-.013a.41.41 0 0 0 .41-.411l-.08-45.16m84.64 29.507 11.36 16.12a.93.47 57.6 0 0 .79.47l6.83-2.39a.38.35 60.4 0 0 .13-.58L265.7 190.8a.73.62 47.8 0 1-.03-.88l9.83-10.67a.39.35-57.1 0 0-.1-.6l-5.33-2.24a.86.61-55.4 0 0-.85.31l-9.74 11.5q-1.75 2.06-1.75-.72l.05-24.94a.56.53-90 0 0-.53-.56H250a.75.45 90 0 0-.45.75l-.05 44.5a.75.5 90 0 0 .5.75h7.25a.75.54-90 0 0 .54-.75l-.05-15.18q-.01-1.02.61-.15" vector-effect="non-scaling-stroke"/><path stroke="#5a9f40" d="M284.66 170.86q-.85 1.65 2.29 3.54a1.39 1.39-60.4 0 0 1.95-.54c3.01-5.71-3.33-5.27-3.87-3.91q-.3.76-.37.91" vector-effect="non-scaling-stroke"/><path stroke="#9fd08c" d="M112.31 203.94q-2.21-.31-5.14-2.75a.53.4 36.5 0 0-.71.01l-2.18 3.56a.75.6 32.7 0 0 .3.9q7.51 4.99 15.05 2.04c5.75-2.25 7.84-7.33 4.82-12.89q-.98-1.79-8.19-7.37c-6.82-5.27.92-8.2 5.79-5.38a.72.39 30.7 0 0 .81.03l1.99-3.28a.82.37 28.3 0 0-.56-.73c-5.11-2.7-12.22-3-16.43 1.17-6.79 6.72 2.95 14.03 7.68 17.22 4.35 2.92 1.78 8.18-3.23 7.47m25.43-23.7.01-2.99a.75.49.3 0 0-.75-.5h-6.75a.5.5 0 0 0-.5.5V223a.75.5 90 0 0 .5.75h7a.75.5-90 0 0 .5-.75v-18.25q0-.69.53-.16 4.94 4.98 11.09 3.92c15.83-2.73 17.56-29.61.92-32.26q-6.55-1.04-12.12 4.1-.43.4-.43-.11m84.94-.24-.09-2.81a.59.45-.5 0 0-.59-.44h-7a.5.5 0 0 0-.5.5v30a.7.43 90 0 0 .43.7l7.07.07a.68.56 89.4 0 0 .57-.7c-.16-5.87-1.09-16.94.75-21.91 1.72-4.66 9.01-5.28 11.28-1.38 2.42 4.15 1.14 18.01 1.22 23.31a.67.43 89.4 0 0 .43.66h7a.64.57 89.5 0 0 .57-.65q-.09-11.27-.11-22.54c0-3.93-3.42-7.5-7.31-8.4q-7.37-1.7-13.22 3.69-.49.44-.5-.1m-22.17 24.76-.01 2.49a.74.5-89.5 0 0 .5.75h7.25a.75.5-90 0 0 .5-.75v-30a.62.5 90 0 0-.5-.62l-7 .05a.53.37-1.2 0 0-.52.38q.25 9.03-.23 18.05c-.52 9.82-12.41 10.94-12.9 2.56q-.22-3.74-.34-20.46a.72.51 89.5 0 0-.51-.71h-7a.67.41-88.7 0 0-.42.65c-.17 7.57-1.97 25.89 3.96 29.83 5.99 3.97 11.37 1.08 16.73-2.4q.49-.32.49.18" vector-effect="non-scaling-stroke"/><path stroke="#6c9d59" d="M284.83 201.98a.43.43 76 0 1 .23-.39l18.31-9.15a.43.43-46.1 0 0 0-.77l-18.21-8.94a.43.43-76.9 0 1-.24-.39l.04-4.59a.43.43-76.4 0 1 .63-.38l23.63 12.03a.43.43-78.5 0 1 .24.36l.16 4.64a.43.43-12.7 0 1-.24.4l-23.84 11.94a.43.43 76.5 0 1-.62-.38l-.09-4.38" vector-effect="non-scaling-stroke"/><path stroke="#5a9f40" d="M287.59 172.03q-1.87 1.27-.19 2.07a.87.63-67.9 0 0 .95-.6l.9-2.54a.7.55 4.7 0 0-.77-.72q-.94.08-.71 1.01a.83.52 71.1 0 1-.18.78" vector-effect="non-scaling-stroke"/><path stroke="#9fd08c" d="M145.236 203.946a11.61 7.93 91.4 0 0 8.212-11.412 11.61 7.93 91.4 0 0-7.644-11.8 11.61 7.93 91.4 0 0-8.212 11.412 11.61 7.93 91.4 0 0 7.644 11.8" vector-effect="non-scaling-stroke"/></g><path fill="#020101" fill-opacity=".031" d="m383.87 246.19.29-1.41q.3-1.46.29-.03l-.04 2.55q-.01 1.13-.48.23l-.14-.27q-.16-.32-.17.05l-.19 6a.19.13-81.9 0 1-.18.19l-.19-.06a.21.08-87.9 0 1-.06-.19l.01-13.75q0-1.21-.32-.08-.43 1.5-.77.85-.24-.45-.25.04l-.18 12.5a.71.49-89.4 0 1-.49.7l-1-.01a.55.45 90 0 0-.45.55c.02 1.52.25 11.8-.32 12.08a.17.15 78.8 0 1-.21-.16c-.01-1.13.14-12.54-.29-12.47a.28.19 88.1 0 0-.16.25l-.09 3q-.03 1.17-.45-.02l-.12-.34q-.22-.65-.24.11l-.16 6.94a.51.08-89.2 0 1-.08.49l-.18.07a.25.17 81.1 0 1-.23-.25q-.35-5.29-.48-.31 0 .35-.22.16-.43-.4-.46.36-.28 6.53-.4 13.1-.02.94-.4.62c-.05-.04-.14-9.21-.2-10.19q-.03-.56-.18-.03c-.03.1-.24 5.34-.8 3.08q-.1-.45-.15.01c-.11 1.05-.21 9.4-.45 9.43a.25.22 86.1 0 1-.25-.25q-.07-13.69-.51-3.71-.03.57-.19.88-.36.69-.54-1.1-.04-.4-.06.01l-.38 8.7q-.03.54-.1 0-.53-3.9-.17-7.83a.53.42-66.4 0 0-.09-.35c-.95-1.2.06 7.02-1.12 2.07q-.16-.67-.19-.09l-.14 2.95a1.02.19-88.8 0 1-.16.76c-.75.84-.21-1.54-.36-1.75q-.3-.44-.34.3l-.14 2.67q-.06 1.12-.52.75l-.3-.24q-.05-.05-.06.56l-.18 9.19q-.03 1.46-.28.01c-.32-1.84.09-3.72-.22-5.43q-.34-1.88-.65-.66-.08.32-.23.03-.54-1.08-.57.37-.08 3.84.04 7.7a.46.2 85 0 1-.14.41l-.18.07a.24.19 82.6 0 1-.25-.25v-7.5a.26.25 90 0 0-.25-.26c-.05-.01-.24 3.39-.39 3.86q-.11.37-.22-.01-.44-1.42-.43.91.01 3.26-.17 6.52a.67.36-84.3 0 1-.46.69q-.28-.08-.26-.95.28-11.99-.45-3.67-.1 1.09-.33.1l-.15-.64q-.04-.18-.07-.01c-.15.81-.05 2.28-.31 2.97q-.37 1-.62-.29-.06-.29-.2.04-.27.65-.21 1.5a.91.1 86.3 0 1-.04.96l-.45-.17a.28.08 19 0 0-.32-.02c-.04.75-.19 7.75-.24 7.78a.51.3 82.7 0 1-.43-.56v-6.75q.01-1.56-.42.03-.28 1.06-.09 2.17a.47.15 79.2 0 1-.06.48l-.29.1a.78.34-15.6 0 0-.52.42q-.16 1.07-.64.08-.33-.7-.42-.09l-.14 1.06a.75.2-82.3 0 1-.29.69q-.16 0-.21-.44-.12-1.23-.23-.01l-.22 2.51a.99.24-86.4 0 1-.26.85l-.7.3a.26.24 77.3 0 1-.34-.23c-.13-2.37-.6-2.02-.53-.52q.14 2.98-.34 5.91-.08.51-.11-.01c-.61-10.43.05.33-1.24-1.82q-.21-.37-.28.03c-.11.61.07 4.43-.44 4.19a.53.39-81 0 1-.23-.45V312a.3.24-16.3 0 0-.43-.18q-.43.21-.14.5a.9.48-79.6 0 1 .19.6q-.1 4.23-.75-.46-.15-1.11-.18.04l-.08 2.93q-.04 1.2-.44.14l-.41-1.09q-.05-.12-.04 0 .03 1.43-.85 2.4a1.44 1.33 69.3 0 0-.34.84l-.26 3.79q-.06.88-.1 0-.4-7.81-.65-2.19a.73.34-86.2 0 1-.41.75q-.17-.03-.28-.43-.09-.33-.1.02-.17 4.02-.93.84-.1-.44-.16.02l-.38 2.92q-.04.36-.08 0-.7-6.57-.46-.11.01.4-.26.64-.47.43-.46-.2.04-1.33-.48-.36a.6.06-61.6 0 1-.35.51l-.17-.16q-.42-.39-.43-.08l-.11 3.32a1.02.13-88.6 0 1-.14.93c-.52.28-.29-3.04-.42-3.68q-.09-.44-.16.03-.12.83-.55.71a.4.31 11.9 0 0-.49.23c-.08.58-.13 4.66-.25 4.78q-.43.43-.43-.24c-.02-10.09-.1.08-1.15-1.93q-.23-.45-.22.06.08 3.47-.67.61-.26-.95-.36.06l-.25 2.62q-.11 1.15-.2.16-.48-5.65-.5-.23c0 .44-.45 2-.79.32q-.11-.51-.28.01-.29.91-.63.08-.23-.56-.29-.03l-.24 2q-.14 1.26-.29.04c-.68-5.5-1.09 2.62-1.22-.58q-.02-.45-.17-.03-.42 1.18-.18 2.39a.85.64 65 0 1-.14.66c-.69.79-.37-.62-.4-.9-.49-4.27-.07 2.11-1.09.8q-.38-.47-.36.05.12 3.54-.59.59-.41-1.7-.4.05.01 1.24-.33 2.44-.17.6-.19-.02-.08-2.58-.3-2.38c-.2.18-.09 2.39-.33 2.99q-.46 1.16-.46-.07-.02-3.33-.53-.26-.13.81-.25.51l-.21-.51q-.29-.71-.35.05l-.19 2.19q-.09 1.07-.31.04l-.3-1.39q-.1-.48-.16.01-.23 1.98-.68.82-.17-.43-.28.02c-.08.34-.1 2.93-.34 2.97a.39.31 85.5 0 1-.36-.39c-.09-5.27-.11 1.64-1.11-.17q-.27-.48-.31.08l-.18 2q-.08.88-.26-.01l-.31-1.47q-.07-.31-.14 0-.24 1.05-.68.18-.37-.73-.41.12l-.14 2.69a1.05.16-87.5 0 1-.18.93c-.5.28-.29-6-1.08-.84a.97.94-10.4 0 1-.5.7q-.68.36-.8-.24-.06-.26-.12-.01l-.12.52a.74.56 5.3 0 1-.69.43l-1.75.01a.67.57 89.5 0 0-.57.68q.03 1.25-.26 2.39-.3 1.18-.43-.05-.34-2.99-.47-.07-.03.64-.29.31l-.2-.25q-.39-.49-.43-.02l-.16 2q-.08.99-.31.05-.21-.88-.21-1.76.01-.61-.24-.11-.29.57-.68.1-.33-.39-.34-.17-.28 3.91-.72.66-.11-.79-.27.02l-.2.94a.37.37 14.2 0 1-.47.28c-.42-.13-.81 5.44-1.04.66a.36.32 82 0 0-.4-.34q-.3.08-.16.37a.96.42 53.3 0 1 .13.56q-.33 2.25-.65-.45-.13-1.08-.22.01l-.25 3.19q-.07.87-.28.03-.21-.87-.21-1.75 0-.53-.25-.1-.48.79-.83.2a.27.06-15.5 0 0-.26.01l-.87.2a.75.11-87 0 0-.14.7q-.11 1.6-.55.2-.19-.61-.29-.04l-.44 2.55q-.07.43-.11 0-.37-3.78-.63-1.17a.61.33-78.8 0 1-.51.61q-.15-.09-.25-.37-.08-.25-.08.01 0 2.17-.81.84-.62-1.04-.34.01.16.64-.59.36a.35.02 19.4 0 0-.34-.1q-.02.83-.2 1.59-.25 1.02-.28 0c0-.28-.6-2.91-.63-.65q-.04 2.3-.63-.18-.12-.49-.18.02c-.07.56.02 3.47-.42 3.51a.27.23-2.3 0 1-.29-.23v-2q0-.69-.32-.1-.48.89-.69.13-.34-1.19-.34-.05-.02 3.97-.62.5-.2-1.14-.33-.04-.26 2.28-.76.53-.18-.61-.24.02l-.25 2.76q-.07.73-.29-.01-.26-.84-.25-1.72.01-.58-.23-.12-.48.89-.69.13-.12-.45-.21.01l-.35 1.78q-.13.67-.25-.02-.51-2.88-.64-.5a.59.27-82.9 0 1-.39.64q-.18-.1-.27-.64-.07-.39-.14 0l-.43 2.49q-.09.52-.12-.02-.16-3.38-.56-1.1-.53 3.06-.69-.63-.02-.59-.19-.03c-.02.04-.21 3.82-.85 1.64q-.11-.39-.26-.03-.54 1.3-.73-.42-.04-.39-.1 0-.72 4.84-.87.8-.02-.62-.27-.08-.27.59-.67.38a.37.03 27.8 0 0-.35-.15q-.27 3.7-.7.36-.1-.81-.22 0-.34 2.16-.76.49-.23-.89-.3-.01l-.2 2.51q-.06.71-.2.57-.29-.26-.3-1.99 0-.6-.39-.14-.81.96-.76-1.19.01-.52-.08-.01-.26 1.41-.12 2.83a.59.22 85.9 0 1-.18.62l-.38.01a.39.12-85.5 0 1-.09-.42q.34-3.36-.43-1.47-.08.2-.07.44.09 2.34-.58.26-.09-.28-.13 0l-.4 2.77q-.13.88-.23 0l-.21-1.76q-.05-.47-.24-.12-.48.89-.69.13-.3-1.02-.36-.1l-.12 1.81q-.05.8-.5.24c-.18-.23.32-2.23-.34-1.92a.42.37 56.2 0 0-.09.63q.27.32-.27.61a.24.14-22.5 0 1-.32-.04q-.15-1.92-.43.45-.13 1.04-.35.56l-.24-.5q-.37-.8-.41-.71-.09.22-.08.44a.38.17-89.4 0 1-.2.43q-.38-.13-.4-.63-.01-.46-.13-.03-.13.51-.22 1.42-.31 3.33-.67-.97-.06-.69-.25-.04-.41 1.4-.61.07-.15-.96-.27 0l-.2 1.51a1.08.15-83.5 0 1-.24.93c-.28.15-.54-2.87-.61-1.51q-.12 2.2-.73.67-.15-.38-.2.02-.2 1.47-.8.3-.19-.37-.34.02-.34.92-.61.07-.25-.76-.33-.04c-.98 7.87.3-4.96-1.4 1.34q-.1.38-.13-.03c-.29-3.86-.34 5.36-1.31-.57q-.05-.32-.23-.02l-1.07 1.78q-.26.44-.32.01-.47-3.59-.68-.57a.26.16-82 0 1-.22.26q-.47-.17-.44-.88.02-.41-.11-.01-.39 1.2-.2 2.46a.5.35 87.8 0 1-.38.59c-.52-.1.1-2.02-.22-2.5q-.74-1.1-.4.09.24.81-.57.37a.19.13 20 0 0-.27.07q-.1 3.85-1 .43-.11-.39-.07.01.16 1.63-.44 1.04c-.07-.07-.77-3.22-.76.42a.48.45 89.4 0 1-.45.49h-8.75a.64.47-82.9 0 0-.49.52l-.35 1.82q-.14.71-.22-.04c-.52-4.58-.92 1.78-1.3-.8q-.04-.24-.08 0-.1.62-.43 1.09-.6.88-.41-.08.29-1.49-.65-.72-.22.18-.25-.15c-.34-4.23-.43 8.74-1.12-.58a.35.22 89.9 0 0-.2-.31q-.68-.09-.32.31a.47.24 39.4 0 1 .14.32q-.52 3.27-.51-.64c0-.97-.44-.08-.45.07q-.08 5.49-.8.33-.09-.65-.2.05l-.36 2.33a.61.28 16.4 0 1-.7.1q-.97-.32-.5-1.62a.36.27 14.5 0 0-.31-.38q-.54-.11-.32.32.14.29.13.6-.08 1.6-.53.2-.27-.82-.36-.06l-.23 1.81q-.16 1.35-.36-.02l-.14-.94q-.07-.53-.26-.12-.27.6-.67.39a.26.04 26.8 0 0-.27-.09c-.56 4.61-.39-.82-1.29-.06a.26.25 58.2 0 1-.39-.1l-.12-.27q-.2-.43-.23-.08-.44 4.65-.76.3-.04-.58-.27-.09-.27.6-.66.39a.34.05 28.2 0 0-.34-.12l-.16 2.02q-.04.42-.64-.03-.79-.58-1.02-1.45-.07-.27-.1-.02-.38 2.94-.77.04-.2-1.46-.42-.02l-.14.83q-.24 1.56-.4-.05-.24-2.39-.39-.31a.95.03-86.4 0 1-.09.94q-.95.11-.49-1.37a.4.36-77.7 0 0-.29-.51q-.69-.08-.34.31a.47.16 43.7 0 1 .18.35l-.26 1.02a.55.21 7 0 1-.54.13q-1.01-.1-1-1.55.01-.67-.17-.04l-.33 1.15q-.08.28-.13 0c-.88-5.08-.01 2.07-1.12.32-.14-.23-.03-3.06-.74-.83q-.11.34-.22.01-.5-1.62-.65.62-.03.48-.16.03-.87-2.97-.64-.2a.31.26-83.4 0 1-.35.33q-.43-.18-.44-.85-.01-.35-.06-.01l-.4 2.68q-.12.81-.23.02l-.24-1.77q-.03-.24-.16-.05-.18.26-.37.26a.76.74-85.3 0 0-.72.63q-.53 3.06-.7-.56-.03-.57-.4-.18-.38.41-.57-.06-.3-.77-.35-.11-.31 4.32-.72.11-.03-.38-.24-.08-.49.71-.81-.21-.16-.46-.22.03l-.22 1.99q-.13 1.17-.29 0l-.23-1.71q-.07-.47-.24-.11-.29.57-.68.1-.34-.4-.36-.13-.21 4.04-.68.06-.04-.38-.28-.03-.52.77-.8-.21-.13-.48-.21.01c-.06.33.01 2.46-.28 2.5a.46.34 86.9 0 1-.39-.47v-1.75q0-.71-.32-.08-.29.57-.68.1-.34-.4-.35-.13-.28 4.09-.68.05-.04-.38-.34-.03-.79.94-.74-.86.02-.76-.1-.02l-.43 2.67q-.08.48-.16.01l-.36-2q-.06-.35-.2.09-.3.93-.64-.04-.25-.72-.33-.01l-.23 1.99q-.09.72-.29-.01-.24-.82-.24-1.67 0-.43-.31-.13-.8.78-.71-.87.03-.51-.1-.03c-.1.36-.18 3.6-.64 2.98a.93.65-71.3 0 1-.15-.51v-1.5q0-.72-.32-.08-.29.57-.69.1a.25.12 44.2 0 0-.31-.1q-.24.59-.72.38a1.03.17 22.7 0 1-.78-.49q-.58-3.16-.57-.2.01 1.1-.32.59-.5-.76-.27-1.7a.4.26-84.1 0 0-.26-.5q-.56.1-.35.57a.62.18 61.4 0 1 .1.46q-.34.97-.66-.34-.09-.33-.14.03-.47 3.16-.73-.24-.1-1.34-.46.14-.44 1.77-.67-.6-.05-.45-.13.41-.32 3.58-.91.05-.09-.5-.2 0l-.29 1.19q-.09.34-.16-.01c-.62-3.08-.4.27-.7.47q-.43.31-.43-.38c0-4.2-1.46 1.61-1.03-1.08a.36.12-80.7 0 0-.06-.36q-.62-.17-.26.26a.36.01-84.9 0 1-.02.35q-.24 2.68-.74-.16a.54.29 77.6 0 0-.43-.51q-.41.16.09.44a.47.17-52.4 0 1-.16.5q-.61.75-.4-.69a.25.22 1.6 0 0-.27-.25q-.38.03-.06.31a.47.08-81.8 0 1 .01.4c-.56 3.97-.3-1.78-1.39-.7q-.17.18-.22-.06c-.51-2.45-.52 6.43-1.17-.16q-.05-.49-.26-.12-.62 1.07-.76-.13a.32.26-22.8 0 0-.47-.14q-.98.67-1.36.36a.43.3-43.6 0 0-.48.07q-.6.5-.56-.33.03-.61-.41-.01-.6.8-.62-.49-.01-.54-.23.03l-.25.62q-.29.76-.51-.15-.31-1.31-.64-.22-.14.48-.21.14-.58-2.85-.53-.05c.03 2.03-.83-1.63-1.03-1.49a.38.35 49.9 0 0-.03.56q.29.28-.13.49a.29.25-16.4 0 1-.41-.18q-.15-2.87-.39-.06-.01.02-.21.25-.67.75-.37-.69.15-.72-.48-.34-.57.35-.7-.15-.05-.18-.08.01-.09.6-.41 1.07-.61.89-.42-.08.3-1.5-.66-.72-.27.22-.31-.04l-.06-.44q-.04-.26-.21.35-.73 2.66-.7-.45 0-.55-.45.06-.61.81-.59-.77a.5.49 90 0 0-.49-.5h-6.75a.63.5-3 0 1-.61-.43q-.45-3.43-.5-.5a.69.26 88.5 0 1-.21.61l-.18.07a.22.19 84.7 0 1-.25-.24q.13-1.24-.69-.73a.22.13-24.6 0 1-.3-.03q-.23-2.38-.52.28-.14 1.34-.25.71l-.31-1.72a.62.09 30.8 0 0-.43-.35l-.52-.33a.32.06 30.4 0 0-.32-.11q-.41 1.38-.85-.23-.11-.4-.18.02-.22 1.28-.67-.5-.11-.47-.2-.05-.53 2.66-.79-.22-.11-1.19-.27-.08-.29 1.94-.74.26-.09-.36-.18.04-.64 2.8-.78-.5-.04-.89-.39-.03l-.3.72q-.14.35-.18-.01c-.47-3.77-.32 1.2-.89.91a.54.51 21.5 0 1-.29-.61q.52-1.74-.96-1.76a.57.29-58.3 0 0-.38.23q-.21.26-1.14.28a.39.2-1.8 0 1-.39-.19q-.11-2.73-.55-.35-.32 1.71-.42.42l-.13-1.57a.32.29-17.6 0 0-.46-.21q-.46.25-.62-.26-.14-.46-.2-.13-.56 3.02-.73-.17-.01-.18-.31.09-.59.54-.65-.33-.05-.86-.32.02c-.79 2.5-.53-1.25-.95-1.29a.3.2 89.2 0 0-.21.32q.1 1.35-.59-.03-.28-.56-.34-.2l-.18 1.23q-.1.67-.45.19c-.14-.19.46-2.34-.55-1.6a.26.25 67.6 0 1-.39-.17q-.16-.88-.91 1.02-.14.34-.14-.02-.03-3.24-.65-1.31-.12.34-.17.01-.48-3.19-.53-.1-.01.85-.26.67-.67-.49-.35-1.49a.47.47 9.7 0 0-.44-.61l-1.16-.03a.44.43 85.9 0 1-.41-.37l-.07-.42a.51.22-26.9 0 0-.62.04q-.36.22-.5-.68-.06-.36-.1.01-.3 3.01-.84-.24-.15-.88-.45-.28-.26.5-.42.09-.2-.51-.3-.1-.59 2.52-.75-.17a.2.13-20.6 0 0-.27-.06q-.69.35-.67-.43.02-.76-.32.08-.67 1.65-.73-.58a.95.61-85.3 0 0-.43-.81q-.36-.14-.77-.04a.46.38 69.4 0 0-.21.62q.34.76-.14 1.21-.42.39-.36-.23.31-3.21-.56-2.1-.23.3-.32-.07-.62-2.64-.55-.1a1.08.69 72.3 0 1-.16.61c-.82 1.12.1-2.71-1.02-1.88a.52.01 29.6 0 1-.45-.25q-.52-.3-.52.56a.75.11-89.5 0 1-.12.79q-.73-.26-.29-1.56.26-.75-.43-.1l-.21.2q-.24.22-.29-.11-.46-3.2-.46-.38c0 .53-.5 1.73-.7.16-.08-.57.44-2.23-.81-1.15a.63.48 48.7 0 1-.77-.15l-1.46-1.66q-.23-.25-.27-.11-.56 1.95-.71-.23a.37.27-11.3 0 0-.45-.21q-.39.1-.52-.25-.25-.71-.29-.52l-.06.31-.12.58q-.91.1-.47-1.36a.5.35 4.4 0 0-.54-.44q-.39.02-.53-.29-.16-.32-.32-.04-.58.94-.81-.28-.05-.24-.27.05-.62.81-.58-.77.03-1.31-.23-.02-.58 2.76-.83-.48a.45.34-5.7 0 0-.5-.3q-.43.06-.56-.42a.16.05-36.7 0 0-.18.06q-1.1.93-.65-1.35a.69.17 5.9 0 0-.68-.24q-.78-.08-1.43-.57a1.15.33 40.5 0 0-.78-.36q-.27.03-.33-.6-.01-.16-.13.04-.25.4-.14.93a.55.33 70.8 0 1-.1.48c-1.06.88.33-2.95-1.11-1.92q-.26.18-.27-.13c-.02-.94-.4-.49-.43-.06q-.26 4.56-.76-.47-.09-.93-.46-.43l-.12.15q-.29.4-.27-.09c.06-2.29-.75-1.64-.55-.46q.39 2.36-.49.54a.81.42 53.3 0 1-.09-.56q.81-2.37-1.37-1.97a.57.45 82.1 0 1-.54-.51q-.2-1.55-.62-.6-.15.33-.21-.02-.51-3.01-.5-.35a.83.15-89.3 0 1-.17.88q-.93-.34-.45-1.67.24-.65-.61-.32-.59.22-.39-.44.08-.26-.35.1-1.1.93-.65-1.35a.7.04 20.8 0 0-.63-.28l-.43-.16a.43.14 25.8 0 0-.34-.05q-1.11.52-.59-1.54.13-.5-.37.37-.78 1.37-.69-.33a.4.27-8.6 0 0-.49-.24l-.19.05a.2.13-7.2 0 1-.25-.12q.16-.99-.53-1.04a.6.42 1.4 0 1-.54-.4l-.05-.7q-.08-1.23-.35.64-.51 3.49-.61-.94-.02-.86-.48-.16l-.15.22q-.13.19-.17-.02c-.64-3.77-.66.19-.69.24-.76 1.4-.17-2.16-.99-2.86a.97.25 37.8 0 1-.52-.67q.16-1.2-.54-.32-.55.7-.46-.16.14-1.26-.68-.74a.17.16-18.9 0 1-.25-.12c-.44-3.02-.32 1.07-.76 1a.42.36-86.1 0 1-.3-.41v-2.25a.79.27 2.7 0 0-.76-.3q-.36-.02-.35-.67 0-.53-.23-.07-.27.54-.18 1.13a.51.31 87.9 0 1-.34.61q-.33-.08-.15-.95.24-1.2-.66-2.86a.51.36 63.5 0 0-.52-.28q-1.13.44-.79-.61.27-.81-.45-.43l-.25.13a.44.13 87.9 0 1-.16-.49q0-1.26-.71-.55-.71.7-.47-.15.25-.91-.53-.88a.4.07-3.1 0 1-.4-.05q-.19-2-.51-.13a.6.05-79.9 0 0-.05.56q.4.36-.05.68-.8.57-.51-.47.6-2.11-.96-3.09a.23.17 24.5 0 0-.33.07q-.47 3.63-.69-.95a.58.5-3.7 0 0-.61-.46q-.66.05-.47-1.17.04-.24-.23-.12-1.09.48-.58-1.49a.46.3.5 0 0-.52-.34c-.8.06-.72-4.24-1.08-.37q-.04.5-.24.06-.39-.87-.32-1.82.03-.41-.22-.11-.71.84-.69-.43a.68.41 11.1 0 0-.53-.48q-.78-.19-.43-1.26a.81.28 24.1 0 0-.61-.57q-.66-.31-.58-1.42 0-.05-.14.07-1.1.93-.65-1.35a.48.29-3.8 0 0-.57-.29q-.49.07-.63-.46-.17-.63-.24 0l-.19 1.8q-.07.63-.3.4c-.26-.28-.08-3.29-.22-4.31a.67.47 2.6 0 0-.56-.43q-.5-.06-.47-.85.01-.41-.33-.18-.96.62-.62-1.63a.35.31-1.2 0 0-.4-.34q-.75.1-.66-.93.03-.32-.07-.01c-.93 2.82-.78-.99-.89-1.26q-.54-1.31-.65-.31-.04.36-.1.01l-.25-1.61q-.07-.42-.34-.1-.97 1.13-.62-1.47a.39.33-7.1 0 0-.52-.34q-.6.21-.41-.68.34-1.63-.12-1.15-.53.54-.13 1.45a2.41.96-69.6 0 1 .03 1.37q-.14.69-.34.87-.45.42-.45-.55v-3.74a.87.56 19 0 0-.49-.62q-.71-.35-.46-1.38.29-1.13-.41-.03-1.02 1.61-.62-1.83a.69.27-84 0 0-.2-.74l-.38-.01q-.65 0-.01.42.62.41-.18.45a.25.24 88.9 0 1-.25-.25q.05-4.07-.45-.7-.04.25.07.77.09.41-.34.32a.42.34-86 0 1-.28-.4v-4.25a.57.31-11.8 0 0-.69-.21q-.5.14-.5-.71 0-.47-.25.05-.96 1.94-.5-2.17.1-.84-.62-.29-.3.24-.46-.16a.94.18 69.6 0 0-.47-.77l-.26.01a.25.24 88.9 0 1-.25-.25v-3a.96.45 21.3 0 0-.59-.62q-.69-.33-.57-1.58.04-.41-.19-.06-1.09 1.6-.6-1.97a.52.19-79.8 0 0-.08-.49q-.92-.48-.44.44a.24.22 69.5 0 1-.14.34c-1.03.2.33-4.87-.99-2.05q-.37.8-.39-.01l-.07-3.25q-.03-.93-.37-.7l-.32.21q-.2.14-.21-.31-.09-3.53-.46-.63.33.6-.06.79a.42.34 77.9 0 1-.5-.4c0-.17.29-5.42-.72-4.51q-.24.21-.24-.2l-.03-2.26q-.01-.43-.25.16-1.16 2.86-.78-2.52.05-.6-.43-.31l-.32.19q-.21.12-.21-.38-.03-5.74-.43-2.05-.05.5-.36.37a.51.39-82 0 1-.25-.45v-4q0-1.14-.43-.7l-.26.26q-.78.8-.35-.04.52-1.02-.42-1.57a1.01.63 21.3 0 1-.52-.7l-.07-4.5a.53.34.3 0 0-.52-.33q-.75-.01-.15-2.19.21-.76-.36-.21c-1.57 1.5-.93-5.28-.95-6.02q-.02-1.09-.41-.69l-.25.25q-.25.26-.25-.06l-.05-5.25q0-.26-.26.01l-.24.24q-.49.49-.5-.25l-.05-7.5a.38.37-11.8 0 0-.53-.33l-.18.08a.45.19 85.7 0 1-.25-.49l-.15-9.04q0-.16-.01.01-.03.67-.42 1.14-.36.44-.37-.15-.1-10.76-.05-21.46.01-2.81.73-1.02.17.42.19-.04c.11-3.25-.22-10.13.54-10.32a.67.29-11.3 0 0 .54-.38V177a.82.46 82.6 0 1 .26-.65q.33-.19.38.35c.48 5.42.02-3.99.8-4.23A.74.38-12.5 0 0 29 172v-7a.62.31-84.5 0 1 .43-.69q.46.23.11.5a.99.23 79.6 0 0-.04.89c.63 3.89.14-3.4.99-3.22a.42.28 9.2 0 0 .51-.23v-3.5a.62.4-6 0 1 .53-.43c1.18-.19-.25-1.88.97-1.93a.52.38-1.5 0 0 .5-.39l-.01-3.25q0-1.11.59 0c1.59 2.98-.65-4.83.92-4.31a.36.3 11.5 0 0 .46-.25c.03-.45-.12-3.79.33-3.83a.51.18 82.1 0 1 .25.47q.56 4.35.45-1.85a.91.67-33.3 0 1 .18-.49c.6-.77.29 1.42.38 1.61q.48 1.04.47-.09l-.04-5.27q0-.72.55-.06.29.36.11.84a1.68.72-58.2 0 0-.14.93c.91 4.01-.13-2.92 1.15-2.03q.29.2.31-.12c.01-.28-.17-4.48.51-3.94l.06.46q.52 3.81.45-1.09-.01-.69.39.03l.24.44q.37.67.3-.18-.12-1.74.38-3.29.21-.67.29.09.41 3.81.42-1.08 0-.96.45.03.97 2.13.55-2.49a.54.47-7.4 0 1 .46-.52c1.16-.21.02-2.98 1.12-2.36q.34.19.34-.17-.03-1.17.82-2.41a.86.24-60.7 0 1 .41-.41q.69-.22.44.42a.56.23-65.5 0 0-.02.54c.6.47.42-3.19.68-3.71q.25-.49.32.16.43 3.81.43-1.09 0-.9.42 0l.18.4q.19.41.25-.03c.09-.64.09-5.74.41-5.71a.74.4-86 0 1 .35.76c0 .07.08 6.26.48 1.68q.08-.96.48-.42l.11.15q.27.36.28-.09c.01-.31-.21-6.74.54-6.1a.48.03 87.5 0 1 .05.44l.14 3.5q.04 1.1.27-.09.09-.5.07-1.02-.05-1.14.29-.9l.37.26q.31.21.31-.31V107a.65.49 86.5 0 1 .41-.62c.17-.02.16 5.99.79.4q.12-1.05.25.07.48 4.29.59-2.12a.36.32 82.5 0 1 .23-.34c.5-.17.51 4.61.83.35q.05-.73.34-.43l.24.25q.26.27.28-.15.08-1.74.03-3.44c-.01-.67.74-1.03.64-.08-.07.72-.25 1.1-.06 1.81q.66 2.42.42-1.59a.69.57 78.6 0 1 .35-.65c.59-.25-.12 1.28.21 1.74q.42.61.37-.22-.1-1.72.34-3.29.21-.72.26.13.25 3.81.54-.07.06-.88.51-.33l.11.14q.32.39.32-.06v-3a.51.48-.6 0 1 .5-.48l1.7-.07a.78.53-.5 0 0 .74-.51q.18-3.42.45-1.17.33 2.83.71-2.78.06-.95.22-.01.67 4.04.72.38a.37.23 88.5 0 1 .21-.36q.8-.08.18.44a.31.27 32.8 0 0 .14.49l.18.07A.46.2-86.8 0 0 67 91v-2a.81.55 80.4 0 1 .3-.65c.51-.3.38 4.24.85.36a.27.25 12.6 0 1 .34-.2q.96.26.53-1.39a.81.54 63.8 0 1 .09-.67c.95-1.11.39 5.66 1.11-.65q.03-.26.36.2.92 1.28.32-3.03a.53.51 73.7 0 1 .28-.54l.25-.12q.24-.13.15.53-.2 1.47.15 2.87.09.33.07.04-.06-1.22.69-1.27a.54.39-7.1 0 0 .52-.48q-.2-.94.27-1.7.22-.36.27.5.21 3.24.49-.25a.41.16 15.1 0 1 .46-.05q.94.28.52-1.38a.83.55 64.6 0 1 .1-.67c.95-1.12.35 5.3 1.09-.67q.04-.3.17-.01l.25.55q.36.78.26-.12-.16-1.37.38-1.53a.31.18 83.8 0 1 .23.32q.16 2.6.5-.24a.41.33 12.4 0 1 .51-.25q.94.27.5-1.38a.73.58 63.8 0 1 .14-.64c.89-.91.32 4.53 1 .25a.31.27 11 0 1 .37-.22q.96.24.46-1.48a.48.44 61.2 0 1 .12-.48c.84-.74.38 4.15.93.29a.4.22-86.1 0 1 .22-.34q.8-.08.18.44a.31.27 32.8 0 0 .14.49l.18.07a.45.21-89.1 0 0 .25-.51q-.09-1.3.09-2.41.29-1.74.39.19.15 2.84.55.19a.7.34-86.6 0 1 .31-.55c1.06-.31-.79 1.41.42 1a.39.36 78.7 0 0 .25-.4q-.11-1.34.09-2.46.28-1.59.38.22.15 2.84.54.19a.64.17-79.6 0 1 .31-.66l.36.26q.24.17.27-.2c.02-.5-.13-3.97.36-4.01a.48.11 86.3 0 1 .14.47l.15 2.49q.03.56.3-.09.78-1.81.53-.12a.42.38 25.7 0 0 .15.36c.52.44.68-6.23 1.14-1.25q.04.4.18.02l.19-.49q.19-.52.32.05c.6 2.7.58-7.98 1.05-1.93q.13 1.7.79-.09.09-.23.07.01-.03.49.33.54a.46.43 83.7 0 0 .45-.6q-1.05-3.17 2.08-2.41a.66.5 3.6 0 0 .82-.55q-.13-.64.43-.47a.49.17 15.9 0 0 .56-.03V61a.86.58 73.8 0 1 .17-.52c.75-.83.43 4.74.98.26a.54.01-19.8 0 1 .5-.19q.69-.25.3-1.55a.63.44-35 0 1 .19-.52c.87-.88.44 5.11 1.05.34q.07-.58.19.15.66 3.98.63-1.99a.77.43 83.7 0 1 .27-.64c.5-.24.21 2.02.32 2.44q.17.62.35 0 .18-.63.03-1.33a.79.48 63.9 0 1 .04-.45q.27-.56.37.31c.38 3.53.31-1.3 1.18-.89a.32.32-78.6 0 0 .45-.3q-.02-.77.32-.74.6.06.09.56-.29.28.13.49.39.19.35-.22-.08-.86.31-1.57.23-.43.28.06c.39 4.54.23-1.37 1.07-.25a.29.19 56.5 0 1 0 .37q-.51.26-.01.62.4.27.41-.37c.02-.82-.16-4.06.17-4.57.46-.69.47 3.51.53 3.73q.13.52.2-.02.45-3.31.61-.79.15 2.37.8-2.39.11-.8.18 0c.44 5.37.27-.26 1.06.35a.3.23 46 0 1 .05.44q-.51.27-.01.61a.28.26-72.7 0 0 .4-.23l.24-3.41q.07-.96.17 0l.36 3.17q.05.4.14.02l.25-1.02q.17-.69.29 0 .68 3.84.59-1.72a.69.46 89.8 0 1 .47-.7c.42.01-.07 1.18 0 1.69q.39 3.18.71-.54.04-.38.14-.02.6 2.03.64-.63a.64.37 83.4 0 1 .23-.53c.59-.27.68 4.09.85.31a.35.24 88.6 0 1 .21-.32q.68-.09.32.31a.5.36-35.6 0 0-.13.38c1.04 4.77.1-3.08.9-2.8a.63.33-80.7 0 1 .2.61q-.12 1.03.1 1.9.23.86.32.05.32-2.96.76-.66.08.42.15-.01c.16-1.02.01-4.47.25-4.72q.37-.38.41.35l.19 3.31q.05.95.17-.01.39-3.32.86-.8.45 2.48.23-1.37a.68.48 74.5 0 1 .2-.55c.76-.56.41 5.72.87.34a.34.28-85.2 0 1 .3-.31q.22.02.1.3a1.02.49-53.9 0 0-.09.5c.58 3.97.65-2.48.76-2.66q.51-.75.43.11-.12 1.28.09 2.53.15.84.2-.1.05-.84.62-.73a.47.26 8 0 0 .54-.21V43a.83.5 81.8 0 1 .28-.66c.48-.26.38 1.68.45 1.92q.39 1.23.29.04-.24-3.06.81-1.16.17.31.18.16.56-5.56.66.04 0 .41.3-.16.92-1.73.78.69-.03.51.06 0 .39-2.06.09-4.1-.13-.83.12-1.04.39-.34.45.48l.26 3.75q.06.8.13-.01.38-4.41.65-1 .06.75.48.29c.14-.15-.26-1.95.34-1.86a.55.38-85.1 0 1 .32.56q-.17 2.72.63-.17.12-.43.23.01.47 2 .75-2.08.03-.41.08 0 .51 3.84.77-.16.03-.33.09 0 .69 3.8.74-.38 0-.2.04-.36.33-1.46.52.15.39 3.41.56-.26.07-1.43.37.26.61 3.46.58-.95a.63.43 88.6 0 1 .4-.62c.48-.04-.15 5.78.77 1.23q.22-1.06.31-.19.26 2.62.58-.43a.54.09-84.5 0 1 .13-.48c.58-.27.67 4.08.84.31a.35.24 88.6 0 1 .21-.32q.68-.09.32.31a.51.33-38.3 0 0-.13.38c.95 4.8.16-3.05.9-2.8a.63.33-80.7 0 1 .2.61q-.12 1.03.1 1.9.23.88.32.04.3-2.93.78-.67.08.37.11.01l.33-3.3q.14-1.48.26.07l.24 3.26q.03.41.16-.11l.36-1.46q.19-.76.24.05.29 4.33.73-1.81.12-1.61.26.08l.24 2.86q.07.78.22.05.23-1.07.13-2.14a.4.37 79.6 0 1 .25-.4q.56-.18.29.29a.84.61-41.8 0 0-.11.5c.81 4.71.15-2.75 1.04-1.82a.72.48-67.8 0 1 .12.59q-.2 1.04.1 2.01.18.55.19-.03.09-4.11.85-1.16.51 1.99.3-1.81a.47.45 88.2 0 1 .45-.5h12a.5.47-1.1 0 0 .5-.49q-.05-.8.56-.6a.3.23 9.6 0 0 .39-.21q-.07-1.64.21-3.23.2-1.08.28.08l.23 3.26q.03.53.26-.08.6-1.68.53-.41a.86.55-77.7 0 0 .26.7c.56.36.13-2.92.42-3.55q.27-.55.3-.03l.22 3.37q.04.61.2-.1l.32-1.45q.11-.46.32.14.78 2.18.46-1.91-.1-1.18.47-.2.13.22.14.64.09 4.15.66.17.1-.71.13-.35.39 4.13.58-.12a.95.95-24.2 0 1 .2-.52c.75-.91.41 8.12.93 1.04a.4.34 86.4 0 1 .26-.35c.33-.07.24 4.69.68-.06.1-1.03.63-1.36.6-.26q-.15 4.58.57-.17.04-.22.1.01l.4 1.43q.22.78.16-.05-.07-1.22.32-1.47.41-.27.43.38.1 3.38.67-.34.07-.47.12.02.44 4.45.81-1.75.1-1.69.24.01l.26 3.26q.05.64.25-.07.15-.56.09-1.13a.75.27 82.5 0 1 .15-.68l.25-.12q.42-.22.14.49-.32.79.03 1.49.33.69.36.01.27-6.58.75-.32.05.72.14.04.36-2.92.77-.97.1.44.18-.01l.41-2.26q.24-1.32.31-.03l.18 2.99q.02.42.11.04l.44-2.04q.16-.74.17.04.02 1.17.27 2.26.28 1.24.33.01.23-6.75.72-.25.06.9.25.26c.1-.33-.2-1.7.32-1.68q.69.03.12.56-.29.27.14.5a.42.26-80.9 0 0 .38-.44q.21-5.06.73-.68.08.71.27-.07.44-1.78.61-.32.09.84.21.7.45-.5.2-1.38a.85.57-50.3 0 1 .05-.49c.81-2.01.14 6.44 1.19.96q.07-.33.18-.01l.2.56q.24.65.33-.03.54-3.96.71.09.03.74.25-.04c1.04-3.67 1.17 7.02 1.14-1.39a.66.5 80.6 0 1 .3-.56c.47-.23.25 6.04.87.45q.03-.33.09 0l.41 2.18q.09.53.24.01c.1-.35-.1-2.76.4-2.6a.63.42-76.4 0 1 .24.67q-.17.91.12 1.73.18.51.27-.06.37-2.61.76-.48.04.24.11-.02l.4-1.54q.22-.83.29.14.27 3.82.53-.08.03-.55.31.07.23.52.17 1.03a.42.28 87.3 0 0 .36.49c.15-.06.1-2.84.24-3.36q.21-.74.29.08l.21 2.27q.11 1.1.28-.09c.19-1.25.6-1.15.68-.17q.31 3.46.59-1.92.07-1.44.24.04l.28 2.56q.06.53.2.05.82-2.75.91.17.01.45.05.01.53-6.18.84-.75.02.34.16.03l.26-.55q.25-.53.36.14.62 4.12.52-1.84-.02-.88.51-.54.26.17.24.97-.08 4.17.49.12.09-.65.13-.28.42 4.46.59-.33a.74.47 85.3 0 1 .32-.61c.44-.17.24 2.39.39 2.9q.16.5.27-.02.36-1.57.55-.29c.75 4.86.3-2.44.72-2.53a.62.21 85.8 0 1 .26.62l.2 2.73q.06.85.22.01.54-2.84.91.23.05.47.07 0 .23-7.64.43-2.19.1 2.72.94.95.13-.3.2.04l.25 1.23q.24 1.24.3.04.3-6.84.72-.06.01.15.1-.11l.37-1.13q.21-.63.35.06.49 2.33.64-1.81.01-.48.12-.02l.51 2.3q.09.43.22 0 .55-1.8.76-.01.05.4.09 0 .5-5.09.87-.19.04.46.14.01.77-3.33.89.9.01.46.04 0 .44-6.64.89-.76.02.3.16.01l.27-.54q.3-.63.36.11.33 4.18.68-1.83.04-.73.14-.02l.49 3.5q.04.28.06-.01.36-3.82.71-.65-.35.45-.04.7.47.38.47-.25v-3a.78.45 84.7 0 1 .31-.68c.17-.07.34 3.47.42 3.72q.27.87.32.01.19-3.08.62.35.2 1.55.27-.15.31-7.79.89-.25.08.95.12-.01l.08-1.42a.47.18 88.7 0 1 .15-.41q.63-.22.41.42-.14.41-.13.43c.85 4.45.32-2.78.69-2.73a.6.24 86.2 0 1 .25.53l.29 2.86q.08.8.26.05.14-.57.09-1.16a.37.33 79.2 0 1 .23-.38q.55-.18.29.28a.87.61-41.9 0 0-.11.48c.55 3.77.37-.98.95-.87a.25.21 5.7 0 1 .2.2q.08 5.26.42.19.02-.28.22-.04.45.55.28 1.12a.86.53-66 0 0 .1.74c.75.75.16-1.68.47-1.98q.43-.41.45.22.11 4.77.44.92a.39.25-81.9 0 1 .33-.38q.72.19.09.63a1.71 1.42 50.2 0 0 0 2.37c.93.98.62-3.13.63-3.43a.7.45 81.5 0 1 .24-.53c.47-.29.34 2.51.42 2.87q.13.61.24.02.67-3.61.62-.28a.36.23 83.9 0 0 .31.39c.31-.13.01-2.12.26-2.65q.27-.54.33.06l.21 2.16q.08.87.28.06.14-.56.1-1.14a.48.26 88.6 0 1 .27-.53q.51.06.28.51a.82.45-47 0 0-.11.43q.38 3.52.7-1.27.03-.53.12-.01l.52 3.1q.07.4.16 0 .68-3.19.72.14.01.46.13.03.37-1.24.11-2.47-.18-.85.1-1.06.42-.32.48.49l.24 3q.05.71.12.01.34-3.46.69-.4-.36.46-.01.71.46.33.41-.32-.14-1.62.22-3.18.18-.76.24.03l.24 3.26q.03.48.17-.09l.37-1.51q.16-.66.24.1.39 4.12.6-1.07.07-1.74.31.03l.43 3.21q.04.32.06 0 .24-4.02.49-1.71.49 4.51.75-.65a.32.23-89.6 0 1 .22-.31h.13a.23.09 87.8 0 1 .1.22c.17 6.59.47-.02.76.08a.41.27-80.8 0 1 .18.4q-.12 1.05.2 2.03.2.65.26 0 .45-4.99.77.82.05.88.32 0 .08-.27-.03-.82a.62.51 66.1 0 1 .14-.5c.55-.57.83 5.92.99-1.41q.02-.71.19-.04c.08.33.13 6.51.94 1.69q.08-.47.13.02.41 4.43.82-1.77.04-.6.11.01l.41 3.74q.04.39.08 0 .39-4 .72-1.34.39 3.06.63-1.46.04-.96.15-.03l.35 2.95a.68.58 86.2 0 0 .59.6H258a.46.46 88 0 1 .46.43l.12 2.07q.06 1.12.27.01.63-3.36.91.21.03.31.05.02.07-.79.42-1.4.23-.42.17.08-.09.78.29 1.36.34.51.2-.1-.74-3.23 2.21-2.69a.58.49-83.1 0 1 .39.6q-.06.6.21 1.19.23.51.2-.05-.07-1.07.47-.77a.62.46-79.1 0 1 .24.5q-.04 3.64.62-.29.23-1.38.3.08l.15 3.17q.07 1.45.24.13.67-5.08.67.46 0 .63.07-.03.21-2.1.41-2.98c.42-1.82.57 2.58.74 3.5q.1.51.12-.02.17-4.3.45-1.55.51 5.1.66-1.02c.01-.27-.17-1.2.05-1.53q.36-.53.39.12l.2 3.93q.05 1.02.18.01l.35-2.91q.07-.61.1 0 .18 4.74.8-.16.1-.77.2-.02l.41 3.01q.06.42.15.04c.12-.51-.04-3.26.57-1.99q.24.49.05 1.91a.54.35-88.8 0 0 .39.63c.21-.05.05-5.54.53-1.61q.2 1.67.22 3.38c.81.56.12-1.98.48-2.44q.3-.38.31.15.1 4.52.8-.22.18-1.26.26.05l.18 2.99q.04.74.19.03.58-2.85.73-.33-.31.47-.11.78.38.57.42-.19.36-6.9.94.2.03.46.03-.01-.07-5.47.76-2 .11.46.19-.01.37-2.2.85-.28.11.44.41.09c.86-1.03.45 1.31.52 1.87q.21 2.01.59-.91.07-.54.14-.01l.44 3.23q.04.33.11-.01l.27-1.25q.11-.51.2.03l.36 1.98q.16.91.24.04.44-5.4.71-.06.04.86.17.07l.34-2.03q.25-1.51.3-.05l.08 2.07q.03.99.36.07c.15-.44-.06-2.62.36-2.69a.57.35-89 0 1 .38.63q-.11 1.5.16 2.96.1.54.09-.02-.05-5.51.75-1.92.1.46.19 0c.83-4.37.88 2.01 1.31-.21q.07-.36.23-.05.46.87.21 1.74-.17.58-.1.95.61 3.1.52-2.55c-.01-.55.47-.6.5 0q.13 2.63.22 5.28.03.75.23.07.51-1.81.54-.32a1.02.03 88.8 0 1-.01 1q-.38.27.09.5a.39.27-79.7 0 0 .39-.39c.02-.52-.11-5.5.34-5.43a.34.17-90 0 1 .16.32l.19 4.99q.03.75.36.08.64-1.32.77.2.04.39.06 0 .54-7.5.77-.71c.16 4.74.11-1.5 1.27-2.69q.41-.42.45-.01l.44 4.12q.03.31.08.04.23-1.33.23-2.66 0-.54.19-.04.47 1.26.25 2.56-.12.75.39.51c.24-.12-.07-1.93.21-2.41q.21-.34.23.15l.23 4.25a.6.08 0 0 0 .6.08h.39q.37 0-.14.53-.28.3.14.5a.27.24 12.3 0 0 .39-.22q-.1-1.65.21-3.24.24-1.19.29-.03l.16 3.99q.04 1.06.39.08l.19-.53q.28-.79.22.45-.05 1.05.76 1.63a.93.69 22.4 0 1 .4.66q0 3.86.55.98.1-.54.26-.02.29.97.07 1.81a.41.23-75 0 0 .11.44l.18.07a.23.17-83.1 0 0 .23-.24q.04-4.16.01-8.31c0-.25.08-.65.43-.4a.59.35-80.4 0 1 .17.44q-.02 6.47.55.33.03-.43.08-.01l.53 4.62q.06.55.09.01l.21-3.91q.04-.67.33-.15c.41.73.17 4.34.37 5.56q.15.86.19.01l.08-1.63a.46.34 86.3 0 1 .25-.39q.56-.18.28.3a1 .93 57.7 0 0-.11.59q.73 5.23.54-2.59a.26.23-3.7 0 1 .24-.24c.29-.02.44 4.92.51 5.47q.03.25.11-.01l.35-1.21q.22-.75.26.06.29 4.77.76-2.01.04-.65.11-.01l.46 4.16q.03.29.05 0 .08-1.66.45-3.27.21-.92.22-.02.09 5.99.54-.93.07-.99.42-.04.09.26.09.74-.03 5.32.57.71.07-.5.13.01l.47 3.96q.05.41.14.03.33-1.29.08-2.6-.13-.71.09-.86.45-.31.48.64l.17 4.62q.04 1.1.16.01l.35-3.15q.06-.59.17 0 .3 1.59.09 3.17a.91.47 39.9 0 0 .25.59l.11.14q.19.22.19-.19V59a.82.53 81.6 0 1 .31-.67c.29-.14.26 4.07.27 4.39a.55.41 88.6 0 0 .42.53h5a.52.47 88.7 0 1 .47.5l.18 4.56q.03.82.19-.11l.42-2.44q.11-.63.17.03l.27 3.17q.06.74.18 0 .27-1.62.09-3.24c-.18-1.56.7-1.56.59-.07q-.15 2.3.18 4.59.07.45.19.01.41-1.49.69.96.11.89.16-.01.2-3.55.44-4.25.43-1.25.3 1.43-.08 1.8.22 3.59.13.78.16-.01l.11-3.11a.5.38 83.7 0 1 .26-.43q.54-.18.3.3a.98.63-43.4 0 0-.12.49q.18 3.01.78-.44.11-.59.16 0l.4 4.19q.03.28.05-.01.4-6.31.63-1.13.19 4.32.77-1.02.05-.52.09-.01l.42 5.15q.02.29.06 0l.45-3.18q.07-.49.11.02l.37 4.17q.05.6.1-.01l.41-5.14q.06-.8.11-.01l.36 6.15q.03.47.11.01.36-1.98.14-3.98a.73.56 63.9 0 1 .08-.4q.37-.62.33.17-.13 2.63.36 5.22.08.43.11-.01l.38-5.9q.09-1.38.18.01.23 3.44.2 6.87 0 1.16.23.03c.12-.63.14-4.32.24-4.41q.48-.43.45.37-.09 1.96.02 3.88-.34.48.02.72.46.33.42-.32-.16-2.63.21-5.23.2-1.37.25.09l.22 6.87q.02.79.17.03c.13-.63.14-4.35.28-4.45q.4-.27.42.41l.17 5.04q.03 1.02.15-.01c.06-.64.13-6.47.33-6.42a.45.38-85.1 0 1 .29.41l.18 6.99q.03.99.19.03c.11-.6.11-4.43.33-4.55a.38.21 83.3 0 1 .3.42q0 1.99.06 3.97-.32.48.03.72.46.32.4-.32-.16-1.75.25-3.43.26-1.13.3-.02l.17 5q.03.98.13 0l.37-3.95q.05-.54.13-.01.32 2.1.13 4.19a.91.45 39.9 0 0 .25.57l.11.14q.19.22.19-.19v-3.75a.56.38-28.1 0 1 .19-.36q.31-.29.29.36-.08 2.62.27 5.22.06.4.1-.01l.34-3.17q.07-.62.17.01.26 1.52.13 3.04a.66.39-86.7 0 0 .37.72c.24 0 .06-3.18.33-3.82q.37-.88.39.01l.11 5.18q.02.81.16.02c.09-.48.11-4.49.36-4.42a.46.3-86.7 0 1 .23.41l.17 5.99q.04 1.59.26.03c.03-.21.18-7.98.74-4.62.28 1.67-.15 3.76.12 5.62q.13.85.15 0l.1-3.99q.01-.27.08-.4c.44-.76.55 4.04.62 4.45q.1.51.14 0l.36-4.04q.14-1.54.23.08l.31 5.44a.53.53 88.3 0 0 .53.5H351a.72.53 88.4 0 1 .54.69l.22 5.24q.01.3.05.01l.48-3.18q.09-.61.13.03l.27 4.41q.05.69.15.01c.05-.29.49-8.04.54-4.77q.06 3.7.32 7.39.02.4.37.13.61-.49.68 1.08.02.43.07 0c.21-1.83-.21-6.27.19-7.2q.34-.79.43.21c.26 2.83-.37 5.48.28 7.18q.14.39.19-.03.03-.31.18-.54.34-.53.38.14.49 6.73.48-2.8 0-.51.2-.59a.49.21 84.7 0 1 .29.53l.22 6.99q.03 1.11.19.01l.32-2.16q.26-1.77.3-.03l.05 2.19a.61.03 89.2 0 0 .04.56c.67.79.38-1.6.56-1.85q.4-.56.43.17l.15 4.49q.04 1.15.15-.12.61-7.43.64-.74.01.39.05.74c.75 6.61.35-5.62 1.08-1.82.32 1.66-.12 3.98.13 5.84q.06.49.27.04.83-1.8.73.78-.01.47.05 0 .42-3.17.15-6.31c-.14-1.57.72-1.55.62-.07q-.22 3.29.19 6.55.06.44.09-.01l.33-3.95q.05-.6.12 0c.23 1.89-.23 6.78.34 8.03q.25.52.28-.08c.14-2.71-.2-6.73.11-7.38q.4-.87.42.13l.19 10q.03 1.46.23.51l.15-.69a.34.26-85.8 0 1 .23-.26q.68-.09.32.31a.56.35-35.1 0 0-.15.35q.03.48.27.89.26.46.28-.09l.25-8.16q.02-.73.11-.01.48 3.92.25 7.83a1.01.52-79.3 0 0 .24.81q.28.22.14-1.17-.18-1.78.22-3.48.29-1.26.3-.03l.03 4.19a.67.6-79.3 0 0 .35.57c1.1.53.73 5.28.92 6.69q.04.26.08 0l.37-2.42q.12-.8.19.17.58 8.85.6-3.71 0-.68.47-.21c.13.13.24 9.06.28 10.16q.02.53.07.01c.07-.76.21-7.64.27-7.66a.51.28 84.7 0 1 .36.53l.27 10.13q.02.97.06 0l.36-9.21q.02-.48.09 0c.58 4.1-.14 8.2.55 12.22q.06.32.07 0 .02-.56.29-.7a.46.25 83.4 0 1 .36.51q0 1.45.17 2.89.16 1.47.22.04c.11-2.93-.54-8.29.08-10.86q.41-1.68.44.16.11 6.35.31 12.7.01.36.07 0l.4-2.17q.11-.62.14.01.56 10.83.63-3.06 0-.52.32-.4a.47.3-84.7 0 1 .22.42l.1 15a.65.47 1.8 0 0 .62.48l.26.02a.5.48-88.9 0 0 .5-.5v-13a.26.25 87.6 0 1 .23-.26c.42-.04.34 9.07.36 10.24.07 3.52 1.04 7.42 1.17 11.22q.01.5.06 0 .36-3.48.14-6.96a.85.75 62.4 0 1 .11-.45q.37-.57.36.21-.06 5.86.36 11.7.02.23.04 0l.44-3.65q.1-.84.13 0 .64 18.97.66-7.3.01-2.27.43-.43.04.16.04.35.04 3.46.3 6.87c.09 1.26.26-1.52.27-1.56q.25-.56.28.07c.03.73.32 7.02.04 7.22q-.44.32-.4-.3.14-2.14-.21-4.23-.17-1.06-.18.01l-.04 10.05q0 .51.41.16c.98-.84.49.31.49.84q-.13 7.84.25 15.65.01.34.06-.01l.45-3.39q.09-.67.11 0 .42 13.01.18 26.01-.05 2.35-.76.66-.15-.35-.16.05l-.27 10.18q-.02.67-.18.02l-.32-1.23q-.1-.41-.12 0c-.2 4.95-.09 9.9-.23 14.86q-.07 2.42.24 4.84.05.36.13 0Zm-31.33-96.32q-.14-1.38-1.15-2.3-.27-.24-.5-.87l-3.09-8.22a1.11.7 79.8 0 0-.61-.67q-1.38-.35-1.18-1.81a.77.27 24.5 0 0-.51-.49q-.55-.27.01-.51a.55.47-30.6 0 0 .26-.77l-.69-.82a.87.01 49.8 0 1-.54-.66q-.42-3.24-3.02-5.29a.38.35-38.9 0 1 .09-.6c1.76-.9-2.41-3.11-2.73-3.29a.81.78-77.2 0 1-.38-.63l-.07-1.01a1.46 1.46 23.8 0 0-.32-.82l-2.41-3.09a1.32 1.28 76.5 0 0-.74-.47q-1.47-.33-.5-1.62.33-.44-.2-.43-.87.01-.83-.55a1.8.65-77 0 0-.12-1q-1.3-2.58-3.68-4.33a.66.52-67.4 0 1-.18-.63q.21-.96-.67-1.4-.52-.27-.75-.59c-1.02-1.45-7.67-8.91-7.62-9.04a.33.24-75 0 0-.17-.43q-1.59-.1-1.88-1.59a.64.31 80.6 0 0-.37-.52q-2.4-.07-3.05-2.07-.16-.5-.47-.82l-4.21-4.28a.33.24 54.4 0 1 .01-.48q.92-.35-.55-.28a.73.12 57.1 0 1-.45-.5q-.72-1.05-2.13-.88a.6.4-5.2 0 1-.66-.36l-.01-.58a.8.46-85.4 0 0-.31-.65c-.73-.32-4.19-3.32-4.36-3.27a.73.63-22.8 0 1-.75-.24q-1.51-2.21-4-2.63a.63.59-86.2 0 1-.49-.6c-.07-1.98-3.1-.79-4.34-2.85a.77.73 69.9 0 0-.73-.36q-1.44.21-.95-.71-.29-.84-.92-.59a.59.5-27.3 0 1-.68-.16c-1.29-1.98-3.34-1.76-4.27-4.19a.56.56 73.9 0 0-.63-.35c-2.55.47-2.34-2.46-5.06-2.19a.93.75-18 0 1-.78-.3q-1.17-1.57-3.2-1.59a1.04.71-9.8 0 1-.83-.38q-1.1-1.84-3.08-1.57a.93.51-12.4 0 1-.85-.25q-1.14-2.02-3.51-1.8a1.08.34 50.9 0 1-.74-.49l-.95-1.03a1.25 1.16-19.3 0 0-.87-.38q-2-.04-3.18-1.65a.8.32 53.4 0 0-.74-.45l-.58.44a.58.39-38.2 0 1-.67.05q-.68-.76-1.75-.46a1.01.65-19.8 0 1-1.04-.24q-.49-.85-1.54-1.17a.85.17 18.7 0 0-.68-.09q-.55.27-.92-.06a1.27.54 49.7 0 0-.83-.42q-2.04.15-3.27-1.52a.7.56 57.7 0 0-.75-.26q-1.13.52-1.35-.82-.15-.99-.69-.27l-.44.58a.41.4 49.1 0 1-.68-.06q-.67-1.21-1.86-.48-.53.33-.36-.39.3-1.21-.56-.69a.71.54-35.1 0 1-.8-.03q-.27-.29-.14-.56.13-.27-.13-.18-3.34 1.04-10.02-.28a.2.1 14.9 0 1-.19-.17q.46-.78-.27-.97a2.38.67 16.3 0 0-2.21-.02q-.74 1.03-1.3.53a1.07.24 44.7 0 0-.72-.45q-3.25.21-6.22-1.12-.31-.14-.69-.64-.51-.67-1.24.02a.63.58 36.9 0 1-.72.07q-.32-.19-.69-.19a.98.19-41.6 0 0-.68.4q-.58.48-1.33-.05a.62.23 35.8 0 0-.62-.17q-.69.81-1.49.08a.53.4-42.5 0 0-.62.06q-.67.57-1.38-.05a.45.3 43.8 0 0-.5-.09l-.27.24a1.47.76-53 0 1-.85.41q-6.94-.07-13.86.17c-1.44.05-3.96-.82-5.28.72a1.02.6-56.7 0 1-.81.4q-3.96-.89-7.61.52-1 .39-.34-.22.86-.79-.13-.4a.49.13-23.2 0 1-.41.06q-.76-.58-.91.37a1.25.45-27 0 1-.65.69q-2.09 1.34-4.67.61a1.19.78-50.2 0 0-.92.28q-1.55 1.26-3.7.85a1.28.53-43.5 0 0-.86.33q-3.11 2.32-7 1.56a1.28.56-45.6 0 0-.89.36q-3.1 2.4-6.85 3.37-2.83.73-4.44 1.43-2.16.94-4.38 1.71c-1.9.65-3.6 1.89-5.48 2.69q-.83.35-2.72 1.62-1.37.92-3.1 1.06a.2.09-2.5 0 0-.19.1V66a.5.43-85.5 0 1-.5.5q-1.03-.16-1.55.7a1.16.48 5.5 0 1-.94.29q-.87-.01-.53.51.34.51-.24.5h-.5a.47.31-81.6 0 1-.26-.56q.17-.82-1.03.64a.36.17 46.1 0 0 .12.36l.12.12q.31.34-.4.43c-1.47.18-2.23 2.35-3.79 3.09q-2.18 1.02-2.67 1.41-3.56 2.75-7.2 5.38c-1.58 1.15-3.51 3.35-6.09 4.27q-.07.03-.72.68l-1.89 1.87a1.08.99-60.3 0 1-.94.3q-.86-.16-.69.44a.51.19 74.5 0 1-.05.57l-.44.06a1.48.63-61.7 0 0-.81.65q-4.42 5.99-7.3 7.72Q93.92 97 89.99 101q-4.28 4.35-8.64 8.66a1.16.9 70 0 0-.27.84q.05.59-.25.87a1.06.74-30.2 0 0-.33.71q.06.81-1.12.53-.77-.17-.14.15l.34.17q1.02.51-.34.53-1.16.01-.75.19a.7.3 18.2 0 1 .42.37q.46 2.19-1.39 3.51a1.23 1.18 81.5 0 0-.46.65c-.31 1.09-2.1 2.52-2.11 3.09a1.34.75 79.1 0 1-.28.85q-2.97 2.95-3.37 4.44-.73 2.76-2.67 4.83a.27.16-46.1 0 0-.07.3l.12.12a.4.26-42.9 0 1-.12.47c-2.34 2.19-2.91 5.34-4.72 8.81-1.36 2.61-1.56 5.79-3.52 8.54a1.71 1.64-27.2 0 0-.31.9q-.03 1.7-1.3 2.92a.3.27 45.6 0 0 .02.41c.07.08-1.87 5.44-1.99 5.95-.42 1.77-2.32 4.84-2.25 6.01q.11 1.77-.96 3.77a.87.34-60.3 0 0-.13.86q1.4 1.18-.22 2.25a.77.68 67.1 0 0-.27.79q.6 2.35-.58 4.26a2.1 1.43-37.9 0 0-.32 1l-.01 4.5a.25.25 0 0 1-.25.25h-.25a.75.5-90 0 0-.5.75v6.25a1.19 1.16-22.2 0 1-.37.85c-1.18 1.12-.6 23.55-.61 27.05a.67.16 54.5 0 0 .17.41q.09.16.34.2a.53.23 8.5 0 1 .48.3q-.46 4.67.23 9.26a.97.27 31.2 0 0 .52.55q.45.31.3.94-.1.46-.04.94l1.03 7.99a.21.13-16.8 0 0 .26.07l.2-.07a.6.22 87 0 1 .28.64q.01 2.78.79 5.34c.2.67-.05 1.81.94 1.89a.53.29 7.3 0 1 .53.39q-.42 1.53.42 2.62.43.55.48.85c.18 1.1 1.58 6.97 2.57 7.09a.6.35 7.7 0 1 .55.43l-.39 2.85a1.04.51-69.5 0 0 .06.61l1.36 2.52a.18.15 60 0 0 .23.08c.28-.18.42 1.48.98 1.76a.79.61 19.3 0 1 .44.68q-.13 1.23.67 2.07a1.02.14 44.4 0 1 .54.7q-.04 2.5 1.76 4.29.3.31.4.63 1.56 4.94 4.66 9.05a.89.41 49 0 1 .22.77q-.45.78.51.76a.67.34 77 0 1 .43.52q.34 1.15 1.58 1.24a.82.3 5.7 0 1 .84.41q-.14.51.14.81a1.39.79 35 0 1 .4.84q-.02.82.51 1.11a.67.07 28.8 0 1 .51.35q.06 1.51 1.43 2.29a1.2.05 29.1 0 1 .96.59l1.86 4.28a2.59 2.29 89.4 0 0 1.11 1.23q1.73.92 1.77 2.82a1.27.47 30.7 0 0 .65.8q3.15 2.27 5.18 5.54a.44.34-29.5 0 0 .54.08q.78-.41.39.15a.4.39-68.9 0 0 .26.62l.43.06a.56.18 84.3 0 1 .22.5q.08.64.72.67a.74.08 44.5 0 1 .5.39l.51.5a.74.18 40.6 0 1 .35.48q.07 1.3 1.15 1.95 2.78 1.65 3.1 2.8.55 2.03 2.43 3.03.52.27.76.61 1.07 1.5 2.83 2.06.11.04.8.65l3.99 3.52q.47.41.66.72.37.62 1.07.32a.18.14 70.4 0 1 .2.13l.14.49a1.19 1.02 9.4 0 0 .57.68l3.03 1.62a.98.1 60.7 0 1 .46.65q.82 1.39 2.45 1.37a.56.1 0 0 1 .56.1l.01.51a.67.56-78.4 0 0 .3.56l2.36 1.3a1.53.96 89.4 0 1 .59.92q.19.78 1.23.44a.5.4 84.7 0 1 .51.53l-.02.28a.87.4-11.9 0 0 1.03.23q1.19-.31 1 .74a.7.25 36.8 0 0 .34.51l2.13 1.77a1.31.49-84.4 0 1 .26.97l.01 4a.38.37 15.8 0 0 .18.32l.31.19a.74.18-77.5 0 0 .36-.73q.24-1.16.41.74.04.44.41.05.65-.69.71 1.15.02.4.19.03.58-1.23 1.47-.21a.42.35-35.7 0 0 .51.04q1.88-1.2 1.64 1.5-.05.53.19-.13c.45-1.25 1.06-1.34 1.6-.17q.52 1.14 1.79 1.42a.91.87-7 0 1 .6.45q.52.98.65-.2.05-.44.21.06.31.96.36.18.06-.96.32-.13.7 2.21.66 1.23a.47.33-1.1 0 1 .48-.35h.39a.68.32-.3 0 1 .67.31l.18 4.25q.02.46.36.1 1.8-1.92.83.37-.14.34.12.07c.97-1.03.49 2.63.74 3.34q.14.42.15-.03.01-.63.44-.58a.83.57 16.3 0 0 .73-.24q.97-1.43.43 1.21l.1.32q.03.1.04.22.05.69.41-.25.38-.99 1.3-1.58.67-.42.36.3-.59 1.4.59 2.1a.9.47-42.4 0 0 .8-.21q1.03-.77.39.96a.41.15-65.8 0 0-.02.34l.24.25a.2.16-55.3 0 0 .28-.09q1.59-3.08 1.72-.13.02.53.25.19 1.81-2.69 1.63-.83a1.2.26-80.9 0 0 .05.92q.83 1.26 1.64.16.36-.49.37.07.07 3.08.46 1.25.53-2.52 1.41.07.5 1.45 1.11-.47a.78.23-72.6 0 1 .43-.64q1.04.19.5.97a.95.7 31.3 0 0 .47 1.14q.68.39 1.19-.22.44-.54.44.17v.76q-.01.82.54.08 1.72-2.33 1.34-.05a.79.79 28.8 0 0 .19.65q.55.6.34-.14a.67.15-52.5 0 1 .23-.5q1.64-2.34 1.28.22a.52.5-68.5 0 0 .21.5q.83.55.37-.09a.41.28-55.9 0 1 0-.36q.73-1.63 1.57-.42.21.3.3-.06l.26-.95a.41.03-4.4 0 1 .39-.06l.46-.03a.4.2-3.6 0 1 .4.17c.53 4.67.14-1.69 1.21-.03a.38.32-32 0 0 .5.07q.71-.42.37 1-.18.74.45.13 2.02-1.94.8.25-.12.21.06.06.45-.4.87.09.21.25.26-.11.12-.84.88-1.12a.65.36 82.7 0 1 .49.67q.25 4.13.76 1.08a.59.38 2.6 0 1 .56-.33q.8 0 2.2-1.48.59-.64.65.06.17 2.16.56.26a.29.17-80.9 0 1 .19-.23l.37.01a.59.32 85.1 0 0 .29-.65q-.11-.81 1.17.57.1.11.17.24.95 1.91 2.65.94a.43.29-22.7 0 1 .59.12q.25 1.78.57 0a.54.09-80.3 0 1 .18-.51q1.17.14 1.56 1.17a.27.27 64.6 0 0 .39.14q1.2-.73 1.41.63.07.45.43-.03l.93-1.23q.62-.82.61.02l-.02.99q-.01.73.41.17.85-1.12 1.61-.21a.33.22-33.3 0 0 .37 0l1.34-.77q.57-.33.33.6c-.38 1.51 1.3-.29 1.35-.78q.04-.51.33-.15.37.45.39 1.09 0 .01.18-.1l1.1-.69q.62-.39.6.35l-.01.49q-.01.57.38.13l1.01-1.14q.54-.59.54-.06-.01 2.76.74.51a.38.27 19.8 0 1 .45-.12q.23.08.48-.03.47-.21.42.21-.18 1.61.49.51a.8.32-63.9 0 1 .49-.44q1.31-.05.75.53a.36.25 52.2 0 0 .02.4q.62.85.97-.29 0-.01.52-.69.95-1.24.73.5-.17 1.36.42.23 1.39-2.61 1.62-.29.06.54.41.05 1.27-1.76 1.62-.07a.3.18-30.4 0 0 .41 0l1-.73q.48-.34.5.32c.07 2.59 2.1-3.16 2.16.41q0 .22.32-.02l1.12-.86q.41-.32.42.44.04 1.77.56.26a.7.1-22.7 0 1 .53-.32l.43-.19a.35.3-13.6 0 1 .48.25q.07 1.69.41.45a.44.23-76.9 0 1 .3-.35q.61.08.73-.53.25-1.22.39-.35l.22 1.28q.22 1.33.43.19l.33-1.68a.15.09 24.1 0 1 .2-.02q1.28.69 1.66-.49a.86.67-5 0 1 .48-.45l.39-.16a.35.24-19.2 0 1 .43.12q.39 1.41.37.23a.22.2 85.8 0 1 .18-.23l.94-.07a.52.37-5.2 0 1 .54.32q.15 1.41.56.24a.56.32-75.1 0 1 .38-.39q.66.02.53-.59-.29-1.34.32-.3.23.4.2.78a.4.31-1.3 0 0 .44.32q1.08-.09 1.03-.58a.59.49 77.4 0 1 .3-.59q2.32-.99 2.29 1.6 0 .43.35.16c.49-.37-1.02-2.76.94-1.87a.91.56 39.2 0 0 .61.08q.67-.24.97.21a.29.16-46.9 0 0 .35-.11q.39-.47.66.13.29.64.38-.09.21-1.57.63-.46.25.67.36-.03.24-1.64.78-.01.24.73.43-.01.28-1.14.5.09.16.85.2-.05c.18-3.72 3.07-.48 3.33-2.21a.75.49-7.8 0 1 .54-.47l.44-.12a.36.36-14.8 0 1 .45.26q.35 1.46.44.19a.46.14-87.6 0 1 .13-.37q1.2-.62 1.48.38.11.4.46 0l.88-.98a.44.31-41.8 0 1 .61-.07q.7 1.3 2.39-.35a.31.2-38.5 0 1 .42-.04l.32.69q.09.17.26-.53.05-.24.48-.14a.51.49 14.9 0 0 .61-.34q.78-2.87-1.92-2.08a1.45.44-9 0 0-.76.37c-.62.66-5.2 2.82-2.79-.34a1.17.24-10.5 0 1 .81-.33q1.17-.28 1.69-1.36a.73.7 17.5 0 1 .78-.39l1.68.29a.51.48-77.4 0 0 .56-.38l.2-.74a.84.44 28.7 0 1 1.06.02q1.1.68 1.54-.49a.83.52-70.8 0 1 .74-.59q2.44.77 2.24-1.37a.5.41-3.2 0 1 .5-.46q1.45-.02 3.36-.95a.53.43 88.1 0 0 .25-.33l.14-.54a.92.57 12.4 0 1 .99-.35q3.33.66 6.3-.77a1.41.54-70.7 0 0 .55-.65q.47-.92 1.97-.47a.87.76-58.4 0 0 .83-.26l1.37-1.54q.27-.29.23.27l-.02.25q-.03.44.44-.07l1.34-1.42q.27-.28.24.24l-.02.25q-.04.75.49-.08c1.21-1.91 3.41-1.98 4.77-4.01a1.25 1.21 9.7 0 1 .76-.52c2.09-.5 2.47-2.64 4.73-2.2q.12.02.03-.08l-.14-.18a.4.3-29.3 0 1 .23-.52l3.07-1.26a1.74 1.64-84.5 0 0 .79-.69q.62-1.04 1.78-1.25a.25.22 66.2 0 0 .12-.38c-.43-.65.96-.54 1.27-.67q2.73-1.09 4.57-3.4a.82.14-53 0 1 .55-.52l.42.06a1.07.63 17.6 0 0 .88-.2q1.97-2.22 4.05-4.28c.56-.56 1.28-.38 1.92-.97q5.71-5.34 11.12-11.01a1.57 1.19 11.3 0 1 .84-.41q.59-.08.58-.3a.87.06 86.6 0 1 .01-.8l3.35-3.17a1.26 1.19-21.6 0 0 .39-.84c.04-1.42 1.25-1.58 1.93-2.29q1.81-1.88 3.29-4.09c.98-1.46 2.68-2.76 3.34-4.61a1.53 1.28 88.8 0 1 .65-.81q1.23-.66 1.17-2.04a.81.8-10.2 0 1 .56-.79q1.16-.38 1.18-1.62a1.21.58 83.2 0 1 .3-.88q1.33-.98 2.4-2.36.45-.59.64-.67.82-.36.75-1.09-.01-.08.2-.88.47-1.74 1.87-2.84a1.34.88 81.1 0 0 .39-.86q.13-1.52 1.83-1.35.12.02.02-.03l-.35-.18a.6.54 25.7 0 1-.3-.73q.55-1.21 1.47-2.05a.13.04-44.8 0 0 .07-.13q-.95-.34.05-.79a.8.47-15.7 0 0 .46-.48q.26-1.98 1.43-3.58a.19.1 20.3 0 0-.16-.17l-.19-.06q-.4-.13.14-.51 1.68-1.16 1.71-3.26a.89.85 78 0 1 .48-.77q1.5-.72.61-1.86a.92.57-40.5 0 1 .32-1.01q2.03-1.78 2.11-4.64a1.02.7-21.9 0 1 .45-.67q.63-.41.33-1.25a.44.42 66.6 0 1 .2-.53q1.22-.62.92-1.64a1.18.27 70 0 1-.1-.81l3.98-12.17a1.57.52 65.9 0 0-.1-.97c-.47-1.55.74-2.9.92-3.9q.31-1.84.05-3.75a.95.76 69.7 0 1 .27-.82l1.14-.9a.67.53 51.1 0 0-.01-.85c-.59-.74.42-4.73.56-5.84.11-.93-.42-1.8.38-2.93a.47.42 37.1 0 0-.12-.61q-.63-.49.24-1.36a1.27 1.12-24.2 0 0 .38-.83q.39-12.88-.02-25.8c-.03-.9.43-2.28-.31-3.12a.98.59 39.4 0 1-.29-.82q.33-.93-.21-1.64a1.31.75-68.4 0 1-.13-.92q.35-2-.34-3.8-.28-.74-.28-.96.09-3.28-.1-6.58-.05-.85-.84-.86a.42.41-.7 0 1-.41-.39l-.15-2.92q-.04-.67-.52-1.97-.57-1.54-.5-3.28a1.14.51 34.7 0 0-.45-.75q-.51-.46-.02-.81-.46-2.53-1.3-4.9a.57.53-12.4 0 0-.59-.35q-.75.08-.39-.65a.68.67-54.2 0 0-.12-.77q-.92-.93-.63-1.95a1.07.82 36.4 0 0-.25-.87q-.53-.63-.31-1.46a.39.26-83.4 0 0-.25-.49q-.64.12-.46-.45a.97.44-63.1 0 0 .03-.61q-.49-1.1-.19-2.26.06-.26-.14-.18l-.18.07a.23.21 77.8 0 1-.28-.2Z"/><path fill="#020102" fill-opacity=".067" d="m352.82 150.07.18-.07q.2-.08.14.18-.3 1.16.19 2.26a.97.44-63.1 0 1-.03.61q-.18.57.46.45a.39.26-83.4 0 1 .25.49q-.22.83.31 1.46a1.07.82 36.4 0 1 .25.87q-.29 1.02.63 1.95a.68.67-54.2 0 1 .12.77q-.36.73.39.65a.57.53-12.4 0 1 .59.35q.84 2.37 1.3 4.9-.49.35.02.81a1.14.51 34.7 0 1 .45.75q-.07 1.74.5 3.28.48 1.3.52 1.97l.15 2.92a.42.41-.7 0 0 .41.39q.79.01.84.86.19 3.3.1 6.58 0 .22.28.96.69 1.8.34 3.8a1.31.75-68.4 0 0 .13.92q.54.71.21 1.64a.98.59 39.4 0 0 .29.82c.74.84.28 2.22.31 3.12q.41 12.92.02 25.8a1.27 1.12-24.2 0 1-.38.83q-.87.87-.24 1.36a.47.42 37.1 0 1 .12.61c-.8 1.13-.27 2-.38 2.93-.14 1.11-1.15 5.1-.56 5.84a.67.53 51.1 0 1 .01.85l-1.14.9a.95.76 69.7 0 0-.27.82q.26 1.91-.05 3.75c-.18 1-1.39 2.35-.92 3.9a1.57.52 65.9 0 1 .1.97l-3.98 12.17a1.18.27 70 0 0 .1.81q.3 1.02-.92 1.64a.44.42 66.6 0 0-.2.53q.3.84-.33 1.25a1.02.7-21.9 0 0-.45.67q-.08 2.86-2.11 4.64a.92.57-40.5 0 0-.32 1.01q.89 1.14-.61 1.86a.89.85 78 0 0-.48.77q-.03 2.1-1.71 3.26-.54.38-.14.51l.19.06a.19.1 20.3 0 1 .16.17q-1.17 1.6-1.43 3.58a.8.47-15.7 0 1-.46.48q-1 .45-.05.79a.13.04-44.8 0 1-.07.13q-.92.84-1.47 2.05a.6.54 25.7 0 0 .3.73l.35.18q.1.05-.02.03-1.7-.17-1.83 1.35a1.34.88 81.1 0 1-.39.86q-1.4 1.1-1.87 2.84-.21.8-.2.88.07.73-.75 1.09-.19.08-.64.67-1.07 1.38-2.4 2.36a1.21.58 83.2 0 0-.3.88q-.02 1.24-1.18 1.62a.81.8-10.2 0 0-.56.79q.06 1.38-1.17 2.04a1.53 1.28 88.8 0 0-.65.81c-.66 1.85-2.36 3.15-3.34 4.61q-1.48 2.21-3.29 4.09c-.68.71-1.89.87-1.93 2.29a1.26 1.19-21.6 0 1-.39.84l-3.35 3.17a.87.06 86.6 0 0-.01.8q.01.22-.58.3a1.57 1.19 11.3 0 0-.84.41q-5.41 5.67-11.12 11.01c-.64.59-1.36.41-1.92.97q-2.08 2.06-4.05 4.28a1.07.63 17.6 0 1-.88.2l-.42-.06a.82.14-53 0 0-.55.52q-1.84 2.31-4.57 3.4c-.31.13-1.7.02-1.27.67a.25.22 66.2 0 1-.12.38q-1.16.21-1.78 1.25a1.74 1.64-84.5 0 1-.79.69l-3.07 1.26a.4.3-29.3 0 0-.23.52l.14.18q.09.1-.03.08c-2.26-.44-2.64 1.7-4.73 2.2a1.25 1.21 9.7 0 0-.76.52c-1.36 2.03-3.56 2.1-4.77 4.01q-.53.83-.49.08l.02-.25q.03-.52-.24-.24l-1.34 1.42q-.47.51-.44.07l.02-.25q.04-.56-.23-.27l-1.37 1.54a.87.76-58.4 0 1-.83.26q-1.5-.45-1.97.47a1.41.54-70.7 0 1-.55.65q-2.97 1.43-6.3.77a.92.57 12.4 0 0-.99.35l-.14.54a.53.43 88.1 0 1-.25.33q-1.91.93-3.36.95a.5.41-3.2 0 0-.5.46q.2 2.14-2.24 1.37a.83.52-70.8 0 0-.74.59q-.44 1.17-1.54.49a.84.44 28.7 0 0-1.06-.02l-.2.74a.51.48-77.4 0 1-.56.38l-1.68-.29a.73.7 17.5 0 0-.78.39q-.52 1.08-1.69 1.36a1.17.24-10.5 0 0-.81.33c-2.41 3.16 2.17 1 2.79.34a1.45.44-9 0 1 .76-.37q2.7-.79 1.92 2.08a.51.49 14.9 0 1-.61.34q-.43-.1-.48.14-.17.7-.26.53l-.32-.69a.31.2-38.5 0 0-.42.04q-1.69 1.65-2.39.35a.44.31-41.8 0 0-.61.07l-.88.98q-.35.4-.46 0-.28-1-1.48-.38a.46.14-87.6 0 0-.13.37q-.09 1.27-.44-.19a.36.36-14.8 0 0-.45-.26l-.44.12a.75.49-7.8 0 0-.54.47c-.26 1.73-3.15-1.51-3.33 2.21q-.04.9-.2.05-.22-1.23-.5-.09-.19.74-.43.01-.54-1.63-.78.01-.11.7-.36.03-.42-1.11-.63.46-.09.73-.38.09-.27-.6-.66-.13a.29.16-46.9 0 1-.35.11q-.3-.45-.97-.21a.91.56 39.2 0 1-.61-.08c-1.96-.89-.45 1.5-.94 1.87q-.35.27-.35-.16.03-2.59-2.29-1.6a.59.49 77.4 0 0-.3.59q.05.49-1.03.58a.4.31-1.3 0 1-.44-.32q.03-.38-.2-.78-.61-1.04-.32.3.13.61-.53.59a.56.32-75.1 0 0-.38.39q-.41 1.17-.56-.24a.52.37-5.2 0 0-.54-.32l-.94.07a.22.2 85.8 0 0-.18.23q.02 1.18-.37-.23a.35.24-19.2 0 0-.43-.12l-.39.16a.86.67-5 0 0-.48.45q-.38 1.18-1.66.49a.15.09 24.1 0 0-.2.02l-.33 1.68q-.21 1.14-.43-.19l-.22-1.28q-.14-.87-.39.35-.12.61-.73.53a.44.23-76.9 0 0-.3.35q-.34 1.24-.41-.45a.35.3-13.6 0 0-.48-.25l-.43.19a.7.1-22.7 0 0-.53.32q-.52 1.51-.56-.26-.01-.76-.42-.44l-1.12.86q-.32.24-.32.02c-.06-3.57-2.09 2.18-2.16-.41q-.02-.66-.5-.32l-1 .73a.3.18-30.4 0 1-.41 0q-.35-1.69-1.62.07-.35.49-.41-.05-.23-2.32-1.62.29-.59 1.13-.42-.23.22-1.74-.73-.5-.52.68-.52.69-.35 1.14-.97.29a.36.25 52.2 0 1-.02-.4q.56-.58-.75-.53a.8.32-63.9 0 0-.49.44q-.67 1.1-.49-.51.05-.42-.42-.21-.25.11-.48.03a.38.27 19.8 0 0-.45.12q-.75 2.25-.74-.51 0-.53-.54.06l-1.01 1.14q-.39.44-.38-.13l.01-.49q.02-.74-.6-.35l-1.1.69q-.18.11-.18.1-.02-.64-.39-1.09-.29-.36-.33.15c-.05.49-1.73 2.29-1.35.78q.24-.93-.33-.6l-1.34.77a.33.22-33.3 0 1-.37 0q-.76-.91-1.61.21-.42.56-.41-.17l.02-.99q.01-.84-.61-.02l-.93 1.23q-.36.48-.43.03-.21-1.36-1.41-.63a.27.27 64.6 0 1-.39-.14q-.39-1.03-1.56-1.17a.54.09-80.3 0 0-.18.51q-.32 1.78-.57 0a.43.29-22.7 0 0-.59-.12q-1.7.97-2.65-.94-.07-.13-.17-.24-1.28-1.38-1.17-.57a.59.32 85.1 0 1-.29.65l-.37-.01a.29.17-80.9 0 0-.19.23q-.39 1.9-.56-.26-.06-.7-.65-.06-1.4 1.48-2.2 1.48a.59.38 2.6 0 0-.56.33q-.51 3.05-.76-1.08a.65.36 82.7 0 0-.49-.67q-.76.28-.88 1.12-.05.36-.26.11-.42-.49-.87-.09-.18.15-.06-.06 1.22-2.19-.8-.25-.63.61-.45-.13.34-1.42-.37-1a.38.32-32 0 1-.5-.07c-1.07-1.66-.68 4.7-1.21.03a.4.2-3.6 0 0-.4-.17l-.46.03a.41.03-4.4 0 0-.39.06l-.26.95q-.09.36-.3.06-.84-1.21-1.57.42a.41.28-55.9 0 0 0 .36q.46.64-.37.09a.52.5-68.5 0 1-.21-.5q.36-2.56-1.28-.22a.67.15-52.5 0 0-.23.5q.21.74-.34.14a.79.79 28.8 0 1-.19-.65q.38-2.28-1.34.05-.55.74-.54-.08V364q0-.71-.44-.17-.51.61-1.19.22a.95.7 31.3 0 1-.47-1.14q.54-.78-.5-.97a.78.23-72.6 0 0-.43.64q-.61 1.92-1.11.47-.88-2.59-1.41-.07-.39 1.83-.46-1.25-.01-.56-.37-.07-.81 1.1-1.64-.16a1.2.26-80.9 0 1-.05-.92q.18-1.86-1.63.83-.23.34-.25-.19-.13-2.95-1.72.13a.2.16-55.3 0 1-.28.09l-.24-.25a.41.15-65.8 0 1 .02-.34q.64-1.73-.39-.96a.9.47-42.4 0 1-.8.21q-1.18-.7-.59-2.1.31-.72-.36-.3-.92.59-1.3 1.58-.36.94-.41.25-.01-.12-.04-.22l-.1-.32q.54-2.64-.43-1.21a.83.57 16.3 0 1-.73.24q-.43-.05-.44.58-.01.45-.15.03c-.25-.71.23-4.37-.74-3.34q-.26.27-.12-.07.97-2.29-.83-.37-.34.36-.36-.1l-.18-4.25a.68.32-.3 0 0-.67-.31h-.39a.47.33-1.1 0 0-.48.35q.04.98-.66-1.23-.26-.83-.32.13-.05.78-.36-.18-.16-.5-.21-.06-.13 1.18-.65.2a.91.87-7 0 0-.6-.45q-1.27-.28-1.79-1.42c-.54-1.17-1.15-1.08-1.6.17q-.24.66-.19.13.24-2.7-1.64-1.5a.42.35-35.7 0 1-.51-.04q-.89-1.02-1.47.21-.17.37-.19-.03-.06-1.84-.71-1.15-.37.39-.41-.05-.17-1.9-.41-.74a.74.18-77.5 0 1-.36.73l-.31-.19a.38.37 15.8 0 1-.18-.32l-.01-4a1.31.49-84.4 0 0-.26-.97l-2.13-1.77a.7.25 36.8 0 1-.34-.51q.19-1.05-1-.74a.87.4-11.9 0 1-1.03-.23l.02-.28a.5.4 84.7 0 0-.51-.53q-1.04.34-1.23-.44a1.53.96 89.4 0 0-.59-.92l-2.36-1.3a.67.56-78.4 0 1-.3-.56l-.01-.51a.56.1 0 0 0-.56-.1q-1.63.02-2.45-1.37a.98.1 60.7 0 0-.46-.65l-3.03-1.62a1.19 1.02 9.4 0 1-.57-.68l-.14-.49a.18.14 70.4 0 0-.2-.13q-.7.3-1.07-.32-.19-.31-.66-.72l-3.99-3.52q-.69-.61-.8-.65-1.76-.56-2.83-2.06-.24-.34-.76-.61-1.88-1-2.43-3.03-.32-1.15-3.1-2.8-1.08-.65-1.15-1.95a.74.18 40.6 0 0-.35-.48l-.51-.5a.74.08 44.5 0 0-.5-.39q-.64-.03-.72-.67a.56.18 84.3 0 0-.22-.5l-.43-.06a.4.39-68.9 0 1-.26-.62q.39-.56-.39-.15a.44.34-29.5 0 1-.54-.08q-2.03-3.27-5.18-5.54a1.27.47 30.7 0 1-.65-.8q-.04-1.9-1.77-2.82a2.59 2.29 89.4 0 1-1.11-1.23l-1.86-4.28a1.2.05 29.1 0 0-.96-.59q-1.37-.78-1.43-2.29a.67.07 28.8 0 0-.51-.35q-.53-.29-.51-1.11a1.39.79 35 0 0-.4-.84q-.28-.3-.14-.81a.82.3 5.7 0 0-.84-.41q-1.24-.09-1.58-1.24a.67.34 77 0 0-.43-.52q-.96.02-.51-.76a.89.41 49 0 0-.22-.77q-3.1-4.11-4.66-9.05-.1-.32-.4-.63-1.8-1.79-1.76-4.29a1.02.14 44.4 0 0-.54-.7q-.8-.84-.67-2.07a.79.61 19.3 0 0-.44-.68c-.56-.28-.7-1.94-.98-1.76a.18.15 60 0 1-.23-.08l-1.36-2.52a1.04.51-69.5 0 1-.06-.61l.39-2.85a.6.35 7.7 0 0-.55-.43c-.99-.12-2.39-5.99-2.57-7.09q-.05-.3-.48-.85-.84-1.09-.42-2.62a.53.29 7.3 0 0-.53-.39c-.99-.08-.74-1.22-.94-1.89q-.78-2.56-.79-5.34a.6.22 87 0 0-.28-.64l-.2.07a.21.13-16.8 0 1-.26-.07L52.02 231q-.06-.48.04-.94.15-.63-.3-.94a.97.27 31.2 0 1-.52-.55q-.69-4.59-.23-9.26a.53.23 8.5 0 0-.48-.3q-.25-.04-.34-.2a.67.16 54.5 0 1-.17-.41c.01-3.5-.57-25.93.61-27.05a1.19 1.16-22.2 0 0 .37-.85v-6.25a.75.5-90 0 1 .5-.75h.25a.25.25 0 0 0 .25-.25l.01-4.5a2.1 1.43-37.9 0 1 .32-1q1.18-1.91.58-4.26a.77.68 67.1 0 1 .27-.79q1.62-1.07.22-2.25a.87.34-60.3 0 1 .13-.86q1.07-2 .96-3.77c-.07-1.17 1.83-4.24 2.25-6.01.12-.51 2.06-5.87 1.99-5.95a.3.27 45.6 0 1-.02-.41q1.27-1.22 1.3-2.92a1.71 1.64-27.2 0 1 .31-.9c1.96-2.75 2.16-5.93 3.52-8.54 1.81-3.47 2.38-6.62 4.72-8.81a.4.26-42.9 0 0 .12-.47l-.12-.12a.27.16-46.1 0 1 .07-.3q1.94-2.07 2.67-4.83.4-1.49 3.37-4.44a1.34.75 79.1 0 0 .28-.85c.01-.57 1.8-2 2.11-3.09a1.23 1.18 81.5 0 1 .46-.65q1.85-1.32 1.39-3.51a.7.3 18.2 0 0-.42-.37q-.41-.18.75-.19 1.36-.02.34-.53l-.34-.17q-.63-.32.14-.15 1.18.28 1.12-.53a1.06.74-30.2 0 1 .33-.71q.3-.28.25-.87a1.16.9 70 0 1 .27-.84q4.36-4.31 8.64-8.66 3.93-4 5.71-5.07 2.88-1.73 7.3-7.72a1.48.63-61.7 0 1 .81-.65l.44-.06a.51.19 74.5 0 0 .05-.57q-.17-.6.69-.44a1.08.99-60.3 0 0 .94-.3l1.89-1.87q.65-.65.72-.68c2.58-.92 4.51-3.12 6.09-4.27q3.64-2.63 7.2-5.38.49-.39 2.67-1.41c1.56-.74 2.32-2.91 3.79-3.09q.71-.09.4-.43l-.12-.12a.36.17 46.1 0 1-.12-.36q1.2-1.46 1.03-.64a.47.31-81.6 0 0 .26.56h.5q.58.01.24-.5-.34-.52.53-.51a1.16.48 5.5 0 0 .94-.29q.52-.86 1.55-.7a.5.43-85.5 0 0 .5-.5v-.25a.2.09-2.5 0 1 .19-.1q1.73-.14 3.1-1.06 1.89-1.27 2.72-1.62c1.88-.8 3.58-2.04 5.48-2.69q2.22-.77 4.38-1.71 1.61-.7 4.44-1.43 3.75-.97 6.85-3.37a1.28.56-45.6 0 1 .89-.36q3.89.76 7-1.56a1.28.53-43.5 0 1 .86-.33q2.15.41 3.7-.85a1.19.78-50.2 0 1 .92-.28q2.58.73 4.67-.61a1.25.45-27 0 0 .65-.69q.15-.95.91-.37a.49.13-23.2 0 0 .41-.06q.99-.39.13.4-.66.61.34.22 3.65-1.41 7.61-.52a1.02.6-56.7 0 0 .81-.4c1.32-1.54 3.84-.67 5.28-.72q6.92-.24 13.86-.17a1.47.76-53 0 0 .85-.41l.27-.24a.45.3 43.8 0 1 .5.09q.71.62 1.38.05a.53.4-42.5 0 1 .62-.06q.8.73 1.49-.08a.62.23 35.8 0 1 .62.17q.75.53 1.33.05a.98.19-41.6 0 1 .68-.4q.37 0 .69.19a.63.58 36.9 0 0 .72-.07q.73-.69 1.24-.02.38.5.69.64 2.97 1.33 6.22 1.12a1.07.24 44.7 0 1 .72.45q.56.5 1.3-.53a2.38.67 16.3 0 1 2.21.02q.73.19.27.97a.2.1 14.9 0 0 .19.17q6.68 1.32 10.02.28.26-.09.13.18t.14.56a.71.54-35.1 0 0 .8.03q.86-.52.56.69-.17.72.36.39 1.19-.73 1.86.48a.41.4 49.1 0 0 .68.06l.44-.58q.54-.72.69.27.22 1.34 1.35.82a.7.56 57.7 0 1 .75.26q1.23 1.67 3.27 1.52a1.27.54 49.7 0 1 .83.42q.37.33.92.06a.85.17 18.7 0 1 .68.09q1.05.32 1.54 1.17a1.01.65-19.8 0 0 1.04.24q1.07-.3 1.75.46a.58.39-38.2 0 0 .67-.05l.58-.44a.8.32 53.4 0 1 .74.45q1.18 1.61 3.18 1.65a1.25 1.16-19.3 0 1 .87.38l.95 1.03a1.08.34 50.9 0 0 .74.49q2.37-.22 3.51 1.8a.93.51-12.4 0 0 .85.25q1.98-.27 3.08 1.57a1.04.71-9.8 0 0 .83.38q2.03.02 3.2 1.59a.93.75-18 0 0 .78.3c2.72-.27 2.51 2.66 5.06 2.19a.56.56 73.9 0 1 .63.35c.93 2.43 2.98 2.21 4.27 4.19a.59.5-27.3 0 0 .68.16q.63-.25.92.59-.49.92.95.71a.77.73 69.9 0 1 .73.36c1.24 2.06 4.27.87 4.34 2.85a.63.59-86.2 0 0 .49.6q2.49.42 4 2.63a.73.63-22.8 0 0 .75.24c.17-.05 3.63 2.95 4.36 3.27a.8.46-85.4 0 1 .31.65l.01.58a.6.4-5.2 0 0 .66.36q1.41-.17 2.13.88a.73.12 57.1 0 0 .45.5q1.47-.07.55.28a.33.24 54.4 0 0-.01.48l4.21 4.28q.31.32.47.82.65 2 3.05 2.07a.64.31 80.6 0 1 .37.52q.29 1.49 1.88 1.59a.33.24-75 0 1 .17.43c-.05.13 6.6 7.59 7.62 9.04q.23.32.75.59.88.44.67 1.4a.66.52-67.4 0 0 .18.63q2.38 1.75 3.68 4.33a1.8.65-77 0 1 .12 1q-.04.56.83.55.53-.01.2.43-.97 1.29.5 1.62a1.32 1.28 76.5 0 1 .74.47l2.41 3.09a1.46 1.46 23.8 0 1 .32.82l.07 1.01a.81.78-77.2 0 0 .38.63c.32.18 4.49 2.39 2.73 3.29a.38.35-38.9 0 0-.09.6q2.6 2.05 3.02 5.29a.87.01 49.8 0 0 .54.66l.69.82a.55.47-30.6 0 1-.26.77q-.56.24-.01.51a.77.27 24.5 0 1 .51.49q-.2 1.46 1.18 1.81a1.11.7 79.8 0 1 .61.67l3.09 8.22q.23.63.5.87 1.01.92 1.15 2.3a.23.21 77.8 0 0 .28.2ZM100.75 99.79c-2.8.5 1.67-4.27 2.5-4.86q.51-.36.69-.72.98-1.96 2.87-2.89a1.88.76-69.4 0 0 .71-.77c2.67-4.43 7.67-4.45 9.77-9.47q.19-.47-.3-.26-3.14 1.34-5.17 4.25a1.1.8 11.6 0 1-.82.37c-1.03.02-2.86 2.57-3.91 3.25q-2.16 1.41-2.87 2.1-1.39 1.35-2.78 2.64-.06.07-.36.86-.48 1.31-1.55 2.24-.42.37-.53.69-.67 1.85-2.45 2.39a1.12.88-2.3 0 0-.68.58c-.38 1.02-1.72 1.49-2.21 1.97q-2.68 2.63-4.62 5.85-.73 1.21-2.79 2.4a.68.64 68.5 0 0-.29.73q.25 1.04-.37 1.42a1.09.14-67.3 0 0-.44.76q-.61 1.38-1.57 2.35a1.46.4-39.6 0 0-.54.77c-.22 1.18-2.44 3.15-3.28 4.15a.42.26-48.8 0 0-.08.47l.26.25a.71.46-38.1 0 1-.3.86q-1.09.78-.69 2.17a2.01.48-37.7 0 1-1.16 1.44q-.2.16-.37-.02-.16-.17-.2.05-.26 1.63-.46 1.96-2.09 3.48-3.34 7.31c-.68 2.12-2.01 3.92-2.62 6.15a.38.3-80.1 0 1-.31.27h-.23a.77.39 87.2 0 0-.36.81L70 144a.53.33-.9 0 1-.54.35q-.55.01-.38.87.35 1.78-1.81 5.18a.53.18-61.4 0 1-.33.3q-1.14.05-.27.37a.3.26-57 0 1 .06.47c-1.33 1.4-.64 2.79-.83 4.5a1.29.47-40.7 0 1-.38.68q-1.15 1.29.18 1.56.47.09.06.39c-1.35.98.08 2.86-1.21 4.41a1.62 1.56 68.7 0 0-.36.86l-.31 3.12a.77.52-9.4 0 1-.54.51q-.49.14-.56.99-.09 1.04-1.33 6.69-.03.15.1.07.9-.55 0 .38c-.44.44-.42 2.04-.35 2.68a.78.08 81.9 0 1 .03.69l-.42.68a.29.1-58.6 0 0-.06.27q.69.64-.19.64-.37.01.05.28.72.46.04.68-.55.18-.15.35 1.13.49.06.76a.42.41-88.5 0 0-.28.27q-.4 1.21-.13 2.44a.22.19 87.2 0 1-.21.27l-.38-.08q-.82-.16.22.35 1.04.52-.23.7-.21.03.21.34.57.44 0 .7-.29.13 0 .31.51.31-.11.67a.89.27-27.4 0 0-.55.54l-.17 7.26a.2.15-85.6 0 1-.17.19q-1.16-.09.17.4.27.1-.12.31-1.02.55-.22.66a.36.31 8.4 0 1 .31.36q-.05.25-.22.27a.56.28-4.4 0 0-.52.31l.02 12.5q0 2.13.38.09.55-2.93.44.63a.41.29-87.4 0 1-.31.39q-1.14-.01.47.71a.2.2-73.8 0 1 .12.22c-.41 2.06.31 4.41-.68 5.96a.41.34 30.6 0 0 .18.52q.47.26-.14 1.05-.49.63.35.72 1.9.22.6 1.03a.42.28 71.1 0 0-.11.41q.84 3.56.6 6.74a.57.4-14.5 0 1-.33.39q-.16.06-.26.17-.64.66.26.49 1.42-.27 1.07.73a.25.02-70.3 0 0-.07.25l.25-.01a.46.09 87.6 0 1 .11.45l.16 3.06a.51.4 83.9 0 0 .48.5q.63-.13.44.45a1 .3-67.9 0 0-.07.76q.26.47.19 1.07a.98.2 45.4 0 0 .45.69q.67.72-.19.7-.56-.01-.08.25l.31.16a.86.69 17.8 0 1 .45.68q-.17 4.78.4 1.72.09-.47.12.01c.03.5.51 7.4.91 2.85q.02-.3.06 0l.54 4.17q.05.4.16 0c.44-1.65.87 3.11.88 3.15q.08.25.08 0 0-.2.05-.32.34-.81.43.36l.17 2.04a1.16.41-35.6 0 1-.54.77q-.45.37-.26 1 .05.16.23-.05 1.25-1.47.62.89a.39.14-5 0 1-.32.15q-.15.02-.25.08-.49.27.23.34l1.8.16q.39.03-.08.44-.4.35-.23 1a1.05.54 7.6 0 0 .73.51c.62.17-.21 3.5.68 1.15a.17.15 28.8 0 1 .25-.06q1.07.85.94 1.89-.01.02.16.99l.22 1.26a.79.18 81 0 0 .29.71q1.12.08.58 1.09-.34.63.38.16.76-.49.39.27a.66.54-52.6 0 0 .02.57l1.35 2.15a.22.21-38.7 0 0 .33.03q.68-.63.21.51-.53 1.31.99 2.26a.9.74-77.5 0 1 .37.73q-.01.77.68 1.79a.62.19 59.2 0 0 .35.32q1.98.33.41.84-.44.14-.11.34 1.36.86 1.77 2.38a.78.51 80.5 0 0 .52.57q.83.07.29.58-.52.49.39.55 1.48.09.14.6-.22.09-.03.23c.48.38 3.32 2.58 2.06 2.74q-.46.05-.08.28 1.21.72 1.79 2a.58.27 7.5 0 0 .36.23q1.15.32-.15.44-.19.02-.05.19l1.5 1.81a1.47 1.16 70.7 0 0 .74.47q.75.17.47 1.2a.45.44 14.2 0 0 .33.54q.61.15.8.64.07.18.09-.01.04-.38.22-.42a.58.4-87.5 0 1 .44.7q-.19 1.01.64 1.28a.65.59 12.3 0 1 .45.64q-.18 1.83.58.67.24-.35.41.25.61 2.14 2.62 3.39a.9.34 84.1 0 1 .29.58q.09.42.36.62a.9.14 35.3 0 1 .57.56q.02 1.79.51.78.21-.44.35.06l.36 1.22q.05.2.25-.1.68-1.05.27.31 0 .01.18.2l7.59 7.67a.49.06 44.6 0 0 .37.28q.49-.16.5.46 0 .2.04.02.27-1.17.53-.19a.85.63 13.9 0 0 .38.46q1.01.58 1.68 1.62a.81.18 59.3 0 0 .5.53l1.75-.06a.73.54-1.8 0 1 .74.51q.03.73.76.48a.42.31 83.7 0 1 .4.44l.01.38a.46.31-3.9 0 0 .5.29c1.73-.17-2.05 1.82.04 1.95a.7.23 75 0 1 .35.53q.16.5.7.41a.67.12 72.9 0 1 .3.59q.16.5.7.41a.67.06 68.3 0 1 .3.59q.24.58.95.41a.22.21-89.8 0 1 .25.26l-.05.24q-.36 1.57.29 0 .47-1.13.8.03a.41.34-8.6 0 0 .42.25q1.31-.1 1.59.94a.63.33 72.6 0 0 .54.53q1.28-.61.97.21a.48.13-71.7 0 0-.03.55q1.36-.14 2.09 1.12a1.29.36 54.8 0 1 .31.86q-.31 1.87.38.31.27-.59.42-.25.65 1.48 2.15 2.06a.38.1 86 0 1 .11.33q.12 1.12.35-.14.02-.13.05 0l.43 2.01q.07.33.44-.07.48-.51.65.21.25 1.14.35.06.08-.94.74-.27.38.4.39.11.06-2.07 1.38-.9.67.59.72.61.62.23.46.96-.18.88.26.19.51-.8.78.05a.2.18-32.2 0 0 .32.06l.25-.25q.47-.48.32.3-.12.61.73-.14.47-.43.3.25-.35 1.38.95 2.1a.28.19 22.8 0 0 .39-.08l.05-.43q.1-.75.58.31.98 2.14 3.41 1.99a.53.31.4 0 1 .57.34l-.12.8q-.12.77.38-.01c1.07-1.66 2.65 1.15 2.85 2a.64.33 74.7 0 0 .51.55q1.11-.39 1.54.41.13.23.22.03l.22-.51q.01-.03.34.61.32.64 1.01.52a.78.22-10 0 1 .78.08l.17.57q.19.65.43-.02.54-1.5.66.04.03.41.22.05l.18-.32a.32.21-55.2 0 1 .41-.16l1.16 1.35q.34.39.44.07.17-.55.68-.65.53-.1.28.59-1.2 3.31.75 1.04.22-.26.35-.96.19-.94 1.1-.66.74.22.08.37-1.06.24 0 .54a.68.47 10.5 0 1 .49.49q.02.71 1.04.52a.64.04-10.1 0 1 .63-.07q.18 1.08.97 1.23a.37.28 6.7 0 1 .29.28q.02 1 .55-.11.12-.26.07.03-.19 1.09.36.47.82.03 1.12.58.46.88.25.05-.12-.46.22-.5a.38.37-2.1 0 1 .42.38q-.03 1.17.54-.09.32-.71.3-.04v.24a.84.28 4 0 0 .81.33l1.7.12a.83.55 87.8 0 1 .54.75q.08 1.07.38.82.21-.17.81-.38 1.67-.6 1.93.89a.41.21 81.6 0 1-.15.45q-5.2.4-.06.49.9.02.26.27l-.74.28q-1.01.39.34.35l2.17-.06a.82.66 14.5 0 0 .58-.26q1.32-1.71 1.74.18.17.79.3-.12.17-1.2.74.05.34.72.28-.09-.07-1.21.68-.09a.12.11 49.1 0 0 .19.02q.75-.87 1.77-.27a.53.09 30.2 0 0 .48.18q1.31-1.22 1.29-.1a.53.51.5 0 0 .53.52l3.98.06a.64.57 83.9 0 1 .57.52q.18.9 1.34.47a.47.02-79.5 0 0 .1-.44q.03-.23.25-.37.33-.22.34.46.03 2.17 1.58-.23a.7.45-64.6 0 1 .53-.33q1.74.2.05.7a.41.19 81.5 0 0-.12.4l.05.44a.37.13-31.2 0 0 .44-.09l.88-.62a.45.01 8.4 0 1 .43.05l2.06.29a.96.21 7.3 0 1 .88.31q.25 2.5.65.6a.94.28-82.3 0 1 .28-.62q1.28-.88 1.36.8.02.38.21-.1.86-2.12.77 1.22-.01.28.3-.11.45-.57.76.02a.18.15-35.9 0 0 .27.02l1.26-1.23a.52.1 64.3 0 1 .34.45q.28.6.53-.33.24-.91.47.28.19.99.07 2a.65.18-79 0 0 .04.5c.97 1.14-.39-3.2.9-1.65a.28.18-42.7 0 0 .33-.06q.73-.65.69.2-.03.75.31.05.52-1.09.73-.04.2 1.03.3.07.11-.95.73-.28a.2.19 46 0 0 .28.01q.67-.66.64.18-.04 1.41.58.33l.84-1.46q.18-.31.32-.03l.15.32q.24.49.45-.1.35-.95.66-.03.12.39.31.04.46-.83.71-.06.13.38.33.04l.23-.37q.18-.3.24-.06.39 1.72.45-.35a.84.23-29.2 0 1 .52-.51l.21-.13a.46.39-39.1 0 1 .51.01q.31.25.46-.01a.47.17 21.9 0 1 .48.02q.38.15.89-.09a.41.37 68.5 0 1 .51.26q.26.74.5.27a.69.08-63.1 0 1 .34-.52q.81-.23 1.26.31a.32.19-42.1 0 0 .37-.07q.73-.66.7.2-.02.41.29.01.72-.95 1.81-.21.01.01.21-.05.77-.22 1.6-.32a.24.17-82.3 0 1 .16.31c-.42 1.43 1.72-1.73 1.96.39q.11.95.63.5.96-.84 2.26-1.19a1.24.59-64.5 0 0 .58-.47q.33-.47.56.12.14.36.29.02.47-1.07.78-.07.21.7.21.02-.01-.76.67-.42a.41.08-13.5 0 0 .29-.01q.74-.12.87.4.18.71.17.03-.01-.76.68-.42a.24.19 23.8 0 0 .31-.08q.12-.36.52-.25a.46.37-65.8 0 0 .46-.24q.61-1.04.79-.01a.72.61 3.6 0 0 .53.51q2.63.6 3.63-1.71.37-.85 1.04-.31a.54.49 36.9 0 0 .76-.07q1.81-2.77 1.82-.73 0 .84.43.05l.96-1.75q.25-.46.54.07.43.8 1.53.41a1.98 1.83 38.8 0 1 1-.07q2.29.44 3.07-1.82.28-.81.38.15.29 2.74.48.33a.7.6-16.5 0 1 .33-.51q.86-.56.92-1.56.02-.42.32.02.73 1.09.61-.06a.57.38 86.9 0 1 .38-.64l.81.07a.52.39-83.7 0 1 .33.56q-.09.77.68.66.56-.08.11.36-.33.31.25.37a.39.34 2.3 0 0 .43-.35q-.02-.51.46-.55a.7.63-78.5 0 0 .54-.4q.44-.94 1.47-.6a.58.48-73.5 0 0 .64-.43q.29-1.05.54.01.1.39.25.04.59-1.36.85-.13.11.51.16.02.21-2.27 2.96-1.46a.88.48 28.8 0 0 .58 0q.74-.36.69-1.24a.75.29 86.5 0 1 .25-.77l2.94-.1a.79.21.1 0 0 .68-.18q.75-1.5 1.68-.2 0 .01.26-.13l.85-.45q.22-.12-.1-.15c-4.01-.36.18-.95.63-.89a.9.68-65.4 0 0 .73-.39q.86-1.18 1.62.01.26.41.32-.02c.07-.58-.5-2 .44-1.64a.31.29 27.4 0 0 .36-.1q1.17-1.76.47-.12a.27.22-79.5 0 0 .21.37q.94-.11.65-1.23a.6.4 77.4 0 1 .27-.71l1.17-.17a.69.16-62.6 0 0 .38-.44q.53-.92.7.08.05.32.23 0 .59-1.04.77 0 .22 1.23.44.18.09-.44.06-.94a.7.29 86.2 0 1 .24-.71l1.2-.16a.68.5 83.5 0 0 .41-.71q-.13-1.35 1.18-2.12a.27.13 75 0 1 .22.26l.05.27q.1.49.47-.08.47-.74 2.02-.22a.32.27 32.4 0 0 .29-.04l.37-.26a1.19.57-25.4 0 0 .44-.54q.22-.82 1.38-.64a.52.32-68.9 0 0 .41-.31q.59-1.12.81.05.14.75.35-.05.17-.59.06-1.29-.11-.72.34-.49 1.75.89 1.78-.9a.77.54 89.4 0 1 .51-.75q1.36-.08 2.2-1.3.14-.2-.18-.18l-.38.04q-.44.03.1-.58l.81-.94q.25-.29.25-.21-.18 1.84.47.42a.69.23-12.7 0 1 .45-.27q1.05-.31-.01-.53-1-.21-.03-.27 1.42-.1 2.24-1.04a1.05.96-66.8 0 1 .8-.36q2.69.15 4.23-2.19.1-.15-.06-.15l-.16.01a.41.24-1 0 1-.42-.23q0-1.47 1.34-1.28a.33.27-89.4 0 1 .24.3q.07 1.08.48-.39.29-1.04.4.25.32 3.57.59-.96c0-.1.49-2.04.76-.56q.08.42.19.02.14-.51.02-1.04a.95.54 66.7 0 1 .08-.69c1.25-1.58-.07 5.28 1.26-.53q.09-.38.12 0 .26 3.07.57-.63c.1-1.14.61-1.65.57.33q-.01.46.17.03 1.45-3.62 1.89.15.06.53.19.01.33-1.24.13-2.59a1.06.84-31.4 0 1 .29-.79l.73-.78q.39-.41.41.12.18 5.44.67-.81.04-.4.16-.02.45 1.36.72-.66.17-1.33.55-.26.23.68.38.01l.19-.93a.63.23-79.7 0 1 .3-.52l2.31-.21a.43.25 88.8 0 0 .23-.42q.01-.69.61-.34a.48.05-8.4 0 0 .42-.02q1.82-.26.18-.6-1.31-.26 0-.46l1.42-.21a.41.36-4.6 0 0 .35-.36l.05-2.74a1.13.31-29.1 0 1 .7-.69q.38-.22.23-.75a1.17.56 67.6 0 1 .05-.93q.63-.75.7.18.06.77.29.04.09-.3.06-.64a.86.36 81.4 0 1 .2-.82q.91-.36 1.29.18.48.67.47.19-.04-1.38 1.02-2a.91.48 63.6 0 0 .03-.98q-.5-1.09.33-1.5a1.18.87-87.2 0 0 .5-.61q.71-1.94 2.43-3.29a1.14.33 11.7 0 1 .87-.07q1.2.15.78-.75a.36.3 74.2 0 1 .23-.5l.26-.01a.49.19-4.5 0 0 .5-.24q-.22-.84.49-.76a.48.26 5 0 0 .52-.23l.05-1.72a.75.36 82.7 0 1 .17-.51l.82-.72a.32.3-39.3 0 1 .44.03q.65.84.62-.93a.65.38 89.4 0 1 .38-.66l.25.01a.42.42-9 0 0 .4-.55q-.54-1.59.44-2.57a.92.27-41.8 0 0 .4-.64q-.1-.6.51-.51a.48.24 3.3 0 0 .58-.25q-.65-2.03.64-2.47a.77.46 79 0 0 .28-.77q-.18-1.33.69-2.31a.95.11-47.5 0 0 .47-.65l.03-.74a.51.36-8.2 0 1 .39-.37q.5-.12.41-.69a.61.27-3 0 1 .62-.32q.88-.03.44-1.75a.69.41-16.1 0 1 .53-.57q.68-.21.56-1.29a.91.07-48.8 0 1 .51-.68q.69-.8.31-2.12a.82.2-19.7 0 1 .69-.46q.62-.23.4-1.49a.87.54-29.7 0 1 .38-.7q1.08-.83.46-2.34a.53.03 24.6 0 0-.43-.23q-.84-.4.32-.56a.39.34 78 0 0 .27-.48q-.35-1.22.14-2.26.22-.44.36.02l.08.24q.39 1.25.38 0l-.01-2.26a1.02.31 86.1 0 1 .19-.84q1.29-.91.76-2.65a.72.46-20.7 0 1 .49-.66c.84-.35.68-6.2.72-7.42a.71.34-89.6 0 1 .33-.67q.92-.08.27-.52a.73.22 30 0 1-.39-.42l-.09-.56a.46.41 78.6 0 1 .29-.49q.85-.22.14-.44a.5.42 5.8 0 1-.32-.33q-.26-1.19.36-2.15a1.43.94-40.4 0 0 .24-.82q-.22-2.02.79-.85.27.3.27.08l.13-4.26q.02-.77-.05-1.02-.32-1.09.83-1.45.65-.2.04-.26-1.43-.13-.25-.54a.63.42 77.3 0 0 .25-.65q-.47-3.05.6-1.78.41.48.41-.04l.03-8.25a.25.21 90 0 1 .21-.25h.25a.51.5-.6 0 0 .5-.5V202a.49.27-89 0 0-.25-.48q-1.39-.12-.07-.5a.49.18-15.4 0 0 .38-.27l-.05-2.25a.44.35 82.3 0 1 .25-.42q.39-.12.35.26-.04.34.01.47c.22.67.96-1.63-.08-1.48a.47.36-5.4 0 1-.54-.33v-5a.42.39-1.4 0 0-.44-.39q-.88.03-.25-.56a.51.09-41.6 0 0 .3-.38q-.92-3.21-.62-6.64a.68.07 22.2 0 0-.58-.31l-.42-.17q-.45-.19.29-.5 1.47-.62-.04-.3a.29.17 78.3 0 1-.22-.25q-.29-1.2-1.34-1.81a.99.46 24.7 0 1-.53-.62l-.23-8.5a.78.47-89.9 0 0-.46-.76c-.74-.04-.36-3.32-.49-5.01a.33.21 85.9 0 0-.22-.3H349a.51.5-.6 0 0-.5.5v9.5a.88.38 23.6 0 0 .52.56c.61.34-.17 2.2.57 3.03a.28.26-33.4 0 1-.1.41q-.9.44.09.66.24.05-.1.34-.47.39.1.68.32.17-.09.32-.47.17-.06.6a.59.52 35.2 0 1 .14.58q-.3.8-.07 1.65a.2.17-20.7 0 1-.12.22c-.27.1-.29.18-.26.45q.54 5.65.22 11.3-.02.29.18.95.21.69-.53 1.05a.34.34-13.2 0 1-.49-.3v-17.5q0-.1-.38-.93-.79-1.72-.66-3.57.07-1.01.04-1.07l-.62-1.3a.63.39 62.2 0 1 .05-.69q1.14-.7.07-.48a.41.33 83.9 0 1-.4-.4l-.12-4a.19.11-24.4 0 0-.26-.02q-.39.24-.21-.55a.88.55-20.7 0 1 .32-.42q.49-.38-.32-.69a.54.52-72 0 1-.31-.63q.47-1.76-.26-3.37a.49.11-64 0 1 .09-.39q.3-.71-.5.02-.16.15-.17-.2l-.09-3.06a.66.55-4.2 0 0-.73-.52q-1.16.14-1.75 1.27C314.42 48.88 176.67 14.78 100.75 99.79Z"/><path fill="#3ea118" d="M342.29 159.5c9.08 42.29.51 84.96-26.05 118.73-48.42 61.57-138.85 72.02-199.22 21.75-60.95-50.75-68.12-140.42-16.27-200.19 75.92-85.01 213.67-50.91 241.54 59.71Zm-168.58 2.913a.41.41 0 0 0-.41-.41l-7.32.013a.41.41 0 0 0-.41.411l.08 45.16a.41.41 0 0 0 .41.41l7.32-.013a.41.41 0 0 0 .41-.411l-.08-45.16Zm84.64 29.507 11.36 16.12a.93.47 57.6 0 0 .79.47l6.83-2.39a.38.35 60.4 0 0 .13-.58L265.7 190.8a.73.62 47.8 0 1-.03-.88l9.83-10.67a.39.35-57.1 0 0-.1-.6l-5.33-2.24a.86.61-55.4 0 0-.85.31l-9.74 11.5q-1.75 2.06-1.75-.72l.05-24.94a.56.53-90 0 0-.53-.56H250a.75.45 90 0 0-.45.75l-.05 44.5a.75.5 90 0 0 .5.75h7.25a.75.54-90 0 0 .54-.75l-.05-15.18q-.01-1.02.61-.15Zm26.31-21.06q-.85 1.65 2.29 3.54a1.39 1.39-60.4 0 0 1.95-.54c3.01-5.71-3.33-5.27-3.87-3.91q-.3.76-.37.91Zm-172.35 33.08q-2.21-.31-5.14-2.75a.53.4 36.5 0 0-.71.01l-2.18 3.56a.75.6 32.7 0 0 .3.9q7.51 4.99 15.05 2.04c5.75-2.25 7.84-7.33 4.82-12.89q-.98-1.79-8.19-7.37c-6.82-5.27.92-8.2 5.79-5.38a.72.39 30.7 0 0 .81.03l1.99-3.28a.82.37 28.3 0 0-.56-.73c-5.11-2.7-12.22-3-16.43 1.17-6.79 6.72 2.95 14.03 7.68 17.22 4.35 2.92 1.78 8.18-3.23 7.47Zm25.43-23.7.01-2.99a.75.49.3 0 0-.75-.5h-6.75a.5.5 0 0 0-.5.5V223a.75.5 90 0 0 .5.75h7a.75.5-90 0 0 .5-.75v-18.25q0-.69.53-.16 4.94 4.98 11.09 3.92c15.83-2.73 17.56-29.61.92-32.26q-6.55-1.04-12.12 4.1-.43.4-.43-.11Zm84.94-.24-.09-2.81a.59.45-.5 0 0-.59-.44h-7a.5.5 0 0 0-.5.5v30a.7.43 90 0 0 .43.7l7.07.07a.68.56 89.4 0 0 .57-.7c-.16-5.87-1.09-16.94.75-21.91 1.72-4.66 9.01-5.28 11.28-1.38 2.42 4.15 1.14 18.01 1.22 23.31a.67.43 89.4 0 0 .43.66h7a.64.57 89.5 0 0 .57-.65q-.09-11.27-.11-22.54c0-3.93-3.42-7.5-7.31-8.4q-7.37-1.7-13.22 3.69-.49.44-.5-.1Zm-22.17 24.76-.01 2.49a.74.5-89.5 0 0 .5.75h7.25a.75.5-90 0 0 .5-.75v-30a.62.5 90 0 0-.5-.62l-7 .05a.53.37-1.2 0 0-.52.38q.25 9.03-.23 18.05c-.52 9.82-12.41 10.94-12.9 2.56q-.22-3.74-.34-20.46a.72.51 89.5 0 0-.51-.71h-7a.67.41-88.7 0 0-.42.65c-.17 7.57-1.97 25.89 3.96 29.83 5.99 3.97 11.37 1.08 16.73-2.4q.49-.32.49.18Zm84.32-2.78a.43.43 76 0 1 .23-.39l18.31-9.15a.43.43-46.1 0 0 0-.77l-18.21-8.94a.43.43-76.9 0 1-.24-.39l.04-4.59a.43.43-76.4 0 1 .63-.38l23.63 12.03a.43.43-78.5 0 1 .24.36l.16 4.64a.43.43-12.7 0 1-.24.4l-23.84 11.94a.43.43 76.5 0 1-.62-.38l-.09-4.38Z"/><path fill="#010000" fill-opacity=".098" d="M100.75 99.79c-51.85 59.77-44.68 149.44 16.27 200.19 60.37 50.27 150.8 39.82 199.22-21.75 26.56-33.77 35.13-76.44 26.05-118.73q.59-1.13 1.75-1.27a.66.55-4.2 0 1 .73.52l.09 3.06q.01.35.17.2.8-.73.5-.02a.49.11-64 0 0-.09.39q.73 1.61.26 3.37a.54.52-72 0 0 .31.63q.81.31.32.69a.88.55-20.7 0 0-.32.42q-.18.79.21.55a.19.11-24.4 0 1 .26.02l.12 4a.41.33 83.9 0 0 .4.4q1.07-.22-.07.48a.63.39 62.2 0 0-.05.69l.62 1.3q.03.06-.04 1.07-.13 1.85.66 3.57.38.83.38.93V198a.34.34-13.2 0 0 .49.3q.74-.36.53-1.05-.2-.66-.18-.95.32-5.65-.22-11.3c-.03-.27-.01-.35.26-.45a.2.17-20.7 0 0 .12-.22q-.23-.85.07-1.65a.59.52 35.2 0 0-.14-.58q-.41-.43.06-.6.41-.15.09-.32-.57-.29-.1-.68.34-.29.1-.34-.99-.22-.09-.66a.28.26-33.4 0 0 .1-.41c-.74-.83.04-2.69-.57-3.03a.88.38 23.6 0 1-.52-.56V166a.51.5-.6 0 1 .5-.5h.25a.33.21 85.9 0 1 .22.3c.13 1.69-.25 4.97.49 5.01a.78.47-89.9 0 1 .46.76l.23 8.5a.99.46 24.7 0 0 .53.62q1.05.61 1.34 1.81a.29.17 78.3 0 0 .22.25q1.51-.32.04.3-.74.31-.29.5l.42.17a.68.07 22.2 0 1 .58.31q-.3 3.43.62 6.64a.51.09-41.6 0 1-.3.38q-.63.59.25.56a.42.39-1.4 0 1 .44.39v5a.47.36-5.4 0 0 .54.33c1.04-.15.3 2.15.08 1.48q-.05-.13-.01-.47.04-.38-.35-.26a.44.35 82.3 0 0-.25.42l.05 2.25a.49.18-15.4 0 1-.38.27q-1.32.38.07.5a.49.27-89 0 1 .25.48v8.5a.51.5-.6 0 1-.5.5h-.25a.25.21-90 0 0-.21.25l-.03 8.25q0 .52-.41.04-1.07-1.27-.6 1.78a.63.42 77.3 0 1-.25.65q-1.18.41.25.54.61.06-.04.26-1.15.36-.83 1.45.07.25.05 1.02l-.13 4.26q0 .22-.27-.08-1.01-1.17-.79.85a1.43.94-40.4 0 1-.24.82q-.62.96-.36 2.15a.5.42 5.8 0 0 .32.33q.71.22-.14.44a.46.41 78.6 0 0-.29.49l.09.56a.73.22 30 0 0 .39.42q.65.44-.27.52a.71.34-89.6 0 0-.33.67c-.04 1.22.12 7.07-.72 7.42a.72.46-20.7 0 0-.49.66q.53 1.74-.76 2.65a1.02.31 86.1 0 0-.19.84l.01 2.26q.01 1.25-.38 0l-.08-.24q-.14-.46-.36-.02-.49 1.04-.14 2.26a.39.34 78 0 1-.27.48q-1.16.16-.32.56a.53.03 24.6 0 1 .43.23q.62 1.51-.46 2.34a.87.54-29.7 0 0-.38.7q.22 1.26-.4 1.49a.82.2-19.7 0 0-.69.46q.38 1.32-.31 2.12a.91.07-48.8 0 0-.51.68q.12 1.08-.56 1.29a.69.41-16.1 0 0-.53.57q.44 1.72-.44 1.75a.61.27-3 0 0-.62.32q.09.57-.41.69a.51.36-8.2 0 0-.39.37l-.03.74a.95.11-47.5 0 1-.47.65q-.87.98-.69 2.31a.77.46 79 0 1-.28.77q-1.29.44-.64 2.47a.48.24 3.3 0 1-.58.25q-.61-.09-.51.51a.92.27-41.8 0 1-.4.64q-.98.98-.44 2.57a.42.42-9 0 1-.4.55L336 278a.65.38 89.4 0 0-.38.66q.03 1.77-.62.93a.32.3-39.3 0 0-.44-.03l-.82.72a.75.36 82.7 0 0-.17.51l-.05 1.72a.48.26 5 0 1-.52.23q-.71-.08-.49.76a.49.19-4.5 0 1-.5.24l-.26.01a.36.3 74.2 0 0-.23.5q.42.9-.78.75a1.14.33 11.7 0 0-.87.07q-1.72 1.35-2.43 3.29a1.18.87-87.2 0 1-.5.61q-.83.41-.33 1.5a.91.48 63.6 0 1-.03.98q-1.06.62-1.02 2 .01.48-.47-.19-.38-.54-1.29-.18a.86.36 81.4 0 0-.2.82q.03.34-.06.64-.23.73-.29-.04-.07-.93-.7-.18a1.17.56 67.6 0 0-.05.93q.15.53-.23.75a1.13.31-29.1 0 0-.7.69l-.05 2.74a.41.36-4.6 0 1-.35.36l-1.42.21q-1.31.2 0 .46 1.64.34-.18.6a.48.05-8.4 0 1-.42.02q-.6-.35-.61.34a.43.25 88.8 0 1-.23.42l-2.31.21a.63.23-79.7 0 0-.3.52l-.19.93q-.15.67-.38-.01-.38-1.07-.55.26-.27 2.02-.72.66-.12-.38-.16.02-.49 6.25-.67.81-.02-.53-.41-.12l-.73.78a1.06.84-31.4 0 0-.29.79q.2 1.35-.13 2.59-.13.52-.19-.01-.44-3.77-1.89-.15-.18.43-.17-.03c.04-1.98-.47-1.47-.57-.33q-.31 3.7-.57.63-.03-.38-.12 0c-1.33 5.81-.01-1.05-1.26.53a.95.54 66.7 0 0-.08.69q.12.53-.02 1.04-.11.4-.19-.02c-.27-1.48-.76.46-.76.56q-.27 4.53-.59.96-.11-1.29-.4-.25-.41 1.47-.48.39a.33.27-89.4 0 0-.24-.3q-1.34-.19-1.34 1.28a.41.24-1 0 0 .42.23l.16-.01q.16 0 .06.15-1.54 2.34-4.23 2.19a1.05.96-66.8 0 0-.8.36q-.82.94-2.24 1.04-.97.06.03.27 1.06.22.01.53a.69.23-12.7 0 0-.45.27q-.65 1.42-.47-.42 0-.08-.25.21l-.81.94q-.54.61-.1.58l.38-.04q.32-.02.18.18-.84 1.22-2.2 1.3a.77.54 89.4 0 0-.51.75q-.03 1.79-1.78.9-.45-.23-.34.49.11.7-.06 1.29-.21.8-.35.05-.22-1.17-.81-.05a.52.32-68.9 0 1-.41.31q-1.16-.18-1.38.64a1.19.57-25.4 0 1-.44.54l-.37.26a.32.27 32.4 0 1-.29.04q-1.55-.52-2.02.22-.37.57-.47.08l-.05-.27a.27.13 75 0 0-.22-.26q-1.31.77-1.18 2.12a.68.5 83.5 0 1-.41.71l-1.2.16a.7.29 86.2 0 0-.24.71q.03.5-.06.94-.22 1.05-.44-.18-.18-1.04-.77 0-.18.32-.23 0-.17-1-.7-.08a.69.16-62.6 0 1-.38.44l-1.17.17a.6.4 77.4 0 0-.27.71q.29 1.12-.65 1.23a.27.22-79.5 0 1-.21-.37q.7-1.64-.47.12a.31.29 27.4 0 1-.36.1c-.94-.36-.37 1.06-.44 1.64q-.06.43-.32.02-.76-1.19-1.62-.01a.9.68-65.4 0 1-.73.39c-.45-.06-4.64.53-.63.89q.32.03.1.15l-.85.45q-.26.14-.26.13-.93-1.3-1.68.2a.79.21.1 0 1-.68.18l-2.94.1a.75.29 86.5 0 0-.25.77q.05.88-.69 1.24a.88.48 28.8 0 1-.58 0q-2.75-.81-2.96 1.46-.05.49-.16-.02-.26-1.23-.85.13-.15.35-.25-.04-.25-1.06-.54-.01a.58.48-73.5 0 1-.64.43q-1.03-.34-1.47.6a.7.63-78.5 0 1-.54.4q-.48.04-.46.55a.39.34 2.3 0 1-.43.35q-.58-.06-.25-.37.45-.44-.11-.36-.77.11-.68-.66a.52.39-83.7 0 0-.33-.56l-.81-.07a.57.38 86.9 0 0-.38.64q.12 1.15-.61.06-.3-.44-.32-.02-.06 1-.92 1.56a.7.6-16.5 0 0-.33.51q-.19 2.41-.48-.33-.1-.96-.38-.15-.78 2.26-3.07 1.82a1.98 1.83 38.8 0 0-1 .07q-1.1.39-1.53-.41-.29-.53-.54-.07l-.96 1.75q-.43.79-.43-.05-.01-2.04-1.82.73a.54.49 36.9 0 1-.76.07q-.67-.54-1.04.31-1 2.31-3.63 1.71a.72.61 3.6 0 1-.53-.51q-.18-1.03-.79.01a.46.37-65.8 0 1-.46.24q-.4-.11-.52.25a.24.19 23.8 0 1-.31.08q-.69-.34-.68.42.01.68-.17-.03-.13-.52-.87-.4a.41.08-13.5 0 1-.29.01q-.68-.34-.67.42 0 .68-.21-.02-.31-1-.78.07-.15.34-.29-.02-.23-.59-.56-.12a1.24.59-64.5 0 1-.58.47q-1.3.35-2.26 1.19-.52.45-.63-.5c-.24-2.12-2.38 1.04-1.96-.39a.24.17-82.3 0 0-.16-.31q-.83.1-1.6.32-.2.06-.21.05-1.09-.74-1.81.21-.31.4-.29-.01.03-.86-.7-.2a.32.19-42.1 0 1-.37.07q-.45-.54-1.26-.31a.69.08-63.1 0 0-.34.52q-.24.47-.5-.27a.41.37 68.5 0 0-.51-.26q-.51.24-.89.09a.47.17 21.9 0 0-.48-.02q-.15.26-.46.01a.46.39-39.1 0 0-.51-.01l-.21.13a.84.23-29.2 0 0-.52.51q-.06 2.07-.45.35-.06-.24-.24.06l-.23.37q-.2.34-.33-.04-.25-.77-.71.06-.19.35-.31-.04-.31-.92-.66.03-.21.59-.45.1l-.15-.32q-.14-.28-.32.03l-.84 1.46q-.62 1.08-.58-.33.03-.84-.64-.18a.2.19 46 0 1-.28-.01q-.62-.67-.73.28-.1.96-.3-.07-.21-1.05-.73.04-.34.7-.31-.05.04-.85-.69-.2a.28.18-42.7 0 1-.33.06c-1.29-1.55.07 2.79-.9 1.65a.65.18-79 0 1-.04-.5q.12-1.01-.07-2-.23-1.19-.47-.28-.25.93-.53.33a.52.1 64.3 0 0-.34-.45l-1.26 1.23a.18.15-35.9 0 1-.27-.02q-.31-.59-.76-.02-.31.39-.3.11.09-3.34-.77-1.22-.19.48-.21.1-.08-1.68-1.36-.8a.94.28-82.3 0 0-.28.62q-.4 1.9-.65-.6a.96.21 7.3 0 0-.88-.31l-2.06-.29a.45.01 8.4 0 0-.43-.05l-.88.62a.37.13-31.2 0 1-.44.09l-.05-.44a.41.19 81.5 0 1 .12-.4q1.69-.5-.05-.7a.7.45-64.6 0 0-.53.33q-1.55 2.4-1.58.23-.01-.68-.34-.46-.22.14-.25.37a.47.02-79.5 0 1-.1.44q-1.16.43-1.34-.47a.64.57 83.9 0 0-.57-.52l-3.98-.06a.53.51.5 0 1-.53-.52q.02-1.12-1.29.1a.53.09 30.2 0 1-.48-.18q-1.02-.6-1.77.27a.12.11 49.1 0 1-.19-.02q-.75-1.12-.68.09.06.81-.28.09-.57-1.25-.74-.05-.13.91-.3.12-.42-1.89-1.74-.18a.82.66 14.5 0 1-.58.26l-2.17.06q-1.35.04-.34-.35l.74-.28q.64-.25-.26-.27-5.14-.09.06-.49a.41.21 81.6 0 0 .15-.45q-.26-1.49-1.93-.89-.6.21-.81.38-.3.25-.38-.82a.83.55 87.8 0 0-.54-.75l-1.7-.12a.84.28 4 0 1-.81-.33v-.24q.02-.67-.3.04-.57 1.26-.54.09a.38.37-2.1 0 0-.42-.38q-.34.04-.22.5.21.83-.25-.05-.3-.55-1.12-.58-.55.62-.36-.47.05-.29-.07-.03-.53 1.11-.55.11a.37.28 6.7 0 0-.29-.28q-.79-.15-.97-1.23a.64.04-10.1 0 0-.63.07q-1.02.19-1.04-.52a.68.47 10.5 0 0-.49-.49q-1.06-.3 0-.54.66-.15-.08-.37-.91-.28-1.1.66-.13.7-.35.96-1.95 2.27-.75-1.04.25-.69-.28-.59-.51.1-.68.65-.1.32-.44-.07l-1.16-1.35a.32.21-55.2 0 0-.41.16l-.18.32q-.19.36-.22-.05-.12-1.54-.66-.04-.24.67-.43.02l-.17-.57a.78.22-10 0 0-.78-.08q-.69.12-1.01-.52-.33-.64-.34-.61l-.22.51q-.09.2-.22-.03-.43-.8-1.54-.41a.64.33 74.7 0 1-.51-.55c-.2-.85-1.78-3.66-2.85-2q-.5.78-.38.01l.12-.8a.53.31.4 0 0-.57-.34q-2.43.15-3.41-1.99-.48-1.06-.58-.31l-.05.43a.28.19 22.8 0 1-.39.08q-1.3-.72-.95-2.1.17-.68-.3-.25-.85.75-.73.14.15-.78-.32-.3l-.25.25a.2.18-32.2 0 1-.32-.06q-.27-.85-.78-.05-.44.69-.26-.19.16-.73-.46-.96-.05-.02-.72-.61-1.32-1.17-1.38.9-.01.29-.39-.11-.66-.67-.74.27-.1 1.08-.35-.06-.17-.72-.65-.21-.37.4-.44.07l-.43-2.01q-.03-.13-.05 0-.23 1.26-.35.14a.38.1 86 0 0-.11-.33q-1.5-.58-2.15-2.06-.15-.34-.42.25-.69 1.56-.38-.31a1.29.36 54.8 0 0-.31-.86q-.73-1.26-2.09-1.12a.48.13-71.7 0 1 .03-.55q.31-.82-.97-.21a.63.33 72.6 0 1-.54-.53q-.28-1.04-1.59-.94a.41.34-8.6 0 1-.42-.25q-.33-1.16-.8-.03-.65 1.57-.29 0l.05-.24a.22.21-89.8 0 0-.25-.26q-.71.17-.95-.41a.67.06 68.3 0 0-.3-.59q-.54.09-.7-.41a.67.12 72.9 0 0-.3-.59q-.54.09-.7-.41a.7.23 75 0 0-.35-.53c-2.09-.13 1.69-2.12-.04-1.95a.46.31-3.9 0 1-.5-.29l-.01-.38a.42.31 83.7 0 0-.4-.44q-.73.25-.76-.48a.73.54-1.8 0 0-.74-.51l-1.75.06a.81.18 59.3 0 1-.5-.53q-.67-1.04-1.68-1.62a.85.63 13.9 0 1-.38-.46q-.26-.98-.53.19-.04.18-.04-.02-.01-.62-.5-.46a.49.06 44.6 0 1-.37-.28l-7.59-7.67q-.18-.19-.18-.2.41-1.36-.27-.31-.2.3-.25.1l-.36-1.22q-.14-.5-.35-.06-.49 1.01-.51-.78a.9.14 35.3 0 0-.57-.56q-.27-.2-.36-.62a.9.34 84.1 0 0-.29-.58q-2.01-1.25-2.62-3.39-.17-.6-.41-.25-.76 1.16-.58-.67a.65.59 12.3 0 0-.45-.64q-.83-.27-.64-1.28a.58.4-87.5 0 0-.44-.7q-.18.04-.22.42-.02.19-.09.01-.19-.49-.8-.64a.45.44 14.2 0 1-.33-.54q.28-1.03-.47-1.2a1.47 1.16 70.7 0 1-.74-.47l-1.5-1.81q-.14-.17.05-.19 1.3-.12.15-.44a.58.27 7.5 0 1-.36-.23q-.58-1.28-1.79-2-.38-.23.08-.28c1.26-.16-1.58-2.36-2.06-2.74q-.19-.14.03-.23 1.34-.51-.14-.6-.91-.06-.39-.55.54-.51-.29-.58a.78.51 80.5 0 1-.52-.57q-.41-1.52-1.77-2.38-.33-.2.11-.34 1.57-.51-.41-.84a.62.19 59.2 0 1-.35-.32q-.69-1.02-.68-1.79a.9.74-77.5 0 0-.37-.73q-1.52-.95-.99-2.26.47-1.14-.21-.51a.22.21-38.7 0 1-.33-.03l-1.35-2.15a.66.54-52.6 0 1-.02-.57q.37-.76-.39-.27-.72.47-.38-.16.54-1.01-.58-1.09a.79.18 81 0 1-.29-.71l-.22-1.26q-.17-.97-.16-.99.13-1.04-.94-1.89a.17.15 28.8 0 0-.25.06c-.89 2.35-.06-.98-.68-1.15a1.05.54 7.6 0 1-.73-.51q-.17-.65.23-1 .47-.41.08-.44l-1.8-.16q-.72-.07-.23-.34.1-.06.25-.08a.39.14-5 0 0 .32-.15q.63-2.36-.62-.89-.18.21-.23.05-.19-.63.26-1a1.16.41-35.6 0 0 .54-.77l-.17-2.04q-.09-1.17-.43-.36-.05.12-.05.32 0 .25-.08 0c-.01-.04-.44-4.8-.88-3.15q-.11.4-.16 0l-.54-4.17q-.04-.3-.06 0c-.4 4.55-.88-2.35-.91-2.85q-.03-.48-.12-.01-.57 3.06-.4-1.72a.86.69 17.8 0 0-.45-.68l-.31-.16q-.48-.26.08-.25.86.02.19-.7a.98.2 45.4 0 1-.45-.69q.07-.6-.19-1.07a1 .3-67.9 0 1 .07-.76q.19-.58-.44-.45a.51.4 83.9 0 1-.48-.5l-.16-3.06a.46.09 87.6 0 0-.11-.45l-.25.01a.25.02-70.3 0 1 .07-.25q.35-1-1.07-.73-.9.17-.26-.49.1-.11.26-.17a.57.4-14.5 0 0 .33-.39q.24-3.18-.6-6.74a.42.28 71.1 0 1 .11-.41q1.3-.81-.6-1.03-.84-.09-.35-.72.61-.79.14-1.05a.41.34 30.6 0 1-.18-.52c.99-1.55.27-3.9.68-5.96a.2.2-73.8 0 0-.12-.22q-1.61-.72-.47-.71a.41.29-87.4 0 0 .31-.39q.11-3.56-.44-.63-.38 2.04-.38-.09l-.02-12.5a.56.28-4.4 0 1 .52-.31q.17-.02.22-.27a.36.31 8.4 0 0-.31-.36q-.8-.11.22-.66.39-.21.12-.31-1.33-.49-.17-.4a.2.15-85.6 0 0 .17-.19l.17-7.26a.89.27-27.4 0 1 .55-.54q.62-.36.11-.67-.29-.18 0-.31.57-.26 0-.7-.42-.31-.21-.34 1.27-.18.23-.7-1.04-.51-.22-.35l.38.08a.22.19 87.2 0 0 .21-.27q-.27-1.23.13-2.44a.42.41-88.5 0 1 .28-.27q1.07-.27-.06-.76-.4-.17.15-.35.68-.22-.04-.68-.42-.27-.05-.28.88 0 .19-.64a.29.1-58.6 0 1 .06-.27l.42-.68a.78.08 81.9 0 0-.03-.69c-.07-.64-.09-2.24.35-2.68q.9-.93 0-.38-.13.08-.1-.07 1.24-5.65 1.33-6.69.07-.85.56-.99a.77.52-9.4 0 0 .54-.51l.31-3.12a1.62 1.56 68.7 0 1 .36-.86c1.29-1.55-.14-3.43 1.21-4.41q.41-.3-.06-.39-1.33-.27-.18-1.56a1.29.47-40.7 0 0 .38-.68c.19-1.71-.5-3.1.83-4.5a.3.26-57 0 0-.06-.47q-.87-.32.27-.37a.53.18-61.4 0 0 .33-.3q2.16-3.4 1.81-5.18-.17-.86.38-.87A.53.33-.9 0 0 70 144l-.1-1.69a.77.39 87.2 0 1 .36-.81h.23a.38.3-80.1 0 0 .31-.27c.61-2.23 1.94-4.03 2.62-6.15q1.25-3.83 3.34-7.31.2-.33.46-1.96.04-.22.2-.05.17.18.37.02a2.01.48-37.7 0 0 1.16-1.44q-.4-1.39.69-2.17a.71.46-38.1 0 0 .3-.86l-.26-.25a.42.26-48.8 0 1 .08-.47c.84-1 3.06-2.97 3.28-4.15a1.46.4-39.6 0 1 .54-.77q.96-.97 1.57-2.35a1.09.14-67.3 0 1 .44-.76q.62-.38.37-1.42a.68.64 68.5 0 1 .29-.73q2.06-1.19 2.79-2.4 1.94-3.22 4.62-5.85c.49-.48 1.83-.95 2.21-1.97a1.12.88-2.3 0 1 .68-.58q1.78-.54 2.45-2.39.11-.32.53-.69 1.07-.93 1.55-2.24.3-.79.36-.86 1.39-1.29 2.78-2.64.71-.69 2.87-2.1c1.05-.68 2.88-3.23 3.91-3.25a1.1.8 11.6 0 0 .82-.37q2.03-2.91 5.17-4.25.49-.21.3.26c-2.1 5.02-7.1 5.04-9.77 9.47a1.88.76-69.4 0 1-.71.77q-1.89.93-2.87 2.89-.18.36-.69.72c-.83.59-5.3 5.36-2.5 4.86Z"/><rect width="8.14" height="45.98" x="-4.07" y="-22.99" fill="#fff" rx=".41" transform="rotate(-.1 106082.005 -97126.954)"/><path fill="#fff" d="M258.35 191.92q-.62-.87-.61.15l.05 15.18a.75.54 90 0 1-.54.75H250a.75.5 90 0 1-.5-.75l.05-44.5a.75.45-90 0 1 .45-.75h7.25a.56.53 90 0 1 .53.56l-.05 24.94q0 2.78 1.75.72l9.74-11.5a.86.61-55.4 0 1 .85-.31l5.33 2.24a.39.35-57.1 0 1 .1.6l-9.83 10.67a.73.62 47.8 0 0 .03.88l11.76 14.74a.38.35 60.4 0 1-.13.58l-6.83 2.39a.93.47 57.6 0 1-.79-.47l-11.36-16.12Z"/><path fill="#769c68" d="M285.03 169.95c.54-1.36 6.88-1.8 3.87 3.91a1.39 1.39-60.4 0 1-1.95.54q-3.14-1.89-2.29-3.54.07-.15.37-.91Zm2.56 2.08q-1.87 1.27-.19 2.07a.87.63-67.9 0 0 .95-.6l.9-2.54a.7.55 4.7 0 0-.77-.72q-.94.08-.71 1.01a.83.52 71.1 0 1-.18.78Z"/><path fill="#3ea118" d="M287.77 171.25q-.23-.93.71-1.01a.7.55 4.7 0 1 .77.72l-.9 2.54a.87.63-67.9 0 1-.95.6q-1.68-.8.19-2.07a.83.52 71.1 0 0 .18-.78Z"/><path fill="#fff" d="M112.31 203.94c5.01.71 7.58-4.55 3.23-7.47-4.73-3.19-14.47-10.5-7.68-17.22 4.21-4.17 11.32-3.87 16.43-1.17a.82.37 28.3 0 1 .56.73l-1.99 3.28a.72.39 30.7 0 1-.81-.03c-4.87-2.82-12.61.11-5.79 5.38q7.21 5.58 8.19 7.37c3.02 5.56.93 10.64-4.82 12.89q-7.54 2.95-15.05-2.04a.75.6 32.7 0 1-.3-.9l2.18-3.56a.53.4 36.5 0 1 .71-.01q2.93 2.44 5.14 2.75Zm25.86-23.59q5.57-5.14 12.12-4.1c16.64 2.65 14.91 29.53-.92 32.26q-6.15 1.06-11.09-3.92-.53-.53-.53.16V223a.75.5-90 0 1-.5.75h-7a.75.5 90 0 1-.5-.75v-45.75a.5.5 0 0 1 .5-.5H137a.75.49.3 0 1 .75.5l-.01 2.99q0 .51.43.11Zm7.066 23.596a11.61 7.93 91.4 0 0 8.212-11.412 11.61 7.93 91.4 0 0-7.644-11.8 11.61 7.93 91.4 0 0-8.212 11.412 11.61 7.93 91.4 0 0 7.644 11.8ZM223.18 180.1q5.85-5.39 13.22-3.69c3.89.9 7.31 4.47 7.31 8.4q.02 11.27.11 22.54a.64.57 89.5 0 1-.57.65h-7a.67.43 89.4 0 1-.43-.66c-.08-5.3 1.2-19.16-1.22-23.31-2.27-3.9-9.56-3.28-11.28 1.38-1.84 4.97-.91 16.04-.75 21.91a.68.56 89.4 0 1-.57.7l-7.07-.07a.7.43 90 0 1-.43-.7v-30a.5.5 0 0 1 .5-.5h7a.59.45-.5 0 1 .59.44l.09 2.81q.01.54.5.1Zm-23.16 24.48c-5.36 3.48-10.74 6.37-16.73 2.4-5.93-3.94-4.13-22.26-3.96-29.83a.67.41-88.7 0 1 .42-.65h7a.72.51 89.5 0 1 .51.71q.12 16.72.34 20.46c.49 8.38 12.38 7.26 12.9-2.56q.48-9.02.23-18.05a.53.37-1.2 0 1 .52-.38l7-.05a.62.5 90 0 1 .5.62v30a.75.5-90 0 1-.5.75H201a.74.5-89.5 0 1-.5-.75l.01-2.49q0-.5-.49-.18Z"/><path fill="#99999a" d="m303.37 191.67-18.21-8.94a.43.43-76.6 0 1-.24-.39l.04-4.59a.43.43-75.9 0 1 .63-.38l23.63 12.03a.43.43-78.5 0 1 .24.36l.16 4.64a.43.43-12.7 0 1-.24.4l-23.84 11.94a.43.43 76.5 0 1-.62-.38l-.09-4.38a.43.43 76.4 0 1 .23-.39l18.31-9.15a.43.43-44.8 0 0 0-.77Z"/><ellipse fill="#3ea118" rx="11.61" ry="7.93" transform="rotate(91.4 -21.088 167.174)"/></svg>