<svg xmlns="http://www.w3.org/2000/svg" viewBox="0 0 456 148"><g fill="none" stroke="#80bcdf" stroke-width="2"><path d="M209.69 69.55a.32.32 0 0 1-.5-.32c.81-4.92-2.65-9-7.48-5.6q-.53.37-.33.99l.45 1.41q.14.46.03.93c-1.73 7.08-3.67 15.08-7.27 20.69-2.17 3.37-1.95 6.31 1.69 8.2 3.55 1.84 4.98-3.29 5.78-5.89 2.02-6.57 11.31-18.09 18.76-18.46a.53.53 0 0 1 .48.81c-5.03 8.2-6.7 19.39 4.33 23.64 6.16 2.38 11.68-1.96 16.92-6.16q.4-.31.57.16c3.23 8.99 11.5 8.3 17.33 2.34a.41.41 0 0 1 .62.04c5.64 7.47 12.48 4.66 17.56-1.23q.33-.39.65 0c12.3 14.81 22.43-10.47 23.91-18.87a.83.83 0 0 1 .82-.69q5.68 0 10.7-2.6a1.18 1.18 0 0 0 .13-2.01c-3.07-2.18-8.11-1.44-11.7-1.46q-.58-.01-.85-.53l-1.54-3.04q-.19-.37-.5-.65c-9.87-8.91-21.14 13.43-22.29 21.11q-.07.45-.4.75l-8.69 8.03q-.66.61-.9-.25c-2.39-8.8 14.22-32.77 19.38-40.32 1.99-2.91 4.25-7.87-1.45-8.48-6.36-.69-5.92 3.93-8.24 7.74q-9.04 14.88-15.67 30.95-.8 1.95-2.44 3.32-3.95 3.29-7.73 7.02-.63.62-.85-.24c-2.42-9.11 14.32-32.92 20.74-42.77 3.68-5.67-3.73-7.09-7.31-5.3q-.46.23-.69.69c-5.73 11.29-12.25 21.49-17.29 33.79q-.78 1.9-2.36 3.15c-2.47 1.96-17.23 15.47-18.7 7.98q-.09-.46.3-.72 10.21-6.73 17.38-16.62c3.28-4.53 5.73-11.98-1.98-13.12-8.44-1.25-10.7 2.92-15.53 8.1q-.36.38-.8.09c-5.5-3.67-10.71.36-15.04 3.4" vector-effect="non-scaling-stroke"/><path d="M187.13 58.77q-7.19 16.59-10.88 32.22c-1.03 4.35 3.47 5.88 6.8 5.8a1.27 1.27 0 0 0 1.23-1.14c1.41-14.3 6.3-26.26 13.29-38.79q.23-.42.71-.51 4.15-.78 8.37-.85c2.16-.03 2.82 2.06 5.08 1.52q2.31-.56 2.97-3.24.13-.53-.26-.92c-3.24-3.25-6.74-3.93-11.56-3.31-7.27.92-14.81 2.55-22.13 1.54a2.07 2.06 11.9 0 0-2.28 1.48c-1.89 6.57 4.43 5.21 8.21 5.47q.75.05.45.73M170.41 55.69a6.09 6.09 0 0 0-6.08-6.1l-34.2-.06a6.09 6.09 0 0 0-6.1 6.08l-.06 34.26a6.09 6.09 0 0 0 6.08 6.1l34.2.06a6.09 6.09 0 0 0 6.1-6.08l.06-34.26M226.35 79.09c4.84-3.64 9.57-9.18 11.9-14.82a.45.45 0 0 0-.69-.52q-7.68 6.04-11.64 15a.28.28 0 0 0 .43.34M293.89 66.72c-3.59 4.46-11.61 16.4-8.42 22.28a.92.92 0 0 0 1.56.1c4.72-6.5 9.25-13.49 8.69-21.8a1.03 1.03 0 0 0-1.83-.58" vector-effect="non-scaling-stroke"/><path d="M144.24 58.66a2.91 2.91 0 0 0-2.91-2.91h-8.42a2.91 2.91 0 0 0-2.91 2.91V84.6a2.91 2.91 0 0 0 2.91 2.91h8.42a2.91 2.91 0 0 0 2.91-2.91V58.66M164.273 58.502a2.76 2.76 0 0 0-2.755-2.765l-8.48-.014a2.76 2.76 0 0 0-2.765 2.755l-.026 14.74a2.76 2.76 0 0 0 2.755 2.765l8.48.014a2.76 2.76 0 0 0 2.765-2.755l.026-14.74" vector-effect="non-scaling-stroke"/></g><path fill="#0079bf" d="M5.81 0h445.25Q455 1.3 456 5.31v137.5q-1.11 4.16-5.31 5.19H5.19q-4.2-1.08-5.19-5.31V5.44Q1.03.77 5.81 0Zm203.88 69.55a.32.32 0 0 1-.5-.32c.81-4.92-2.65-9-7.48-5.6q-.53.37-.33.99l.45 1.41q.14.46.03.93c-1.73 7.08-3.67 15.08-7.27 20.69-2.17 3.37-1.95 6.31 1.69 8.2 3.55 1.84 4.98-3.29 5.78-5.89 2.02-6.57 11.31-18.09 18.76-18.46a.53.53 0 0 1 .48.81c-5.03 8.2-6.7 19.39 4.33 23.64 6.16 2.38 11.68-1.96 16.92-6.16q.4-.31.57.16c3.23 8.99 11.5 8.3 17.33 2.34a.41.41 0 0 1 .62.04c5.64 7.47 12.48 4.66 17.56-1.23q.33-.39.65 0c12.3 14.81 22.43-10.47 23.91-18.87a.83.83 0 0 1 .82-.69q5.68 0 10.7-2.6a1.18 1.18 0 0 0 .13-2.01c-3.07-2.18-8.11-1.44-11.7-1.46q-.58-.01-.85-.53l-1.54-3.04q-.19-.37-.5-.65c-9.87-8.91-21.14 13.43-22.29 21.11q-.07.45-.4.75l-8.69 8.03q-.66.61-.9-.25c-2.39-8.8 14.22-32.77 19.38-40.32 1.99-2.91 4.25-7.87-1.45-8.48-6.36-.69-5.92 3.93-8.24 7.74q-9.04 14.88-15.67 30.95-.8 1.95-2.44 3.32-3.95 3.29-7.73 7.02-.63.62-.85-.24c-2.42-9.11 14.32-32.92 20.74-42.77 3.68-5.67-3.73-7.09-7.31-5.3q-.46.23-.69.69c-5.73 11.29-12.25 21.49-17.29 33.79q-.78 1.9-2.36 3.15c-2.47 1.96-17.23 15.47-18.7 7.98q-.09-.46.3-.72 10.21-6.73 17.38-16.62c3.28-4.53 5.73-11.98-1.98-13.12-8.44-1.25-10.7 2.92-15.53 8.1q-.36.38-.8.09c-5.5-3.67-10.71.36-15.04 3.4Zm-22.56-10.78q-7.19 16.59-10.88 32.22c-1.03 4.35 3.47 5.88 6.8 5.8a1.27 1.27 0 0 0 1.23-1.14c1.41-14.3 6.3-26.26 13.29-38.79q.23-.42.71-.51 4.15-.78 8.37-.85c2.16-.03 2.82 2.06 5.08 1.52q2.31-.56 2.97-3.24.13-.53-.26-.92c-3.24-3.25-6.74-3.93-11.56-3.31-7.27.92-14.81 2.55-22.13 1.54a2.07 2.06 11.9 0 0-2.28 1.48c-1.89 6.57 4.43 5.21 8.21 5.47q.75.05.45.73Zm-16.72-3.08a6.09 6.09 0 0 0-6.08-6.1l-34.2-.06a6.09 6.09 0 0 0-6.1 6.08l-.06 34.26a6.09 6.09 0 0 0 6.08 6.1l34.2.06a6.09 6.09 0 0 0 6.1-6.08l.06-34.26Z"/><path fill="#fff" d="M209.69 69.55c4.33-3.04 9.54-7.07 15.04-3.4q.44.29.8-.09c4.83-5.18 7.09-9.35 15.53-8.1 7.71 1.14 5.26 8.59 1.98 13.12q-7.17 9.89-17.38 16.62-.39.26-.3.72c1.47 7.49 16.23-6.02 18.7-7.98q1.58-1.25 2.36-3.15c5.04-12.3 11.56-22.5 17.29-33.79q.23-.46.69-.69c3.58-1.79 10.99-.37 7.31 5.3-6.42 9.85-23.16 33.66-20.74 42.77q.22.86.85.24 3.78-3.73 7.73-7.02 1.64-1.37 2.44-3.32 6.63-16.07 15.67-30.95c2.32-3.81 1.88-8.43 8.24-7.74 5.7.61 3.44 5.57 1.45 8.48-5.16 7.55-21.77 31.52-19.38 40.32q.24.86.9.25l8.69-8.03q.33-.3.4-.75c1.15-7.68 12.42-30.02 22.29-21.11q.31.28.5.65l1.54 3.04q.27.52.85.53c3.59.02 8.63-.72 11.7 1.46a1.18 1.18 0 0 1-.13 2.01q-5.02 2.6-10.7 2.6a.83.83 0 0 0-.82.69c-1.48 8.4-11.61 33.68-23.91 18.87q-.32-.39-.65 0c-5.08 5.89-11.92 8.7-17.56 1.23a.41.41 0 0 0-.62-.04c-5.83 5.96-14.1 6.65-17.33-2.34q-.17-.47-.57-.16c-5.24 4.2-10.76 8.54-16.92 6.16-11.03-4.25-9.36-15.44-4.33-23.64a.53.53 0 0 0-.48-.81c-7.45.37-16.74 11.89-18.76 18.46-.8 2.6-2.23 7.73-5.78 5.89-3.64-1.89-3.86-4.83-1.69-8.2 3.6-5.61 5.54-13.61 7.27-20.69q.11-.47-.03-.93l-.45-1.41q-.2-.62.33-.99c4.83-3.4 8.29.68 7.48 5.6a.32.32 0 0 0 .5.32Zm16.66 9.54c4.84-3.64 9.57-9.18 11.9-14.82a.45.45 0 0 0-.69-.52q-7.68 6.04-11.64 15a.28.28 0 0 0 .43.34Zm67.54-12.37c-3.59 4.46-11.61 16.4-8.42 22.28a.92.92 0 0 0 1.56.1c4.72-6.5 9.25-13.49 8.69-21.8a1.03 1.03 0 0 0-1.83-.58Z"/><path fill="#fff" d="M186.68 58.04c-3.78-.26-10.1 1.1-8.21-5.47a2.07 2.06 11.9 0 1 2.28-1.48c7.32 1.01 14.86-.62 22.13-1.54 4.82-.62 8.32.06 11.56 3.31q.39.39.26.92-.66 2.68-2.97 3.24c-2.26.54-2.92-1.55-5.08-1.52q-4.22.07-8.37.85-.48.09-.71.51c-6.99 12.53-11.88 24.49-13.29 38.79a1.27 1.27 0 0 1-1.23 1.14c-3.33.08-7.83-1.45-6.8-5.8q3.69-15.63 10.88-32.22.3-.68-.45-.73ZM170.35 89.95a6.09 6.09 0 0 1-6.1 6.08l-34.2-.06a6.09 6.09 0 0 1-6.08-6.1l.06-34.26a6.09 6.09 0 0 1 6.1-6.08l34.2.06a6.09 6.09 0 0 1 6.08 6.1l-.06 34.26Zm-26.11-31.29a2.91 2.91 0 0 0-2.91-2.91h-8.42a2.91 2.91 0 0 0-2.91 2.91V84.6a2.91 2.91 0 0 0 2.91 2.91h8.42a2.91 2.91 0 0 0 2.91-2.91V58.66Zm20.033-.158a2.76 2.76 0 0 0-2.755-2.765l-8.48-.014a2.76 2.76 0 0 0-2.765 2.755l-.026 14.74a2.76 2.76 0 0 0 2.755 2.765l8.48.014a2.76 2.76 0 0 0 2.765-2.755l.026-14.74Z"/><rect width="14.24" height="31.76" x="130" y="55.75" fill="#0079bf" rx="2.91"/><rect width="14" height="20.26" x="-7" y="-10.13" fill="#0079bf" rx="2.76" transform="rotate(.1 -37656.36 90136.25)"/><path fill="#0079bf" d="M238.25 64.27c-2.33 5.64-7.06 11.18-11.9 14.82a.28.28 0 0 1-.43-.34q3.96-8.96 11.64-15a.45.45 0 0 1 .69.52ZM285.47 89c-3.19-5.88 4.83-17.82 8.42-22.28a1.03 1.03 0 0 1 1.83.58c.56 8.31-3.97 15.3-8.69 21.8a.92.92 0 0 1-1.56-.1Z"/></svg>