<svg xmlns="http://www.w3.org/2000/svg" viewBox="0 0 474 474"><g fill="none" stroke-width="2"><path stroke="#e58589" d="m108.65.39-44.4 24.32" vector-effect="non-scaling-stroke"/><path stroke="#f0868b" d="m64.25 24.71-14.8 7.93q-.45.24-.46.76l-3.28 226.63" vector-effect="non-scaling-stroke"/><path stroke="#f3f3f3" d="M45.71 260.03c-.17 6.1.14 12.88.06 18.3q-1.47 92.18-2.78 184.39-.03 1.66.6 2.25c1.63 1.56 12.59 2.15 15.41 2.49" vector-effect="non-scaling-stroke"/><path stroke="#c5c5c6" d="m59 467.46 36.25 4.58" vector-effect="non-scaling-stroke"/><path stroke="#f3f3f3" d="M95.25 472.04c2.61 1.8 4.72 1.65 7.8 1.58" vector-effect="non-scaling-stroke"/><path stroke="#c5c5c6" d="m103.05 473.62 12.45.09" vector-effect="non-scaling-stroke"/><path stroke="#f3f3f3" d="m115.5 473.71 12.18-.1q.6-.01.36-.56-.31-.74.46-1.09" vector-effect="non-scaling-stroke"/><path stroke="#c5c5c6" d="m128.5 471.96 300.55-9.47a.74.61 3.7 0 0 .68-.49q.05-.22-.27-.5" vector-effect="non-scaling-stroke"/><path stroke="#f3f3f3" d="M429.46 461.5q.6-3.77.57-5.75c-.86-61.25-1.27-122.51-2.45-183.75-.03-1.29-.32-2.39-.33-3.71" vector-effect="non-scaling-stroke"/><path stroke="#f7868b" d="M427.25 268.29q.61-.75.59-2.29-1.25-101.66-2.49-203.78a1.06 1.05 5 0 0-.86-1.02L295.04 36.5" vector-effect="non-scaling-stroke"/><path stroke="#f0868b" d="M295.04 36.5q-32.3-6.86-64.79-12.71" vector-effect="non-scaling-stroke"/><path stroke="#f7868b" d="M230.25 23.79 221 22.04" vector-effect="non-scaling-stroke"/><path stroke="#e58589" d="m221 22.04-46.64-9.05" vector-effect="non-scaling-stroke"/><path stroke="#f7868b" d="M174.36 12.99c-19.39-3.89-39.09-7.1-58.22-11.76q-4.06-.99-7.49-.84" vector-effect="non-scaling-stroke"/><path stroke="#dd0c15" d="M174.36 12.99q-2.1 2.17-7.5 5.87-25.06 17.18-36.13 46.12c-1.94 5.09-4.47 24.71-1.1 28.7 1.79 2.11 1.32 4.85.28 7.58-5.61 14.71 7.56 35.6 13.83 48.62 6.43 13.36 20.97 29.39 36.46 32.01q.49.08.04-.12-6.5-2.82-12.41-6.68c-3.12-2.05-6.24-3.86-4.58-7.5q1.82-4 3.23-8.2.18-.51-.05-1-.41-.9.22-1.8.32-.46.87-.36l1.55.29q.44.08.81-.15c4.56-2.78 4.41-6.2 4.02-11.24-.35-4.59 2.9-4.18 4.92-6.99q.77-1.07 1.51-2.24.28-.44-.05-.84-4.47-5.55-10.62-9.22c-1.48-.88-1.97-2.81.44-3.32a1.04.93 40.2 0 1 .37-.01l10.78 1.45" vector-effect="non-scaling-stroke"/><path stroke="#e80c16" d="M181.25 123.96q2.35-.38 4.35.6.54.26.46.85-.91 6.59.02 13.21.08.58-.5.62-1.6.09-1.97-1.7-.14-.7-.74-.29l-1.26.88q-.64.44-.04.94 1.55 1.3 3.54 1.22.53-.02.76.46c.28.59.93 3.71 1.25 3.79q.34.08.3.43c-.68 5.14.89 11 2.37 19.02q.21 1.13 2.37 4.83.34.58.34-.09v-1.52q0-.64.64-.73 8.96-1.26 17.74.74.53.12.83.57l.78 1.19q.22.32.45 0l.82-1.14q.32-.46.88-.4c1.46.15 7.46 1.03 8.17-.43q.24-.5-.31-.58c-1.66-.24-8.43-.14-9.23-.65q-.38-.25-.84-.21-3.16.26-9.26-.48-2.85-.34-10.67.24-.58.04-.85-.47-2.85-5.34-2.35-11.31.04-.45-.19-.84c-1.61-2.75-.12-5.34-.62-7.71q-.54-2.57-.33-4.03.07-.54-.09-1.05-2.04-6.77-.98-13.79.08-.53.62-.58 1.53-.16 3.54-.05c15.44.85 28.57 1.7 42.79 1.27a1.59 1.58.7 0 1 1.63 1.66l-.46 8.86a.48.48 0 0 0 .96.06l.79-9.74a1.2 1.19-89.7 0 1 1.11-1.1l8.6-.62q.71-.05 1.2.47 4.21 4.5 6.83 10.11.22.49-.03.97l-.29.53q-.26.5-.01 1l.74 1.49q.21.43.01.86l-4.32 9.23q-.21.44.07.85c2.76 4.11 2.9 5.03 2.89 10.06-.01 2.92 1.92 5.19 2.61 7.85q.45 1.72 2.2 1.39c11.57-2.2 19.14-10.1 24.36-20.41 3.6-7.11 10.74-8.44 8.88-18.48-1.14-6.08.45-13.56 6.31-16.61 5.79-3.02 11.91-5.56 15.28-11.86q.57-1.06-.44-.4c-3.11 2.02-5.28 4.98-8.39 6.81q-2.37 1.39-4.65 2.98a.48.47-11.3 0 1-.74-.49l4.15-18.14a1.22 1.22 0 0 0-1.83-1.31q-1.98 1.22-4.24 1.25-1.05.01-.33-.76l4.56-4.83q.31-.33.71-.11c3.84 2.12 1.15-11.02 1.1-11.94-.15-3-.93-5.16-3.53-6.48a1 .99 48.2 0 1 .1-1.82c3.26-1.21 4.66-.64 6.17 2.35 1.45 2.86 3.36 4.37 2.5 8.01q-1.89 7.96-2.47 16.17-.03.5-.51.64-1.25.38-1.22 1.63.02.67.69.62c5.67-.42 6.36-6.72 7.36-11.13q.44-1.94 1.84-.54l.82.82a.38.38 0 0 0 .64-.33c-3.11-17.85-8.31-33.57-20.56-48-.58-.69-.46-1.1-.09-1.84" vector-effect="non-scaling-stroke"/><path stroke="#eb797e" d="m427.25 268.29-321.5-10.83" vector-effect="non-scaling-stroke"/><path stroke="#dd0c15" d="M105.75 257.46q.43-1.51.07-4.46c-.77-6.12.16-14.39.22-19.43q.44-35.5 1.15-71c.76-38.29.08-76.6 1.36-114.88q.8-23.61.1-47.3" vector-effect="non-scaling-stroke"/><path stroke="#d9797d" d="m105.75 257.46-17.75.75" vector-effect="non-scaling-stroke"/><path stroke="#d60c15" d="M88 258.21q1.17-1.36.78-3.18-.12-.53.4-.7.94-.32.55-1.42-.05-.15-.21-.16-.13 0-.27.01-.23.01-.2-.22c.94-8.27-.29-16.79-.31-27.04-.03-11.33-1.45-22.77-1.55-34.26q-.01-.43.4-.29l.37.12q.19.06.26-.13.47-1.42-.65-1.45-.66-.02-.66-.69.15-14.51-2.38-28.78-.26-1.46-.23-4.73c.04-3.44-1.71-6.61-2.09-9.54-1.54-11.65-2.51-21.04-4.26-35.01q-.98-7.86-1.71-18.74c-.75-11.16-4.18-24.64-5.12-38.32q-.04-.48.44-.54l1.89-.22q.58-.06.54-.64c-.44-6.3.8-10.5-.93-18.01-.1-.46-.63-1.26-.43-1.81q.16-.42-.14-.74l-6.42-6.79q-.44-.47-.94-.06l-.58.47q-.28.23-.22-.12.04-.25.21-.29.19-.04.04-.16-.13-.1-.33-.06" vector-effect="non-scaling-stroke"/><path stroke="#dd0c15" d="m221 22.04-1.88 1.61q-.38.32-.87.34c-4.05.2-7.89-1.31-11.23-1.19q-8.4.29-13.63 6.81a1.67 1.67 0 0 1-2.7-.13c-1.88-2.9 2.11-5.25 2.62-8.32q.09-.51-.19-.95l-.7-1.11q-.29-.46-.77-.22c-2.86 1.41-6.2 2.02-8.34 4.22-2.24 2.32-4.73 5.63-5.04 9.04-.25 2.86-.46 3.82-2.07 5.76q-.32.38-.42.86l-.93 4.54q-.12.62-.73.79c-2.22.66-4.57-1.08-3.72-3.58q.14-.41.57-.46l1.11-.14q1.21-.16.31-.97c-1.89-1.7-4.97-.2-5.66 1.98q-.21.66.46.83 2 .52 1.21 2.83-.19.54-.75.46-1.83-.26-3.66-.15c-2.92.18-6.17-1.91-7.16 2.87q-.11.53-.65.54-2.93.03-5.21 1.65c-1.41 1-1.74 3.36-3.03 3.97q-2.97 1.41-5.63 3.41-.4.31-.53.8-1.44 5.33-1.85 10.83c-.23 3.08 1.38 5.34-.22 8.74q-.26.54.33.64 3.31.57 3.84 4.08.07.45-.39.48-6.86.42-6.91-6.44 0-.47-.36-.78-1.56-1.33-.5-3.15.28-.5-.08-.93c-3.05-3.63-4.7 3.17-4.67 4.9q.14 6.33-1.15 12.75a1.66 1.66 0 0 0 1.91 1.97q1.31-.22 2.31-.82a2.12 2.11 59 0 1 2.91.73q1.35 2.28 3.41 3.91c2.05 1.61 4.94.95 5.65 4.62q.1.53.44.94 1.63 1.99 2.63 4.38.23.53.72.84l4.57 2.87q.4.26.54.72l2.25 7.47a1.69 1.69 0 0 0 1.73 1.2l5.36-.36q.47-.04.72.37c1.78 2.81 9.92 3.71 15.53 4.62" vector-effect="non-scaling-stroke"/><path stroke="#d60c15" d="M180.5 122.71q-.44.11-.64.37-.31.39.17.53l1.22.35" vector-effect="non-scaling-stroke"/><path stroke="#b9b9ba" d="M429.46 461.5q-80.44 2.55-160.88 5.01c-43.38 1.32-87.51 1.55-130.08 3.52-1.71.08-3.51-.23-5.09-.13-14.03.84-27.23.99-41.8-.49q-15.48-1.57-31.67-3.19-.52-.05-.92.51-.13.2-.02.73" vector-effect="non-scaling-stroke"/><path stroke="#e4797e" d="m88 258.21-42.29 1.82" vector-effect="non-scaling-stroke"/><path stroke="#e80c16" d="M230.25 23.79c2.12 3.69-.08 7.29 1.83 9.36 1.5 1.62 2.86-.32 4.06.72q.32.27.2.68c-1.04 3.48-.32 5.07-3.81 7.32q-.53.35-.99-.1-3.8-3.76-6.13-8.53-.21-.45-.7-.48c-3.03-.22-7.06 9.38-7.72 10.64q-.3.57.34.56 5.1-.08 9.96 1.57.51.17.21.61-.73 1.09-2.1.84-.47-.09-.51.39-.02.2-.01.37.02.55.48.86 2.3 1.55 3.08 4.14a1.2 1.2 0 0 1-1.4 1.51q-4.12-.88-7.89.82-.59.26-.54.89l.56 8.04q.04.56.49.89c4.51 3.33 10.12 1.14 13-3.14 1.83-2.72 1.11-8.05 6.11-7.55q6.78.68 11.75 5.81.44.46.03.94-.72.85-1.95.64-1.17-.21-.39.68 1.41 1.61 3.59 1.5.69-.04.7-.73c.02-1.16-.58-5.42 2.44-3.43q2.24 1.48 4.81 2.53.52.22.97-.13c2.42-1.89 9.95-.44 13.49-.8a1.31 1.31 0 0 1 1.43 1.08q.56 3.28-.87 6.15-.26.5-.81.59-6.82 1.08-13.58-.25-.59-.11-.91.4l-1.55 2.5a1.14 1.13-46.5 0 1-1.89.05c-3.11-4.43-9.65.44-10.35-8.09a1.44 1.44 0 0 0-2.07-1.17q-4.68 2.27-9.85 2.04-.52-.02-.93.3-3.22 2.49-7.18 2.66c-4.7.19-7.75 1.91-7.64 7.15a1.62 1.62 0 0 1-1.37 1.65c-3.12.51-1.46 4.42-5.47 5.43q-.47.12-.74.52-3.25 4.8-4.62 10.42-.13.53.22.95l.24.3q.3.36.22.83-1.2 6.76-.44 13.59.06.52.49.82l2.33 1.59q.41.28.54.76l.91 3.33q.13.48.62.61 2.64.71 5.16 1.78c5.58 2.38 11.83 2.02 17.63.59a1.18 1.17 80.3 0 1 1.45 1.03l.36 3.96a2.1 2.1 0 0 1-2.02 2.3q-18.19.6-36.33-.37c-5.22-.28-11.02-1.6-16.69-2" vector-effect="non-scaling-stroke"/><path stroke="#b9b9ba" d="M128.5 471.96c-2.14-.23-13.79-1.01-13 1.75M103.05 473.62q-3.57-2.14-7.8-1.58" vector-effect="non-scaling-stroke"/><path stroke="#dd0c15" d="M299.6 132.4q-8.19 8.48-10.75 20.13a.83.83 0 0 0 1.37.8c2.12-1.91 11.12-18.24 10.64-20.57q-.29-1.37-1.26-.36M221.31 183.41l-4.52 1.23q-.5.14-.97-.12c-3.85-2.13-6.48-5.18-11.48-5.1-2.44.04-4.71 1.57-7.79-.1q-.58-.31-.68.33l-.37 2.28q-.12.72-.84.61-3.35-.52-5.26 2.12-.38.52-1.01.4l-2.44-.45q-.42-.08-.58.31c-.99 2.41 14.95 4.08 16.34 4.17q2.59.18 5.43 1.11c13.81 4.55 32.4 1.25 45.4-3.17 3.45-1.18 3.15-3.44 5.58-5.15q.4-.28.37-.77c-.23-4.03-2.08-6.44-6.2-7.39-5.35-1.24-11.32-3.78-16.57-3.47q-6.57.4-12.66 3.4-.47.23-.67.72-1.67 4.01-.6 8.22.17.64-.48.82" vector-effect="non-scaling-stroke"/><path stroke="#f7868b" d="M255.18 216.85c-10.02 4.66-6.68 22.87 4.84 23.83q7.08.59 14.26.71c13.34.21 15.54-16.75 5.62-23.03-4.78-3.02-20.09-3.67-24.72-1.51" vector-effect="non-scaling-stroke"/><path stroke="#f7868b" d="M306.11 234.86c8.44 2.33 11.18-14.43 1.09-16.05q-3.85-.62-18.47-1.25-.48-.02-.48.46v23.45q0 .53.53.53h3.21q.75 0 .74-.74l-.1-18.85a.32.32 0 0 1 .34-.33q6.25.32 12.5.92c5.78.56 5.47 7.91 1.03 7.76q-5.46-.19-10.69-.7a.41.41 0 0 0-.33.69l11.41 11.81q.37.38.9.38l4.23-.03q.52-.01.17-.38l-6.49-6.99a.41.41 0 0 1 .41-.68M333.58 235.55l-8.58-.36q-.97-.05-.52.82l1.55 2.97q.26.49.82.52l9.45.43q.57.03.82.54l1.56 3.29q.24.5.79.5l3.18-.03q.87 0 .46-.77-5.85-11.01-12.07-21.81-.93-1.63-2.44-1.65a2.27 2.23-74.2 0 0-2 1.14l-12.2 21.43q-.32.55.31.55l3.77-.02q.5-.01.74-.44l9.11-16.25a.68.68 0 0 1 1.2.01l4.44 8.51q.35.65-.39.62M351 221.74c-12.33.09-12.08 20.2-1.76 22.53q3.62.82 12.96.65.62-.01.85-.57l1.03-2.46q.25-.62-.41-.65c-4.12-.22-11.6.3-14.82-1.61-4.31-2.55-4.97-10.1-.63-12.83 3-1.88 9.8-.52 13.48-.3q.64.03.91-.54l1.19-2.45q.28-.57-.35-.64-9.85-1.15-12.45-1.13M369.75 240.72v-16.8q0-.59-.57-.7l-2.57-.52q-.71-.14-.68.58.35 9.83.42 19.66.02 2.32 2.57 2.44 7.14.35 14.3.59.62.02.98-.48l1.25-1.77a.98.97-70.8 0 0-.74-1.54l-14.24-.71q-.72-.03-.72-.75M389.07 237.86a.35.35 0 0 1 .35-.44l13.17.44q.58.02.77-.53l.85-2.56q.19-.59-.43-.62l-14.28-.71a.65.65 0 0 1-.58-.86c2.01-5.67 9.46-3.77 14.08-3.36q.64.06.9-.53l1.15-2.62q.22-.51-.34-.56-5.09-.46-10.2-.72c-12.38-.6-12.11 19.54-1.5 21.46q2.91.52 10.65.48.56 0 .8-.51l1.09-2.39q.29-.64-.41-.69c-5.28-.38-14.27 1.16-16.07-5.28M408.034 229.598a2.01 1.48 87.6 0 0 1.395-2.07 2.01 1.48 87.6 0 0-1.563-1.946 2.01 1.48 87.6 0 0-1.395 2.07 2.01 1.48 87.6 0 0 1.563 1.946" vector-effect="non-scaling-stroke"/><path stroke="#dd0c15" d="M175.76 17.89c-4.55-.36-6.85 5.23-8.77 8.76a.95.95 0 0 0 1.26 1.3q5.36-2.7 8.69-7.59a1.58 1.58 0 0 0-1.18-2.47M132.46 68.13l3.89.4q.66.07.73-.59l.59-6.05q.05-.49.29-.91 1.22-2.11-.24-4.19a.64.64 0 0 0-1-.06q-4.2 4.69-4.65 10.93-.03.43.39.47" vector-effect="non-scaling-stroke"/><path stroke="#e80c16" d="M274.94 50.69c-.16-3.79-8.82-3.38-11.21-3.13a1.84 1.84 0 0 0-1.46 2.62q.32.67.96 1.26.36.33.85.31l10.19-.34a.69.69 0 0 0 .67-.72M310.88 77.77c-.77 1.09-1.03 4.04-.8 5.23a.6.59-33.8 0 0 1.08.21q1.73-2.65.1-5.43-.18-.3-.38-.01M245.8 118.02q-2.82-.52-5.16-2.33-.41-.31-.93-.26c-4.1.44-2.99 5.4-2.99 8.31a.76.76 0 0 0 .8.76q4.74-.22 9.39-.61c5.14-.43 2.49-5.21-1.11-5.87" vector-effect="non-scaling-stroke"/><path stroke="#f7868b" d="M281.706 229.167a7.64 7.64 0 0 0-7.046-8.191l-12.584-.946a7.64 7.64 0 0 0-8.192 7.045l-.07.938a7.64 7.64 0 0 0 7.046 8.191l12.584.946a7.64 7.64 0 0 0 8.191-7.045l.071-.938" vector-effect="non-scaling-stroke"/><path stroke="#737373" d="M168.81 353.9a.32.32 0 0 1-.62 0l-7.2-31.73a.32.32 0 0 0-.31-.25l-10.43-.23a.32.32 0 0 0-.31.24l-8.22 31.6a.32.32 0 0 1-.63-.02l-6.11-31.59a.32.32 0 0 0-.32-.26l-8.76.31a.32.32 0 0 0-.3.38l10.09 47.4a.32.32 0 0 0 .31.25h9.52a.32.32 0 0 0 .31-.24l8.97-34.86a.32.32 0 0 1 .62.01l8.34 34.55a.32.32 0 0 0 .31.24l9.16.15a.32.32 0 0 0 .32-.25l10.88-46.58a.32.32 0 0 0-.31-.39l-8.36-.06a.32.32 0 0 0-.31.25l-6.64 31.08M231.75 338.25v-15.13q0-.69-.69-.67l-7.14.19q-.67.02-.67.69v45.8q0 .63.63.62l6.53-.01q.73 0 .65-.72l-.35-3.25a.33.33 0 0 1 .57-.26q7.16 7.47 14.1 3.88c8.35-4.34 9.69-15.96 7.41-24.41-2.52-9.34-12.72-13.81-20.28-6.41q-.76.75-.76-.32M269.79 361.77a.32.32 0 0 1-.32-.32l.04-37.63a.32.32 0 0 0-.32-.32h-8.12a.32.32 0 0 0-.32.32v45.47a.32.32 0 0 0 .32.32l29.11-.16a.32.32 0 0 0 .32-.32v-7.07a.32.32 0 0 0-.32-.32l-20.39.03M373.636 324.767a.48.48 0 0 0-.48-.481l-6.76-.012a.48.48 0 0 0-.48.48l-.012 6.4a.48.48 0 0 0 .48.48l6.76.012a.48.48 0 0 0 .48-.48l.012-6.4M196.02 354.75H216q.49 0 .5-.5c.22-9.68-3.12-18.66-13.53-19.58-20.68-1.83-22.13 34.78-2.31 36 7.05.44 12.83-3.01 15.11-9.83a.63.63 0 0 0-.53-.83l-7.21-.78q-.47-.05-.63.39c-3.12 8.42-12.15 2.7-11.9-4.37q.02-.5.52-.5M309.684 370.51a17.63 15.61 89.5 0 0 15.455-17.766 17.63 15.61 89.5 0 0-15.763-17.493 17.63 15.61 89.5 0 0-15.455 17.765 17.63 15.61 89.5 0 0 15.763 17.493M350.55 365.25c-.29 4.08 1.47 9.48-3.97 10.91q-5.01 1.32-7.09-2.83-.25-.49-.8-.54l-7.43-.68q-.49-.05-.51.44c-.67 14.55 26.4 14.55 27.35.45q.84-12.46-.08-36-.02-.5-.53-.5h-6.03q-.55 0-.5.55l.35 3.19a.38.38 0 0 1-.68.26c-6.19-8.44-16.91-5.15-19.73 4.08q-2.6 8.52.51 16.88c3.21 8.62 12.68 10.96 18.84 3.67q.34-.41.3.12M395.57 336.17c-19.88-2.08-20.42 30.72-4.64 33.72 9.08 1.72 13.92-3.48 16.13-11.57q.13-.46-.34-.53l-6.52-.98q-.53-.08-.65.44c-.87 3.74-2.63 7.91-7.34 5.9-5.26-2.25-4.79-11.74-3.59-16.15 1.56-5.77 9.21-5.93 10.42.24q.11.53.65.47l5.84-.71a.92.91-12.6 0 0 .76-1.19q-2.8-8.81-10.72-9.64M373.638 337.084a.35.35 0 0 0-.352-.348l-6.96.049a.35.35 0 0 0-.348.352l.224 32.02a.35.35 0 0 0 .352.347l6.96-.049a.35.35 0 0 0 .348-.352l-.224-32.02" vector-effect="non-scaling-stroke"/><path stroke="#b9b9ba" d="M72.3 446.01q-1.33-.12-1.6-1.47a1.11 1.11 0 0 0-1.92-.52c-5.68 6.44.27 9.89 6.09 9.12q.47-.07.87-.31c.95-.6 2.62.07 3.01-.8q.22-.48-.22-.77-.76-.49-1.39.26-.42.5-1.02.24l-.95-.41q-1.12-.48.08-.65 1.59-.23 2.46-1.59.29-.47.84-.37 1.29.25 1.67 1.48.21.7.81.28 1.81-1.27 1.78-3.36c-.07-4.65-6.72-5.33-10.2-4.53a.79.78-18.8 0 0-.54 1.08l.73 1.6q.37.79-.5.72" vector-effect="non-scaling-stroke"/><path stroke="#737373" d="M238.654 363.679a11.05 7.01 89.2 0 0 6.855-11.147 11.05 7.01 89.2 0 0-7.163-10.95 11.05 7.01 89.2 0 0-6.855 11.146 11.05 7.01 89.2 0 0 7.163 10.95M208.19 349.02c-.32-10.04-12.66-9.62-12.61.04q.01.44.44.44h11.7q.49 0 .47-.48M309.655 363.67a10.78 7.48 89.6 0 0 7.405-10.832 10.78 7.48 89.6 0 0-7.555-10.728 10.78 7.48 89.6 0 0-7.405 10.832 10.78 7.48 89.6 0 0 7.555 10.728M344.132 362.81a10.27 6.65 89.6 0 0 6.578-10.316 10.27 6.65 89.6 0 0-6.722-10.224 10.27 6.65 89.6 0 0-6.578 10.316 10.27 6.65 89.6 0 0 6.722 10.224" vector-effect="non-scaling-stroke"/><path stroke="#b9b9ba" d="M72.82 448.89q2.39 1.55 3.47-.97a1.07 1.06 12.4 0 0-.95-1.48q-1.8-.06-2.74 1.38a.77.77 0 0 0 .22 1.07" vector-effect="non-scaling-stroke"/></g><path fill="#fff" d="M0 0h474v474H0V0Zm108.65.39-44.4 24.32-14.8 7.93q-.45.24-.46.76l-3.28 226.63c-.17 6.1.14 12.88.06 18.3q-1.47 92.18-2.78 184.39-.03 1.66.6 2.25c1.63 1.56 12.59 2.15 15.41 2.49l36.25 4.58c2.61 1.8 4.72 1.65 7.8 1.58l12.45.09 12.18-.1q.6-.01.36-.56-.31-.74.46-1.09l300.55-9.47a.74.61 3.7 0 0 .68-.49q.05-.22-.27-.5.6-3.77.57-5.75c-.86-61.25-1.27-122.51-2.45-183.75-.03-1.29-.32-2.39-.33-3.71q.61-.75.59-2.29-1.25-101.66-2.49-203.78a1.06 1.05 5 0 0-.86-1.02L295.04 36.5q-32.3-6.86-64.79-12.71L221 22.04l-46.64-9.05c-19.39-3.89-39.09-7.1-58.22-11.76q-4.06-.99-7.49-.84Z"/><path fill="#ef0c16" d="M174.36 12.99q-2.1 2.17-7.5 5.87-25.06 17.18-36.13 46.12c-1.94 5.09-4.47 24.71-1.1 28.7 1.79 2.11 1.32 4.85.28 7.58-5.61 14.71 7.56 35.6 13.83 48.62 6.43 13.36 20.97 29.39 36.46 32.01q.49.08.04-.12-6.5-2.82-12.41-6.68c-3.12-2.05-6.24-3.86-4.58-7.5q1.82-4 3.23-8.2.18-.51-.05-1-.41-.9.22-1.8.32-.46.87-.36l1.55.29q.44.08.81-.15c4.56-2.78 4.41-6.2 4.02-11.24-.35-4.59 2.9-4.18 4.92-6.99q.77-1.07 1.51-2.24.28-.44-.05-.84-4.47-5.55-10.62-9.22c-1.48-.88-1.97-2.81.44-3.32a1.04.93 40.2 0 1 .37-.01l10.78 1.45q2.35-.38 4.35.6.54.26.46.85-.91 6.59.02 13.21.08.58-.5.62-1.6.09-1.97-1.7-.14-.7-.74-.29l-1.26.88q-.64.44-.04.94 1.55 1.3 3.54 1.22.53-.02.76.46c.28.59.93 3.71 1.25 3.79q.34.08.3.43c-.68 5.14.89 11 2.37 19.02q.21 1.13 2.37 4.83.34.58.34-.09v-1.52q0-.64.64-.73 8.96-1.26 17.74.74.53.12.83.57l.78 1.19q.22.32.45 0l.82-1.14q.32-.46.88-.4c1.46.15 7.46 1.03 8.17-.43q.24-.5-.31-.58c-1.66-.24-8.43-.14-9.23-.65q-.38-.25-.84-.21-3.16.26-9.26-.48-2.85-.34-10.67.24-.58.04-.85-.47-2.85-5.34-2.35-11.31.04-.45-.19-.84c-1.61-2.75-.12-5.34-.62-7.71q-.54-2.57-.33-4.03.07-.54-.09-1.05-2.04-6.77-.98-13.79.08-.53.62-.58 1.53-.16 3.54-.05c15.44.85 28.57 1.7 42.79 1.27a1.59 1.58.7 0 1 1.63 1.66l-.46 8.86a.48.48 0 0 0 .96.06l.79-9.74a1.2 1.19-89.7 0 1 1.11-1.1l8.6-.62q.71-.05 1.2.47 4.21 4.5 6.83 10.11.22.49-.03.97l-.29.53q-.26.5-.01 1l.74 1.49q.21.43.01.86l-4.32 9.23q-.21.44.07.85c2.76 4.11 2.9 5.03 2.89 10.06-.01 2.92 1.92 5.19 2.61 7.85q.45 1.72 2.2 1.39c11.57-2.2 19.14-10.1 24.36-20.41 3.6-7.11 10.74-8.44 8.88-18.48-1.14-6.08.45-13.56 6.31-16.61 5.79-3.02 11.91-5.56 15.28-11.86q.57-1.06-.44-.4c-3.11 2.02-5.28 4.98-8.39 6.81q-2.37 1.39-4.65 2.98a.48.47-11.3 0 1-.74-.49l4.15-18.14a1.22 1.22 0 0 0-1.83-1.31q-1.98 1.22-4.24 1.25-1.05.01-.33-.76l4.56-4.83q.31-.33.71-.11c3.84 2.12 1.15-11.02 1.1-11.94-.15-3-.93-5.16-3.53-6.48a1 .99 48.2 0 1 .1-1.82c3.26-1.21 4.66-.64 6.17 2.35 1.45 2.86 3.36 4.37 2.5 8.01q-1.89 7.96-2.47 16.17-.03.5-.51.64-1.25.38-1.22 1.63.02.67.69.62c5.67-.42 6.36-6.72 7.36-11.13q.44-1.94 1.84-.54l.82.82a.38.38 0 0 0 .64-.33c-3.11-17.85-8.31-33.57-20.56-48-.58-.69-.46-1.1-.09-1.84l129.45 24.7a1.06 1.05 5 0 1 .86 1.02q1.24 102.12 2.49 203.78.02 1.54-.59 2.29l-321.5-10.83q.43-1.51.07-4.46c-.77-6.12.16-14.39.22-19.43q.44-35.5 1.15-71c.76-38.29.08-76.6 1.36-114.88q.8-23.61.1-47.3 3.43-.15 7.49.84c19.13 4.66 38.83 7.87 58.22 11.76ZM299.6 132.4q-8.19 8.48-10.75 20.13a.83.83 0 0 0 1.37.8c2.12-1.91 11.12-18.24 10.64-20.57q-.29-1.37-1.26-.36Zm-78.29 51.01-4.52 1.23q-.5.14-.97-.12c-3.85-2.13-6.48-5.18-11.48-5.1-2.44.04-4.71 1.57-7.79-.1q-.58-.31-.68.33l-.37 2.28q-.12.72-.84.61-3.35-.52-5.26 2.12-.38.52-1.01.4l-2.44-.45q-.42-.08-.58.31c-.99 2.41 14.95 4.08 16.34 4.17q2.59.18 5.43 1.11c13.81 4.55 32.4 1.25 45.4-3.17 3.45-1.18 3.15-3.44 5.58-5.15q.4-.28.37-.77c-.23-4.03-2.08-6.44-6.2-7.39-5.35-1.24-11.32-3.78-16.57-3.47q-6.57.4-12.66 3.4-.47.23-.67.72-1.67 4.01-.6 8.22.17.64-.48.82Zm33.87 33.44c-10.02 4.66-6.68 22.87 4.84 23.83q7.08.59 14.26.71c13.34.21 15.54-16.75 5.62-23.03-4.78-3.02-20.09-3.67-24.72-1.51Zm50.93 18.01c8.44 2.33 11.18-14.43 1.09-16.05q-3.85-.62-18.47-1.25-.48-.02-.48.46v23.45q0 .53.53.53h3.21q.75 0 .74-.74l-.1-18.85a.32.32 0 0 1 .34-.33q6.25.32 12.5.92c5.78.56 5.47 7.91 1.03 7.76q-5.46-.19-10.69-.7a.41.41 0 0 0-.33.69l11.41 11.81q.37.38.9.38l4.23-.03q.52-.01.17-.38l-6.49-6.99a.41.41 0 0 1 .41-.68Zm27.47.69-8.58-.36q-.97-.05-.52.82l1.55 2.97q.26.49.82.52l9.45.43q.57.03.82.54l1.56 3.29q.24.5.79.5l3.18-.03q.87 0 .46-.77-5.85-11.01-12.07-21.81-.93-1.63-2.44-1.65a2.27 2.23-74.2 0 0-2 1.14l-12.2 21.43q-.32.55.31.55l3.77-.02q.5-.01.74-.44l9.11-16.25a.68.68 0 0 1 1.2.01l4.44 8.51q.35.65-.39.62ZM351 221.74c-12.33.09-12.08 20.2-1.76 22.53q3.62.82 12.96.65.62-.01.85-.57l1.03-2.46q.25-.62-.41-.65c-4.12-.22-11.6.3-14.82-1.61-4.31-2.55-4.97-10.1-.63-12.83 3-1.88 9.8-.52 13.48-.3q.64.03.91-.54l1.19-2.45q.28-.57-.35-.64-9.85-1.15-12.45-1.13Zm18.75 18.98v-16.8q0-.59-.57-.7l-2.57-.52q-.71-.14-.68.58.35 9.83.42 19.66.02 2.32 2.57 2.44 7.14.35 14.3.59.62.02.98-.48l1.25-1.77a.98.97-70.8 0 0-.74-1.54l-14.24-.71q-.72-.03-.72-.75Zm19.32-2.86a.35.35 0 0 1 .35-.44l13.17.44q.58.02.77-.53l.85-2.56q.19-.59-.43-.62l-14.28-.71a.65.65 0 0 1-.58-.86c2.01-5.67 9.46-3.77 14.08-3.36q.64.06.9-.53l1.15-2.62q.22-.51-.34-.56-5.09-.46-10.2-.72c-12.38-.6-12.11 19.54-1.5 21.46q2.91.52 10.65.48.56 0 .8-.51l1.09-2.39q.29-.64-.41-.69c-5.28-.38-14.27 1.16-16.07-5.28Zm18.964-8.262a2.01 1.48 87.6 0 0 1.395-2.07 2.01 1.48 87.6 0 0-1.563-1.946 2.01 1.48 87.6 0 0-1.395 2.07 2.01 1.48 87.6 0 0 1.563 1.946Z"/><path fill="#cb0b13" d="M108.65.39q.7 23.69-.1 47.3c-1.28 38.28-.6 76.59-1.36 114.88q-.71 35.5-1.15 71c-.06 5.04-.99 13.31-.22 19.43q.36 2.95-.07 4.46l-17.75.75q1.17-1.36.78-3.18-.12-.53.4-.7.94-.32.55-1.42-.05-.15-.21-.16-.13 0-.27.01-.23.01-.2-.22c.94-8.27-.29-16.79-.31-27.04-.03-11.33-1.45-22.77-1.55-34.26q-.01-.43.4-.29l.37.12q.19.06.26-.13.47-1.42-.65-1.45-.66-.02-.66-.69.15-14.51-2.38-28.78-.26-1.46-.23-4.73c.04-3.44-1.71-6.61-2.09-9.54-1.54-11.65-2.51-21.04-4.26-35.01q-.98-7.86-1.71-18.74c-.75-11.16-4.18-24.64-5.12-38.32q-.04-.48.44-.54l1.89-.22q.58-.06.54-.64c-.44-6.3.8-10.5-.93-18.01-.1-.46-.63-1.26-.43-1.81q.16-.42-.14-.74l-6.42-6.79q-.44-.47-.94-.06l-.58.47q-.28.23-.22-.12.04-.25.21-.29.19-.04.04-.16-.13-.1-.33-.06L108.65.39ZM174.36 12.99 221 22.04l-1.88 1.61q-.38.32-.87.34c-4.05.2-7.89-1.31-11.23-1.19q-8.4.29-13.63 6.81a1.67 1.67 0 0 1-2.7-.13c-1.88-2.9 2.11-5.25 2.62-8.32q.09-.51-.19-.95l-.7-1.11q-.29-.46-.77-.22c-2.86 1.41-6.2 2.02-8.34 4.22-2.24 2.32-4.73 5.63-5.04 9.04-.25 2.86-.46 3.82-2.07 5.76q-.32.38-.42.86l-.93 4.54q-.12.62-.73.79c-2.22.66-4.57-1.08-3.72-3.58q.14-.41.57-.46l1.11-.14q1.21-.16.31-.97c-1.89-1.7-4.97-.2-5.66 1.98q-.21.66.46.83 2 .52 1.21 2.83-.19.54-.75.46-1.83-.26-3.66-.15c-2.92.18-6.17-1.91-7.16 2.87q-.11.53-.65.54-2.93.03-5.21 1.65c-1.41 1-1.74 3.36-3.03 3.97q-2.97 1.41-5.63 3.41-.4.31-.53.8-1.44 5.33-1.85 10.83c-.23 3.08 1.38 5.34-.22 8.74q-.26.54.33.64 3.31.57 3.84 4.08.07.45-.39.48-6.86.42-6.91-6.44 0-.47-.36-.78-1.56-1.33-.5-3.15.28-.5-.08-.93c-3.05-3.63-4.7 3.17-4.67 4.9q.14 6.33-1.15 12.75a1.66 1.66 0 0 0 1.91 1.97q1.31-.22 2.31-.82a2.12 2.11 59 0 1 2.91.73q1.35 2.28 3.41 3.91c2.05 1.61 4.94.95 5.65 4.62q.1.53.44.94 1.63 1.99 2.63 4.38.23.53.72.84l4.57 2.87q.4.26.54.72l2.25 7.47a1.69 1.69 0 0 0 1.73 1.2l5.36-.36q.47-.04.72.37c1.78 2.81 9.92 3.71 15.53 4.62q-.44.11-.64.37-.31.39.17.53l1.22.35-10.78-1.45a1.04.93 40.2 0 0-.37.01c-2.41.51-1.92 2.44-.44 3.32q6.15 3.67 10.62 9.22.33.4.05.84-.74 1.17-1.51 2.24c-2.02 2.81-5.27 2.4-4.92 6.99.39 5.04.54 8.46-4.02 11.24q-.37.23-.81.15l-1.55-.29q-.55-.1-.87.36-.63.9-.22 1.8.23.49.05 1-1.41 4.2-3.23 8.2c-1.66 3.64 1.46 5.45 4.58 7.5q5.91 3.86 12.41 6.68.45.2-.04.12c-15.49-2.62-30.03-18.65-36.46-32.01-6.27-13.02-19.44-33.91-13.83-48.62 1.04-2.73 1.51-5.47-.28-7.58-3.37-3.99-.84-23.61 1.1-28.7q11.07-28.94 36.13-46.12 5.4-3.7 7.5-5.87Zm1.4 4.9c-4.55-.36-6.85 5.23-8.77 8.76a.95.95 0 0 0 1.26 1.3q5.36-2.7 8.69-7.59a1.58 1.58 0 0 0-1.18-2.47Zm-43.3 50.24 3.89.4q.66.07.73-.59l.59-6.05q.05-.49.29-.91 1.22-2.11-.24-4.19a.64.64 0 0 0-1-.06q-4.2 4.69-4.65 10.93-.03.43.39.47Z"/><path fill="#ef0c16" d="M175.76 17.89a1.58 1.58 0 0 1 1.18 2.47q-3.33 4.89-8.69 7.59a.95.95 0 0 1-1.26-1.3c1.92-3.53 4.22-9.12 8.77-8.76ZM221 22.04l9.25 1.75c2.12 3.69-.08 7.29 1.83 9.36 1.5 1.62 2.86-.32 4.06.72q.32.27.2.68c-1.04 3.48-.32 5.07-3.81 7.32q-.53.35-.99-.1-3.8-3.76-6.13-8.53-.21-.45-.7-.48c-3.03-.22-7.06 9.38-7.72 10.64q-.3.57.34.56 5.1-.08 9.96 1.57.51.17.21.61-.73 1.09-2.1.84-.47-.09-.51.39-.02.2-.01.37.02.55.48.86 2.3 1.55 3.08 4.14a1.2 1.2 0 0 1-1.4 1.51q-4.12-.88-7.89.82-.59.26-.54.89l.56 8.04q.04.56.49.89c4.51 3.33 10.12 1.14 13-3.14 1.83-2.72 1.11-8.05 6.11-7.55q6.78.68 11.75 5.81.44.46.03.94-.72.85-1.95.64-1.17-.21-.39.68 1.41 1.61 3.59 1.5.69-.04.7-.73c.02-1.16-.58-5.42 2.44-3.43q2.24 1.48 4.81 2.53.52.22.97-.13c2.42-1.89 9.95-.44 13.49-.8a1.31 1.31 0 0 1 1.43 1.08q.56 3.28-.87 6.15-.26.5-.81.59-6.82 1.08-13.58-.25-.59-.11-.91.4l-1.55 2.5a1.14 1.13-46.5 0 1-1.89.05c-3.11-4.43-9.65.44-10.35-8.09a1.44 1.44 0 0 0-2.07-1.17q-4.68 2.27-9.85 2.04-.52-.02-.93.3-3.22 2.49-7.18 2.66c-4.7.19-7.75 1.91-7.64 7.15a1.62 1.62 0 0 1-1.37 1.65c-3.12.51-1.46 4.42-5.47 5.43q-.47.12-.74.52-3.25 4.8-4.62 10.42-.13.53.22.95l.24.3q.3.36.22.83-1.2 6.76-.44 13.59.06.52.49.82l2.33 1.59q.41.28.54.76l.91 3.33q.13.48.62.61 2.64.71 5.16 1.78c5.58 2.38 11.83 2.02 17.63.59a1.18 1.17 80.3 0 1 1.45 1.03l.36 3.96a2.1 2.1 0 0 1-2.02 2.3q-18.19.6-36.33-.37c-5.22-.28-11.02-1.6-16.69-2-5.61-.91-13.75-1.81-15.53-4.62q-.25-.41-.72-.37l-5.36.36a1.69 1.69 0 0 1-1.73-1.2l-2.25-7.47q-.14-.46-.54-.72l-4.57-2.87q-.49-.31-.72-.84-1-2.39-2.63-4.38-.34-.41-.44-.94c-.71-3.67-3.6-3.01-5.65-4.62q-2.06-1.63-3.41-3.91a2.12 2.11 59 0 0-2.91-.73q-1 .6-2.31.82a1.66 1.66 0 0 1-1.91-1.97q1.29-6.42 1.15-12.75c-.03-1.73 1.62-8.53 4.67-4.9q.36.43.08.93-1.06 1.82.5 3.15.36.31.36.78.05 6.86 6.91 6.44.46-.03.39-.48-.53-3.51-3.84-4.08-.59-.1-.33-.64c1.6-3.4-.01-5.66.22-8.74q.41-5.5 1.85-10.83.13-.49.53-.8 2.66-2 5.63-3.41c1.29-.61 1.62-2.97 3.03-3.97q2.28-1.62 5.21-1.65.54-.01.65-.54c.99-4.78 4.24-2.69 7.16-2.87q1.83-.11 3.66.15.56.08.75-.46.79-2.31-1.21-2.83-.67-.17-.46-.83c.69-2.18 3.77-3.68 5.66-1.98q.9.81-.31.97l-1.11.14q-.43.05-.57.46c-.85 2.5 1.5 4.24 3.72 3.58q.61-.17.73-.79l.93-4.54q.1-.48.42-.86c1.61-1.94 1.82-2.9 2.07-5.76.31-3.41 2.8-6.72 5.04-9.04 2.14-2.2 5.48-2.81 8.34-4.22q.48-.24.77.22l.7 1.11q.28.44.19.95c-.51 3.07-4.5 5.42-2.62 8.32a1.67 1.67 0 0 0 2.7.13q5.23-6.52 13.63-6.81c3.34-.12 7.18 1.39 11.23 1.19q.49-.02.87-.34l1.88-1.61Z"/><path fill="#e10c16" d="M230.25 23.79q32.49 5.85 64.79 12.71c-.37.74-.49 1.15.09 1.84 12.25 14.43 17.45 30.15 20.56 48a.38.38 0 0 1-.64.33l-.82-.82q-1.4-1.4-1.84.54c-1 4.41-1.69 10.71-7.36 11.13q-.67.05-.69-.62-.03-1.25 1.22-1.63.48-.14.51-.64.58-8.21 2.47-16.17c.86-3.64-1.05-5.15-2.5-8.01-1.51-2.99-2.91-3.56-6.17-2.35a1 .99 48.2 0 0-.1 1.82c2.6 1.32 3.38 3.48 3.53 6.48.05.92 2.74 14.06-1.1 11.94q-.4-.22-.71.11l-4.56 4.83q-.72.77.33.76 2.26-.03 4.24-1.25a1.22 1.22 0 0 1 1.83 1.31l-4.15 18.14a.48.47-11.3 0 0 .74.49q2.28-1.59 4.65-2.98c3.11-1.83 5.28-4.79 8.39-6.81q1.01-.66.44.4c-3.37 6.3-9.49 8.84-15.28 11.86-5.86 3.05-7.45 10.53-6.31 16.61 1.86 10.04-5.28 11.37-8.88 18.48-5.22 10.31-12.79 18.21-24.36 20.41q-1.75.33-2.2-1.39c-.69-2.66-2.62-4.93-2.61-7.85.01-5.03-.13-5.95-2.89-10.06q-.28-.41-.07-.85l4.32-9.23q.2-.43-.01-.86l-.74-1.49q-.25-.5.01-1l.29-.53q.25-.48.03-.97-2.62-5.61-6.83-10.11-.49-.52-1.2-.47l-8.6.62a1.2 1.19-89.7 0 0-1.11 1.1l-.79 9.74a.48.48 0 0 1-.96-.06l.46-8.86a1.59 1.58.7 0 0-1.63-1.66c-14.22.43-27.35-.42-42.79-1.27q-2.01-.11-3.54.05-.54.05-.62.58-1.06 7.02.98 13.79.16.51.09 1.05-.21 1.46.33 4.03c.5 2.37-.99 4.96.62 7.71q.23.39.19.84-.5 5.97 2.35 11.31.27.51.85.47 7.82-.58 10.67-.24 6.1.74 9.26.48.46-.04.84.21c.8.51 7.57.41 9.23.65q.55.08.31.58c-.71 1.46-6.71.58-8.17.43q-.56-.06-.88.4l-.82 1.14q-.23.32-.45 0l-.78-1.19q-.3-.45-.83-.57-8.78-2-17.74-.74-.64.09-.64.73v1.52q0 .67-.34.09-2.16-3.7-2.37-4.83c-1.48-8.02-3.05-13.88-2.37-19.02q.04-.35-.3-.43c-.32-.08-.97-3.2-1.25-3.79q-.23-.48-.76-.46-1.99.08-3.54-1.22-.6-.5.04-.94l1.26-.88q.6-.41.74.29.37 1.79 1.97 1.7.58-.04.5-.62-.93-6.62-.02-13.21.08-.59-.46-.85-2-.98-4.35-.6l-1.22-.35q-.48-.14-.17-.53.2-.26.64-.37c5.67.4 11.47 1.72 16.69 2q18.14.97 36.33.37a2.1 2.1 0 0 0 2.02-2.3l-.36-3.96a1.18 1.17 80.3 0 0-1.45-1.03c-5.8 1.43-12.05 1.79-17.63-.59q-2.52-1.07-5.16-1.78-.49-.13-.62-.61l-.91-3.33q-.13-.48-.54-.76l-2.33-1.59q-.43-.3-.49-.82-.76-6.83.44-13.59.08-.47-.22-.83l-.24-.3q-.35-.42-.22-.95 1.37-5.62 4.62-10.42.27-.4.74-.52c4.01-1.01 2.35-4.92 5.47-5.43a1.62 1.62 0 0 0 1.37-1.65c-.11-5.24 2.94-6.96 7.64-7.15q3.96-.17 7.18-2.66.41-.32.93-.3 5.17.23 9.85-2.04a1.44 1.44 0 0 1 2.07 1.17c.7 8.53 7.24 3.66 10.35 8.09a1.14 1.13-46.5 0 0 1.89-.05l1.55-2.5q.32-.51.91-.4 6.76 1.33 13.58.25.55-.09.81-.59 1.43-2.87.87-6.15a1.31 1.31 0 0 0-1.43-1.08c-3.54.36-11.07-1.09-13.49.8q-.45.35-.97.13-2.57-1.05-4.81-2.53c-3.02-1.99-2.42 2.27-2.44 3.43q-.01.69-.7.73-2.18.11-3.59-1.5-.78-.89.39-.68 1.23.21 1.95-.64.41-.48-.03-.94-4.97-5.13-11.75-5.81c-5-.5-4.28 4.83-6.11 7.55-2.88 4.28-8.49 6.47-13 3.14q-.45-.33-.49-.89l-.56-8.04q-.05-.63.54-.89 3.77-1.7 7.89-.82a1.2 1.2 0 0 0 1.4-1.51q-.78-2.59-3.08-4.14-.46-.31-.48-.86-.01-.17.01-.37.04-.48.51-.39 1.37.25 2.1-.84.3-.44-.21-.61-4.86-1.65-9.96-1.57-.64.01-.34-.56c.66-1.26 4.69-10.86 7.72-10.64q.49.03.7.48 2.33 4.77 6.13 8.53.46.45.99.1c3.49-2.25 2.77-3.84 3.81-7.32q.12-.41-.2-.68c-1.2-1.04-2.56.9-4.06-.72-1.91-2.07.29-5.67-1.83-9.36Zm44.69 26.9c-.16-3.79-8.82-3.38-11.21-3.13a1.84 1.84 0 0 0-1.46 2.62q.32.67.96 1.26.36.33.85.31l10.19-.34a.69.69 0 0 0 .67-.72Zm35.94 27.08c-.77 1.09-1.03 4.04-.8 5.23a.6.59-33.8 0 0 1.08.21q1.73-2.65.1-5.43-.18-.3-.38-.01Zm-65.08 40.25q-2.82-.52-5.16-2.33-.41-.31-.93-.26c-4.1.44-2.99 5.4-2.99 8.31a.76.76 0 0 0 .8.76q4.74-.22 9.39-.61c5.14-.43 2.49-5.21-1.11-5.87ZM64.25 24.71q.2-.04.33.06.15.12-.04.16-.17.04-.21.29-.06.35.22.12l.58-.47q.5-.41.94.06l6.42 6.79q.3.32.14.74c-.2.55.33 1.35.43 1.81 1.73 7.51.49 11.71.93 18.01q.04.58-.54.64l-1.89.22q-.48.06-.44.54c.94 13.68 4.37 27.16 5.12 38.32q.73 10.88 1.71 18.74c1.75 13.97 2.72 23.36 4.26 35.01.38 2.93 2.13 6.1 2.09 9.54q-.03 3.27.23 4.73 2.53 14.27 2.38 28.78 0 .67.66.69 1.12.03.65 1.45-.07.19-.26.13l-.37-.12q-.41-.14-.4.29c.1 11.49 1.52 22.93 1.55 34.26.02 10.25 1.25 18.77.31 27.04q-.03.23.2.22.14-.01.27-.01.16.01.21.16.39 1.1-.55 1.42-.52.17-.4.7.39 1.82-.78 3.18l-42.29 1.82L48.99 33.4q.01-.52.46-.76l14.8-7.93Z"/><path fill="#ef0c16" d="M274.94 50.69a.69.69 0 0 1-.67.72l-10.19.34q-.49.02-.85-.31-.64-.59-.96-1.26a1.84 1.84 0 0 1 1.46-2.62c2.39-.25 11.05-.66 11.21 3.13ZM132.46 68.13q-.42-.04-.39-.47.45-6.24 4.65-10.93a.64.64 0 0 1 1 .06q1.46 2.08.24 4.19-.24.42-.29.91l-.59 6.05q-.07.66-.73.59l-3.89-.4ZM310.08 83c-.23-1.19.03-4.14.8-5.23q.2-.29.38.01 1.63 2.78-.1 5.43a.6.59-33.8 0 1-1.08-.21ZM245.8 118.02c3.6.66 6.25 5.44 1.11 5.87q-4.65.39-9.39.61a.76.76 0 0 1-.8-.76c0-2.91-1.11-7.87 2.99-8.31q.52-.05.93.26 2.34 1.81 5.16 2.33Z"/><path fill="#cb0b13" d="M299.6 132.4q.97-1.01 1.26.36c.48 2.33-8.52 18.66-10.64 20.57a.83.83 0 0 1-1.37-.8q2.56-11.65 10.75-20.13ZM221.79 182.59q-1.07-4.21.6-8.22.2-.49.67-.72 6.09-3 12.66-3.4c5.25-.31 11.22 2.23 16.57 3.47 4.12.95 5.97 3.36 6.2 7.39q.03.49-.37.77c-2.43 1.71-2.13 3.97-5.58 5.15-13 4.42-31.59 7.72-45.4 3.17q-2.84-.93-5.43-1.11c-1.39-.09-17.33-1.76-16.34-4.17q.16-.39.58-.31l2.44.45q.63.12 1.01-.4 1.91-2.64 5.26-2.12.72.11.84-.61l.37-2.28q.1-.64.68-.33c3.08 1.67 5.35.14 7.79.1 5-.08 7.63 2.97 11.48 5.1q.47.26.97.12l4.52-1.23q.65-.18.48-.82Z"/><path fill="#fff" d="M260.02 240.68c-11.52-.96-14.86-19.17-4.84-23.83 4.63-2.16 19.94-1.51 24.72 1.51 9.92 6.28 7.72 23.24-5.62 23.03q-7.18-.12-14.26-.71Zm21.686-11.513a7.64 7.64 0 0 0-7.046-8.191l-12.584-.946a7.64 7.64 0 0 0-8.192 7.045l-.07.938a7.64 7.64 0 0 0 7.046 8.191l12.584.946a7.64 7.64 0 0 0 8.191-7.045l.071-.938Z"/><path fill="#fff" d="M306.11 234.86a.41.41 0 0 0-.41.68l6.49 6.99q.35.37-.17.38l-4.23.03q-.53 0-.9-.38l-11.41-11.81a.41.41 0 0 1 .33-.69q5.23.51 10.69.7c4.44.15 4.75-7.2-1.03-7.76q-6.25-.6-12.5-.92a.32.32 0 0 0-.34.33l.1 18.85q.01.74-.74.74h-3.21q-.53 0-.53-.53v-23.45q0-.48.48-.46 14.62.63 18.47 1.25c10.09 1.62 7.35 18.38-1.09 16.05Z"/><rect width="27.9" height="16.22" x="-13.95" y="-8.11" fill="#ef0c16" rx="7.64" transform="rotate(4.3 -2910.56 3680.415)"/><path fill="#fff" d="m333.97 234.93-4.44-8.51a.68.68 0 0 0-1.2-.01l-9.11 16.25q-.24.43-.74.44l-3.77.02q-.63 0-.31-.55l12.2-21.43a2.27 2.23-74.2 0 1 2-1.14q1.51.02 2.44 1.65 6.22 10.8 12.07 21.81.41.77-.46.77l-3.18.03q-.55 0-.79-.5l-1.56-3.29q-.25-.51-.82-.54l-9.45-.43q-.56-.03-.82-.52l-1.55-2.97q-.45-.87.52-.82l8.58.36q.74.03.39-.62ZM349.24 244.27c-10.32-2.33-10.57-22.44 1.76-22.53q2.6-.02 12.45 1.13.63.07.35.64l-1.19 2.45q-.27.57-.91.54c-3.68-.22-10.48-1.58-13.48.3-4.34 2.73-3.68 10.28.63 12.83 3.22 1.91 10.7 1.39 14.82 1.61q.66.03.41.65l-1.03 2.46q-.23.56-.85.57-9.34.17-12.96-.65ZM370.47 241.47l14.24.71a.98.97-70.8 0 1 .74 1.54l-1.25 1.77q-.36.5-.98.48-7.16-.24-14.3-.59-2.55-.12-2.57-2.44-.07-9.83-.42-19.66-.03-.72.68-.58l2.57.52q.57.11.57.7v16.8q0 .72.72.75ZM389.07 237.86c1.8 6.44 10.79 4.9 16.07 5.28q.7.05.41.69l-1.09 2.39q-.24.51-.8.51-7.74.04-10.65-.48c-10.61-1.92-10.88-22.06 1.5-21.46q5.11.26 10.2.72.56.05.34.56l-1.15 2.62q-.26.59-.9.53c-4.62-.41-12.07-2.31-14.08 3.36a.65.65 0 0 0 .58.86l14.28.71q.62.03.43.62l-.85 2.56q-.19.55-.77.53l-13.17-.44a.35.35 0 0 0-.35.44Z"/><ellipse fill="#fff" rx="2.01" ry="1.48" transform="rotate(87.6 85.31 326.498)"/><path fill="#e6e6e6" d="m105.75 257.46 321.5 10.83c.01 1.32.3 2.42.33 3.71 1.18 61.24 1.59 122.5 2.45 183.75q.03 1.98-.57 5.75-80.44 2.55-160.88 5.01c-43.38 1.32-87.51 1.55-130.08 3.52-1.71.08-3.51-.23-5.09-.13-14.03.84-27.23.99-41.8-.49q-15.48-1.57-31.67-3.19-.52-.05-.92.51-.13.2-.02.73c-2.82-.34-13.78-.93-15.41-2.49q-.63-.59-.6-2.25 1.31-92.21 2.78-184.39c.08-5.42-.23-12.2-.06-18.3L88 258.21l17.75-.75Zm63.06 96.44a.32.32 0 0 1-.62 0l-7.2-31.73a.32.32 0 0 0-.31-.25l-10.43-.23a.32.32 0 0 0-.31.24l-8.22 31.6a.32.32 0 0 1-.63-.02l-6.11-31.59a.32.32 0 0 0-.32-.26l-8.76.31a.32.32 0 0 0-.3.38l10.09 47.4a.32.32 0 0 0 .31.25h9.52a.32.32 0 0 0 .31-.24l8.97-34.86a.32.32 0 0 1 .62.01l8.34 34.55a.32.32 0 0 0 .31.24l9.16.15a.32.32 0 0 0 .32-.25l10.88-46.58a.32.32 0 0 0-.31-.39l-8.36-.06a.32.32 0 0 0-.31.25l-6.64 31.08Zm62.94-15.65v-15.13q0-.69-.69-.67l-7.14.19q-.67.02-.67.69v45.8q0 .63.63.62l6.53-.01q.73 0 .65-.72l-.35-3.25a.33.33 0 0 1 .57-.26q7.16 7.47 14.1 3.88c8.35-4.34 9.69-15.96 7.41-24.41-2.52-9.34-12.72-13.81-20.28-6.41q-.76.75-.76-.32Zm38.04 23.52a.32.32 0 0 1-.32-.32l.04-37.63a.32.32 0 0 0-.32-.32h-8.12a.32.32 0 0 0-.32.32v45.47a.32.32 0 0 0 .32.32l29.11-.16a.32.32 0 0 0 .32-.32v-7.07a.32.32 0 0 0-.32-.32l-20.39.03Zm103.846-37.003a.48.48 0 0 0-.48-.481l-6.76-.012a.48.48 0 0 0-.48.48l-.012 6.4a.48.48 0 0 0 .48.48l6.76.012a.48.48 0 0 0 .48-.48l.012-6.4ZM196.02 354.75H216q.49 0 .5-.5c.22-9.68-3.12-18.66-13.53-19.58-20.68-1.83-22.13 34.78-2.31 36 7.05.44 12.83-3.01 15.11-9.83a.63.63 0 0 0-.53-.83l-7.21-.78q-.47-.05-.63.39c-3.12 8.42-12.15 2.7-11.9-4.37q.02-.5.52-.5Zm113.664 15.76a17.63 15.61 89.5 0 0 15.455-17.766 17.63 15.61 89.5 0 0-15.763-17.493 17.63 15.61 89.5 0 0-15.455 17.765 17.63 15.61 89.5 0 0 15.763 17.493Zm40.866-5.26c-.29 4.08 1.47 9.48-3.97 10.91q-5.01 1.32-7.09-2.83-.25-.49-.8-.54l-7.43-.68q-.49-.05-.51.44c-.67 14.55 26.4 14.55 27.35.45q.84-12.46-.08-36-.02-.5-.53-.5h-6.03q-.55 0-.5.55l.35 3.19a.38.38 0 0 1-.68.26c-6.19-8.44-16.91-5.15-19.73 4.08q-2.6 8.52.51 16.88c3.21 8.62 12.68 10.96 18.84 3.67q.34-.41.3.12Zm45.02-29.08c-19.88-2.08-20.42 30.72-4.64 33.72 9.08 1.72 13.92-3.48 16.13-11.57q.13-.46-.34-.53l-6.52-.98q-.53-.08-.65.44c-.87 3.74-2.63 7.91-7.34 5.9-5.26-2.25-4.79-11.74-3.59-16.15 1.56-5.77 9.21-5.93 10.42.24q.11.53.65.47l5.84-.71a.92.91-12.6 0 0 .76-1.19q-2.8-8.81-10.72-9.64Zm-21.932.914a.35.35 0 0 0-.352-.348l-6.96.049a.35.35 0 0 0-.348.352l.224 32.02a.35.35 0 0 0 .352.347l6.96-.049a.35.35 0 0 0 .348-.352l-.224-32.02ZM72.3 446.01q-1.33-.12-1.6-1.47a1.11 1.11 0 0 0-1.92-.52c-5.68 6.44.27 9.89 6.09 9.12q.47-.07.87-.31c.95-.6 2.62.07 3.01-.8q.22-.48-.22-.77-.76-.49-1.39.26-.42.5-1.02.24l-.95-.41q-1.12-.48.08-.65 1.59-.23 2.46-1.59.29-.47.84-.37 1.29.25 1.67 1.48.21.7.81.28 1.81-1.27 1.78-3.36c-.07-4.65-6.72-5.33-10.2-4.53a.79.78-18.8 0 0-.54 1.08l.73 1.6q.37.79-.5.72Z"/><path d="m168.81 353.9 6.64-31.08a.32.32 0 0 1 .31-.25l8.36.06a.32.32 0 0 1 .31.39l-10.88 46.58a.32.32 0 0 1-.32.25l-9.16-.15a.32.32 0 0 1-.31-.24l-8.34-34.55a.32.32 0 0 0-.62-.01l-8.97 34.86a.32.32 0 0 1-.31.24H136a.32.32 0 0 1-.31-.25l-10.09-47.4a.32.32 0 0 1 .3-.38l8.76-.31a.32.32 0 0 1 .32.26l6.11 31.59a.32.32 0 0 0 .63.02l8.22-31.6a.32.32 0 0 1 .31-.24l10.43.23a.32.32 0 0 1 .31.25l7.2 31.73a.32.32 0 0 0 .62 0ZM231.75 338.25q0 1.07.76.32c7.56-7.4 17.76-2.93 20.28 6.41 2.28 8.45.94 20.07-7.41 24.41q-6.94 3.59-14.1-3.88a.33.33 0 0 0-.57.26l.35 3.25q.08.72-.65.72l-6.53.01q-.63.01-.63-.62v-45.8q0-.67.67-.69l7.14-.19q.69-.02.69.67v15.13Zm6.904 25.429a11.05 7.01 89.2 0 0 6.855-11.147 11.05 7.01 89.2 0 0-7.163-10.95 11.05 7.01 89.2 0 0-6.855 11.146 11.05 7.01 89.2 0 0 7.163 10.95ZM269.79 361.77l20.39-.03a.32.32 0 0 1 .32.32v7.07a.32.32 0 0 1-.32.32l-29.11.16a.32.32 0 0 1-.32-.32v-45.47a.32.32 0 0 1 .32-.32h8.12a.32.32 0 0 1 .32.32l-.04 37.63a.32.32 0 0 0 .32.32Z"/><rect width="7.72" height="7.36" x="-3.86" y="-3.68" rx=".48" transform="rotate(.1 -187722.306 212026.53)"/><path d="M195.5 355.25c-.25 7.07 8.78 12.79 11.9 4.37q.16-.44.63-.39l7.21.78a.63.63 0 0 1 .53.83c-2.28 6.82-8.06 10.27-15.11 9.83-19.82-1.22-18.37-37.83 2.31-36 10.41.92 13.75 9.9 13.53 19.58q-.01.5-.5.5h-19.98q-.5 0-.52.5Zm12.69-6.23c-.32-10.04-12.66-9.62-12.61.04q.01.44.44.44h11.7q.49 0 .47-.48ZM309.684 370.51a17.63 15.61 89.5 0 1-15.763-17.494 17.63 15.61 89.5 0 1 15.455-17.765 17.63 15.61 89.5 0 1 15.763 17.493 17.63 15.61 89.5 0 1-15.455 17.765Zm-.029-6.84a10.78 7.48 89.6 0 0 7.405-10.832 10.78 7.48 89.6 0 0-7.555-10.728 10.78 7.48 89.6 0 0-7.405 10.832 10.78 7.48 89.6 0 0 7.555 10.728Z"/><path d="M350.25 365.13c-6.16 7.29-15.63 4.95-18.84-3.67q-3.11-8.36-.51-16.88c2.82-9.23 13.54-12.52 19.73-4.08a.38.38 0 0 0 .68-.26l-.35-3.19q-.05-.55.5-.55h6.03q.51 0 .53.5.92 23.54.08 36c-.95 14.1-28.02 14.1-27.35-.45q.02-.49.51-.44l7.43.68q.55.05.8.54 2.08 4.15 7.09 2.83c5.44-1.43 3.68-6.83 3.97-10.91q.04-.53-.3-.12Zm-6.118-2.32a10.27 6.65 89.6 0 0 6.578-10.316 10.27 6.65 89.6 0 0-6.722-10.224 10.27 6.65 89.6 0 0-6.578 10.316 10.27 6.65 89.6 0 0 6.722 10.224ZM390.93 369.89c-15.78-3-15.24-35.8 4.64-33.72q7.92.83 10.72 9.64a.92.91-12.6 0 1-.76 1.19l-5.84.71q-.54.06-.65-.47c-1.21-6.17-8.86-6.01-10.42-.24-1.2 4.41-1.67 13.9 3.59 16.15 4.71 2.01 6.47-2.16 7.34-5.9q.12-.52.65-.44l6.52.98q.47.07.34.53c-2.21 8.09-7.05 13.29-16.13 11.57Z"/><rect width="7.66" height="32.72" x="-3.83" y="-16.36" rx=".35" transform="rotate(-.4 50765.469 -52810.362)"/><path fill="#e6e6e6" d="M195.58 349.06c-.05-9.66 12.29-10.08 12.61-.04q.02.48-.47.48h-11.7q-.43 0-.44-.44Z"/><ellipse fill="#e6e6e6" rx="11.05" ry="7.01" transform="rotate(89.2 -59.544 297.242)"/><ellipse fill="#e6e6e6" rx="10.78" ry="7.48" transform="rotate(89.6 -22.891 332.32)"/><ellipse fill="#e6e6e6" rx="10.27" ry="6.65" transform="rotate(89.6 -5.475 349.505)"/><path fill="#8b8b8d" d="m72.8 445.29-.73-1.6a.79.78-18.8 0 1 .54-1.08c3.48-.8 10.13-.12 10.2 4.53q.03 2.09-1.78 3.36-.6.42-.81-.28-.38-1.23-1.67-1.48-.55-.1-.84.37-.87 1.36-2.46 1.59-1.2.17-.08.65l.95.41q.6.26 1.02-.24.63-.75 1.39-.26.44.29.22.77c-.39.87-2.06.2-3.01.8q-.4.24-.87.31c-5.82.77-11.77-2.68-6.09-9.12a1.11 1.11 0 0 1 1.92.52q.27 1.35 1.6 1.47.87.07.5-.72Zm.02 3.6q2.39 1.55 3.47-.97a1.07 1.06 12.4 0 0-.95-1.48q-1.8-.06-2.74 1.38a.77.77 0 0 0 .22 1.07Z"/><path fill="#e6e6e6" d="M72.82 448.89a.77.77 0 0 1-.22-1.07q.94-1.44 2.74-1.38a1.07 1.06 12.4 0 1 .95 1.48q-1.08 2.52-3.47.97Z"/><path fill="#8b8b8d" d="M429.46 461.5q.32.28.27.5a.74.61 3.7 0 1-.68.49l-300.55 9.47c-2.14-.23-13.79-1.01-13 1.75l-12.45-.09q-3.57-2.14-7.8-1.58L59 467.46q-.11-.53.02-.73.4-.56.92-.51 16.19 1.62 31.67 3.19c14.57 1.48 27.77 1.33 41.8.49 1.58-.1 3.38.21 5.09.13 42.57-1.97 86.7-2.2 130.08-3.52q80.44-2.46 160.88-5.01Z"/><path fill="#e6e6e6" d="M128.5 471.96q-.77.35-.46 1.09.24.55-.36.56l-12.18.1c-.79-2.76 10.86-1.98 13-1.75ZM95.25 472.04q4.23-.56 7.8 1.58c-3.08.07-5.19.22-7.8-1.58Z"/></svg>