<svg xmlns="http://www.w3.org/2000/svg" viewBox="0 0 326 326"><g fill="none" stroke-width="2"><path stroke="#b3a6c9" d="M326 99.81 0 99.94m326 101.12-326 .05m141.55-33.58a1.01 1-13.5 0 1-.68-.41q-2.42-3.35-2.36-7.36a1 1 0 0 0-1-1.01h-8.15a1 1 0 0 0-.99.89q-.87 7.43 3.82 12.09 2.68 2.64 7.37 3.5c11.42 2.09 22.59-2.5 22.3-15.2-.25-11.28-8.93-12.98-17.27-16.71q-3.13-1.4-4.26-3.16c-5.34-8.35 9.61-14.09 9.92-2.66a1 1 0 0 0 1.04.97l8.03-.28a1 .99.3 0 0 .97-.95q.21-5.3-2.82-8.97c-6.82-8.28-25.06-6.36-27.87 5.06-5.62 22.74 20.43 16.41 21.37 27.66q.66 7.82-9.42 6.54M43.37 155.7q-.77 5.03-1.58.01l-4.98-30.62a.99.99 0 0 0-.98-.84h-8.16a1.01 1-85.3 0 0-.99.84l-5.38 33.97q-.13.84-.6.13-.13-.2-.19-.62-2.55-16.65-4.8-33.43a1.01 1 86.3 0 0-.98-.87l-7.98-.07a1.01 1.01 0 0 0-1 1.18l8.75 48.55a1.01 1-5.1 0 0 .99.82h9.9a1 1 0 0 0 .99-.85l4.56-29.95q.78-5.09 1.58-.01l4.76 29.97a1 .99-4.3 0 0 .99.84h9.76a1 1 0 0 0 .98-.82l8.85-48.47a1 1 0 0 0-.97-1.18l-7.85-.12a1 1 0 0 0-1 .85l-4.67 30.69m60.76-18.14-.18-12.33a1 1 0 0 0-1-.98h-7.7a1 1 0 0 0-1 1v48.48a1 1 0 0 0 1 1l7.28-.01a1.02.97-63.5 0 0 .63-.23q.96-.78.44-1.51a.83.82-58.6 0 1-.14-.6q.29-1.63 1.32-.16 2.17 3.1 5.95 3.45c9.22.84 12.77-7.03 13-14.67.2-6.24 1.15-19.36-5.72-23.75q-4.66-2.98-10.53-.43-.15.07-.27.18l-1.4 1.28q-1.64 1.5-1.68-.72m108.64.37-.03-12.68a1 1 0 0 0-1-1h-7.8a1 1 0 0 0-1 1l.05 48.46a1 .99-90 0 0 .99 1l7.71.05a1 1 0 0 0 1.01-.99q.06-11.5.08-22.99c.01-3.53.47-6.78 4.38-7.24 3.45-.42 4.48 1.59 4.34 4.72q-.24 5.69.14 25.51a1 1 0 0 0 1 .98h7.8a1 1 0 0 0 1-.99q.14-13.76.03-27.52c-.03-3.96-.73-7.87-4.27-9.5q-7-3.21-13.12 1.8-1.3 1.07-1.31-.61m-142.3 19.15 17.21-.11a1 1 0 0 0 .99-.96q.23-5.31-.94-10.5c-1.94-8.64-9.27-11.01-17.11-9.52-7.39 1.41-10.01 7.19-10.84 14.4-1.15 9.98-.49 24.27 12.29 25.22q6.44.48 10.77-2.33 5.13-3.32 5.2-10.77a1 1 0 0 0-1-1.01h-6.81a1 1 0 0 0-.97.77q-.72 3.07-1.17 3.79c-2.71 4.33-6.65 2.87-7.95-1.33q-1.01-3.25-.66-6.75a1 .99-87.1 0 1 .99-.9M177 174.01q0-1.97 1.59-.81 6.33 4.61 12.51.69c7.9-5.01 7.76-31.33.15-36.47-4.07-2.75-11-2.52-13.91 2.14a.37.24-61.4 0 1-.34.19l-.25-.09a.22.21-85.7 0 1-.14-.17l-.24-1.87a1 .99-3.6 0 0-.99-.87H168a1.01 1 0 0 0-1.01 1l.02 47.97a1.01 1 .6 0 0 .99 1l7.99.11a1 .99-89.4 0 0 1.01-1v-11.82m73.85-5.41c-3.56-1.51-4.17-7.26-3.71-10.64a1 1 0 0 1 .98-.86l17.36-.14a1 1 0 0 0 .99-1q.02-7.06-1.49-11.95-2.17-7.01-8.96-8.03-17.3-2.59-18.61 14.69c-.75 9.97-.94 24.03 12.84 24.82q14.46.83 15.44-12.92a1 1 0 0 0-1-1.07H258a1.01 1-79.2 0 0-.93.64l-1.91 4.95q-1.11 2.86-4.31 1.51m30.4-29.58v-1.27a1 1 0 0 0-1-1h-7.26a1 1 0 0 0-1 1l-.02 36a1 1 0 0 0 1 1h7.76a1 1 0 0 0 1-1q.03-9.09.02-18.17c-.01-5.87.39-10.19 7.26-10.17q1.02 0 2.09-.1a1.01 1 87.2 0 0 .9-1v-7.57a1 1 0 0 0-.95-1q-5.32-.29-8.36 3.76-1.44 1.93-1.44-.48m17.95-.15q-3.48 4.29-4.22 8.86c-1.32 8.24-1.84 24.89 9 27.23q17.08 3.69 19.15-12.33a1 1 0 0 0-.99-1.13h-7.18a1 1 0 0 0-.97.76c-.41 1.66-.48 3.25-1.55 4.58-3.54 4.41-7.01.47-7.74-3.28q-.52-2.71-.06-5.56a1.01 1-85.3 0 1 .99-.84l16.77.02a1 1 0 0 0 1-.92q.39-4.7-.63-10.24c-2.11-11.49-15.13-12.81-23.35-7.35q-.12.08-.22.2" vector-effect="non-scaling-stroke"/><path stroke="#b3a6c9" d="M112.58 145.06c-11.05-8.52-8.65 17.27-6.46 21.43a.97.95 88.8 0 0 .45.44c10.36 4.93 7.2-17.18 6.38-21.27a.99.98 13.5 0 0-.37-.6m-35.94-1.93q-2.41-2.84-5.13.67-2.12 2.73-2.01 6.23a1 .99 89.1 0 0 .99.97h7.72a1 1 0 0 0 1-1.01q-.06-3.9-2.57-6.86m108.6 1.5c-11.01-6.18-9.21 19.03-5.97 22.09q1.97 1.86 4.15.83c5.22-2.49 3.31-17.76 2.31-22.26a.99.97 9 0 0-.49-.66m68.96-1.55q-1.96-2.08-4.17-.04-3.13 2.87-2.96 7.17a1 .99-1.2 0 0 1.01.96l7.85-.11a1.01 1.01 0 0 0 .99-1q.02-4.07-2.72-6.98m59.37 3.66c-1.6-7.82-10.29-3.37-8.92 3.46a1 1 0 0 0 .98.8h7.23a1 1 0 0 0 1-.97q.05-1.65-.29-3.29" vector-effect="non-scaling-stroke"/><path stroke="gray" d="M204.2 236.35q-2.28-1.61-1.08.66c2.56 4.86 17.6 3.39 14.8-5.71-1.38-4.48-5.92-4.51-9.48-5.97-8.84-3.63.41-12.87 7.5-6.74q.85.74 1.19 0a.5.5 0 0 0-.07-.54c-3.76-4.6-13.83-3.69-13.68 3.52.17 8.3 16.4 3.7 12.73 14.21a1.03 1 81.6 0 1-.33.46q-5.63 4.31-11.58.11M47.14 232.4l2.48 5.97a.99.95 1.2 0 0 .54.54q1.62.68.99-.9-4.34-10.78-8.7-21.57a1.05.96 7.1 0 0-.41-.48q-1.16-.7-1.69.63-4.38 10.94-8.94 21.84a.41.41 0 0 0 .37.57h.4a.99.98-77.9 0 0 .94-.61l2.53-6.04a1.01 1.01 0 0 1 .93-.62l9.64.05a1.02 1-10.5 0 1 .92.62" vector-effect="non-scaling-stroke"/><path stroke="#969696" d="M93.75 216.42a.42.42 0 0 0-.42-.42h-.66a.42.42 0 0 0-.42.42v22.16a.42.42 0 0 0 .42.42h.66a.42.42 0 0 0 .42-.42v-22.16m7.107 2.295a1.22.9-4 0 0-1.28-.813 1.22.9-4 0 0-1.154.983 1.22.9-4 0 0 1.28.813 1.22.9-4 0 0 1.154-.983" vector-effect="non-scaling-stroke"/><path stroke="gray" d="M142.72 237.49a1.01.99 17.2 0 1-.45-.83l-.03-11.11a1.01 1 86.8 0 1 .89-1c1.25-.14 4.98.54 4.35-.97a.79.79 0 0 0-.73-.49l-3.51-.03a1 .99 90 0 1-.99-1v-3.17a.8.79-88.5 0 0-.75-.8c-2.46-.15 1.8 6.3-3.3 5.18q-1.25-.28-.53.78.55.83 1.79.48a1 1 0 0 1 1.27.95c.04 3.92-2.03 18.21 7.2 13.37a1 .99-19.8 0 0 .51-1.08l-.07-.34a.32.32 0 0 0-.53-.18q-2.39 2.04-5.12.24m10.999-18.75a1.25.81-2.3 0 0-1.281-.76 1.25.81-2.3 0 0-1.217.86 1.25.81-2.3 0 0 1.281.76 1.25.81-2.3 0 0 1.217-.86" vector-effect="non-scaling-stroke"/><path stroke="#8f8e8f" d="M56.91 224.11q-.08-1.11-.95-.85a.65.63-8.7 0 0-.46.61v21.86a.64.63-85.8 0 0 .54.63q.84.13.74-1.12-.19-2.66.06-5.37a1 .99-76.8 0 1 1.35-.84q5.85 2.24 9.75-2.07c5.37-5.95.82-17.24-8.67-13.74q-.24.09-.41.29l-.82.97q-1.02 1.2-1.13-.37m18.14.09q-.05-.64-.67-.89a.64.63-78.7 0 0-.88.59v21.9a.41.41 0 0 0 .41.41h.29a.8.8 0 0 0 .8-.8v-5.42a1 1 0 0 1 1.36-.93q4.5 1.74 7.86-.51c5.6-3.76 5.33-15.44-2.69-16.09q-3.17-.26-5.62 2.07-.77.73-.86-.33m42.08 12.43c-6.82 5.79-14.25-3.71-9.25-10.35q3.3-4.39 9.44-.66 1.15.7.97-.64-.02-.12-.07-.26-.15-.45-.71-.77c-9.74-5.65-17.14 6.48-10.6 13.36 4.21 4.42 13.14.94 11.26-.67a.8.8 0 0 0-1.04-.01" vector-effect="non-scaling-stroke"/><path stroke="#969696" d="M271.04 223.31c-10.42 6.69-.45 22.58 9.68 14.47a.81.8-27.9 0 0 .27-.85l-.08-.28a.51.51 0 0 0-.75-.3q-8.11 4.76-11.48-2.95a1 1 0 0 1 .92-1.4h11.59a1 1 0 0 0 1-1.06c-.32-5.56-5.55-11.23-11.15-7.63" vector-effect="non-scaling-stroke"/><path stroke="gray" d="M132.3 229.11q-4.45-.36-5.32-.14c-5.79 1.46-7.35 9.63-.89 10.62q3.95.6 6.72-1.99 1.07-1 .86.44-.15 1 .85.98a.65.64-2.6 0 0 .63-.68c-.43-6.28 2.57-17.62-8.49-15.63q-2.3.42-3.47 1.76a.5.5 0 0 0 0 .68c.13.14 6.44-2.46 9.03-.2q1.39 1.22 1.15 3.28a1 .99-84.3 0 1-1.07.88m33.05 10.547a8.57 8.06 91.6 0 0 8.297-8.342 8.57 8.06 91.6 0 0-7.818-8.792 8.57 8.06 91.6 0 0-8.296 8.342 8.57 8.06 91.6 0 0 7.818 8.792M179 224.41v-.75a.41.41 0 0 0-.41-.41h-.33a.52.51-.6 0 0-.51.51v14.6a.64.64 0 0 0 .64.64h.34a.52.51 90 0 0 .51-.52c-.02-3.67-.99-12.35 3.31-13.95q7.04-2.62 7.44 4.97.31 5.85.06 8.95a.51.5 2.6 0 0 .51.55h.26a.64.64 0 0 0 .64-.61c.28-6.84 1.39-17.5-7.21-15.85q-2.2.42-4.17 2.33-1.08 1.06-1.08-.46m44.94 7.37 9.55.17q2.68.05 2.83-1.95.32-4.07-3.6-6.44c-5.07-3.07-10.77.72-11.41 6.09-.96 8.18 5.92 12.5 13.43 8.38.52-.29 1.03-1.07.41-1.54a.52.52 0 0 0-.61-.02q-2.49 1.75-4.29 1.82-6.25.26-7.31-5.33a1 .99 85.5 0 1 1-1.18" vector-effect="non-scaling-stroke"/><path stroke="#8f8e8f" d="M100.257 223.419a.35.35 0 0 0-.35-.35l-.82.002a.35.35 0 0 0-.35.35l.026 15.22a.35.35 0 0 0 .35.35l.82-.002a.35.35 0 0 0 .35-.35l-.026-15.22m141.933 1.531q-.01-.27.03-.54c.09-.73-.04-1.26-.86-1.23a.64.64 0 0 0-.61.64v14.54a.64.64 0 0 0 .64.64h.34a.51.51 0 0 0 .51-.52c-.11-6.12-1.01-13.37 5.99-13.84a1.01.98-66.7 0 0 .6-.25c1.36-1.23-.32-1.48-1.15-1.33q-2.59.49-4.39 2.31-1.03 1.03-1.1-.42" vector-effect="non-scaling-stroke"/><path stroke="#969696" d="M258.86 235.96q-.69 1.98-1.49.03-2.41-5.9-4.88-11.77c-.27-.66-.98-1.84-1.71-.89a.63.62 52.1 0 0-.08.65l6.32 14.47a1.02.99 80.5 0 0 .81.6q.37.04.7-.11c.91-.41 5.9-12.94 6.7-14.78a1 1 0 0 0-.13-1.02q-.62-.79-1.13.31-2.93 6.31-5.11 12.51m29.24-11.68q-.07-.62-.55-1.02-1.05-.9-1.05.48V238a1 1 0 0 0 1 1h.32a.41.41 0 0 0 .41-.41c.04-4.87-1.79-13.69 5.88-14.01a1 .98 17 0 0 .75-.39q.9-1.17-1.15-1.27-1.78-.08-4.33 1.9-1.13.88-1.28-.54" vector-effect="non-scaling-stroke"/><path stroke="gray" d="M153.25 223.51a.26.26 0 0 0-.26-.26h-.98a.26.26 0 0 0-.26.26v15.24a.26.26 0 0 0 .26.26h.98a.26.26 0 0 0 .26-.26v-15.24m-116.51 6.26a.35.35 0 0 0 .32.48h8.64a.35.35 0 0 0 .32-.48l-4.31-11.05a.35.35 0 0 0-.66 0l-4.31 11.05" vector-effect="non-scaling-stroke"/><path stroke="#8f8e8f" d="M62.63 223.89c-5.76-.4-6.43 8.08-5.67 12.36a1.02 1.02 0 0 0 .46.68c11.15 6.9 15.15-12.35 5.21-13.04m18.8.16c-6.96-1.11-6.61 7.99-6.36 12.13a1.02 1-78.5 0 0 .54.83c11.57 6 14.58-11.56 5.82-12.96" vector-effect="non-scaling-stroke"/><path stroke="#969696" d="M272.37 224.12q-2.84 1.91-3.5 4.92a1 1 0 0 0 .98 1.22l9.24-.03a1 1 0 0 0 .99-1.17q-.95-5.52-7.22-5.11a1.02.98 24.9 0 0-.49.17" vector-effect="non-scaling-stroke"/><path stroke="gray" d="M125.97 238.14q7.58.83 7.58-6.47a1.01 1 4.7 0 0-.84-.99c-3.61-.57-8.69-.91-9.18 3.84q-.34 3.31 2.44 3.62m40.006.18a7.23 6.57 87.1 0 0 6.196-7.552 7.23 6.57 87.1 0 0-6.928-6.889 7.23 6.57 87.1 0 0-6.196 7.553 7.23 6.57 87.1 0 0 6.928 6.889m63.854-14.181q-5.42-.99-6.7 4.89a1 .99-83.9 0 0 .97 1.21l9.39.03a1.01 1-1.4 0 0 1.01-1.05q-.1-1.85-1.16-3.18-1.16-1.47-3.51-1.9" vector-effect="non-scaling-stroke"/></g><path fill="#fff" d="M0 0h326v99.81L0 99.94V0Z"/><path fill="#664c93" d="M326 99.81v101.25l-326 .05V99.94l326-.13Zm-184.45 67.72a1.01 1-13.5 0 1-.68-.41q-2.42-3.35-2.36-7.36a1 1 0 0 0-1-1.01h-8.15a1 1 0 0 0-.99.89q-.87 7.43 3.82 12.09 2.68 2.64 7.37 3.5c11.42 2.09 22.59-2.5 22.3-15.2-.25-11.28-8.93-12.98-17.27-16.71q-3.13-1.4-4.26-3.16c-5.34-8.35 9.61-14.09 9.92-2.66a1 1 0 0 0 1.04.97l8.03-.28a1 .99.3 0 0 .97-.95q.21-5.3-2.82-8.97c-6.82-8.28-25.06-6.36-27.87 5.06-5.62 22.74 20.43 16.41 21.37 27.66q.66 7.82-9.42 6.54ZM43.37 155.7q-.77 5.03-1.58.01l-4.98-30.62a.99.99 0 0 0-.98-.84h-8.16a1.01 1-85.3 0 0-.99.84l-5.38 33.97q-.13.84-.6.13-.13-.2-.19-.62-2.55-16.65-4.8-33.43a1.01 1 86.3 0 0-.98-.87l-7.98-.07a1.01 1.01 0 0 0-1 1.18l8.75 48.55a1.01 1-5.1 0 0 .99.82h9.9a1 1 0 0 0 .99-.85l4.56-29.95q.78-5.09 1.58-.01l4.76 29.97a1 .99-4.3 0 0 .99.84h9.76a1 1 0 0 0 .98-.82l8.85-48.47a1 1 0 0 0-.97-1.18l-7.85-.12a1 1 0 0 0-1 .85l-4.67 30.69Zm60.76-18.14-.18-12.33a1 1 0 0 0-1-.98h-7.7a1 1 0 0 0-1 1v48.48a1 1 0 0 0 1 1l7.28-.01a1.02.97-63.5 0 0 .63-.23q.96-.78.44-1.51a.83.82-58.6 0 1-.14-.6q.29-1.63 1.32-.16 2.17 3.1 5.95 3.45c9.22.84 12.77-7.03 13-14.67.2-6.24 1.15-19.36-5.72-23.75q-4.66-2.98-10.53-.43-.15.07-.27.18l-1.4 1.28q-1.64 1.5-1.68-.72Zm108.64.37-.03-12.68a1 1 0 0 0-1-1h-7.8a1 1 0 0 0-1 1l.05 48.46a1 .99-90 0 0 .99 1l7.71.05a1 1 0 0 0 1.01-.99q.06-11.5.08-22.99c.01-3.53.47-6.78 4.38-7.24 3.45-.42 4.48 1.59 4.34 4.72q-.24 5.69.14 25.51a1 1 0 0 0 1 .98h7.8a1 1 0 0 0 1-.99q.14-13.76.03-27.52c-.03-3.96-.73-7.87-4.27-9.5q-7-3.21-13.12 1.8-1.3 1.07-1.31-.61Zm-142.3 19.15 17.21-.11a1 1 0 0 0 .99-.96q.23-5.31-.94-10.5c-1.94-8.64-9.27-11.01-17.11-9.52-7.39 1.41-10.01 7.19-10.84 14.4-1.15 9.98-.49 24.27 12.29 25.22q6.44.48 10.77-2.33 5.13-3.32 5.2-10.77a1 1 0 0 0-1-1.01h-6.81a1 1 0 0 0-.97.77q-.72 3.07-1.17 3.79c-2.71 4.33-6.65 2.87-7.95-1.33q-1.01-3.25-.66-6.75a1 .99-87.1 0 1 .99-.9ZM177 174.01q0-1.97 1.59-.81 6.33 4.61 12.51.69c7.9-5.01 7.76-31.33.15-36.47-4.07-2.75-11-2.52-13.91 2.14a.37.24-61.4 0 1-.34.19l-.25-.09a.22.21-85.7 0 1-.14-.17l-.24-1.87a1 .99-3.6 0 0-.99-.87H168a1.01 1 0 0 0-1.01 1l.02 47.97a1.01 1 .6 0 0 .99 1l7.99.11a1 .99-89.4 0 0 1.01-1v-11.82Zm73.85-5.41c-3.56-1.51-4.17-7.26-3.71-10.64a1 1 0 0 1 .98-.86l17.36-.14a1 1 0 0 0 .99-1q.02-7.06-1.49-11.95-2.17-7.01-8.96-8.03-17.3-2.59-18.61 14.69c-.75 9.97-.94 24.03 12.84 24.82q14.46.83 15.44-12.92a1 1 0 0 0-1-1.07H258a1.01 1-79.2 0 0-.93.64l-1.91 4.95q-1.11 2.86-4.31 1.51Zm30.4-29.58v-1.27a1 1 0 0 0-1-1h-7.26a1 1 0 0 0-1 1l-.02 36a1 1 0 0 0 1 1h7.76a1 1 0 0 0 1-1q.03-9.09.02-18.17c-.01-5.87.39-10.19 7.26-10.17q1.02 0 2.09-.1a1.01 1 87.2 0 0 .9-1v-7.57a1 1 0 0 0-.95-1q-5.32-.29-8.36 3.76-1.44 1.93-1.44-.48Zm17.95-.15q-3.48 4.29-4.22 8.86c-1.32 8.24-1.84 24.89 9 27.23q17.08 3.69 19.15-12.33a1 1 0 0 0-.99-1.13h-7.18a1 1 0 0 0-.97.76c-.41 1.66-.48 3.25-1.55 4.58-3.54 4.41-7.01.47-7.74-3.28q-.52-2.71-.06-5.56a1.01 1-85.3 0 1 .99-.84l16.77.02a1 1 0 0 0 1-.92q.39-4.7-.63-10.24c-2.11-11.49-15.13-12.81-23.35-7.35q-.12.08-.22.2Z"/><path fill="#fff" d="M141.55 167.53q10.08 1.28 9.42-6.54c-.94-11.25-26.99-4.92-21.37-27.66 2.81-11.42 21.05-13.34 27.87-5.06q3.03 3.67 2.82 8.97a1 .99.3 0 1-.97.95l-8.03.28a1 1 0 0 1-1.04-.97c-.31-11.43-15.26-5.69-9.92 2.66q1.13 1.76 4.26 3.16c8.34 3.73 17.02 5.43 17.27 16.71.29 12.7-10.88 17.29-22.3 15.2q-4.69-.86-7.37-3.5-4.69-4.66-3.82-12.09a1 1 0 0 1 .99-.89h8.15a1 1 0 0 1 1 1.01q-.06 4.01 2.36 7.36a1.01 1-13.5 0 0 .68.41ZM43.37 155.7l4.67-30.69a1 1 0 0 1 1-.85l7.85.12a1 1 0 0 1 .97 1.18l-8.85 48.47a1 1 0 0 1-.98.82h-9.76a1 .99-4.3 0 1-.99-.84l-4.76-29.97q-.8-5.08-1.58.01l-4.56 29.95a1 1 0 0 1-.99.85h-9.9a1.01 1-5.1 0 1-.99-.82l-8.75-48.55a1.01 1.01 0 0 1 1-1.18l7.98.07a1.01 1 86.3 0 1 .98.87q2.25 16.78 4.8 33.43.06.42.19.62.47.71.6-.13l5.38-33.97a1.01 1-85.3 0 1 .99-.84h8.16a.99.99 0 0 1 .98.84l4.98 30.62q.81 5.02 1.58-.01Zm62.44-17.42 1.4-1.28q.12-.11.27-.18 5.87-2.55 10.53.43c6.87 4.39 5.92 17.51 5.72 23.75-.23 7.64-3.78 15.51-13 14.67q-3.78-.35-5.95-3.45-1.03-1.47-1.32.16a.83.82-58.6 0 0 .14.6q.52.73-.44 1.51a1.02.97-63.5 0 1-.63.23l-7.28.01a1 1 0 0 1-1-1v-48.48a1 1 0 0 1 1-1h7.7a1 1 0 0 1 1 .98l.18 12.33q.04 2.22 1.68.72Zm6.77 6.78c-11.05-8.52-8.65 17.27-6.46 21.43a.97.95 88.8 0 0 .45.44c10.36 4.93 7.2-17.18 6.38-21.27a.99.98 13.5 0 0-.37-.6Zm101.5-6.52q6.12-5.01 13.12-1.8c3.54 1.63 4.24 5.54 4.27 9.5q.11 13.76-.03 27.52a1 1 0 0 1-1 .99h-7.8a1 1 0 0 1-1-.98q-.38-19.82-.14-25.51c.14-3.13-.89-5.14-4.34-4.72-3.91.46-4.37 3.71-4.38 7.24q-.02 11.49-.08 22.99a1 1 0 0 1-1.01.99l-7.71-.05a1 .99 90 0 1-.99-1l-.05-48.46a1 1 0 0 1 1-1h7.8a1 1 0 0 1 1 1l.03 12.68q.01 1.68 1.31.61Zm-144.6 19.44q-.35 3.5.66 6.75c1.3 4.2 5.24 5.66 7.95 1.33q.45-.72 1.17-3.79a1 1 0 0 1 .97-.77h6.81a1 1 0 0 1 1 1.01q-.07 7.45-5.2 10.77-4.33 2.81-10.77 2.33c-12.78-.95-13.44-15.24-12.29-25.22.83-7.21 3.45-12.99 10.84-14.4 7.84-1.49 15.17.88 17.11 9.52q1.17 5.19.94 10.5a1 1 0 0 1-.99.96l-17.21.11a1 .99-87.1 0 0-.99.9Zm7.16-14.85q-2.41-2.84-5.13.67-2.12 2.73-2.01 6.23a1 .99 89.1 0 0 .99.97h7.72a1 1 0 0 0 1-1.01q-.06-3.9-2.57-6.86ZM177 174.01v11.82a1 .99-89.4 0 1-1.01 1l-7.99-.11a1.01 1 .6 0 1-.99-1l-.02-47.97a1.01 1 0 0 1 1.01-1h7.38a1 .99-3.6 0 1 .99.87l.24 1.87a.22.21-85.7 0 0 .14.17l.25.09a.37.24-61.4 0 0 .34-.19c2.91-4.66 9.84-4.89 13.91-2.14 7.61 5.14 7.75 31.46-.15 36.47q-6.18 3.92-12.51-.69-1.59-1.16-1.59.81Zm8.24-29.38c-11.01-6.18-9.21 19.03-5.97 22.09q1.97 1.86 4.15.83c5.22-2.49 3.31-17.76 2.31-22.26a.99.97 9 0 0-.49-.66Zm65.61 23.97q3.2 1.35 4.31-1.51l1.91-4.95a1.01 1-79.2 0 1 .93-.64h6.69a1 1 0 0 1 1 1.07q-.98 13.75-15.44 12.92c-13.78-.79-13.59-14.85-12.84-24.82q1.31-17.28 18.61-14.69 6.79 1.02 8.96 8.03 1.51 4.89 1.49 11.95a1 1 0 0 1-.99 1l-17.36.14a1 1 0 0 0-.98.86c-.46 3.38.15 9.13 3.71 10.64Zm3.35-25.52q-1.96-2.08-4.17-.04-3.13 2.87-2.96 7.17a1 .99-1.2 0 0 1.01.96l7.85-.11a1.01 1.01 0 0 0 .99-1q.02-4.07-2.72-6.98Zm27.05-4.06q0 2.41 1.44.48 3.04-4.05 8.36-3.76a1 1 0 0 1 .95 1v7.57a1.01 1 87.2 0 1-.9 1q-1.07.1-2.09.1c-6.87-.02-7.27 4.3-7.26 10.17q.01 9.08-.02 18.17a1 1 0 0 1-1 1h-7.76a1 1 0 0 1-1-1l.02-36a1 1 0 0 1 1-1h7.26a1 1 0 0 1 1 1v1.27Zm17.95-.15q.1-.12.22-.2c8.22-5.46 21.24-4.14 23.35 7.35q1.02 5.54.63 10.24a1 1 0 0 1-1 .92l-16.77-.02a1.01 1-85.3 0 0-.99.84q-.46 2.85.06 5.56c.73 3.75 4.2 7.69 7.74 3.28 1.07-1.33 1.14-2.92 1.55-4.58a1 1 0 0 1 .97-.76h7.18a1 1 0 0 1 .99 1.13q-2.07 16.02-19.15 12.33c-10.84-2.34-10.32-18.99-9-27.23q.74-4.57 4.22-8.86Zm14.37 7.87c-1.6-7.82-10.29-3.37-8.92 3.46a1 1 0 0 0 .98.8h7.23a1 1 0 0 0 1-.97q.05-1.65-.29-3.29Z"/><path fill="#664c93" d="M76.64 143.13q2.51 2.96 2.57 6.86a1 1 0 0 1-1 1.01h-7.72a1 .99 89.1 0 1-.99-.97q-.11-3.5 2.01-6.23 2.72-3.51 5.13-.67Zm177.56-.05q2.74 2.91 2.72 6.98a1.01 1.01 0 0 1-.99 1l-7.85.11a1 .99-1.2 0 1-1.01-.96q-.17-4.3 2.96-7.17 2.21-2.04 4.17.04Zm50.45 7.12c-1.37-6.83 7.32-11.28 8.92-3.46q.34 1.64.29 3.29a1 1 0 0 1-1 .97h-7.23a1 1 0 0 1-.98-.8Zm-192.07-5.14a.99.98 13.5 0 1 .37.6c.82 4.09 3.98 26.2-6.38 21.27a.97.95 88.8 0 1-.45-.44c-2.19-4.16-4.59-29.95 6.46-21.43Zm72.66-.43a.99.97 9 0 1 .49.66c1 4.5 2.91 19.77-2.31 22.26q-2.18 1.03-4.15-.83c-3.24-3.06-5.04-28.27 5.97-22.09Z"/><path fill="#fff" d="m0 201.11 326-.05V326H0V201.11Zm204.2 35.24q-2.28-1.61-1.08.66c2.56 4.86 17.6 3.39 14.8-5.71-1.38-4.48-5.92-4.51-9.48-5.97-8.84-3.63.41-12.87 7.5-6.74q.85.74 1.19 0a.5.5 0 0 0-.07-.54c-3.76-4.6-13.83-3.69-13.68 3.52.17 8.3 16.4 3.7 12.73 14.21a1.03 1 81.6 0 1-.33.46q-5.63 4.31-11.58.11ZM47.14 232.4l2.48 5.97a.99.95 1.2 0 0 .54.54q1.62.68.99-.9-4.34-10.78-8.7-21.57a1.05.96 7.1 0 0-.41-.48q-1.16-.7-1.69.63-4.38 10.94-8.94 21.84a.41.41 0 0 0 .37.57h.4a.99.98-77.9 0 0 .94-.61l2.53-6.04a1.01 1.01 0 0 1 .93-.62l9.64.05a1.02 1-10.5 0 1 .92.62Zm46.61-15.98a.42.42 0 0 0-.42-.42h-.66a.42.42 0 0 0-.42.42v22.16a.42.42 0 0 0 .42.42h.66a.42.42 0 0 0 .42-.42v-22.16Zm7.107 2.295a1.22.9-4 0 0-1.28-.813 1.22.9-4 0 0-1.154.983 1.22.9-4 0 0 1.28.813 1.22.9-4 0 0 1.154-.983Zm41.863 18.775a1.01.99 17.2 0 1-.45-.83l-.03-11.11a1.01 1 86.8 0 1 .89-1c1.25-.14 4.98.54 4.35-.97a.79.79 0 0 0-.73-.49l-3.51-.03a1 .99 90 0 1-.99-1v-3.17a.8.79-88.5 0 0-.75-.8c-2.46-.15 1.8 6.3-3.3 5.18q-1.25-.28-.53.78.55.83 1.79.48a1 1 0 0 1 1.27.95c.04 3.92-2.03 18.21 7.2 13.37a1 .99-19.8 0 0 .51-1.08l-.07-.34a.32.32 0 0 0-.53-.18q-2.39 2.04-5.12.24Zm10.999-18.75a1.25.81-2.3 0 0-1.281-.76 1.25.81-2.3 0 0-1.217.86 1.25.81-2.3 0 0 1.281.76 1.25.81-2.3 0 0 1.217-.86Zm-96.809 5.37q-.08-1.11-.95-.85a.65.63-8.7 0 0-.46.61v21.86a.64.63-85.8 0 0 .54.63q.84.13.74-1.12-.19-2.66.06-5.37a1 .99-76.8 0 1 1.35-.84q5.85 2.24 9.75-2.07c5.37-5.95.82-17.24-8.67-13.74q-.24.09-.41.29l-.82.97q-1.02 1.2-1.13-.37Zm18.14.09q-.05-.64-.67-.89a.64.63-78.7 0 0-.88.59v21.9a.41.41 0 0 0 .41.41h.29a.8.8 0 0 0 .8-.8v-5.42a1 1 0 0 1 1.36-.93q4.5 1.74 7.86-.51c5.6-3.76 5.33-15.44-2.69-16.09q-3.17-.26-5.62 2.07-.77.73-.86-.33Zm42.08 12.43c-6.82 5.79-14.25-3.71-9.25-10.35q3.3-4.39 9.44-.66 1.15.7.97-.64-.02-.12-.07-.26-.15-.45-.71-.77c-9.74-5.65-17.14 6.48-10.6 13.36 4.21 4.42 13.14.94 11.26-.67a.8.8 0 0 0-1.04-.01Zm153.91-13.32c-10.42 6.69-.45 22.58 9.68 14.47a.81.8-27.9 0 0 .27-.85l-.08-.28a.51.51 0 0 0-.75-.3q-8.11 4.76-11.48-2.95a1 1 0 0 1 .92-1.4h11.59a1 1 0 0 0 1-1.06c-.32-5.56-5.55-11.23-11.15-7.63Zm-138.74 5.8q-4.45-.36-5.32-.14c-5.79 1.46-7.35 9.63-.89 10.62q3.95.6 6.72-1.99 1.07-1 .86.44-.15 1 .85.98a.65.64-2.6 0 0 .63-.68c-.43-6.28 2.57-17.62-8.49-15.63q-2.3.42-3.47 1.76a.5.5 0 0 0 0 .68c.13.14 6.44-2.46 9.03-.2q1.39 1.22 1.15 3.28a1 .99-84.3 0 1-1.07.88Zm33.05 10.547a8.57 8.06 91.6 0 0 8.297-8.342 8.57 8.06 91.6 0 0-7.818-8.792 8.57 8.06 91.6 0 0-8.296 8.342 8.57 8.06 91.6 0 0 7.818 8.792ZM179 224.41v-.75a.41.41 0 0 0-.41-.41h-.33a.52.51-.6 0 0-.51.51v14.6a.64.64 0 0 0 .64.64h.34a.52.51 90 0 0 .51-.52c-.02-3.67-.99-12.35 3.31-13.95q7.04-2.62 7.44 4.97.31 5.85.06 8.95a.51.5 2.6 0 0 .51.55h.26a.64.64 0 0 0 .64-.61c.28-6.84 1.39-17.5-7.21-15.85q-2.2.42-4.17 2.33-1.08 1.06-1.08-.46Zm44.94 7.37 9.55.17q2.68.05 2.83-1.95.32-4.07-3.6-6.44c-5.07-3.07-10.77.72-11.41 6.09-.96 8.18 5.92 12.5 13.43 8.38.52-.29 1.03-1.07.41-1.54a.52.52 0 0 0-.61-.02q-2.49 1.75-4.29 1.82-6.25.26-7.31-5.33a1 .99 85.5 0 1 1-1.18Zm-123.683-8.361a.35.35 0 0 0-.35-.35l-.82.002a.35.35 0 0 0-.35.35l.026 15.22a.35.35 0 0 0 .35.35l.82-.002a.35.35 0 0 0 .35-.35l-.026-15.22Zm141.933 1.531q-.01-.27.03-.54c.09-.73-.04-1.26-.86-1.23a.64.64 0 0 0-.61.64v14.54a.64.64 0 0 0 .64.64h.34a.51.51 0 0 0 .51-.52c-.11-6.12-1.01-13.37 5.99-13.84a1.01.98-66.7 0 0 .6-.25c1.36-1.23-.32-1.48-1.15-1.33q-2.59.49-4.39 2.31-1.03 1.03-1.1-.42Zm16.67 11.01q-.69 1.98-1.49.03-2.41-5.9-4.88-11.77c-.27-.66-.98-1.84-1.71-.89a.63.62 52.1 0 0-.08.65l6.32 14.47a1.02.99 80.5 0 0 .81.6q.37.04.7-.11c.91-.41 5.9-12.94 6.7-14.78a1 1 0 0 0-.13-1.02q-.62-.79-1.13.31-2.93 6.31-5.11 12.51Zm29.24-11.68q-.07-.62-.55-1.02-1.05-.9-1.05.48V238a1 1 0 0 0 1 1h.32a.41.41 0 0 0 .41-.41c.04-4.87-1.79-13.69 5.88-14.01a1 .98 17 0 0 .75-.39q.9-1.17-1.15-1.27-1.78-.08-4.33 1.9-1.13.88-1.28-.54Zm-134.85-.77a.26.26 0 0 0-.26-.26h-.98a.26.26 0 0 0-.26.26v15.24a.26.26 0 0 0 .26.26h.98a.26.26 0 0 0 .26-.26v-15.24Z"/><path fill="#010101" d="M204.2 236.35q5.95 4.2 11.58-.11a1.03 1 81.6 0 0 .33-.46c3.67-10.51-12.56-5.91-12.73-14.21-.15-7.21 9.92-8.12 13.68-3.52a.5.5 0 0 1 .07.54q-.34.74-1.19 0c-7.09-6.13-16.34 3.11-7.5 6.74 3.56 1.46 8.1 1.49 9.48 5.97 2.8 9.1-12.24 10.57-14.8 5.71q-1.2-2.27 1.08-.66Zm-157.98-4.57-9.64-.05a1.01 1.01 0 0 0-.93.62l-2.53 6.04a.99.98-77.9 0 1-.94.61h-.4a.41.41 0 0 1-.37-.57q4.56-10.9 8.94-21.84.53-1.33 1.69-.63a1.05.96 7.1 0 1 .41.48q4.36 10.79 8.7 21.57.63 1.58-.99.9a.99.95 1.2 0 1-.54-.54l-2.48-5.97a1.02 1-10.5 0 0-.92-.62Zm-9.48-2.01a.35.35 0 0 0 .32.48h8.64a.35.35 0 0 0 .32-.48l-4.31-11.05a.35.35 0 0 0-.66 0l-4.31 11.05Z"/><rect width="1.5" height="23" x="92.25" y="216" fill="#2d2c2d" rx=".42"/><ellipse fill="#2d2c2d" rx="1.22" ry=".9" transform="rotate(-4 3182.626 -1317.258)"/><path fill="#010101" d="M142.72 237.49q2.73 1.8 5.12-.24a.32.32 0 0 1 .53.18l.07.34a1 .99-19.8 0 1-.51 1.08c-9.23 4.84-7.16-9.45-7.2-13.37a1 1 0 0 0-1.27-.95q-1.24.35-1.79-.48-.72-1.06.53-.78c5.1 1.12.84-5.33 3.3-5.18a.8.79-88.5 0 1 .75.8v3.17a1 .99-90 0 0 .99 1l3.51.03a.79.79 0 0 1 .73.49c.63 1.51-3.1.83-4.35.97a1.01 1 86.8 0 0-.89 1l.03 11.11a1.01.99 17.2 0 0 .45.83Z"/><ellipse fill="#010101" rx="1.25" ry=".81" transform="rotate(-2.3 5525.826 -3688.307)"/><path fill="#fff" d="m36.74 229.77 4.31-11.05a.35.35 0 0 1 .66 0l4.31 11.05a.35.35 0 0 1-.32.48h-8.64a.35.35 0 0 1-.32-.48Z"/><path fill="#1e1d1f" d="m58.04 224.48.82-.97q.17-.2.41-.29c9.49-3.5 14.04 7.79 8.67 13.74q-3.9 4.31-9.75 2.07a1 .99-76.8 0 0-1.35.84q-.25 2.71-.06 5.37.1 1.25-.74 1.12a.64.63-85.8 0 1-.54-.63v-21.86a.65.63-8.7 0 1 .46-.61q.87-.26.95.85.11 1.57 1.13.37Zm4.59-.59c-5.76-.4-6.43 8.08-5.67 12.36a1.02 1.02 0 0 0 .46.68c11.15 6.9 15.15-12.35 5.21-13.04Zm13.28.64q2.45-2.33 5.62-2.07c8.02.65 8.29 12.33 2.69 16.09q-3.36 2.25-7.86.51a1 1 0 0 0-1.36.93v5.42a.8.8 0 0 1-.8.8h-.29a.41.41 0 0 1-.41-.41v-21.9a.64.63-78.7 0 1 .88-.59q.62.25.67.89.09 1.06.86.33Zm5.52-.48c-6.96-1.11-6.61 7.99-6.36 12.13a1.02 1-78.5 0 0 .54.83c11.57 6 14.58-11.56 5.82-12.96Zm26.45 2.23c-5 6.64 2.43 16.14 9.25 10.35a.8.8 0 0 1 1.04.01c1.88 1.61-7.05 5.09-11.26.67-6.54-6.88.86-19.01 10.6-13.36q.56.32.71.77.05.14.07.26.18 1.34-.97.64-6.14-3.73-9.44.66Z"/><path fill="#2d2c2d" d="M271.04 223.31c5.6-3.6 10.83 2.07 11.15 7.63a1 1 0 0 1-1 1.06H269.6a1 1 0 0 0-.92 1.4q3.37 7.71 11.48 2.95a.51.51 0 0 1 .75.3l.08.28a.81.8-27.9 0 1-.27.85c-10.13 8.11-20.1-7.78-9.68-14.47Zm1.33.81q-2.84 1.91-3.5 4.92a1 1 0 0 0 .98 1.22l9.24-.03a1 1 0 0 0 .99-1.17q-.95-5.52-7.22-5.11a1.02.98 24.9 0 0-.49.17Z"/><path fill="#010101" d="M133.37 228.23q.24-2.06-1.15-3.28c-2.59-2.26-8.9.34-9.03.2a.5.5 0 0 1 0-.68q1.17-1.34 3.47-1.76c11.06-1.99 8.06 9.35 8.49 15.63a.65.64-2.6 0 1-.63.68q-1 .02-.85-.98.21-1.44-.86-.44-2.77 2.59-6.72 1.99c-6.46-.99-4.9-9.16.89-10.62q.87-.22 5.32.14a1 .99-84.3 0 0 1.07-.88Zm-7.4 9.91q7.58.83 7.58-6.47a1.01 1 4.7 0 0-.84-.99c-3.61-.57-8.69-.91-9.18 3.84q-.34 3.31 2.44 3.62Zm39.38 1.517a8.57 8.06 91.6 0 1-7.817-8.792 8.57 8.06 91.6 0 1 8.296-8.342 8.57 8.06 91.6 0 1 7.818 8.792 8.57 8.06 91.6 0 1-8.296 8.342Zm.626-1.336a7.23 6.57 87.1 0 0 6.196-7.553 7.23 6.57 87.1 0 0-6.928-6.889 7.23 6.57 87.1 0 0-6.196 7.553 7.23 6.57 87.1 0 0 6.928 6.889Z"/><path fill="#010101" d="M180.08 224.87q1.97-1.91 4.17-2.33c8.6-1.65 7.49 9.01 7.21 15.85a.64.64 0 0 1-.64.61h-.26a.51.5 2.6 0 1-.51-.55q.25-3.1-.06-8.95-.4-7.59-7.44-4.97c-4.3 1.6-3.33 10.28-3.31 13.95a.52.51-90 0 1-.51.52h-.34a.64.64 0 0 1-.64-.64v-14.6a.52.51-.6 0 1 .51-.51h.33a.41.41 0 0 1 .41.41v.75q0 1.52 1.08.46Zm42.86 8.09q1.06 5.59 7.31 5.33 1.8-.07 4.29-1.82a.52.52 0 0 1 .61.02c.62.47.11 1.25-.41 1.54-7.51 4.12-14.39-.2-13.43-8.38.64-5.37 6.34-9.16 11.41-6.09q3.92 2.37 3.6 6.44-.15 2-2.83 1.95l-9.55-.17a1 .99 85.5 0 0-1 1.18Zm6.89-8.82q-5.42-.99-6.7 4.89a1 .99-83.9 0 0 .97 1.21l9.39.03a1.01 1-1.4 0 0 1.01-1.05q-.1-1.85-1.16-3.18-1.16-1.47-3.51-1.9Z"/><rect width="1.52" height="15.92" x="-.76" y="-7.96" fill="#1e1d1f" rx=".35" transform="rotate(-.1 132420.16 -56899.5)"/><path fill="#1e1d1f" d="M243.29 225.37q1.8-1.82 4.39-2.31c.83-.15 2.51.1 1.15 1.33a1.01.98-66.7 0 1-.6.25c-7 .47-6.1 7.72-5.99 13.84a.51.51 0 0 1-.51.52h-.34a.64.64 0 0 1-.64-.64v-14.54a.64.64 0 0 1 .61-.64c.82-.03.95.5.86 1.23q-.04.27-.03.54.07 1.45 1.1.42Z"/><path fill="#2d2c2d" d="M258.86 235.96q2.18-6.2 5.11-12.51.51-1.1 1.13-.31a1 1 0 0 1 .13 1.02c-.8 1.84-5.79 14.37-6.7 14.78q-.33.15-.7.11a1.02.99 80.5 0 1-.81-.6l-6.32-14.47a.63.62 52.1 0 1 .08-.65c.73-.95 1.44.23 1.71.89q2.47 5.87 4.88 11.77.8 1.95 1.49-.03Zm30.52-11.14q2.55-1.98 4.33-1.9 2.05.1 1.15 1.27a1 .98 17 0 1-.75.39c-7.67.32-5.84 9.14-5.88 14.01a.41.41 0 0 1-.41.41h-.32a1 1 0 0 1-1-1v-14.26q0-1.38 1.05-.48.48.4.55 1.02.15 1.42 1.28.54Z"/><rect width="1.5" height="15.76" x="151.75" y="223.25" fill="#010101" rx=".26"/><ellipse fill="#fff" rx="7.23" ry="6.57" transform="rotate(87.1 -38.747 202.656)"/><path fill="#fff" d="M62.63 223.89c9.94.69 5.94 19.94-5.21 13.04a1.02 1.02 0 0 1-.46-.68c-.76-4.28-.09-12.76 5.67-12.36Zm18.8.16c8.76 1.4 5.75 18.96-5.82 12.96a1.02 1-78.5 0 1-.54-.83c-.25-4.14-.6-13.24 6.36-12.13Zm151.91 1.99q1.06 1.33 1.16 3.18a1.01 1-1.4 0 1-1.01 1.05l-9.39-.03a1 .99-83.9 0 1-.97-1.21q1.28-5.88 6.7-4.89 2.35.43 3.51 1.9Zm39.03-1.92a1.02.98 24.9 0 1 .49-.17q6.27-.41 7.22 5.11a1 1 0 0 1-.99 1.17l-9.24.03a1 1 0 0 1-.98-1.22q.66-3.01 3.5-4.92Zm-146.4 14.02q-2.78-.31-2.44-3.62c.49-4.75 5.57-4.41 9.18-3.84a1.01 1 4.7 0 1 .84.99q0 7.3-7.58 6.47Z"/></svg>